<svg width="585" height="596" viewBox="0 0 585 596" fill="none" xmlns="http://www.w3.org/2000/svg">
<g filter="url(#filter0_d)">
<path fill-rule="evenodd" clip-rule="evenodd" d="M584.458 292.229C584.458 439.123 476.075 560.703 334.915 581.363C326.195 582.639 318.618 575.692 318.618 566.88V455.03C318.618 447.741 323.886 441.585 330.938 439.739C396.398 422.608 444.696 363.059 444.696 292.229C444.696 278.968 443.003 266.103 439.822 253.837C438.013 246.863 440.73 239.35 446.969 235.748L544.08 179.681C551.751 175.252 561.602 178.39 564.803 186.649C577.496 219.396 584.458 254.999 584.458 292.229ZM0 292.229C0 438.767 107.859 560.114 248.518 581.211C257.252 582.521 264.863 575.568 264.863 566.736L264.863 454.773C264.863 447.52 259.646 441.385 252.641 439.506C187.629 422.075 139.762 362.742 139.762 292.229C139.762 278.949 141.46 266.065 144.65 253.783C146.462 246.808 143.746 239.292 137.504 235.688L40.3999 179.625C32.7299 175.197 22.8803 178.333 19.6776 186.591C6.97023 219.353 0 254.977 0 292.229ZM62.5334 111.55C57.0862 118.465 59.3227 128.48 66.9464 132.881L163.726 188.757C170.064 192.416 178.062 190.908 183.177 185.674C210.861 157.346 249.491 139.762 292.229 139.762C334.986 139.762 373.633 157.362 401.319 185.713C406.434 190.95 414.435 192.461 420.774 188.801L517.549 132.928C525.171 128.527 527.408 118.515 521.963 111.599C468.455 43.6385 385.438 0 292.229 0C199.042 0 116.043 43.6173 62.5334 111.55Z" fill="#9AC9F4"/>
</g>
<g filter="url(#filter1_d)">
<circle cx="290.797" cy="291.507" r="52.5" fill="#DBDDE1"/>
</g>
<defs>
<filter id="filter0_d" x="0" y="0" width="584.458" height="595.514" filterUnits="userSpaceOnUse" color-interpolation-filters="sRGB">
<feFlood flood-opacity="0" result="BackgroundImageFix"/>
<feColorMatrix in="SourceAlpha" type="matrix" values="0 0 0 0 0 0 0 0 0 0 0 0 0 0 0 0 0 0 127 0"/>
<feOffset dy="14"/>
<feColorMatrix type="matrix" values="0 0 0 0 0.152941 0 0 0 0 0.54902 0 0 0 0 0.913725 0 0 0 1 0"/>
<feBlend mode="normal" in2="BackgroundImageFix" result="effect1_dropShadow"/>
<feBlend mode="normal" in="SourceGraphic" in2="effect1_dropShadow" result="shape"/>
</filter>
<filter id="filter1_d" x="238.297" y="239.007" width="105" height="112" filterUnits="userSpaceOnUse" color-interpolation-filters="sRGB">
<feFlood flood-opacity="0" result="BackgroundImageFix"/>
<feColorMatrix in="SourceAlpha" type="matrix" values="0 0 0 0 0 0 0 0 0 0 0 0 0 0 0 0 0 0 127 0"/>
<feOffset dy="7"/>
<feColorMatrix type="matrix" values="0 0 0 0 0.666667 0 0 0 0 0.705882 0 0 0 0 0.772549 0 0 0 1 0"/>
<feBlend mode="normal" in2="BackgroundImageFix" result="effect1_dropShadow"/>
<feBlend mode="normal" in="SourceGraphic" in2="effect1_dropShadow" result="shape"/>
</filter>
</defs>
</svg>
