<svg width="24" height="25" viewBox="0 0 24 25" fill="none" xmlns="http://www.w3.org/2000/svg">
<path d="M23.4138 15.2909C23.1417 14.9447 22.7437 14.7202 22.3066 14.6665C21.8696 14.6129 21.4291 14.7344 21.0814 15.0045L16.3619 18.6754C16.1275 18.8577 15.8389 18.9562 15.542 18.9555L12.1695 18.9467C11.9491 18.9455 11.7382 18.8569 11.5831 18.7002C11.4281 18.5435 11.3416 18.3317 11.3427 18.1112C11.3439 17.8916 11.432 17.6813 11.5877 17.5264C11.7435 17.3715 11.9543 17.2846 12.174 17.2846L14.9997 17.2919C15.218 17.2948 15.4347 17.2547 15.6375 17.1739C15.8403 17.093 16.0251 16.973 16.1815 16.8206C16.3379 16.6683 16.4628 16.4867 16.549 16.2862C16.6352 16.0856 16.681 15.8701 16.6839 15.6518C16.6897 15.2109 16.5202 14.7858 16.2126 14.4699C15.9051 14.154 15.4846 13.9733 15.0437 13.9674H15.0083L8.53802 13.9505L8.10117 13.9489C7.20824 13.9468 6.34036 14.2438 5.63598 14.7926L3.32047 16.5969C3.28604 16.6238 3.25726 16.6571 3.23575 16.6952C3.21424 16.7332 3.20042 16.7751 3.1951 16.8185C3.18978 16.8619 3.19306 16.9059 3.20475 16.948C3.21643 16.9901 3.2363 17.0295 3.26321 17.0639L7.72705 22.7513C7.75768 22.7905 7.79672 22.8223 7.84128 22.8443C7.88585 22.8664 7.93482 22.8781 7.98453 22.8787L13.409 22.9437L14.9086 22.9617C15.8181 22.9726 16.7039 22.6724 17.4194 22.1109L23.131 17.6283C23.4782 17.3556 23.7029 16.9563 23.7559 16.5181C23.8089 16.0799 23.6859 15.6385 23.4138 15.2909Z" fill="#278CE9"/>
<path d="M1.95533 18.0897C1.9284 18.0554 1.89495 18.0266 1.85692 18.0052C1.8189 17.9838 1.77704 17.9701 1.73371 17.9649C1.69039 17.9597 1.64645 17.963 1.60443 17.9748C1.56241 17.9865 1.5231 18.0065 1.48878 18.0334L0.442737 18.8543C0.373455 18.9088 0.328608 18.9884 0.318064 19.0759C0.30752 19.1634 0.33214 19.2515 0.386502 19.3209L4.74387 24.8729C4.79835 24.9422 4.87811 24.9871 4.96563 24.9976C5.05315 25.0082 5.14127 24.9835 5.21066 24.9292L6.25672 24.108C6.29107 24.0811 6.31979 24.0477 6.34122 24.0096C6.36266 23.9716 6.37638 23.9298 6.38163 23.8865C6.38688 23.8431 6.38353 23.7992 6.37179 23.7572C6.36006 23.7151 6.34014 23.6758 6.31321 23.6415L1.95533 18.0897Z" fill="#9AC9F4"/>
<path d="M13.8334 6.26987C14.2451 6.27134 14.653 6.19167 15.0339 6.03546C15.4148 5.87924 15.7612 5.64954 16.0534 5.35943C16.3455 5.06932 16.5776 4.72452 16.7364 4.34469C16.8953 3.96486 16.9777 3.55745 16.9791 3.14575C16.9806 2.73405 16.9009 2.32607 16.7447 1.94516C16.5885 1.56424 16.3588 1.21783 16.0687 0.925713C15.7785 0.633594 15.4337 0.401529 15.0539 0.242693C14.6741 0.0838561 14.2667 0.00138428 13.855 1.91308e-05C13.4433 -0.00141922 13.0354 0.0782633 12.6545 0.234493C12.2736 0.390723 11.9272 0.620413 11.6351 0.910522C11.343 1.20063 11.111 1.54545 10.9521 1.92526C10.7933 2.30507 10.7109 2.71246 10.7095 3.12414C10.7065 3.95534 11.0338 4.75369 11.6194 5.3436C12.2049 5.93352 13.0009 6.2667 13.8321 6.26987H13.8334Z" fill="#278CE9"/>
<path d="M16.7228 8.24284L10.9296 8.22206C9.61986 8.21737 8.55427 9.35844 8.54907 10.7692L8.54646 11.5065C8.53877 11.7049 8.61002 11.8983 8.7446 12.0443C8.87917 12.1903 9.06611 12.277 9.26449 12.2855L18.3591 12.318C18.5575 12.311 18.7451 12.2256 18.8807 12.0806C19.0163 11.9356 19.0889 11.7428 19.0826 11.5443L19.0852 10.807C19.0901 9.39463 18.0334 8.24753 16.7228 8.24284Z" fill="#9AC9F4"/>
</svg>
