<svg width="19" height="19" viewBox="0 0 19 19" fill="none" xmlns="http://www.w3.org/2000/svg">
<g clip-path="url(#clip0)">
<path d="M17.1648 3.88267C14.1681 3.51118 11.2827 1.26831 10.0782 0.220463C9.91495 0.0782996 9.70577 -3.8147e-06 9.48929 -3.8147e-06C9.2728 -3.8147e-06 9.06362 0.0782996 8.90036 0.220463C7.69584 1.26831 4.81054 3.51139 1.81379 3.88267C1.58451 3.90833 1.37337 4.0196 1.22259 4.19422C1.07181 4.36884 0.992513 4.59395 1.00056 4.82452C1.37003 13.9361 7.36029 17.9341 9.04956 18.8842C9.1838 18.9601 9.3354 19 9.48961 19C9.64382 19 9.79539 18.9601 9.92963 18.8842C11.6183 17.9343 17.6086 13.9361 17.978 4.82452C17.9861 4.59395 17.9068 4.36884 17.756 4.19422C17.6052 4.0196 17.3941 3.90833 17.1648 3.88267V3.88267ZM9.48929 14.0193C8.59545 14.0193 7.72171 13.7542 6.97852 13.2576C6.23533 12.7611 5.65607 12.0552 5.31403 11.2294C4.97198 10.4036 4.88251 9.49496 5.0569 8.6183C5.23129 7.74164 5.66171 6.9364 6.29376 6.30437C6.92581 5.67235 7.7311 5.24195 8.60776 5.0676C9.48443 4.89324 10.3931 4.98277 11.2189 5.32485C12.0447 5.66693 12.7505 6.24621 13.247 6.98942C13.7436 7.73264 14.0086 8.60641 14.0085 9.50024C14.0084 10.6988 13.5322 11.8483 12.6847 12.6957C11.8371 13.5432 10.6877 14.0193 9.48909 14.0193H9.48929Z" fill="#8E9AAE"/>
<path d="M11.4843 7.21357L8.79037 9.90768L7.47804 8.59536L6.5459 9.52751L7.85823 10.8398L8.80472 11.7863L9.73686 10.8542L12.431 8.16026L11.4843 7.21357Z" fill="#8E9AAE"/>
</g>
<defs>
<clipPath id="clip0">
<rect width="19" height="19" fill="white"/>
</clipPath>
</defs>
</svg>
