<svg width="19" height="19" viewBox="0 0 19 19" fill="none" xmlns="http://www.w3.org/2000/svg">
<g clip-path="url(#clip0)">
<path d="M1.95804 9.78469C2.10633 9.93297 2.30745 10.0163 2.51716 10.0163C2.72686 10.0163 2.92798 9.93297 3.07627 9.78469V9.78469L4.19471 8.66629L5.31314 9.78469C5.38857 9.85613 5.47735 9.91201 5.57438 9.94915C5.67141 9.98628 5.7748 10.004 5.87866 10.0011C5.98251 9.9983 6.0848 9.97503 6.17967 9.93267C6.27453 9.89031 6.36013 9.82969 6.43157 9.75425C6.57069 9.60729 6.64821 9.41263 6.64821 9.21027C6.64821 9.00791 6.57069 8.81325 6.43157 8.66629L5.31314 7.54685L6.43157 6.42826C6.58388 6.28396 6.67264 6.08507 6.67835 5.87534C6.68406 5.6656 6.60624 5.46219 6.46201 5.30982C6.39057 5.23438 6.30499 5.17375 6.21012 5.13139C6.11525 5.08904 6.01297 5.06577 5.90911 5.06294C5.80525 5.06011 5.70185 5.07779 5.60482 5.11492C5.50779 5.15205 5.41902 5.20794 5.34359 5.27938C5.33312 5.2892 5.32296 5.29935 5.31314 5.30982L4.19471 6.42902L3.07627 5.30982C3.00483 5.23438 2.91925 5.17375 2.82438 5.13139C2.72951 5.08904 2.62723 5.06577 2.52337 5.06294C2.41951 5.06011 2.31611 5.07779 2.21908 5.11492C2.12205 5.15205 2.03329 5.20794 1.95785 5.27938C1.88241 5.35082 1.82177 5.4364 1.77942 5.53127C1.73706 5.62614 1.71381 5.72845 1.71099 5.8323C1.70816 5.93616 1.72581 6.03952 1.76294 6.13656C1.80008 6.23359 1.85596 6.32239 1.9274 6.39782C1.93722 6.40829 1.94738 6.41844 1.95785 6.42826L3.07627 7.54685L1.95785 8.66629C1.80956 8.81461 1.72624 9.01577 1.72624 9.22551C1.72624 9.43525 1.80956 9.63636 1.95785 9.78469H1.95804Z" fill="#8E9AAE"/>
<path d="M10.7319 10.1742C11.0021 9.90544 11.2164 9.58572 11.3623 9.23359C11.5082 8.88146 11.5829 8.50388 11.5819 8.12272V4.55085H9.9993V8.12253C9.99809 8.47207 9.85926 8.80709 9.61286 9.05503L5.25857 13.4093C4.57162 13.0535 3.77145 12.9852 3.03411 13.2193C2.29677 13.4534 1.68263 13.9709 1.3268 14.6579C0.971009 15.3448 0.902675 16.1449 1.13682 16.8822C1.37097 17.6195 1.88842 18.2336 2.57534 18.5894C3.26227 18.9452 4.0624 19.0135 4.79971 18.7794C5.53702 18.5452 6.15112 18.0278 6.50692 17.3409C6.7365 16.8977 6.84852 16.403 6.83226 15.9042C6.816 15.4053 6.672 14.9189 6.41404 14.4916L10.7319 10.1742ZM3.93266 17.3062C3.75951 17.3062 3.58805 17.2721 3.42808 17.2058C3.26811 17.1395 3.12275 17.0424 3.00031 16.92C2.87787 16.7975 2.78075 16.6522 2.71448 16.4922C2.64822 16.3322 2.61412 16.1608 2.61412 15.9876C2.61412 15.6379 2.75304 15.3025 3.00031 15.0553C3.24758 14.808 3.58296 14.6691 3.93266 14.6691C4.28236 14.6691 4.61773 14.808 4.865 15.0553C5.11228 15.3025 5.2512 15.6379 5.2512 15.9876C5.25074 16.3372 5.11167 16.6723 4.8645 16.9195C4.61732 17.1666 4.28222 17.3057 3.93266 17.3062V17.3062Z" fill="#8E9AAE"/>
<path d="M13.2292 16.515L14.3476 15.3964C14.491 15.2431 14.5676 15.0392 14.5606 14.8294C14.5535 14.6197 14.4635 14.4213 14.3102 14.278C14.1636 14.1408 13.9704 14.0645 13.7696 14.0645C13.5689 14.0645 13.3756 14.1408 13.229 14.278L12.1106 15.3964L10.9921 14.278C10.8398 14.1337 10.6364 14.0559 10.4266 14.0616C10.2169 14.0673 10.018 14.1561 9.87372 14.3084C9.7346 14.4554 9.65708 14.65 9.65708 14.8524C9.65708 15.0547 9.7346 15.2494 9.87372 15.3964L10.9921 16.515L9.87372 17.6342C9.79825 17.7056 9.7376 17.7912 9.69522 17.8861C9.65285 17.981 9.62958 18.0833 9.62676 18.1872C9.62393 18.2911 9.6416 18.3945 9.67875 18.4916C9.7159 18.5886 9.77181 18.6774 9.84328 18.7528C9.91471 18.8283 10.0003 18.8889 10.0952 18.9312C10.1901 18.9736 10.2923 18.9969 10.3962 18.9997C10.5 19.0025 10.6034 18.9849 10.7005 18.9477C10.7975 18.9106 10.8863 18.8547 10.9617 18.7833C10.9722 18.7734 10.9823 18.7633 10.9921 18.7528L12.1106 17.6336L13.229 18.7528C13.3823 18.8962 13.5862 18.9728 13.796 18.9658C14.0057 18.9587 14.2041 18.8687 14.3474 18.7154C14.4845 18.5688 14.5608 18.3755 14.5608 18.1748C14.5608 17.9741 14.4845 17.7808 14.3474 17.6342L13.2292 16.515Z" fill="#8E9AAE"/>
<path d="M11.2476 0.201382C11.1446 0.0836963 10.9991 0.0117248 10.8431 0.00132486C10.6871 -0.00907512 10.5333 0.0429698 10.4156 0.145947C10.3959 0.163174 10.3774 0.181679 10.3601 0.201382L8.56459 2.25403C8.46162 2.37172 8.40961 2.52551 8.42001 2.68155C8.43041 2.83759 8.50237 2.98308 8.62005 3.08607C8.72741 3.18001 8.8652 3.23181 9.00786 3.23187H12.5999C12.6773 3.2319 12.754 3.21667 12.8256 3.18704C12.8971 3.15742 12.9622 3.11398 13.0169 3.05923C13.0717 3.00447 13.1151 2.93948 13.1447 2.86793C13.1744 2.79637 13.1896 2.71965 13.1896 2.64221C13.1895 2.49956 13.1376 2.36179 13.0437 2.2544L11.2476 0.201382Z" fill="#8E9AAE"/>
<path d="M16.922 8.60148L18.0404 7.48285C18.1847 7.33048 18.2625 7.12706 18.2568 6.91733C18.2511 6.7076 18.1623 6.50875 18.01 6.36445C17.863 6.22534 17.6683 6.14778 17.466 6.14778C17.2636 6.14778 17.069 6.22534 16.922 6.36445L15.8036 7.48285L14.6851 6.36445C14.5318 6.22115 14.3279 6.14459 14.1182 6.15161C13.9084 6.15863 13.7101 6.24863 13.5667 6.40185C13.4296 6.54842 13.3533 6.74165 13.3533 6.94237C13.3533 7.14309 13.4296 7.33628 13.5667 7.48285L14.6851 8.60148L13.5667 9.71993C13.4134 9.86328 13.3234 10.0616 13.3164 10.2714C13.3093 10.4811 13.3859 10.6851 13.5293 10.8384C13.6726 10.9916 13.871 11.0817 14.0807 11.0887C14.2905 11.0957 14.4944 11.0191 14.6477 10.8758C14.6607 10.8637 14.6731 10.8514 14.6851 10.8384L15.8036 9.71993L16.922 10.8384C16.9974 10.9098 17.0862 10.9657 17.1832 11.0028C17.2803 11.04 17.3837 11.0576 17.4875 11.0548C17.5914 11.0519 17.6937 11.0287 17.7885 10.9864C17.8834 10.944 17.969 10.8834 18.0404 10.8079C18.1795 10.661 18.2571 10.4663 18.2571 10.2639C18.2571 10.0615 18.1795 9.86689 18.0404 9.71993L16.922 8.60148Z" fill="#8E9AAE"/>
</g>
<defs>
<clipPath id="clip0">
<rect width="19" height="19" fill="white"/>
</clipPath>
</defs>
</svg>
