<svg width="19" height="19" viewBox="0 0 19 19" fill="none" xmlns="http://www.w3.org/2000/svg">
<path d="M16.8887 19H12.6662C12.1064 18.9994 11.5697 18.7768 11.1739 18.381C10.7781 17.9851 10.5555 17.4485 10.5549 16.8887V12.6662C10.5555 12.1064 10.7781 11.5697 11.1739 11.1739C11.5697 10.7781 12.1064 10.5555 12.6662 10.5549H16.8887C17.4485 10.5555 17.9851 10.7781 18.381 11.1739C18.7768 11.5697 18.9994 12.1064 19 12.6662V16.8887C18.9994 17.4485 18.7768 17.9851 18.381 18.381C17.9851 18.7768 17.4485 18.9994 16.8887 19V19ZM12.6662 12.6662V16.8887H16.8895V12.6662H12.6662ZM6.33384 19H2.11052C1.55089 18.9992 1.01442 18.7765 0.618777 18.3807C0.22313 17.9849 0.000603122 17.4483 0 16.8887L0 12.6662C0.000603122 12.1065 0.22313 11.57 0.618777 11.1742C1.01442 10.7784 1.55089 10.5557 2.11052 10.5549H6.33384C6.8936 10.5555 7.43026 10.7781 7.82607 11.1739C8.22188 11.5697 8.44452 12.1064 8.44512 12.6662V16.8887C8.44452 17.4485 8.22188 17.9851 7.82607 18.381C7.43026 18.7768 6.8936 18.9994 6.33384 19V19ZM2.11052 12.6662V16.8887H6.3346V12.6662H2.11052ZM16.8887 8.44436H12.6662C12.1064 8.44376 11.5697 8.22113 11.1739 7.82531C10.7781 7.4295 10.5555 6.89284 10.5549 6.33308V2.11052C10.5557 1.55089 10.7784 1.01442 11.1742 0.618777C11.57 0.22313 12.1065 0.000603122 12.6662 0L16.8887 0C17.4483 0.000603122 17.9849 0.22313 18.3807 0.618777C18.7765 1.01442 18.9992 1.55089 19 2.11052V6.33384C18.9992 6.89347 18.7765 7.42994 18.3807 7.82558C17.9849 8.22123 17.4483 8.44376 16.8887 8.44436V8.44436ZM12.6662 2.11052V6.33384H16.8895V2.11052H12.6662ZM6.33384 8.44436H2.11052C1.55102 8.44356 1.01467 8.22094 0.619045 7.82531C0.22342 7.42969 0.000804166 6.89334 0 6.33384L0 2.11052C0.000804166 1.55102 0.22342 1.01467 0.619045 0.619045C1.01467 0.22342 1.55102 0.000804166 2.11052 0L6.33384 0C6.89347 0.000603122 7.43002 0.22313 7.82581 0.618777C8.22159 1.01442 8.44432 1.55089 8.44512 2.11052V6.33384C8.44432 6.89347 8.22159 7.42994 7.82581 7.82558C7.43002 8.22123 6.89347 8.44376 6.33384 8.44436ZM2.11052 2.11052V6.33384H6.3346V2.11052H2.11052Z" fill="#8E9AAE"/>
</svg>
