<svg width="19" height="19" viewBox="0 0 19 19" fill="none" xmlns="http://www.w3.org/2000/svg">
<g clip-path="url(#clip0)">
<path d="M11.5935 15.65H6.91115C6.70123 15.65 6.49991 15.7334 6.35147 15.8818C6.20303 16.0303 6.11963 16.2316 6.11963 16.4415V16.5553C6.11968 16.7652 6.2031 16.9665 6.35153 17.1149C6.49996 17.2633 6.70124 17.3467 6.91115 17.3468H7.6874V17.5387C7.6874 17.9263 7.84135 18.298 8.1154 18.572C8.38945 18.8461 8.76114 19 9.1487 19H9.35888C9.74642 19 10.1181 18.846 10.3921 18.572C10.6661 18.2979 10.8201 17.9263 10.8202 17.5387V17.3468H11.5935C11.8034 17.3467 12.0047 17.2633 12.1531 17.1149C12.3015 16.9665 12.3849 16.7652 12.385 16.5553V16.4415C12.3849 16.2316 12.3015 16.0303 12.1531 15.8819C12.0047 15.7335 11.8034 15.6501 11.5935 15.65V15.65Z" fill="#8E9AAE"/>
<path d="M8.52465 0.043888C5.89106 0.341324 3.35726 2.86236 3.0465 5.49458C2.93287 6.41925 3.02814 7.35764 3.32529 8.24061C3.62244 9.12358 4.11391 9.92864 4.76347 10.5965C5.48563 11.3439 5.8885 12.3431 5.88675 13.3824V13.3824C5.88662 13.5087 5.91137 13.6337 5.95959 13.7504C6.00782 13.867 6.07857 13.9731 6.1678 14.0624C6.25702 14.1517 6.36297 14.2226 6.4796 14.2709C6.59622 14.3193 6.72123 14.3441 6.84748 14.3441H11.6557C11.7819 14.3441 11.9069 14.3193 12.0235 14.2709C12.1402 14.2226 12.2461 14.1517 12.3354 14.0624C12.4246 13.9731 12.4953 13.867 12.5436 13.7504C12.5918 13.6337 12.6165 13.5087 12.6164 13.3824C12.6082 12.3524 13.0035 11.3601 13.7177 10.6178C14.622 9.6944 15.2175 8.51324 15.4224 7.23713C15.6272 5.96102 15.4312 4.65279 14.8613 3.49275C14.2915 2.33271 13.3759 1.37796 12.2407 0.760093C11.1055 0.142222 9.80664 -0.108345 8.52308 0.0429067L8.52465 0.043888ZM8.64347 11.937C8.64347 12.0985 8.57931 12.2534 8.4651 12.3676C8.3509 12.4818 8.19599 12.546 8.03448 12.546C7.87297 12.546 7.71806 12.4818 7.60386 12.3676C7.48965 12.2534 7.42549 12.0985 7.42549 11.937V9.30224C7.42512 8.90404 7.26681 8.52224 6.98528 8.24064C6.70375 7.95903 6.322 7.80062 5.9238 7.80015C5.76231 7.80015 5.60744 7.73601 5.49325 7.62182C5.37906 7.50763 5.31491 7.35276 5.31491 7.19127C5.31491 7.02978 5.37906 6.87491 5.49325 6.76072C5.60744 6.64653 5.76231 6.58238 5.9238 6.58238C6.64483 6.58332 7.33606 6.87018 7.84587 7.38006C8.35568 7.88994 8.64244 8.58121 8.64327 9.30224L8.64347 11.937ZM12.5807 7.79996C12.1825 7.80043 11.8007 7.95885 11.5192 8.24044C11.2376 8.52204 11.0792 8.90383 11.0788 9.30204V11.9368C11.0788 12.0983 11.0147 12.2532 10.9005 12.3674C10.7863 12.4815 10.6314 12.5457 10.4699 12.5457C10.3085 12.5457 10.1536 12.4815 10.0394 12.3674C9.92521 12.2532 9.86105 12.0983 9.86105 11.9368V9.30204C9.86188 8.58101 10.1487 7.88975 10.6585 7.37987C11.1683 6.86999 11.8595 6.5831 12.5805 6.58217C12.742 6.58217 12.8969 6.64634 13.0111 6.76053C13.1253 6.87471 13.1894 7.02959 13.1894 7.19108C13.1894 7.35256 13.1253 7.50744 13.0111 7.62163C12.8969 7.73582 12.742 7.79996 12.5805 7.79996H12.5807Z" fill="#8E9AAE"/>
</g>
<defs>
<clipPath id="clip0">
<rect width="19" height="19" fill="white"/>
</clipPath>
</defs>
</svg>
