<svg width="19" height="19" viewBox="0 0 19 19" fill="none" xmlns="http://www.w3.org/2000/svg">
<g clip-path="url(#clip0)">
<path d="M2 18.9965C2.36934 18.6267 2.78625 18.4234 3.13899 18.1335C3.24169 18.0644 3.33439 17.9815 3.41448 17.8871C3.62217 17.5833 3.83656 17.346 4.26756 17.4375C4.43553 17.4733 4.58988 17.3199 4.69541 17.1699C4.8129 17.0162 4.92126 16.8557 5.01991 16.6893C5.12978 16.4852 5.25942 16.4931 5.41514 16.6162C5.49279 16.6752 5.56285 16.7437 5.62366 16.8199C5.86653 17.1385 6.17516 17.1547 6.52296 17.0373C7.06404 16.8553 7.46064 16.4589 7.89836 16.1228C8.10052 15.9674 8.30589 15.8159 8.50983 15.6629C8.6114 15.5868 8.70291 15.6262 8.80172 15.6779C9.11352 15.8453 9.38525 16.0783 9.59826 16.3609C9.74687 16.5526 9.87496 16.5759 10.07 16.4103C10.3205 16.2289 10.5349 16.0023 10.7023 15.7422C10.777 15.6058 10.8567 15.6048 10.9791 15.6706C11.1052 15.7363 11.215 15.8296 11.3002 15.9435C11.6741 16.4605 12.2122 16.6719 12.8112 16.7518C13.7459 16.8763 14.6185 17.2334 15.5267 17.4553C15.5695 17.4671 15.6087 17.4896 15.6406 17.5205C16.3004 18.1172 17.0907 18.5513 17.9483 18.788C17.955 18.79 17.959 18.8018 17.9701 18.8173C17.4751 18.8894 16.975 18.9199 16.475 18.9083C13.173 19.0419 9.86943 18.9904 6.56629 18.989C5.1069 18.989 3.64745 18.9935 2.18826 18.9961L2 18.9965Z" fill="#8E9AAE"/>
<path d="M11.7673 14.5508C11.7349 14.6892 11.8704 14.8978 11.7596 14.982C11.6546 15.0611 11.4632 14.9376 11.3112 14.903C10.0001 14.6045 8.63601 14.6294 7.33668 14.9755C7.12424 15.0304 7.08797 15.0122 7.10655 14.7812C7.18256 13.8302 7.24183 12.8779 7.28438 11.9245C7.29367 11.7119 7.35806 11.6038 7.5535 11.5471C8.44348 11.3184 9.3682 11.2572 10.2806 11.3666C10.6562 11.3991 11.0272 11.4719 11.3872 11.584C11.4477 11.5925 11.503 11.6229 11.5425 11.6694C11.582 11.716 11.603 11.7753 11.6016 11.8364C11.6536 12.7355 11.7114 13.6351 11.7673 14.5508Z" fill="#8E9AAE"/>
<path d="M9.37771 6.80635C9.92354 6.81067 10.4665 6.88477 10.9936 7.02688C11.0766 7.0504 11.1732 7.05553 11.1811 7.19702C11.2264 7.99005 11.2817 8.78249 11.3392 9.57473C11.3524 9.76305 11.3392 9.8184 11.1068 9.7605C10.018 9.48495 8.87712 9.48861 7.79003 9.77116C7.56198 9.83045 7.54423 9.77116 7.55826 9.57967C7.61649 8.78723 7.66915 7.99448 7.71631 7.20139C7.72421 7.06701 7.80683 7.05317 7.89714 7.02353C8.37791 6.88155 8.87641 6.80843 9.37771 6.80635Z" fill="#8E9AAE"/>
<path d="M7.98901 1.71367C7.98004 1.95256 7.98395 2.19175 8.00068 2.43022C8.02934 2.67111 7.90883 2.73476 7.71082 2.76717C6.44252 2.97546 5.17601 3.19242 3.90672 3.3936C3.69863 3.4264 3.49008 3.45289 3.28377 3.49735C3.18496 3.51849 3.1235 3.52284 3.12745 3.35526C3.16939 2.53393 3.16348 1.71085 3.1097 0.890208C3.09863 0.771638 3.13147 0.75483 3.23996 0.775382C3.98181 0.915492 4.72386 1.05463 5.46729 1.18545C6.29194 1.3307 7.11812 1.46665 7.94375 1.60656C7.91727 1.66032 7.88585 1.71486 7.98901 1.71367Z" fill="#8E9AAE"/>
<path d="M10.8359 1.64966C11.5115 1.52536 12.1866 1.39868 12.8629 1.27735C13.4162 1.17854 13.9711 1.07975 14.5264 0.990429C14.7776 0.949523 15.0293 0.91532 15.2799 0.865521C15.5368 0.814536 15.6425 0.912951 15.6446 1.17934C15.6502 1.87099 15.6426 2.56265 15.6494 3.25293C15.6511 3.42426 15.5874 3.47031 15.4275 3.44521C14.5604 3.3049 13.6885 3.18831 12.8269 3.02429C12.2042 2.90572 11.5736 2.84346 10.9511 2.72627C10.7732 2.69288 10.7347 2.61996 10.7397 2.46444C10.748 2.19885 10.7452 1.93304 10.747 1.66725L10.8359 1.64966Z" fill="#8E9AAE"/>
<path d="M10.9849 6.07363C10.4694 5.9315 9.93724 5.85841 9.40251 5.85626C8.95346 5.86325 8.50697 5.9255 8.07314 6.04162C7.88679 6.09043 7.90496 6.01513 7.91306 5.89399C7.95574 5.25964 8.00299 4.62531 8.03165 3.99037C8.028 3.94341 8.0427 3.89684 8.07256 3.86042C8.10243 3.824 8.14516 3.80054 8.19192 3.79493C9.0115 3.57443 9.87535 3.57851 10.6928 3.80677C10.7746 3.8291 10.8556 3.85143 10.862 3.97356C10.8975 4.66659 10.9416 5.36004 10.9849 6.07363Z" fill="#8E9AAE"/>
<path d="M10.8358 1.64964L10.7468 1.66684C10.3095 1.48076 9.83799 1.38876 9.36281 1.39683C8.88763 1.4049 8.4195 1.51284 7.98877 1.71366C7.88581 1.71485 7.91703 1.65972 7.9437 1.60636C8.35119 1.22773 8.67685 0.776379 9.05153 0.368105C9.14085 0.270681 9.23236 0.175232 9.31456 0.0716818C9.38669 -0.0188262 9.44339 -0.0271262 9.52106 0.0665436C9.95766 0.595758 10.3959 1.12345 10.8358 1.64964Z" fill="#8E9AAE"/>
<path d="M7.40361 3.69377C7.31745 3.45663 7.44319 3.28964 7.66056 3.15684C8.10313 2.91634 8.59719 2.78611 9.1008 2.77722C9.73366 2.71426 10.3727 2.78227 10.9782 2.977C11.1719 3.03391 11.3518 3.13042 11.5063 3.2604C11.6382 3.38075 11.7147 3.52244 11.6249 3.6825C10.973 3.34241 10.2482 3.16576 9.51292 3.16772C8.77761 3.16968 8.05372 3.35021 7.40361 3.69377V3.69377Z" fill="#8E9AAE"/>
<path d="M9.79887 10.4062V10.5643C9.79887 10.9654 9.79884 10.9481 9.40499 10.9716C9.15461 10.9866 9.04932 10.9241 9.09477 10.6635C9.10395 10.567 9.10491 10.47 9.09757 10.3734C9.09757 9.87657 9.19915 9.80031 9.70228 9.88983C9.81038 9.90959 9.79828 9.96729 9.79887 10.0361C9.79946 10.1596 9.79887 10.2829 9.79887 10.4062Z" fill="#8E9AAE"/>
</g>
<defs>
<clipPath id="clip0">
<rect width="19" height="19" fill="white"/>
</clipPath>
</defs>
</svg>
