<svg width="19" height="19" viewBox="0 0 19 19" fill="none" xmlns="http://www.w3.org/2000/svg">
<g clip-path="url(#clip0)">
<path d="M17.5331 8.806C17.2615 9.13633 16.9257 9.40817 16.5461 9.60514C16.1665 9.8021 15.751 9.92011 15.3245 9.952C15.3126 9.9908 15.2998 10.0289 15.2864 10.0671C15.7634 10.3276 16.181 10.6845 16.5125 11.1152C16.8441 11.5459 17.0823 12.0409 17.2121 12.5687H18.4422C18.5904 12.5687 18.7324 12.5098 18.8372 12.405C18.942 12.3002 19.0009 12.1581 19.001 12.0099V12.0099V11.2649C19.0007 10.7608 18.8641 10.2661 18.6057 9.83327C18.3473 9.40042 17.9767 9.04547 17.5331 8.806V8.806Z" fill="#8E9AAE"/>
<path d="M15.4534 8.81054C15.8026 8.74744 16.1294 8.59472 16.4018 8.36737C16.6742 8.14002 16.8829 7.84581 17.0075 7.51356C17.132 7.18131 17.1682 6.82241 17.1123 6.472C17.0565 6.12159 16.9106 5.79169 16.689 5.5146C16.4673 5.23752 16.1775 5.02275 15.8479 4.89132C15.5183 4.75989 15.1602 4.7163 14.8087 4.76484C14.4572 4.81338 14.1244 4.95238 13.8428 5.16822C13.5612 5.38406 13.3404 5.66936 13.2021 5.99615C13.8186 6.18155 14.364 6.55004 14.7661 7.05271C15.1682 7.55538 15.4079 8.16845 15.4534 8.81054V8.81054Z" fill="#8E9AAE"/>
<path d="M3.7148 10.0675C3.70158 10.0294 3.68857 9.99122 3.67665 9.95242C3.25015 9.92058 2.83455 9.80259 2.45494 9.60558C2.07534 9.40857 1.73963 9.13664 1.4681 8.80621C1.02442 9.04567 0.653752 9.40064 0.39531 9.83354C0.136868 10.2664 0.000277011 10.7612 0 11.2653V12.0105C0 12.1587 0.0588843 12.3009 0.16368 12.4057C0.268477 12.5105 0.410574 12.5693 0.558779 12.5693H1.78911C1.9188 12.0415 2.157 11.5465 2.48855 11.1158C2.82009 10.6851 3.23772 10.3281 3.7148 10.0677V10.0675Z" fill="#8E9AAE"/>
<path d="M3.54854 8.81055C3.59398 8.16844 3.83366 7.55532 4.23576 7.05264C4.63786 6.54996 5.18334 6.1815 5.7998 5.99615C5.66159 5.66927 5.44087 5.38388 5.15921 5.16796C4.87755 4.95203 4.54461 4.81295 4.19305 4.76437C3.84149 4.71578 3.48338 4.75935 3.15371 4.89079C2.82405 5.02223 2.53419 5.23704 2.3125 5.51418C2.09081 5.79133 1.94487 6.12131 1.88904 6.47179C1.83321 6.82227 1.86937 7.18124 1.99398 7.51354C2.11859 7.84585 2.3274 8.14009 2.59991 8.36745C2.87242 8.59481 3.19929 8.7475 3.54854 8.81055Z" fill="#8E9AAE"/>
<path d="M11.9447 13.2769C11.6481 13.638 11.2751 13.929 10.8525 14.1287C10.4299 14.3285 9.96838 14.4321 9.50099 14.4321C9.03359 14.4321 8.57197 14.3285 8.14942 14.1287C7.72686 13.929 7.35385 13.638 7.05721 13.2769C6.61353 13.5163 6.24286 13.8713 5.98442 14.3042C5.72598 14.7371 5.58939 15.2318 5.58911 15.736V16.4812C5.58911 16.6294 5.648 16.7715 5.75279 16.8763C5.85759 16.9811 5.99974 17.04 6.14794 17.04H12.854C13.0022 17.0399 13.1443 16.9811 13.2491 16.8763C13.3539 16.7715 13.4127 16.6294 13.4128 16.4812V16.4812V15.7362C13.4126 15.232 13.276 14.7372 13.0175 14.3043C12.7591 13.8713 12.3884 13.5163 11.9447 13.2769V13.2769Z" fill="#8E9AAE"/>
<path d="M14.7389 11.0414C14.4672 11.3718 14.1314 11.6437 13.7517 11.8407C13.372 12.0377 12.9563 12.1556 12.5297 12.1874C12.5178 12.226 12.5054 12.2646 12.4922 12.3025C12.9692 12.563 13.3868 12.9199 13.7183 13.3506C14.0499 13.7813 14.2881 14.2763 14.4179 14.8041H15.6482C15.7964 14.8041 15.9385 14.7452 16.0433 14.6404C16.1481 14.5356 16.207 14.3935 16.207 14.2453V14.2453V13.5003C16.2067 12.9962 16.0701 12.5015 15.8117 12.0687C15.5532 11.6358 15.1825 11.2809 14.7389 11.0414V11.0414Z" fill="#8E9AAE"/>
<path d="M12.6592 11.046C13.0084 10.9829 13.3352 10.8302 13.6076 10.6028C13.8801 10.3755 14.0888 10.0812 14.2133 9.749C14.3379 9.41675 14.374 9.05784 14.3181 8.70743C14.2623 8.35702 14.1164 8.02712 13.8948 7.75004C13.6731 7.47295 13.3834 7.25818 13.0538 7.12675C12.7242 6.99532 12.3661 6.95173 12.0146 7.00027C11.6631 7.04881 11.3302 7.18781 11.0486 7.40365C10.767 7.61949 10.5462 7.90479 10.408 8.23158C11.0244 8.41698 11.5699 8.78548 11.9719 9.28815C12.374 9.79082 12.6137 10.4039 12.6592 11.046V11.046Z" fill="#8E9AAE"/>
<path d="M6.51094 12.3027C6.4975 12.2646 6.48518 12.2262 6.47348 12.1876C6.04687 12.1559 5.63113 12.038 5.2514 11.8409C4.87168 11.6439 4.53583 11.3719 4.26424 11.0414C3.82056 11.2809 3.44989 11.6359 3.19145 12.0688C2.93301 12.5017 2.79642 12.9964 2.79614 13.5006V14.2458C2.79614 14.394 2.85503 14.5361 2.95982 14.6409C3.06462 14.7457 3.20677 14.8046 3.35497 14.8046H4.5853C4.71499 14.2767 4.95315 13.7816 5.28469 13.3509C5.61623 12.9202 6.03385 12.5632 6.51094 12.3027V12.3027Z" fill="#8E9AAE"/>
<path d="M6.70618 6.98088C6.19435 6.98073 5.70101 7.17217 5.32323 7.51751C4.94546 7.86285 4.71058 8.33708 4.66491 8.84688C4.61924 9.35667 4.76609 9.86509 5.07647 10.2721C5.38685 10.6791 5.83833 10.9552 6.34204 11.046C6.38748 10.4039 6.6271 9.79075 7.0292 9.28807C7.4313 8.78539 7.97684 8.41693 8.5933 8.23158C8.43607 7.86101 8.1733 7.54486 7.83776 7.32247C7.50222 7.10009 7.10872 6.9813 6.70618 6.98088V6.98088Z" fill="#8E9AAE"/>
<path d="M9.53799 13.3549C10.6154 13.3549 11.4888 12.433 11.4888 11.2957C11.4888 10.1584 10.6154 9.23647 9.53799 9.23647C8.46057 9.23647 7.58716 10.1584 7.58716 11.2957C7.58716 12.433 8.46057 13.3549 9.53799 13.3549Z" fill="#8E9AAE"/>
<path d="M12.5425 4.46581L9.93743 1.20924C9.8447 1.09367 9.70988 1.01961 9.5626 1.00335C9.41532 0.987098 9.2676 1.02996 9.15189 1.12253C9.11993 1.14821 9.09088 1.17728 9.06521 1.20924L6.4604 4.46517C6.41333 4.52407 6.38385 4.59506 6.37536 4.66997C6.36686 4.74489 6.37967 4.82069 6.41235 4.88864C6.44503 4.95658 6.49627 5.01391 6.5601 5.05404C6.62393 5.09416 6.69776 5.11545 6.77315 5.11545V5.11545H7.73211V6.03321C7.79978 6.45382 8.01508 6.83654 8.33936 7.11282C8.66365 7.3891 9.07573 7.54084 9.50174 7.54084C9.92776 7.54084 10.3398 7.3891 10.6641 7.11282C10.9884 6.83654 11.2037 6.45382 11.2714 6.03321V5.11545H12.2303C12.3057 5.11545 12.3796 5.09416 12.4434 5.05404C12.5072 5.01391 12.5584 4.95658 12.5911 4.88864C12.6238 4.82069 12.6366 4.74489 12.6281 4.66997C12.6196 4.59506 12.5902 4.52407 12.5431 4.46517L12.5425 4.46581Z" fill="#8E9AAE"/>
</g>
<defs>
<clipPath id="clip0">
<rect width="19" height="19" fill="white"/>
</clipPath>
</defs>
</svg>
