<svg width="19" height="19" viewBox="0 0 19 19" fill="none" xmlns="http://www.w3.org/2000/svg">
<g clip-path="url(#clip0)">
<path d="M11.6718 7.95345C11.654 8.48603 11.4799 9.00161 11.1711 9.43586C10.8622 9.87012 10.4324 10.2039 9.93518 10.3954C9.43793 10.587 8.89524 10.6279 8.37488 10.5131C7.85452 10.3983 7.3795 10.1328 7.00903 9.7498C6.63856 9.36678 6.38907 8.88316 6.29165 8.35926C6.19423 7.83537 6.25317 7.29439 6.46119 6.80379C6.66921 6.3132 7.01708 5.8947 7.46138 5.6005C7.90568 5.30631 8.42676 5.14943 8.95964 5.14944C9.08131 5.15048 9.20278 5.15994 9.32314 5.17777L10.8758 3.62513C10.2755 3.34589 9.62164 3.20085 8.95964 3.20011C8.0155 3.1816 7.08722 3.44466 6.29317 3.95576C5.49911 4.46685 4.87528 5.20283 4.50113 6.06986C4.12697 6.9369 4.01949 7.89571 4.19237 8.82407C4.36525 9.75243 4.81064 10.6083 5.47181 11.2825C6.13298 11.9567 6.97996 12.4188 7.90475 12.6098C8.82955 12.8008 9.79032 12.7121 10.6645 12.355C11.5387 11.9979 12.2867 11.3885 12.8132 10.6046C13.3398 9.82071 13.6209 8.89777 13.6209 7.95345C13.6213 7.31054 13.4929 6.67406 13.2433 6.0816L11.6574 7.66745C11.6676 7.76198 11.6718 7.85738 11.6718 7.95345ZM13.8314 14.2338C15.1338 13.2319 16.092 11.8494 16.573 10.2782C17.054 8.70701 17.0339 7.02506 16.5157 5.46577L16.0822 5.89854C15.9266 6.05488 15.7415 6.17883 15.5376 6.26322C15.3338 6.3476 15.1152 6.39076 14.8946 6.39019C14.8468 6.39019 14.8001 6.38088 14.7529 6.37712C15.1018 7.66461 15.012 9.03162 14.4976 10.2624C13.9833 11.4931 13.0737 12.5176 11.9124 13.1739C10.7512 13.8303 9.40439 14.0813 8.08467 13.8873C6.76494 13.6932 5.54744 13.0652 4.62429 12.1023C3.70114 11.1395 3.12491 9.89656 2.9866 8.56984C2.84829 7.24311 3.15574 5.9081 3.86043 4.77552C4.56513 3.64295 5.62698 2.7773 6.8783 2.31522C8.12962 1.85313 9.49915 1.82092 10.7708 2.22367C10.7792 1.7921 10.9536 1.38036 11.2579 1.07413L11.8033 0.528694C9.98354 -0.170237 7.97047 -0.176418 6.14649 0.511326C4.32251 1.19907 2.81469 2.53283 1.90945 4.25922C1.00421 5.98562 0.764638 7.98437 1.23623 9.8758C1.70781 11.7672 2.85774 13.4196 4.46751 14.5189L3.1577 18.012C3.12401 18.1019 3.10833 18.1975 3.1116 18.2935C3.11487 18.3894 3.13699 18.4838 3.17673 18.5711C3.21646 18.6585 3.27303 18.7372 3.34318 18.8027C3.41333 18.8683 3.49568 18.9193 3.58557 18.953C3.67545 18.9867 3.77109 19.0024 3.86703 18.9991C3.96296 18.9958 4.05732 18.9737 4.14471 18.934C4.23209 18.8942 4.31081 18.8377 4.37634 18.7675C4.44186 18.6974 4.49294 18.615 4.52663 18.5251L5.76137 15.2363C6.61947 15.613 7.53778 15.8338 8.4733 15.8885V18.269C8.4733 18.4627 8.55026 18.6486 8.68726 18.7856C8.82425 18.9225 9.01007 18.9995 9.20381 18.9995C9.39755 18.9995 9.58336 18.9225 9.72036 18.7856C9.85735 18.6486 9.93432 18.4627 9.93432 18.269V15.8477C10.854 15.7344 11.7465 15.4602 12.5712 15.0378L13.8793 18.5256C13.9129 18.6155 13.964 18.6978 14.0295 18.768C14.095 18.8381 14.1737 18.8947 14.2611 18.9344C14.3485 18.9741 14.4429 18.9963 14.5388 18.9995C14.6347 19.0028 14.7304 18.9872 14.8203 18.9535C14.9101 18.9198 14.9925 18.8687 15.0627 18.8032C15.1328 18.7377 15.1894 18.659 15.2291 18.5716C15.2688 18.4842 15.291 18.3898 15.2942 18.2939C15.2975 18.198 15.2818 18.1023 15.2481 18.0124L13.8314 14.2338Z" fill="#8E9AAE"/>
<path d="M16.76 2.58206L15.374 2.04901C15.3136 2.02579 15.2587 1.99014 15.213 1.94439C15.1672 1.89863 15.1316 1.84378 15.1083 1.78338L14.5758 0.397419C14.5424 0.310085 14.4831 0.235002 14.406 0.182169C14.3288 0.129336 14.2374 0.10126 14.1439 0.101678C14.0834 0.10156 14.0236 0.113479 13.9678 0.136739C13.912 0.159998 13.8614 0.194132 13.8189 0.237152L12.1206 1.93545C12.0575 1.9985 12.014 2.07851 11.9955 2.16578C11.9769 2.25306 11.9841 2.34384 12.0161 2.42711L12.463 3.58882L9.54706 6.50706C9.21169 6.37029 8.83931 6.35375 8.49315 6.46025C8.14698 6.56675 7.84834 6.78973 7.64785 7.09136C7.44736 7.39298 7.35737 7.75468 7.39319 8.11509C7.42901 8.47549 7.58841 8.8124 7.84435 9.06867C8.10028 9.32493 8.437 9.48477 8.79736 9.52105C9.15772 9.55733 9.5195 9.46783 9.82138 9.26772C10.1233 9.06762 10.3466 8.76924 10.4536 8.42321C10.5605 8.07718 10.5445 7.70481 10.4081 7.36927L13.2168 4.56016L14.7307 5.14257C14.814 5.17458 14.9048 5.18176 14.9921 5.16326C15.0794 5.14476 15.1594 5.10136 15.2226 5.03831L16.9209 3.34001C16.9755 3.28565 17.0156 3.21848 17.0376 3.14463C17.0596 3.07078 17.0627 2.99261 17.0467 2.91724C17.0307 2.84187 16.9961 2.7717 16.946 2.71315C16.8959 2.6546 16.832 2.60954 16.76 2.58206V2.58206Z" fill="#8E9AAE"/>
</g>
<defs>
<clipPath id="clip0">
<rect width="19" height="19" fill="white"/>
</clipPath>
</defs>
</svg>
