<svg width="19" height="19" viewBox="0 0 19 19" fill="none" xmlns="http://www.w3.org/2000/svg">
<g clip-path="url(#clip0)">
<path d="M5.98828 7.46695C5.72209 7.20679 5.48579 6.91771 5.28376 6.6051L4.43316 7.29613C4.09705 7.09094 3.69921 7.01116 3.30997 7.07091C2.92073 7.13066 2.56515 7.32607 2.30605 7.62263C2.04695 7.91919 1.90102 8.2978 1.89406 8.69154C1.8871 9.08528 2.01954 9.4688 2.26799 9.77433C2.51644 10.0799 2.8649 10.2877 3.25178 10.3612C3.63867 10.4347 4.03907 10.369 4.38223 10.1759C4.7254 9.98267 4.98923 9.67441 5.12709 9.30553C5.26496 8.93665 5.26799 8.53092 5.13565 8.16002L5.98828 7.46695Z" fill="#8E9AAE"/>
<path d="M7.13419 6.99021V4.66653C7.13128 4.35401 7.19033 4.04402 7.30792 3.75444C7.4255 3.46487 7.59929 3.20146 7.81926 2.97944C8.03922 2.75742 8.301 2.58119 8.58947 2.46092C8.87794 2.34064 9.18737 2.27871 9.49991 2.27871C9.81244 2.27871 10.1219 2.34064 10.4103 2.46092C10.6988 2.58119 10.9606 2.75742 11.1806 2.97944C11.4005 3.20146 11.5743 3.46487 11.6919 3.75444C11.8095 4.04402 11.8685 4.35401 11.8656 4.66653V6.38715C11.9117 6.38449 11.9581 6.38264 12.0047 6.38264C12.1576 6.38277 12.3101 6.39771 12.4601 6.42724C12.967 5.83472 13.2844 5.10373 13.3714 4.32883C13.4583 3.55393 13.3107 2.77078 12.9477 2.08067C12.5847 1.39056 12.023 0.825249 11.3352 0.457858C10.6474 0.090467 9.8652 -0.0620993 9.08976 0.0198939C8.31433 0.101887 7.58133 0.414664 6.9856 0.917772C6.38986 1.42088 5.95878 2.09117 5.74813 2.84193C5.53749 3.5927 5.55695 4.38941 5.80402 5.12899C6.05109 5.86857 6.51438 6.517 7.13398 6.99041L7.13419 6.99021Z" fill="#8E9AAE"/>
<path d="M17.0145 8.98057C16.8501 8.98057 16.6872 9.01297 16.5352 9.07592C16.3833 9.13887 16.2452 9.23113 16.1289 9.34745C16.0126 9.46376 15.9204 9.60184 15.8574 9.75381C15.7945 9.90578 15.7621 10.0686 15.7622 10.2331V9.49096C15.7622 9.15879 15.6302 8.84021 15.3953 8.60533C15.1604 8.37045 14.8419 8.2385 14.5097 8.2385C14.1775 8.2385 13.859 8.37045 13.6241 8.60533C13.3892 8.84021 13.2572 9.15879 13.2572 9.49096V8.74797C13.2572 8.41579 13.1253 8.09723 12.8904 7.86235C12.6555 7.62747 12.337 7.4955 12.0048 7.4955C11.6726 7.4955 11.354 7.62747 11.1192 7.86235C10.8843 8.09723 10.7523 8.41579 10.7523 8.74797V4.66665C10.7523 4.33447 10.6204 4.01591 10.3855 3.78103C10.1506 3.54615 9.83203 3.41418 9.49986 3.41418C9.16768 3.41418 8.84912 3.54615 8.61423 3.78103C8.37935 4.01591 8.24739 4.33447 8.24739 4.66665V14.7326C8.24739 14.8802 8.18875 15.0218 8.08436 15.1262C7.97997 15.2306 7.83839 15.2892 7.69077 15.2892C7.54314 15.2892 7.40156 15.2306 7.29717 15.1262C7.19278 15.0218 7.13414 14.8802 7.13414 14.7326V11.743L6.37417 12.4081C6.02419 12.7151 5.77042 13.1168 5.6434 13.5647C5.51637 14.0125 5.5215 14.4876 5.65818 14.9327L6.46643 17.5593C6.59476 17.9765 6.85346 18.3416 7.20456 18.601C7.55567 18.8603 7.98068 19.0003 8.41718 19.0003H16.2272C16.7685 19.0002 17.2876 18.7851 17.6703 18.4023C18.0531 18.0196 18.2681 17.5004 18.2681 16.9591V10.2331C18.2681 10.0685 18.2357 9.90557 18.1727 9.75352C18.1097 9.60148 18.0174 9.46334 17.9009 9.34701C17.7845 9.23068 17.6463 9.13844 17.4942 9.07556C17.3421 9.01268 17.1791 8.9804 17.0145 8.98057V8.98057Z" fill="#8E9AAE"/>
<path d="M17.3303 0C16.9056 0.00049716 16.497 0.162614 16.1875 0.453422C15.878 0.744229 15.6908 1.14192 15.6639 1.56576L14.1357 1.9978C14.2774 2.34212 14.3798 2.70128 14.4412 3.06851L15.9697 2.63626C16.1355 2.86981 16.3587 3.05676 16.6177 3.17913C16.8766 3.30151 17.1628 3.35518 17.4485 3.33501C17.7342 3.31483 18.0099 3.22148 18.2492 3.06393C18.4884 2.90637 18.683 2.68993 18.8144 2.43539C18.9458 2.18086 19.0095 1.8968 18.9993 1.61054C18.9892 1.32428 18.9055 1.04544 18.7565 0.800851C18.6074 0.556258 18.3979 0.354137 18.1481 0.213919C17.8984 0.0737012 17.6167 0.000105447 17.3303 0.000212258V0Z" fill="#8E9AAE"/>
<path d="M16.1795 7.79302C16.4629 7.79325 16.7418 7.72132 16.9897 7.58403C17.2377 7.44674 17.4466 7.2486 17.5968 7.00826C17.7471 6.76792 17.8337 6.49329 17.8485 6.21024C17.8632 5.9272 17.8057 5.64504 17.6814 5.39035C17.557 5.13567 17.3698 4.91683 17.1375 4.75445C16.9052 4.59207 16.6354 4.4915 16.3535 4.46219C16.0716 4.43289 15.7868 4.47583 15.5261 4.58697C15.2654 4.6981 15.0372 4.87377 14.8631 5.09743L14.3983 4.94257C14.3204 5.30658 14.2021 5.66075 14.0457 5.99855L14.5104 6.15341C14.5188 6.59074 14.6982 7.00738 15.0103 7.31391C15.3223 7.62045 15.7421 7.79245 16.1795 7.79302Z" fill="#8E9AAE"/>
<path d="M3.03065 2.63632L4.55917 3.06837C4.62046 2.70113 4.72292 2.34197 4.8646 1.99766L3.33648 1.56562C3.3123 1.17202 3.14974 0.79964 2.87754 0.514312C2.60534 0.228984 2.24103 0.0490792 1.849 0.00640231C1.45698 -0.0362746 1.06248 0.0610287 0.735263 0.281102C0.408043 0.501176 0.169167 0.829844 0.0608616 1.20902C-0.0474436 1.5882 -0.0182029 1.99346 0.143415 2.35316C0.305032 2.71286 0.58862 3.00384 0.944044 3.17466C1.29947 3.34548 1.70384 3.38513 2.08568 3.28662C2.46751 3.18811 2.80223 2.95777 3.03065 2.63632V2.63632Z" fill="#8E9AAE"/>
</g>
<defs>
<clipPath id="clip0">
<rect width="19" height="19" fill="white"/>
</clipPath>
</defs>
</svg>
