<svg width="19" height="19" viewBox="0 0 19 19" fill="none" xmlns="http://www.w3.org/2000/svg">
<g clip-path="url(#clip0)">
<path d="M12.4925 14.7306C12.4529 14.6897 12.3998 14.6636 12.3425 14.6567C12.2852 14.6499 12.2273 14.6627 12.1786 14.693C11.2178 15.2674 10.1015 15.5463 8.97534 15.4932C7.63076 15.432 6.35282 14.9049 5.37212 14.007C4.39141 13.1091 3.77247 11.8995 3.62685 10.5963C3.48123 9.29317 3.81854 7.98221 4.57797 6.89991C5.3374 5.8176 6.46899 5.03518 7.76858 4.69376C7.82291 4.68011 7.87105 4.64931 7.9055 4.60618C7.93994 4.56305 7.95874 4.51001 7.95895 4.45537V1.38291C7.95886 1.34628 7.95059 1.3101 7.93478 1.27686C7.91897 1.24361 7.89602 1.2141 7.86738 1.19034C7.83875 1.16658 7.80512 1.14914 7.76891 1.13922C7.7327 1.12931 7.69471 1.12714 7.65756 1.13288C2.40841 2.01594 -1.32418 7.20602 0.443941 12.8329C1.22615 15.3226 3.90405 17.8778 6.46906 18.607C7.84158 19.0176 9.29289 19.1139 10.7099 18.8884C12.127 18.663 13.4714 18.1219 14.6384 17.3073C14.6675 17.2864 14.6918 17.2597 14.7096 17.229C14.7273 17.1983 14.738 17.1642 14.7412 17.1291C14.7443 17.094 14.7397 17.0587 14.7276 17.0254C14.7156 16.9922 14.6964 16.9619 14.6713 16.9365C14.1804 16.4367 12.9119 15.1682 12.4925 14.7306ZM17.2559 4.61271C17.234 4.58286 17.2057 4.55803 17.1729 4.53995C17.1401 4.52187 17.1037 4.51098 17.0661 4.50803C17.0286 4.50508 16.9908 4.51015 16.9555 4.52287C16.9202 4.5356 16.8881 4.55568 16.8615 4.58172L15.1598 6.23899L14.2544 7.09663C14.2147 7.13447 14.1889 7.18396 14.181 7.23747C14.1731 7.29099 14.1835 7.34555 14.2106 7.39275C14.7617 8.38048 14.987 9.50964 14.8556 10.6265C14.7242 11.7433 14.2425 12.7936 13.4762 13.6344C13.4322 13.6811 13.4083 13.7425 13.4095 13.8059C13.4107 13.8694 13.437 13.9299 13.4828 13.975L16.0277 16.4533C16.0522 16.4772 16.0814 16.4961 16.1135 16.5089C16.1457 16.5216 16.1801 16.528 16.2148 16.5275C16.2495 16.5271 16.2838 16.5199 16.3156 16.5064C16.3474 16.4929 16.3761 16.4733 16.4 16.4488C17.9111 14.8688 18.8204 12.832 18.9761 10.6781C19.1318 8.52415 18.5246 6.38336 17.2556 4.61271H17.2559Z" fill="#8E9AAE"/>
<path d="M16.4369 2.87012C14.5863 1.09017 12.1088 0.0638359 9.50857 1.5622e-05C9.47392 -0.000439959 9.43952 0.00580346 9.40737 0.0183845C9.37522 0.0309655 9.34601 0.0496348 9.32132 0.0733092C9.29663 0.0969837 9.27696 0.125195 9.26355 0.156307C9.25013 0.187418 9.24323 0.22081 9.24316 0.254553V5.2579C9.24376 5.32202 9.26978 5.38344 9.31581 5.4293C9.36183 5.47516 9.42429 5.50192 9.49011 5.50396C10.59 5.56128 11.6323 6.00103 12.4275 6.74328C12.4747 6.78901 12.5385 6.81493 12.6051 6.81547C12.6717 6.81602 12.7359 6.79115 12.784 6.74619L14.2633 5.34398L16.4361 3.22822C16.4603 3.20478 16.4795 3.17691 16.4927 3.14622C16.5059 3.11552 16.5127 3.0826 16.5128 3.04933C16.5128 3.01607 16.5062 2.98312 16.4932 2.95237C16.4802 2.92162 16.4611 2.89367 16.4369 2.87012Z" fill="#8E9AAE"/>
</g>
<defs>
<clipPath id="clip0">
<rect width="19" height="19" fill="white"/>
</clipPath>
</defs>
</svg>
