<svg width="19" height="19" viewBox="0 0 19 19" fill="none" xmlns="http://www.w3.org/2000/svg">
<path fill-rule="evenodd" clip-rule="evenodd" d="M14.5797 11.8813C13.9027 12.9785 12.9787 13.9024 11.8816 14.5795L15.7429 18.4407C16.1007 18.7985 16.5859 18.9995 17.0919 18.9995C17.5979 18.9995 18.0832 18.7985 18.441 18.4407V18.4407C18.6182 18.2636 18.7587 18.0533 18.8546 17.8218C18.9505 17.5903 18.9998 17.3422 18.9998 17.0917C18.9998 16.8411 18.9505 16.593 18.8546 16.3616C18.7587 16.1301 18.6182 15.9198 18.441 15.7426V15.7426L14.5797 11.8813Z" fill="#8E9AAE"/>
<path fill-rule="evenodd" clip-rule="evenodd" d="M7.56752 0C6.07101 6.7184e-10 4.6081 0.443768 3.3638 1.27518C2.11949 2.10659 1.14967 3.28831 0.57697 4.6709C0.00427066 6.05349 -0.145586 7.57485 0.146352 9.04261C0.43829 10.5104 1.15891 11.8586 2.21709 12.9168C3.27527 13.975 4.62347 14.6957 6.09122 14.9877C7.55897 15.2796 9.08034 15.1298 10.4629 14.5572C11.8456 13.9845 13.0273 13.0147 13.8588 11.7704C14.6902 10.5262 15.134 9.06327 15.134 7.56676V7.56676C15.1333 5.56021 14.3358 3.63606 12.917 2.21719C11.4982 0.798326 9.57407 0.00084127 7.56752 0V0ZM7.56752 12.5315C6.58545 12.5315 5.62543 12.2403 4.80886 11.6947C3.9923 11.1491 3.35586 10.3736 2.98004 9.46628C2.60421 8.55897 2.50588 7.56058 2.69747 6.59737C2.88906 5.63417 3.36198 4.74941 4.05641 4.05498C4.75084 3.36055 5.6356 2.88763 6.5988 2.69604C7.56201 2.50445 8.5604 2.60277 9.46772 2.9786C10.375 3.35442 11.1505 3.99086 11.6961 4.80742C12.2417 5.62399 12.533 6.58401 12.533 7.56608C12.533 8.883 12.0098 10.146 11.0786 11.0772C10.1474 12.0084 8.88444 12.5315 7.56752 12.5315V12.5315Z" fill="#8E9AAE"/>
</svg>
