<svg id="Icons_Compass" data-name="Icons / Compass" xmlns="http://www.w3.org/2000/svg" xmlns:xlink="http://www.w3.org/1999/xlink" width="24" height="24" viewBox="0 0 24 24">
  <defs>
    <clipPath id="clip-path">
      <path id="Color" d="M10,20A10,10,0,1,1,20,10,10.011,10.011,0,0,1,10,20ZM10,2a8,8,0,1,0,8,8A8.009,8.009,0,0,0,10,2ZM7.042,14a1.007,1.007,0,0,1-.713-.31l-.023-.02a.367.367,0,0,1-.03-.027.173.173,0,0,1-.011-.017.137.137,0,0,0-.011-.017.991.991,0,0,1-.178-1.028L7.82,8.322a1,1,0,0,1,.551-.548l4.213-1.7A1,1,0,0,1,12.952,6a1.009,1.009,0,0,1,.731.317.989.989,0,0,1,.242,1.1L12.18,11.677a1.006,1.006,0,0,1-.551.549l-4.213,1.7A.994.994,0,0,1,7.042,14ZM11.2,8.787l-1.692.684L8.8,11.213l1.692-.684L11.2,8.787Z" transform="translate(2 2)" fill="#707070"/>
    </clipPath>
  </defs>
  <g id="Group_50" data-name="Group 50">
    <path id="Color-2" data-name="Color" d="M10,20A10,10,0,1,1,20,10,10.011,10.011,0,0,1,10,20ZM10,2a8,8,0,1,0,8,8A8.009,8.009,0,0,0,10,2ZM7.042,14a1.007,1.007,0,0,1-.713-.31l-.023-.02a.367.367,0,0,1-.03-.027.173.173,0,0,1-.011-.017.137.137,0,0,0-.011-.017.991.991,0,0,1-.178-1.028L7.82,8.322a1,1,0,0,1,.551-.548l4.213-1.7A1,1,0,0,1,12.952,6a1.009,1.009,0,0,1,.731.317.989.989,0,0,1,.242,1.1L12.18,11.677a1.006,1.006,0,0,1-.551.549l-4.213,1.7A.994.994,0,0,1,7.042,14ZM11.2,8.787l-1.692.684L8.8,11.213l1.692-.684L11.2,8.787Z" transform="translate(2 2)" fill="#707070"/>
  </g>
</svg>
