<svg id="Icons_Weight" data-name="Icons / Weight" xmlns="http://www.w3.org/2000/svg" xmlns:xlink="http://www.w3.org/1999/xlink" width="18.462" height="20" viewBox="0 0 18.462 20">
  <defs>
    <clipPath id="clip-path">
      <path id="Color" d="M15.385,20H3.077A3.042,3.042,0,0,1,0,17V6A3.043,3.043,0,0,1,3.077,3H4.533a5.177,5.177,0,0,1,9.393,0h1.458a3.043,3.043,0,0,1,3.077,3V17A3.042,3.042,0,0,1,15.385,20ZM3.077,5A1.014,1.014,0,0,0,2.051,6V17a1.014,1.014,0,0,0,1.026,1H15.385a1.014,1.014,0,0,0,1.026-1V6a1.014,1.014,0,0,0-1.026-1H14.359a5.072,5.072,0,0,1-5.129,5A5.071,5.071,0,0,1,4.1,5ZM8.205,2.172A3,3,0,0,0,6.259,4.238l0,.015a.163.163,0,0,0,0,.021l0,.013A2.577,2.577,0,0,0,6.154,5a3.078,3.078,0,0,0,6.153,0,2.567,2.567,0,0,0-.1-.729,3.033,3.033,0,0,0-1.956-2.1V4A1.026,1.026,0,0,1,8.205,4Z" fill="#707070"/>
    </clipPath>
  </defs>
  <g id="Group_210" data-name="Group 210" transform="translate(0 0)">
    <path id="Color-2" data-name="Color" d="M15.385,20H3.077A3.042,3.042,0,0,1,0,17V6A3.043,3.043,0,0,1,3.077,3H4.533a5.177,5.177,0,0,1,9.393,0h1.458a3.043,3.043,0,0,1,3.077,3V17A3.042,3.042,0,0,1,15.385,20ZM3.077,5A1.014,1.014,0,0,0,2.051,6V17a1.014,1.014,0,0,0,1.026,1H15.385a1.014,1.014,0,0,0,1.026-1V6a1.014,1.014,0,0,0-1.026-1H14.359a5.072,5.072,0,0,1-5.129,5A5.071,5.071,0,0,1,4.1,5ZM8.205,2.172A3,3,0,0,0,6.259,4.238l0,.015a.163.163,0,0,0,0,.021l0,.013A2.577,2.577,0,0,0,6.154,5a3.078,3.078,0,0,0,6.153,0,2.567,2.567,0,0,0-.1-.729,3.033,3.033,0,0,0-1.956-2.1V4A1.026,1.026,0,0,1,8.205,4Z" transform="translate(0 0)" fill="#707070"/>
  </g>
</svg>
