<svg id="Icons_Flash_On" data-name="Icons / Flash / On" xmlns="http://www.w3.org/2000/svg" xmlns:xlink="http://www.w3.org/1999/xlink" width="21.125" height="26" viewBox="0 0 21.125 26">
  <defs>
    <clipPath id="clip-path">
      <path id="Color" d="M9.389,26a1.451,1.451,0,0,1-.452-.071,1.176,1.176,0,0,1-.86-1.237l1.015-8.383H1.32a1.347,1.347,0,0,1-1.165-.624A1.077,1.077,0,0,1,.223,14.47L10.639.526A1.36,1.36,0,0,1,11.734,0a1.457,1.457,0,0,1,.452.072,1.176,1.176,0,0,1,.863,1.238L12.034,9.691h7.771a1.349,1.349,0,0,1,1.165.625A1.076,1.076,0,0,1,20.9,11.53L10.485,25.476A1.362,1.362,0,0,1,9.389,26ZM9.843,5.843l-6.052,8.1h6.772a1.39,1.39,0,0,1,.982.392,1.1,1.1,0,0,1,.33.916l-.593,4.9,6.053-8.1H10.563a1.392,1.392,0,0,1-.983-.392,1.1,1.1,0,0,1-.33-.916l.593-4.9Z" transform="translate(0)" fill="#34b53a"/>
    </clipPath>
  </defs>
  <g id="Group_19" data-name="Group 19" transform="translate(0)">
    <path id="Color-2" data-name="Color" d="M9.389,26a1.451,1.451,0,0,1-.452-.071,1.176,1.176,0,0,1-.86-1.237l1.015-8.383H1.32a1.347,1.347,0,0,1-1.165-.624A1.077,1.077,0,0,1,.223,14.47L10.639.526A1.36,1.36,0,0,1,11.734,0a1.457,1.457,0,0,1,.452.072,1.176,1.176,0,0,1,.863,1.238L12.034,9.691h7.771a1.349,1.349,0,0,1,1.165.625A1.076,1.076,0,0,1,20.9,11.53L10.485,25.476A1.362,1.362,0,0,1,9.389,26ZM9.843,5.843l-6.052,8.1h6.772a1.39,1.39,0,0,1,.982.392,1.1,1.1,0,0,1,.33.916l-.593,4.9,6.053-8.1H10.563a1.392,1.392,0,0,1-.983-.392,1.1,1.1,0,0,1-.33-.916l.593-4.9Z" transform="translate(0 0)" fill="#34b53a"/>
  </g>
</svg>
