<svg xmlns="http://www.w3.org/2000/svg" width="47.34" height="47.309" viewBox="0 0 47.34 47.309">
  <g id="vision" transform="translate(469.515 269.809)">
    <path id="Path_24344" data-name="Path 24344" d="M46.11,29.565c-4.057-7.911-12.887-15.093-22.955-15.093C13.016,14.471,4.212,21.741.2,29.565a1.809,1.809,0,0,0,0,1.651c4.057,7.911,12.887,15.093,22.955,15.093,11.4,0,19.8-8.947,22.955-15.093A1.809,1.809,0,0,0,46.11,29.565ZM23.155,42.691c-8.21,0-15.1-5.455-19.261-12.3,4.113-6.77,10.983-12.3,19.261-12.3,8.243,0,15.126,5.493,19.261,12.3-4.178,6.877-11.1,12.3-19.261,12.3ZM.571,10.055a1.809,1.809,0,0,1,2.555-.134l4.029,3.628a1.809,1.809,0,1,1-2.421,2.689L.7,12.61a1.809,1.809,0,0,1-.134-2.555Zm20.775-1.01V1.809a1.809,1.809,0,0,1,3.618,0V9.045a1.809,1.809,0,1,1-3.618,0ZM9.877,5.016a1.809,1.809,0,0,1,3.305-1.472l2.766,6.214a1.809,1.809,0,0,1-3.305,1.472ZM39.021,16.1a1.809,1.809,0,0,1,.134-2.555l4.029-3.628a1.809,1.809,0,1,1,2.421,2.689l-4.029,3.628a1.809,1.809,0,0,1-2.555-.134ZM30.361,9.758l2.766-6.214a1.809,1.809,0,0,1,3.305,1.472l-2.766,6.214a1.809,1.809,0,1,1-3.305-1.471ZM23.155,21.5a8.886,8.886,0,1,0,8.886,8.886A8.9,8.9,0,0,0,23.155,21.5Zm0,14.155a5.269,5.269,0,1,1,5.269-5.269,5.274,5.274,0,0,1-5.269,5.269Z" transform="translate(-469 -269.309)" fill="#02a0fc" stroke="#02a0fc" stroke-width="1"/>
  </g>
</svg>
