<svg id="Icons_Keypad" data-name="Icons / Keypad" xmlns="http://www.w3.org/2000/svg" xmlns:xlink="http://www.w3.org/1999/xlink" width="24" height="24" viewBox="0 0 24 24">
  <defs>
    <clipPath id="clip-path">
      <path id="Color" d="M17,20a3,3,0,1,1,3-3A3,3,0,0,1,17,20Zm0-4a1,1,0,1,0,1,1A1,1,0,0,0,17,16Zm-7,4a3,3,0,1,1,3-3A3,3,0,0,1,10,20Zm0-4a1,1,0,1,0,1,1A1,1,0,0,0,10,16ZM3,20a3,3,0,1,1,3-3A3,3,0,0,1,3,20Zm0-4a1,1,0,1,0,1,1A1,1,0,0,0,3,16Zm14-3a3,3,0,1,1,3-3A3,3,0,0,1,17,13Zm0-4a1,1,0,1,0,1,1A1,1,0,0,0,17,9Zm-7,4a3,3,0,1,1,3-3A3,3,0,0,1,10,13Zm0-4a1,1,0,1,0,1,1A1,1,0,0,0,10,9ZM3,13a3,3,0,1,1,3-3A3,3,0,0,1,3,13ZM3,9a1,1,0,1,0,1,1A1,1,0,0,0,3,9ZM17,6a3,3,0,1,1,3-3A3,3,0,0,1,17,6Zm0-4a1,1,0,1,0,1,1A1,1,0,0,0,17,2ZM10,6a3,3,0,1,1,3-3A3,3,0,0,1,10,6Zm0-4a1,1,0,1,0,1,1A1,1,0,0,0,10,2ZM3,6A3,3,0,1,1,6,3,3,3,0,0,1,3,6ZM3,2A1,1,0,1,0,4,3,1,1,0,0,0,3,2Z" transform="translate(2 2)" fill="#fff"/>
    </clipPath>
  </defs>
  <g id="Group_87" data-name="Group 87">
    <path id="Color-2" data-name="Color" d="M17,20a3,3,0,1,1,3-3A3,3,0,0,1,17,20Zm0-4a1,1,0,1,0,1,1A1,1,0,0,0,17,16Zm-7,4a3,3,0,1,1,3-3A3,3,0,0,1,10,20Zm0-4a1,1,0,1,0,1,1A1,1,0,0,0,10,16ZM3,20a3,3,0,1,1,3-3A3,3,0,0,1,3,20Zm0-4a1,1,0,1,0,1,1A1,1,0,0,0,3,16Zm14-3a3,3,0,1,1,3-3A3,3,0,0,1,17,13Zm0-4a1,1,0,1,0,1,1A1,1,0,0,0,17,9Zm-7,4a3,3,0,1,1,3-3A3,3,0,0,1,10,13Zm0-4a1,1,0,1,0,1,1A1,1,0,0,0,10,9ZM3,13a3,3,0,1,1,3-3A3,3,0,0,1,3,13ZM3,9a1,1,0,1,0,1,1A1,1,0,0,0,3,9ZM17,6a3,3,0,1,1,3-3A3,3,0,0,1,17,6Zm0-4a1,1,0,1,0,1,1A1,1,0,0,0,17,2ZM10,6a3,3,0,1,1,3-3A3,3,0,0,1,10,6Zm0-4a1,1,0,1,0,1,1A1,1,0,0,0,10,2ZM3,6A3,3,0,1,1,6,3,3,3,0,0,1,3,6ZM3,2A1,1,0,1,0,4,3,1,1,0,0,0,3,2Z" transform="translate(2 2)" fill="#fff"/>
  </g>
</svg>
