<svg id="Group_83" data-name="Group 83" xmlns="http://www.w3.org/2000/svg" xmlns:xlink="http://www.w3.org/1999/xlink" width="17" height="21" viewBox="0 0 17 21">
  <defs>
    <clipPath id="clip-path">
      <path id="Color" d="M14.284,21H2.715A2.674,2.674,0,0,1,0,18.375V2.625A2.674,2.674,0,0,1,2.715,0h7.438a1.072,1.072,0,0,1,.787.344l5.784,6.3A1.046,1.046,0,0,1,17,7.35V18.375A2.675,2.675,0,0,1,14.284,21ZM2.715,2.1a.561.561,0,0,0-.59.525V18.375a.561.561,0,0,0,.59.525h11.57a.562.562,0,0,0,.591-.525V8.4H11.383A2.943,2.943,0,0,1,8.5,5.407V2.1Zm7.91,1.027v2.28a.835.835,0,0,0,.758.893h2.155ZM11.687,16.8H5.312a1.05,1.05,0,1,1,0-2.1h6.375a1.05,1.05,0,1,1,0,2.1ZM8.5,12.6H5.312a1.05,1.05,0,1,1,0-2.1H8.5a1.05,1.05,0,1,1,0,2.1Z" fill="#000c77"/>
    </clipPath>
  </defs>
  <path id="Color-2" data-name="Color" d="M14.284,21H2.715A2.674,2.674,0,0,1,0,18.375V2.625A2.674,2.674,0,0,1,2.715,0h7.438a1.072,1.072,0,0,1,.787.344l5.784,6.3A1.046,1.046,0,0,1,17,7.35V18.375A2.675,2.675,0,0,1,14.284,21ZM2.715,2.1a.561.561,0,0,0-.59.525V18.375a.561.561,0,0,0,.59.525h11.57a.562.562,0,0,0,.591-.525V8.4H11.383A2.943,2.943,0,0,1,8.5,5.407V2.1Zm7.91,1.027v2.28a.835.835,0,0,0,.758.893h2.155ZM11.687,16.8H5.312a1.05,1.05,0,1,1,0-2.1h6.375a1.05,1.05,0,1,1,0,2.1ZM8.5,12.6H5.312a1.05,1.05,0,1,1,0-2.1H8.5a1.05,1.05,0,1,1,0,2.1Z" transform="translate(0 0)" fill="#000c77"/>
</svg>
