<svg id="Icons_Checkmark_Circle_2" data-name="Icons / Checkmark / Circle 2" xmlns="http://www.w3.org/2000/svg" xmlns:xlink="http://www.w3.org/1999/xlink" width="24" height="24" viewBox="0 0 24 24">
  <defs>
    <clipPath id="clip-path">
      <path id="Color" d="M10,20A10,10,0,0,1,0,10.029,10,10,0,0,1,9.971,0a10.936,10.936,0,0,1,2.381.278,1,1,0,0,1-.469,1.945A8.79,8.79,0,0,0,9.977,2,8,8,0,0,0,4.359,15.673,7.95,7.95,0,0,0,10,18h.023A8,8,0,0,0,18,9.977a1,1,0,0,1,1-1h0a1,1,0,0,1,1,1A10,10,0,0,1,10.029,20Zm0-6a1,1,0,0,1-.707-.292l-3-3A1,1,0,1,1,7.707,9.293l2.245,2.245,6.3-7.2a1,1,0,1,1,1.5,1.319l-7,8a1,1,0,0,1-.719.34Z" transform="translate(2 2)" fill="#333"/>
    </clipPath>
  </defs>
  <g id="Group_53" data-name="Group 53">
    <path id="Color-2" data-name="Color" d="M10,20A10,10,0,0,1,0,10.029,10,10,0,0,1,9.971,0a10.936,10.936,0,0,1,2.381.278,1,1,0,0,1-.469,1.945A8.79,8.79,0,0,0,9.977,2,8,8,0,0,0,4.359,15.673,7.95,7.95,0,0,0,10,18h.023A8,8,0,0,0,18,9.977a1,1,0,0,1,1-1h0a1,1,0,0,1,1,1A10,10,0,0,1,10.029,20Zm0-6a1,1,0,0,1-.707-.292l-3-3A1,1,0,1,1,7.707,9.293l2.245,2.245,6.3-7.2a1,1,0,1,1,1.5,1.319l-7,8a1,1,0,0,1-.719.34Z" transform="translate(2 2)" fill="#333"/>
  </g>
</svg>
