<svg id="Icons_Gift" data-name="Icons / Gift" xmlns="http://www.w3.org/2000/svg" xmlns:xlink="http://www.w3.org/1999/xlink" width="23.478" height="23.478" viewBox="0 0 23.478 23.478">
  <defs>
    <clipPath id="clip-path">
      <path id="Color" d="M19.156,23.478H4.32A2.277,2.277,0,0,1,1.957,21.3V15.6A2.739,2.739,0,0,1,0,12.782v-4.7a2.62,2.62,0,0,1,2.348-2.87h.513a3.688,3.688,0,0,1-.252-1.3A4.014,4.014,0,0,1,6.708,0a5.736,5.736,0,0,1,5.031,3.126A5.737,5.737,0,0,1,16.77,0a4.014,4.014,0,0,1,4.1,3.913,3.657,3.657,0,0,1-.252,1.3h.513a2.62,2.62,0,0,1,2.348,2.87v4.7A2.738,2.738,0,0,1,21.521,15.6v5.7A2.278,2.278,0,0,1,19.156,23.478Zm-6.114-7.826v5.218h5.868V15.651Zm-8.478,0v5.218h5.868V15.651Zm8.478-7.825v5.217h7.792a1.023,1.023,0,0,0,.034-.261v-4.7a1.036,1.036,0,0,0-.034-.261H13.043Zm-10.4,0a1.036,1.036,0,0,0-.034.261v4.7a1.036,1.036,0,0,0,.034.261h7.792V7.826H2.642ZM16.77,2.608c-1.655,0-2.656,1.418-3.2,2.608h3.2a1.409,1.409,0,0,0,1.491-1.3A1.409,1.409,0,0,0,16.77,2.608Zm-10.062,0a1.409,1.409,0,0,0-1.491,1.3,1.409,1.409,0,0,0,1.491,1.3h3.2C9.351,4.028,8.348,2.608,6.708,2.608Z" fill="#ff5d00"/>
    </clipPath>
  </defs>
  <g id="Group_140" data-name="Group 140" transform="translate(-3 -3)">
    <path id="Color-2" data-name="Color" d="M19.156,23.478H4.32A2.277,2.277,0,0,1,1.957,21.3V15.6A2.739,2.739,0,0,1,0,12.782v-4.7a2.62,2.62,0,0,1,2.348-2.87h.513a3.688,3.688,0,0,1-.252-1.3A4.014,4.014,0,0,1,6.708,0a5.736,5.736,0,0,1,5.031,3.126A5.737,5.737,0,0,1,16.77,0a4.014,4.014,0,0,1,4.1,3.913,3.657,3.657,0,0,1-.252,1.3h.513a2.62,2.62,0,0,1,2.348,2.87v4.7A2.738,2.738,0,0,1,21.521,15.6v5.7A2.278,2.278,0,0,1,19.156,23.478Zm-6.114-7.826v5.218h5.868V15.651Zm-8.478,0v5.218h5.868V15.651Zm8.478-7.825v5.217h7.792a1.023,1.023,0,0,0,.034-.261v-4.7a1.036,1.036,0,0,0-.034-.261H13.043Zm-10.4,0a1.036,1.036,0,0,0-.034.261v4.7a1.036,1.036,0,0,0,.034.261h7.792V7.826H2.642ZM16.77,2.608c-1.655,0-2.656,1.418-3.2,2.608h3.2a1.409,1.409,0,0,0,1.491-1.3A1.409,1.409,0,0,0,16.77,2.608Zm-10.062,0a1.409,1.409,0,0,0-1.491,1.3,1.409,1.409,0,0,0,1.491,1.3h3.2C9.351,4.028,8.348,2.608,6.708,2.608Z" transform="translate(3 3)" fill="#ff5d00"/>
  </g>
</svg>
