<svg id="Icons_Pause_Circle" data-name="Icons / Pause Circle" xmlns="http://www.w3.org/2000/svg" xmlns:xlink="http://www.w3.org/1999/xlink" width="20" height="20" viewBox="0 0 20 20">
  <defs>
    <clipPath id="clip-path">
      <path id="Color" d="M8,16a8,8,0,1,1,8-8A8.009,8.009,0,0,1,8,16ZM8,1.6A6.4,6.4,0,1,0,14.4,8,6.407,6.407,0,0,0,8,1.6Zm2.4,9.6a.8.8,0,0,1-.8-.8V5.6a.8.8,0,1,1,1.6,0v4.8A.8.8,0,0,1,10.4,11.2Zm-4.8,0a.8.8,0,0,1-.8-.8V5.6a.8.8,0,1,1,1.6,0v4.8A.8.8,0,0,1,5.6,11.2Z" transform="translate(0 0)" fill="#fff"/>
    </clipPath>
  </defs>
  <g id="Group_33" data-name="Group 33" transform="translate(2 2)">
    <path id="Color-2" data-name="Color" d="M8,16a8,8,0,1,1,8-8A8.009,8.009,0,0,1,8,16ZM8,1.6A6.4,6.4,0,1,0,14.4,8,6.407,6.407,0,0,0,8,1.6Zm2.4,9.6a.8.8,0,0,1-.8-.8V5.6a.8.8,0,1,1,1.6,0v4.8A.8.8,0,0,1,10.4,11.2Zm-4.8,0a.8.8,0,0,1-.8-.8V5.6a.8.8,0,1,1,1.6,0v4.8A.8.8,0,0,1,5.6,11.2Z" transform="translate(0 0)" fill="#fff"/>
  </g>
</svg>
