<svg id="Group_18647" data-name="Group 18647" xmlns="http://www.w3.org/2000/svg" width="69.552" height="69.552" viewBox="0 0 69.552 69.552">
  <path id="Path_24839" data-name="Path 24839" d="M200.092,244.286a1.448,1.448,0,0,1-1.025-.424l-11.592-11.593a5.368,5.368,0,0,1-1.873-3.922A4.42,4.42,0,0,1,189.949,224a5.374,5.374,0,0,1,3.922,1.873l11.592,11.593a1.449,1.449,0,0,1-2.049,2.048l-11.592-11.592a2.576,2.576,0,0,0-1.873-1.024,1.525,1.525,0,0,0-1.45,1.449,2.577,2.577,0,0,0,1.025,1.874l11.592,11.592a1.449,1.449,0,0,1-1.024,2.474Zm0,0" transform="translate(-166.765 -196.469)"/>
  <path id="Path_24840" data-name="Path 24840" d="M238.49,205.887a1.442,1.442,0,0,1-1.024-.424L225.873,193.87A5.375,5.375,0,0,1,224,189.948a4.42,4.42,0,0,1,4.347-4.347,5.368,5.368,0,0,1,3.922,1.873l11.592,11.592a1.449,1.449,0,1,1-2.049,2.049l-11.592-11.592a2.577,2.577,0,0,0-1.874-1.025,1.525,1.525,0,0,0-1.449,1.45,2.576,2.576,0,0,0,1.024,1.873l11.592,11.592a1.449,1.449,0,0,1-1.024,2.474Zm0,0" transform="translate(-196.469 -166.764)"/>
  <path id="Path_24841" data-name="Path 24841" d="M283.531,208.179a1.444,1.444,0,0,1-1.025-.424l-2.9-2.9a1.449,1.449,0,0,1-.38-.674l-1.354-5.4-15.653-15.656a2.576,2.576,0,0,0-1.874-1.024,1.529,1.529,0,0,0-1.449,1.449,2.569,2.569,0,0,0,1.024,1.872l8.694,8.694a1.449,1.449,0,1,1-2.049,2.048l-8.694-8.694A5.358,5.358,0,0,1,256,183.546a4.42,4.42,0,0,1,4.347-4.347,5.368,5.368,0,0,1,3.92,1.87l15.942,15.942a1.462,1.462,0,0,1,.381.672l1.353,5.406,2.614,2.615a1.449,1.449,0,0,1-1.026,2.474Zm0,0" transform="translate(-221.225 -161.811)"/>
  <path id="Path_24842" data-name="Path 24842" d="M213.735,210.836a1.442,1.442,0,0,1-1.024-.424l-14.49-14.49a2.579,2.579,0,0,0-1.874-1.024,1.525,1.525,0,0,0-1.449,1.449,1.449,1.449,0,1,1-2.9,0A4.42,4.42,0,0,1,196.347,192a5.371,5.371,0,0,1,3.922,1.873l14.49,14.49a1.449,1.449,0,0,1-1.024,2.474Zm0,0" transform="translate(-171.714 -171.714)"/>
  <path id="Path_24843" data-name="Path 24843" d="M234.384,308.286a1.448,1.448,0,0,1-1.025-.424l-2.473-2.474h-3.747a11.571,11.571,0,0,1-8.27-3.323l-5.8-5.8a5.369,5.369,0,0,1-1.874-3.922A4.42,4.42,0,0,1,215.546,288a5.376,5.376,0,0,1,3.924,1.873,1.449,1.449,0,1,1-2.05,2.049,2.576,2.576,0,0,0-1.874-1.024,1.527,1.527,0,0,0-1.449,1.449,2.571,2.571,0,0,0,1.023,1.872l5.8,5.8a8.7,8.7,0,0,0,6.221,2.474h4.347a1.441,1.441,0,0,1,1.024.424l2.9,2.9a1.449,1.449,0,0,1-1.024,2.474Zm0,0" transform="translate(-186.567 -245.98)"/>
  <path id="Path_24844" data-name="Path 24844" d="M308.044,315.529a1.448,1.448,0,0,1-1.025-.425l-5.8-5.8a1.447,1.447,0,0,1,0-2.049l18.837-18.837a1.447,1.447,0,0,1,2.049,0l2.9,2.9a1.449,1.449,0,1,1-2.049,2.049l-1.874-1.874L304.3,308.284l4.771,4.771a1.449,1.449,0,0,1-1.024,2.474Zm0,0" transform="translate(-255.88 -245.977)"/>
  <path id="Path_24845" data-name="Path 24845" d="M143.936,226.539a1.447,1.447,0,0,1-1.024-.424l-10.143-10.143a1.462,1.462,0,0,1-.381-.672l-1.351-5.406-2.614-2.614a1.449,1.449,0,0,1,2.049-2.049l2.9,2.9a1.459,1.459,0,0,1,.38.673l1.352,5.405,9.859,9.859a1.449,1.449,0,0,1-1.025,2.474Zm0,0" transform="translate(-122.201 -181.62)"/>
  <path id="Path_24846" data-name="Path 24846" d="M207.936,143.093a1.447,1.447,0,0,1-1.024-.424,8.7,8.7,0,0,0-6.221-2.474h-4.347a1.444,1.444,0,0,1-1.024-.424l-2.9-2.9a1.449,1.449,0,0,1,2.049-2.049l2.473,2.474h3.747a11.571,11.571,0,0,1,8.27,3.323,1.449,1.449,0,0,1-1.025,2.474Zm0,0" transform="translate(-171.711 -127.154)"/>
  <path id="Path_24847" data-name="Path 24847" d="M106.747,129.929a1.448,1.448,0,0,1-1.025-.424l-2.9-2.9a1.449,1.449,0,1,1,2.049-2.049l1.874,1.874,16.787-16.788-4.771-4.771a1.449,1.449,0,1,1,2.049-2.049l5.8,5.8a1.447,1.447,0,0,1,0,2.049L107.771,129.5a1.448,1.448,0,0,1-1.024.424Zm0,0" transform="translate(-102.399 -102.398)"/>
  <path id="Path_24848" data-name="Path 24848" d="M273.148,133.794h-2.9a1.449,1.449,0,0,1,0-2.9h2.3l2.473-2.474a1.449,1.449,0,0,1,2.049,2.049l-2.9,2.9a1.441,1.441,0,0,1-1.024.425Zm0,0" transform="translate(-231.127 -122.202)"/>
  <path id="Path_24849" data-name="Path 24849" d="M353.448,202.141A1.448,1.448,0,0,1,352,200.691v-4.347a1.444,1.444,0,0,1,.424-1.024l2.9-2.9a1.449,1.449,0,0,1,2.049,2.049l-2.474,2.473v3.747A1.449,1.449,0,0,1,353.448,202.141Zm0,0" transform="translate(-295.489 -171.712)"/>
  <path id="Path_24850" data-name="Path 24850" d="M308.284,127.031a1.444,1.444,0,0,1-1.025-.424L288.423,107.77a1.447,1.447,0,0,1,0-2.049l2.9-2.9a1.449,1.449,0,1,1,2.049,2.049l-1.874,1.874,16.788,16.787,4.771-4.771a1.449,1.449,0,1,1,2.049,2.049l-5.8,5.8A1.444,1.444,0,0,1,308.284,127.031Zm0,0" transform="translate(-245.977 -102.398)"/>
  <path id="Path_24851" data-name="Path 24851" d="M206.247,364.195a1.449,1.449,0,0,1-1.024-2.474l2.9-2.9a1.444,1.444,0,0,1,1.024-.424h2.9a1.449,1.449,0,0,1,0,2.9h-2.3l-2.473,2.474A1.448,1.448,0,0,1,206.247,364.195Zm0,0" transform="translate(-181.614 -300.439)"/>
  <path id="Path_24852" data-name="Path 24852" d="M135.848,285.342a1.449,1.449,0,0,1-1.025-2.474L137.3,280.4v-3.747a1.449,1.449,0,1,1,2.9,0V281a1.441,1.441,0,0,1-.424,1.024l-2.9,2.9a1.446,1.446,0,0,1-1.024.424Zm0,0" transform="translate(-127.154 -236.077)"/>
  <path id="Path_24853" data-name="Path 24853" d="M125.583,325.432a1.449,1.449,0,0,1-1.025-2.474l1.874-1.874L109.644,304.3l-4.771,4.771a1.449,1.449,0,1,1-2.049-2.049l5.8-5.8a1.447,1.447,0,0,1,2.049,0l18.837,18.837a1.447,1.447,0,0,1,0,2.049l-2.9,2.9a1.446,1.446,0,0,1-1.024.424Zm0,0" transform="translate(-102.399 -255.88)"/>
</svg>
