<svg id="Group_18646" data-name="Group 18646" xmlns="http://www.w3.org/2000/svg" width="72.474" height="69.453" viewBox="0 0 72.474 69.453">
  <path id="Path_24598" data-name="Path 24598" d="M353.151,155.9a7.549,7.549,0,1,1,7.549-7.549A7.558,7.558,0,0,1,353.151,155.9Zm0-12.079a4.529,4.529,0,1,0,4.529,4.529A4.535,4.535,0,0,0,353.151,143.821Zm0,0" transform="translate(-288.226 -133.252)"/>
  <path id="Path_24599" data-name="Path 24599" d="M310.288,244.779a1.509,1.509,0,0,1-1.509-1.51V223.641a2.953,2.953,0,0,0-3.02-3.02h-1.509c-1.163,0-2.108.9-3.351,2.454-1.487,1.932-5.861,7.329-6.047,7.557a1.5,1.5,0,0,1-1.171.558h-7.549a1.511,1.511,0,0,0-1.51,1.51v1.51h12.834l4.076-5.435a1.509,1.509,0,1,1,2.414,1.81l-4.529,6.04a1.5,1.5,0,0,1-1.206.605h-15.1a1.509,1.509,0,0,1-1.509-1.51V232.7a4.535,4.535,0,0,1,4.529-4.53h6.829c1.182-1.462,4.363-5.4,5.562-6.96,1.092-1.363,2.887-3.608,5.727-3.608h1.51a5.975,5.975,0,0,1,6.04,6.039v19.628A1.509,1.509,0,0,1,310.288,244.779Zm0,0" transform="translate(-239.324 -191.934)"/>
  <path id="Path_24600" data-name="Path 24600" d="M109.947,155.9a7.549,7.549,0,1,1,7.549-7.549A7.558,7.558,0,0,1,109.947,155.9Zm0-12.079a4.529,4.529,0,1,0,4.53,4.529A4.535,4.535,0,0,0,109.947,143.821Zm0,0" transform="translate(-102.398 -133.252)"/>
  <path id="Path_24601" data-name="Path 24601" d="M103.909,244.779a1.51,1.51,0,0,1-1.51-1.51V223.641a5.975,5.975,0,0,1,6.04-6.039h1.509c2.84,0,4.635,2.245,5.709,3.586,1.216,1.578,4.4,5.518,5.581,6.983h6.829a4.536,4.536,0,0,1,4.529,4.53v3.019a1.51,1.51,0,0,1-1.51,1.51h-15.1a1.51,1.51,0,0,1-1.208-.6l-4.529-6.039a1.51,1.51,0,0,1,2.416-1.811l4.076,5.436h12.834V232.7a1.512,1.512,0,0,0-1.51-1.509h-7.549a1.513,1.513,0,0,1-1.173-.558c-.185-.229-4.56-5.624-6.064-7.58-1.224-1.533-2.171-2.433-3.332-2.433h-1.509a2.954,2.954,0,0,0-3.02,3.02v19.628A1.51,1.51,0,0,1,103.909,244.779Zm0,0" transform="translate(-102.399 -191.934)"/>
  <path id="Path_24602" data-name="Path 24602" d="M236.438,120.879a6.039,6.039,0,1,1,6.04-6.04A6.046,6.046,0,0,1,236.438,120.879Zm0-9.059a3.019,3.019,0,1,0,3.02,3.019A3.022,3.022,0,0,0,236.438,111.821Zm0,0" transform="translate(-200.201 -108.801)"/>
  <path id="Path_24603" data-name="Path 24603" d="M230.827,184.88a1.509,1.509,0,0,1-1.509-1.509v-3.02a4.684,4.684,0,0,0-4.529-4.529h-6.04a4.687,4.687,0,0,0-4.529,4.529v3.02a1.51,1.51,0,0,1-3.02,0v-3.02a7.7,7.7,0,0,1,7.549-7.549h6.04a7.7,7.7,0,0,1,7.549,7.549v3.02A1.51,1.51,0,0,1,230.827,184.88Zm0,0" transform="translate(-185.531 -157.702)"/>
  <path id="Path_24604" data-name="Path 24604" d="M249.6,320h3.019v3.02H249.6Zm0,0" transform="translate(-214.874 -270.175)"/>
  <path id="Path_24605" data-name="Path 24605" d="M224,320h3.02v3.02H224Zm0,0" transform="translate(-195.312 -270.175)"/>
  <path id="Path_24606" data-name="Path 24606" d="M275.2,320h3.02v3.02H275.2Zm0,0" transform="translate(-234.432 -270.175)"/>
  <path id="Path_24607" data-name="Path 24607" d="M180.123,307.178H116.709a1.51,1.51,0,0,1-1.51-1.51v-3.02a1.5,1.5,0,0,1,.2-.748l6.04-10.569a1.509,1.509,0,1,1,2.621,1.5l-5.84,10.222v1.109h60.395v-1.123l-8.42-15.365a1.509,1.509,0,1,1,2.647-1.451l8.606,15.7a1.5,1.5,0,0,1,.187.726v3.02a1.509,1.509,0,0,1-1.51,1.51Zm0,0" transform="translate(-112.179 -243.764)"/>
  <path id="Path_24608" data-name="Path 24608" d="M299.779,224.789A1.515,1.515,0,0,1,298.45,224l-5.308-9.781H289.51a1.51,1.51,0,0,1,0-3.02h4.53a1.514,1.514,0,0,1,1.327.79l5.738,10.569a1.509,1.509,0,0,1-1.326,2.23Zm0,0" transform="translate(-244.214 -187.042)"/>
  <path id="Path_24609" data-name="Path 24609" d="M169.186,224.789a1.51,1.51,0,0,1-1.326-2.23l5.738-10.569a1.512,1.512,0,0,1,1.327-.79h16.609a1.51,1.51,0,0,1,0,3.02H175.823L170.515,224a1.513,1.513,0,0,1-1.329.788Zm0,0" transform="translate(-152.276 -187.042)"/>
  <path id="Path_24610" data-name="Path 24610" d="M353.509,373.859A1.508,1.508,0,0,1,352,372.35v-6.04a1.51,1.51,0,0,1,3.02,0v6.04A1.509,1.509,0,0,1,353.509,373.859Zm0,0" transform="translate(-293.114 -304.406)"/>
  <path id="Path_24611" data-name="Path 24611" d="M148.71,373.859a1.509,1.509,0,0,1-1.51-1.509v-6.04a1.51,1.51,0,0,1,3.02,0v6.04A1.509,1.509,0,0,1,148.71,373.859Zm0,0" transform="translate(-136.63 -304.406)"/>
</svg>
