<svg id="Group_19408" data-name="Group 19408" xmlns="http://www.w3.org/2000/svg" width="68.073" height="68.073" viewBox="0 0 68.073 68.073">
  <path id="Path_26125" data-name="Path 26125" d="M204.071,113.745a5.673,5.673,0,1,1,5.673-5.673A5.679,5.679,0,0,1,204.071,113.745Zm0-8.51a2.837,2.837,0,1,0,2.837,2.837A2.84,2.84,0,0,0,204.071,105.235Zm0,0" transform="translate(-177.126 -102.399)"/>
  <path id="Path_26126" data-name="Path 26126" d="M191.5,248.108a1.419,1.419,0,0,1-1.182-.631l-5.33-8c-1.607-.263-5.966-.976-7.918-1.323a6.913,6.913,0,0,1-4.8-3.12,6.714,6.714,0,0,1-.561-5.8l1.423-4.268a1.418,1.418,0,1,1,2.69.9l-1.419,4.254a4.011,4.011,0,0,0,.274,3.422,4.067,4.067,0,0,0,2.844,1.817c2.443.431,8.526,1.421,8.526,1.421a1.415,1.415,0,0,1,.952.614l5.672,8.51a1.417,1.417,0,0,1-1.175,2.2Zm0,0" transform="translate(-156.039 -197.054)"/>
  <path id="Path_26127" data-name="Path 26127" d="M233.206,203.274a1.416,1.416,0,0,1-1.3-.842l-5.466-12.3-8.053-4.028a1.413,1.413,0,0,1-.769-1.469l1.418-9.927a1.414,1.414,0,0,1,1.2-1.2l9.661-1.38,9.692-5.538A1.418,1.418,0,1,1,241,169.051l-9.927,5.673a1.39,1.39,0,0,1-.5.172l-8.875,1.268-1.123,7.862,7.594,3.8a1.424,1.424,0,0,1,.663.692L234.5,201.28a1.418,1.418,0,0,1-1.3,1.994Zm0,0" transform="translate(-192.076 -152.219)"/>
  <path id="Path_26128" data-name="Path 26128" d="M103.821,166.322a1.417,1.417,0,0,1-1.119-2.288l9.927-12.763a1.423,1.423,0,0,1,.621-.459l11.345-4.254a1.393,1.393,0,0,1,.5-.091h13.847l11.047-5.523a1.418,1.418,0,0,1,1.269,2.537l-11.345,5.673a1.422,1.422,0,0,1-.635.15H125.35l-10.728,4.023-9.681,12.448a1.422,1.422,0,0,1-1.12.547Zm0,0" transform="translate(-102.403 -132.285)"/>
  <path id="Path_26129" data-name="Path 26129" d="M129.42,211.168a1.418,1.418,0,0,1-1.089-2.326l7.091-8.509a1.415,1.415,0,0,1,.811-.482l7.091-1.419a1.418,1.418,0,1,1,.557,2.781l-6.6,1.32-6.771,8.125a1.426,1.426,0,0,1-1.091.509Zm0,0" transform="translate(-122.329 -177.131)"/>
  <path id="Path_26130" data-name="Path 26130" d="M180.62,301.449a1.42,1.42,0,0,1-1.345-1.868l5.673-17.017a1.418,1.418,0,1,1,2.69.9l-5.673,17.018A1.419,1.419,0,0,1,180.62,301.449Zm0,0" transform="translate(-162.183 -241.885)"/>
  <path id="Path_26131" data-name="Path 26131" d="M155.011,306.428a1.444,1.444,0,0,1-.375-.049,1.42,1.42,0,0,1-1-1.742l4.255-15.6a1.418,1.418,0,1,1,2.737.745l-4.255,15.6A1.416,1.416,0,0,1,155.011,306.428Zm0,0" transform="translate(-142.247 -246.865)"/>
  <path id="Path_26132" data-name="Path 26132" d="M115.162,339.855H103.817a1.418,1.418,0,1,1,0-2.837h9.927v-2.837a1.417,1.417,0,0,1,1.418-1.418h9.927v-2.837a1.418,1.418,0,0,1,1.418-1.419h9.927v-2.836a1.418,1.418,0,0,1,1.418-1.419h9.927v-2.837A1.417,1.417,0,0,1,149.2,320h7.091a1.418,1.418,0,0,1,0,2.837h-5.673v2.836a1.416,1.416,0,0,1-1.418,1.418h-9.927v2.837a1.417,1.417,0,0,1-1.419,1.418h-9.927v2.837a1.418,1.418,0,0,1-1.419,1.418H116.58v2.837A1.418,1.418,0,0,1,115.162,339.855Zm0,0" transform="translate(-102.398 -271.782)"/>
  <path id="Path_26133" data-name="Path 26133" d="M353.381,126.544H346.29a1.418,1.418,0,0,1,0-2.836h4.442l-1.368-2.05a1.417,1.417,0,0,1,0-1.573l1.368-2.051H340.618a1.418,1.418,0,1,1,0-2.837h12.763a1.417,1.417,0,0,1,1.18,2.2l-2.311,3.469,2.311,3.468a1.418,1.418,0,0,1-1.18,2.2Zm0,0" transform="translate(-286.726 -112.362)"/>
  <path id="Path_26134" data-name="Path 26134" d="M340.618,153.453a1.418,1.418,0,0,1-1.419-1.419V103.817a1.418,1.418,0,1,1,2.837,0v48.218A1.417,1.417,0,0,1,340.618,153.453Zm0,0" transform="translate(-286.727 -102.398)"/>
  <path id="Path_26135" data-name="Path 26135" d="M373.309,322.837h-7.091a1.418,1.418,0,0,1,0-2.837h7.091a1.418,1.418,0,1,1,0,2.837Zm0,0" transform="translate(-306.655 -271.782)"/>
  <path id="Path_26136" data-name="Path 26136" d="M339.2,396.8h2.837v2.837H339.2Zm0,0" transform="translate(-286.726 -331.564)"/>
  <path id="Path_26137" data-name="Path 26137" d="M339.2,371.2h2.837v2.836H339.2Zm0,0" transform="translate(-286.726 -311.635)"/>
  <path id="Path_26138" data-name="Path 26138" d="M339.2,345.6h2.837v2.836H339.2Zm0,0" transform="translate(-286.726 -291.71)"/>
</svg>
