<svg id="Layer_1" enable-background="new 0 0 512.063 512.063" height="512" viewBox="0 0 512.063 512.063" width="512" xmlns="http://www.w3.org/2000/svg"><g><path d="m272.059 344.019c-14.126 0-21.421-17.206-11.313-27.313l60.686-60.687-60.686-60.687c-6.249-6.248-6.249-16.379 0-22.627 6.248-6.249 16.379-6.249 22.627 0l72 72c6.249 6.248 6.249 16.379 0 22.627l-72 72c-3.125 3.125-7.22 4.687-11.314 4.687z"/></g><g><path d="m184.058 344.019c-14.126 0-21.421-17.206-11.313-27.313l60.686-60.687-60.686-60.687c-6.249-6.248-6.249-16.379 0-22.627 6.248-6.249 16.379-6.249 22.627 0l72 72c6.249 6.248 6.249 16.379 0 22.627l-72 72c-3.124 3.125-7.219 4.687-11.314 4.687z"/></g><g><path d="m496.061 273.044c-8.926 0-16.097-7.286-16.002-16.171.006-.571.006-1.137 0-1.708-.094-8.836 6.992-16.076 15.828-16.17 8.988-.076 16.077 7.121 16.17 15.828.009.8.009 1.592 0 2.392-.094 8.778-7.239 15.829-15.996 15.829z"/></g><g><path d="m75.039 437.038c-100.045-100.044-100.059-261.979 0-362.038 57.734-57.735 136.734-82.547 213.02-72.981 110.894 13.895 194.631 96.38 217.557 196.786 1.967 8.615-3.422 17.193-12.037 19.16-8.614 1.966-17.193-3.422-19.16-12.037-39.215-171.742-252.618-232.435-376.753-108.301-87.337 87.338-87.337 229.447 0 316.785 86.017 86.016 228.139 88.643 316.784 0 30.057-30.057 50.849-67.75 60.129-109.007 1.94-8.621 10.502-14.038 19.121-12.099 8.621 1.939 14.038 10.5 12.099 19.121-43.778 194.627-287.447 267.926-430.76 124.611z"/></g></svg>