<?xml version="1.0" encoding="iso-8859-1"?>
<!-- Generator: Adobe Illustrator 19.0.0, SVG Export Plug-In . SVG Version: 6.00 Build 0)  -->
<svg version="1.1" id="Capa_1" xmlns="http://www.w3.org/2000/svg" xmlns:xlink="http://www.w3.org/1999/xlink" x="0px" y="0px"
	 viewBox="0 0 512 512" style="enable-background:new 0 0 512 512;" xml:space="preserve">
<g>
	<g>
		<path d="M256,0C114.615,0,0,114.615,0,256s114.615,256,256,256s256-114.615,256-256C511.847,114.678,397.322,0.153,256,0z
			 M71.253,362.197c-38.075-65.646-38.076-146.656-0.003-212.304C106.694,173.57,127.984,213.374,128,256
			C128.061,298.668,106.759,338.534,71.253,362.197z M96.213,396.8c46.648-31.668,74.542-84.419,74.453-140.8
			c0.001-56.386-27.92-109.113-74.56-140.8c56.857-65.198,147.669-89.231,229.333-60.693
			c-108.73,111.458-121.231,285.081-29.589,410.965C221.821,479.815,145.755,453.649,96.213,396.8z M339.712,452.267
			c-92.639-113.305-80.831-279.199,26.923-378.24c100.641,60.922,132.839,191.895,71.917,292.536
			C415.41,404.791,380.833,434.773,339.712,452.267z"/>
	</g>
</g>
<g>
</g>
<g>
</g>
<g>
</g>
<g>
</g>
<g>
</g>
<g>
</g>
<g>
</g>
<g>
</g>
<g>
</g>
<g>
</g>
<g>
</g>
<g>
</g>
<g>
</g>
<g>
</g>
<g>
</g>
</svg>
