<svg xmlns="http://www.w3.org/2000/svg" xmlns:xlink="http://www.w3.org/1999/xlink" width="22.245" height="35.74" viewBox="0 0 22.245 35.74"><defs><style>.a{fill:url(#a);}.b{fill:url(#b);}.c{fill:url(#c);}.d{fill:url(#d);}.e{fill:url(#e);}.f{fill:url(#f);}.g{fill:url(#g);}.h{fill:url(#h);}.i{fill:url(#i);}</style><linearGradient id="a" x1="0.44" y1="-0.218" x2="0.44" y2="0.918" gradientUnits="objectBoundingBox"><stop offset="0" stop-color="#b761c6"/><stop offset="1" stop-color="#9c44b3"/></linearGradient><linearGradient id="b" x1="0.409" y1="1.712" x2="0.409" y2="0.752" gradientUnits="objectBoundingBox"><stop offset="0" stop-color="#ffcf95"/><stop offset="0.427" stop-color="#ffc954"/><stop offset="1" stop-color="#ffc200"/></linearGradient><linearGradient id="c" x1="0.028" y1="2.77" x2="-1.671" y2="3.305" gradientUnits="objectBoundingBox"><stop offset="0" stop-color="#ffc200" stop-opacity="0"/><stop offset="0.203" stop-color="#fb0" stop-opacity="0.204"/><stop offset="0.499" stop-color="#ffa700" stop-opacity="0.498"/><stop offset="0.852" stop-color="#f80" stop-opacity="0.851"/><stop offset="1" stop-color="#ff7800"/></linearGradient><linearGradient id="d" x1="0.367" y1="4.515" x2="-0.175" y2="5.687" xlink:href="#c"/><linearGradient id="e" x1="0.579" y1="1.236" x2="-0.679" y2="2.187" xlink:href="#c"/><linearGradient id="f" x1="0.267" y1="1.074" x2="-0.762" y2="1.815" xlink:href="#c"/><linearGradient id="g" x1="-0.131" y1="2.77" x2="1.568" y2="3.305" xlink:href="#c"/><linearGradient id="h" x1="0.268" y1="4.515" x2="0.81" y2="5.687" xlink:href="#c"/><linearGradient id="i" x1="-0.147" y1="1.236" x2="1.112" y2="2.187" xlink:href="#c"/></defs><path class="a" d="M118.9,1.874V35.117a.622.622,0,0,1-1.062.44l-9.621-9.621a.622.622,0,0,0-.879,0l-9.621,9.621a.622.622,0,0,1-1.062-.44V1.874A1.874,1.874,0,0,1,98.533,0h18.5A1.874,1.874,0,0,1,118.9,1.874Z" transform="translate(-96.659)"/><path class="b" d="M159.22,80.733l1.943-3.938Z" transform="translate(-150.414 -71.229)"/><path class="c" d="M258.411,80.709a.414.414,0,0,1-.1-.125l-1.943-3.938a.412.412,0,0,0-.374-.232v7.667Z" transform="translate(-244.876 -71.08)"/><path class="d" d="M262.976,138.679l-4.345-.631a.416.416,0,0,1-.218-.1L256,141.317l7.286-2.417A.41.41,0,0,0,262.976,138.679Z" transform="translate(-244.877 -128.316)"/><path class="e" d="M260.554,192.462,256,186.249l3.943,1.36a.4.4,0,0,0,0,.147l.742,4.328A.409.409,0,0,1,260.554,192.462Z" transform="translate(-244.877 -173.248)"/><path class="f" d="M260.553,192.463a.414.414,0,0,1-.474.06l-3.886-2.043a.425.425,0,0,0-.194-.047V186.25Z" transform="translate(-244.875 -173.249)"/><path class="g" d="M221.437,80.709a.415.415,0,0,0,.1-.125l1.943-3.938a.412.412,0,0,1,.374-.232v7.667Z" transform="translate(-212.727 -71.08)"/><path class="h" d="M151.928,138.679l4.345-.631a.416.416,0,0,0,.218-.1l2.412,3.372-7.286-2.417A.41.41,0,0,1,151.928,138.679Z" transform="translate(-147.782 -128.316)"/><path class="i" d="M188.924,192.462l4.554-6.214-3.943,1.36a.4.4,0,0,1,0,.147l-.742,4.328A.409.409,0,0,0,188.924,192.462Z" transform="translate(-182.356 -173.248)"/></svg>