<svg id="light" enable-background="new 0 0 24 24" height="512" viewBox="0 0 24 24" width="512" xmlns="http://www.w3.org/2000/svg"><path d="m18.5 24h-9c-.276 0-.5-.224-.5-.5v-3.325l-2.414.733c-.159.059-.365.092-.586.092-1.103 0-2-.897-2-2v-3h-2c-.561 0-1-.439-1-1 0-.188.055-.373.157-.536l2.336-3.708c.332-.526.507-1.132.507-1.753 0-4.965 4.037-9.003 9-9.003s9 4.038 9 9c0 1.858-.565 3.646-1.636 5.17-.892 1.269-1.364 2.758-1.364 4.305v5.025c0 .276-.224.5-.5.5zm-8.5-1h8v-4.525c0-1.754.534-3.441 1.546-4.88.951-1.354 1.454-2.943 1.454-4.595 0-4.411-3.589-8-8-8s-8 3.589-8 8c0 .813-.229 1.604-.661 2.289l-2.336 3.708 2.497.003c.276 0 .5.224.5.5v3.5c0 .552.448 1 1 1 .104 0 .196-.014.271-.041l3.084-.938c.152-.045.316-.017.443.077s.202.244.202.402z"/><path d="m14.5 16h-2c-.481 0-1-.369-1-1.18v-1.32c0-.586-.253-1.122-.676-1.433-1.17-.861-1.852-2.238-1.823-3.682.046-2.383 2.034-4.35 4.433-4.385 1.215-.04 2.369.443 3.235 1.296.858.847 1.331 1.975 1.331 3.176 0 1.422-.658 2.728-1.806 3.582-.434.323-.694.866-.694 1.453v1.493c0 .552-.448 1-1 1zm-1-11c-.018 0-.035 0-.053 0-1.833.026-3.412 1.585-3.446 3.404-.022 1.12.507 2.188 1.416 2.857.678.5 1.083 1.336 1.083 2.239v1.32c0 .149.036.198.036.198l1.964-.018v-1.493c0-.901.41-1.745 1.098-2.255.89-.664 1.402-1.677 1.402-2.78 0-.932-.367-1.806-1.033-2.463-.661-.652-1.535-1.009-2.467-1.009z"/><path d="m15 14h-3c-.276 0-.5-.224-.5-.5s.224-.5.5-.5h3c.276 0 .5.224.5.5s-.224.5-.5.5z"/></svg>