
<svg width="96" height="90" viewBox="0 0 96 90" fill="none" xmlns="http://www.w3.org/2000/svg">
<g clip-path="url(#clip0_5218_11820)">
<path d="M3.27734 26.5916C3.63314 24.7453 4.5352 23.0476 5.86721 21.7172C7.19923 20.3868 8.90014 19.4846 10.7509 19.127C12.6017 18.7693 14.5175 18.9726 16.2513 19.7105C17.9852 20.4485 19.4577 21.6874 20.4792 23.2675C21.5008 24.8476 22.0245 26.6966 21.9829 28.5762C21.9412 30.4558 21.3361 32.2799 20.2456 33.8135C19.1551 35.3471 17.629 36.5198 15.8641 37.1807C14.0992 37.8415 12.1764 37.9602 10.3433 37.5213L8.37691 45.6925" stroke="#2F80ED" stroke-width="3" stroke-linecap="round" stroke-linejoin="round"/>
<path d="M5.12483 56.4661C5.85608 56.4661 6.44888 55.8749 6.44888 55.1457C6.44888 54.4164 5.85608 53.8252 5.12483 53.8252C4.39358 53.8252 3.80078 54.4164 3.80078 55.1457C3.80078 55.8749 4.39358 56.4661 5.12483 56.4661Z" stroke="#2F80ED" stroke-width="5" stroke-linecap="round" stroke-linejoin="round"/>
<path d="M84.739 46.4641C83.2901 46.1333 81.7925 46.0713 80.3211 46.2811C80.3211 45.9804 80.3211 45.6797 80.3211 45.379C80.1114 30.4879 70.4891 18.5516 58.8217 18.7215C47.1544 18.8915 35.9064 32.0176 36.1162 46.9086C36.3259 61.7997 47.9146 72.7817 59.582 72.6248C64.9568 72.5463 72.0228 65.5519 75.6935 61.2767C95.2396 60.7407 91.1757 47.9415 84.739 46.4641Z" stroke="#2F80ED" stroke-width="2" stroke-miterlimit="10" stroke-linecap="round"/>
<path d="M45.9491 42.9082C44.5588 46.6251 43.7755 50.5403 43.6289 54.5047L45.9491 42.9082Z" fill="white"/>
<path d="M45.9491 42.9082C44.5588 46.6251 43.7755 50.5403 43.6289 54.5047" stroke="#2F80ED" stroke-width="2" stroke-linecap="round" stroke-linejoin="round"/>
<path d="M55.4142 48.5429C56.5437 48.5429 57.4593 47.6298 57.4593 46.5034C57.4593 45.377 56.5437 44.4639 55.4142 44.4639C54.2847 44.4639 53.3691 45.377 53.3691 46.5034C53.3691 47.6298 54.2847 48.5429 55.4142 48.5429Z" fill="white"/>
<path d="M75.7852 53.2625C75.7852 53.2625 83.0609 48.4644 85.4599 51.9551L75.7852 53.2625Z" fill="white"/>
<path d="M75.7852 53.2625C75.7852 53.2625 83.0609 48.4644 85.4599 51.9551" stroke="#2F80ED" stroke-width="2" stroke-miterlimit="10" stroke-linecap="round"/>
<path d="M84.739 46.4641C83.2901 46.1333 81.7925 46.0713 80.3211 46.2811C80.3211 45.9804 80.3211 45.6797 80.3211 45.379C80.1114 30.4879 70.4891 18.5516 58.8217 18.7215C47.1544 18.8915 35.9064 32.0176 36.1162 46.9086C36.3259 61.7997 47.9146 72.7817 59.582 72.6248C64.9568 72.5463 72.0228 65.5519 75.6935 61.2767C95.2396 60.7407 91.1757 47.9415 84.739 46.4641Z" stroke="#2F80ED" stroke-width="3" stroke-miterlimit="10" stroke-linecap="round"/>
<path d="M45.9491 42.9082C44.5588 46.6251 43.7755 50.5403 43.6289 54.5047" stroke="#2F80ED" stroke-width="3" stroke-linecap="round" stroke-linejoin="round"/>
<path d="M55.4142 48.5429C56.5437 48.5429 57.4593 47.6298 57.4593 46.5034C57.4593 45.377 56.5437 44.4639 55.4142 44.4639C54.2847 44.4639 53.3691 45.377 53.3691 46.5034C53.3691 47.6298 54.2847 48.5429 55.4142 48.5429Z" fill="#2F80ED"/>
<path d="M75.7852 53.2625C75.7852 53.2625 83.0609 48.4644 85.4599 51.9551" stroke="#2F80ED" stroke-width="3" stroke-miterlimit="10" stroke-linecap="round"/>
<path d="M94.3474 19.7541C94.4261 19.1527 94.4917 18.5774 94.5441 18.0283C94.6658 16.8219 94.5054 15.6037 94.0755 14.4695C93.6456 13.3353 92.9579 12.3159 92.0664 11.4914C91.234 10.7479 90.3586 10.0538 89.4445 9.41268C87.3478 7.76884 84.8587 6.69662 82.2212 6.30113C80.0058 6.0658 77.6198 7.38625 75.483 6.5626C74.4828 6.07322 73.5912 5.38857 72.8611 4.54923C70.9127 2.78722 68.5981 1.47628 66.0826 0.710111C63.5671 -0.0560533 60.9128 -0.258513 58.3097 0.117216C56.1733 0.167907 54.1116 0.911418 52.4368 2.23517C51.0472 3.45104 49.8149 5.35981 47.9664 5.85661C45.882 6.41878 43.5617 5.7128 41.4117 6.37956C35.0537 8.35371 30.5572 18.0414 36.9939 26.121H36.8891C40.5859 31.7035 58.0344 39.7177 70.2524 42.947C70.537 43.0227 70.8171 43.1144 71.0914 43.2215C75.8108 45.0649 76.1123 45.9539 76.4925 47.8496C76.7546 49.157 77.8034 48.8694 78.6424 48.4249C79.6404 47.874 80.7438 47.5399 81.8804 47.4444L83.034 47.3528C85.0774 47.2279 87.0936 47.8717 88.6842 49.157C88.9989 49.3923 89.3266 49.6146 89.6674 49.8238C101.663 40.476 92.5383 33.3247 94.3474 19.7541Z" fill="#2F80ED"/>
<path d="M8.80859 86.7315C8.80859 86.7315 30.5571 69.4218 59.6074 72.6249" stroke="#2F80ED" stroke-width="3" stroke-linecap="round" stroke-linejoin="round"/>
</g>
<defs>
<clipPath id="clip0_5218_11820">
<rect width="96" height="90" fill="white"/>
</clipPath>
</defs>
</svg>
