<svg width="20" height="19" viewBox="0 0 20 19" fill="none" xmlns="http://www.w3.org/2000/svg">
<path d="M17.0729 19H12.9406C12.3928 18.9994 11.8677 18.7768 11.4803 18.381C11.093 17.9851 10.8751 17.4485 10.8745 16.8887V12.6662C10.8751 12.1064 11.093 11.5697 11.4803 11.1739C11.8677 10.7781 12.3928 10.5555 12.9406 10.5549H17.0729C17.6207 10.5555 18.1458 10.7781 18.5332 11.1739C18.9205 11.5697 19.1384 12.1064 19.139 12.6662V16.8887C19.1384 17.4485 18.9205 17.9851 18.5332 18.381C18.1458 18.7768 17.6207 18.9994 17.0729 19V19ZM12.9406 12.6662V16.8887H17.0736V12.6662H12.9406ZM6.74377 19H2.61079C2.06313 18.9992 1.53814 18.7765 1.15095 18.3807C0.763768 17.9849 0.546 17.4483 0.54541 16.8887L0.54541 12.6662C0.546 12.1065 0.763768 11.57 1.15095 11.1742C1.53814 10.7784 2.06313 10.5557 2.61079 10.5549H6.74377C7.29155 10.5555 7.81674 10.7781 8.20408 11.1739C8.59143 11.5697 8.8093 12.1064 8.80989 12.6662V16.8887C8.8093 17.4485 8.59143 17.9851 8.20408 18.381C7.81674 18.7768 7.29155 18.9994 6.74377 19V19ZM2.61079 12.6662V16.8887H6.74451V12.6662H2.61079ZM17.0729 8.44436H12.9406C12.3928 8.44376 11.8677 8.22113 11.4803 7.82531C11.093 7.4295 10.8751 6.89284 10.8745 6.33308V2.11052C10.8753 1.55089 11.0933 1.01442 11.4806 0.618777C11.8679 0.22313 12.393 0.000603122 12.9406 0L17.0729 0C17.6205 0.000603122 18.1456 0.22313 18.5329 0.618777C18.9202 1.01442 19.1382 1.55089 19.139 2.11052V6.33384C19.1382 6.89347 18.9202 7.42994 18.5329 7.82558C18.1456 8.22123 17.6205 8.44376 17.0729 8.44436V8.44436ZM12.9406 2.11052V6.33384H17.0736V2.11052H12.9406ZM6.74377 8.44436H2.61079C2.06326 8.44356 1.53838 8.22094 1.15121 7.82531C0.764051 7.42969 0.546197 6.89334 0.54541 6.33384L0.54541 2.11052C0.546197 1.55102 0.764051 1.01467 1.15121 0.619045C1.53838 0.22342 2.06326 0.000804166 2.61079 0L6.74377 0C7.29143 0.000603122 7.8165 0.22313 8.20382 0.618777C8.59114 1.01442 8.8091 1.55089 8.80989 2.11052V6.33384C8.8091 6.89347 8.59114 7.42994 8.20382 7.82558C7.8165 8.22123 7.29143 8.44376 6.74377 8.44436ZM2.61079 2.11052V6.33384H6.74451V2.11052H2.61079Z" fill="#8E9AAE"/>
</svg>
