<svg width="20" height="19" viewBox="0 0 20 19" fill="none" xmlns="http://www.w3.org/2000/svg">
<path d="M17.0729 19H12.9407C12.3929 18.9994 11.8677 18.7768 11.4804 18.381C11.093 17.9851 10.8752 17.4485 10.8746 16.8887V12.6662C10.8752 12.1064 11.093 11.5697 11.4804 11.1739C11.8677 10.7781 12.3929 10.5555 12.9407 10.5549H17.0729C17.6207 10.5555 18.1459 10.7781 18.5332 11.1739C18.9206 11.5697 19.1385 12.1064 19.1391 12.6662V16.8887C19.1385 17.4485 18.9206 17.9851 18.5332 18.381C18.1459 18.7768 17.6207 18.9994 17.0729 19V19ZM12.9407 12.6662V16.8887H17.0737V12.6662H12.9407ZM6.74383 19H2.61085C2.06319 18.9992 1.5382 18.7765 1.15101 18.3807C0.763829 17.9849 0.546061 17.4483 0.545471 16.8887L0.545471 12.6662C0.546061 12.1065 0.763829 11.57 1.15101 11.1742C1.5382 10.7784 2.06319 10.5557 2.61085 10.5549H6.74383C7.29162 10.5555 7.8168 10.7781 8.20414 11.1739C8.59149 11.5697 8.80936 12.1064 8.80995 12.6662V16.8887C8.80936 17.4485 8.59149 17.9851 8.20414 18.381C7.8168 18.7768 7.29162 18.9994 6.74383 19V19ZM2.61085 12.6662V16.8887H6.74457V12.6662H2.61085ZM17.0729 8.44436H12.9407C12.3929 8.44376 11.8677 8.22113 11.4804 7.82531C11.093 7.4295 10.8752 6.89284 10.8746 6.33308V2.11052C10.8754 1.55089 11.0933 1.01442 11.4806 0.618777C11.868 0.22313 12.393 0.000603122 12.9407 0L17.0729 0C17.6206 0.000603122 18.1457 0.22313 18.533 0.618777C18.9203 1.01442 19.1383 1.55089 19.1391 2.11052V6.33384C19.1383 6.89347 18.9203 7.42994 18.533 7.82558C18.1457 8.22123 17.6206 8.44376 17.0729 8.44436V8.44436ZM12.9407 2.11052V6.33384H17.0737V2.11052H12.9407ZM6.74383 8.44436H2.61085C2.06332 8.44356 1.53844 8.22094 1.15127 7.82531C0.764112 7.42969 0.546258 6.89334 0.545471 6.33384L0.545471 2.11052C0.546258 1.55102 0.764112 1.01467 1.15127 0.619045C1.53844 0.22342 2.06332 0.000804166 2.61085 0L6.74383 0C7.29149 0.000603122 7.81656 0.22313 8.20388 0.618777C8.5912 1.01442 8.80916 1.55089 8.80995 2.11052V6.33384C8.80916 6.89347 8.5912 7.42994 8.20388 7.82558C7.81656 8.22123 7.29149 8.44376 6.74383 8.44436ZM2.61085 2.11052V6.33384H6.74457V2.11052H2.61085Z" fill="#278CE9"/>
</svg>
