<svg xmlns="http://www.w3.org/2000/svg" width="90.085" height="96.025" viewBox="0 0 90.085 96.025">
  <g id="Group_26815" data-name="Group 26815" transform="translate(0 0)">
    <path id="Path_26825" data-name="Path 26825" d="M-502.4,2482.083h0a6.4,6.4,0,0,0-8.959-1.1l-18.128,14.1a5.109,5.109,0,0,1-3.149,1.076l-12.954-.034a3.193,3.193,0,0,1-3.176-3.209,3.192,3.192,0,0,1,3.193-3.175l10.854.028a6.385,6.385,0,0,0,6.469-6.3,6.386,6.386,0,0,0-6.3-6.47h-.136l-24.853-.065-1.678-.006a15.349,15.349,0,0,0-9.469,3.241l-8.894,6.93a1.278,1.278,0,0,0-.22,1.794h0l17.146,21.846a1.274,1.274,0,0,0,.989.489l20.836.25,5.76.069a15.323,15.323,0,0,0,9.644-3.268l21.939-17.218A6.4,6.4,0,0,0-502.4,2482.083Z" transform="translate(591.126 -2423.352)" fill="#1e88e5"/>
    <path id="Path_30451" data-name="Path 30451" d="M-588.6,2498.1a1.276,1.276,0,0,0-1.792-.216l-4.018,3.153a1.277,1.277,0,0,0-.216,1.792h0l16.737,21.326a1.278,1.278,0,0,0,1.793.216l4.018-3.154a1.276,1.276,0,0,0,.217-1.792h0Z" transform="translate(594.902 -2428.619)" fill="#1e88e5" opacity="0.35"/>
    <path id="Path_30452" data-name="Path 30452" d="M-529.331,2429.125a12.04,12.04,0,0,0,12.083-12,12.04,12.04,0,0,0-12-12.083,12.04,12.04,0,0,0-12.082,12h0a12.04,12.04,0,0,0,11.994,12.083Z" transform="translate(581.258 -2405.045)" fill="#1e88e5"/>
    <path id="Path_30453" data-name="Path 30453" d="M-521.075,2447.493l-22.252-.08c-5.031-.018-9.124,4.365-9.144,9.784l-.01,2.832a2.883,2.883,0,0,0,2.758,2.992l34.933.125a2.882,2.882,0,0,0,2.779-2.972l.01-2.832C-511.982,2451.917-516.041,2447.511-521.075,2447.493Z" transform="translate(584.1 -2415.835)" fill="#1e88e5" opacity="0.35"/>
  </g>
</svg>
