<svg id="Group_27790" data-name="Group 27790" xmlns="http://www.w3.org/2000/svg" width="92.879" height="92.879" viewBox="0 0 92.879 92.879">
  <path id="Path_31159" data-name="Path 31159" d="M285.722,721.905a24.441,24.441,0,0,1-3.444-4.213l-4.158,3.378a8.161,8.161,0,1,0,3.434,4.223Z" transform="translate(-256.449 -685.404)" fill="#1f854b" opacity="0.5"/>
  <path id="Path_31160" data-name="Path 31160" d="M298.379,707.018V695.659a11.565,11.565,0,1,1,23.129,0v8.411c.225-.013.452-.022.68-.022a11.573,11.573,0,0,1,2.226.218,19.046,19.046,0,1,0-26.036,2.753Z" transform="translate(-263.504 -672.847)" fill="#1f854b"/>
  <path id="Path_31161" data-name="Path 31161" d="M346.578,723.237a6.122,6.122,0,0,0-6.122,6.123v-3.628a6.122,6.122,0,1,0-12.245,0V722.1a6.122,6.122,0,0,0-12.245,0V702.149a6.122,6.122,0,1,0-12.245,0v49.206a2.721,2.721,0,0,1-5.442,0V736.741l-3.715,3.251a11.806,11.806,0,0,0-3.5,12.341l3.951,12.84a9.977,9.977,0,0,0,9.536,7.044h38.178a9.978,9.978,0,0,0,9.977-9.978V729.36A6.122,6.122,0,0,0,346.578,723.237Z" transform="translate(-263.404 -679.337)" fill="#1f854b"/>
  <path id="Path_31162" data-name="Path 31162" d="M364.441,672.847a8.172,8.172,0,0,0-8.146,7.654l-7.47,2.112a24.259,24.259,0,0,1,1.493,5.234l7.472-2.113a8.161,8.161,0,1,0,6.651-12.886Z" transform="translate(-279.724 -672.847)" fill="#1f854b" opacity="0.5"/>
  <path id="Path_31163" data-name="Path 31163" d="M358.646,719.408a8.163,8.163,0,1,0-6.435-13.177l-2.272-.757a24.488,24.488,0,0,1-1.724,5.162l2.272.757A8.171,8.171,0,0,0,358.646,719.408Z" transform="translate(-279.554 -681.313)" fill="#1f854b" opacity="0.5"/>
  <path id="Path_31164" data-name="Path 31164" d="M267.666,685.734l7.472,2.112a24.241,24.241,0,0,1,1.493-5.234l-7.47-2.112a8.171,8.171,0,1,0-1.495,5.234Z" transform="translate(-252.851 -672.847)" fill="#1f854b" opacity="0.5"/>
</svg>
