<?xml version="1.0" encoding="iso-8859-1"?>
<!-- Generator: Adobe Illustrator 18.0.0, SVG Export Plug-In . SVG Version: 6.00 Build 0)  -->
<!DOCTYPE svg PUBLIC "-//W3C//DTD SVG 1.1//EN" "http://www.w3.org/Graphics/SVG/1.1/DTD/svg11.dtd">
<svg version="1.1" id="Capa_1" xmlns="http://www.w3.org/2000/svg" xmlns:xlink="http://www.w3.org/1999/xlink" x="0px" y="0px"
	 viewBox="0 0 219.376 219.376" style="enable-background:new 0 0 219.376 219.376;" xml:space="preserve">
<path d="M127.518,0H40.63c-6.617,0-12,5.383-12,12v195.376c0,6.617,5.383,12,12,12h138.117c6.617,0,12-5.383,12-12V59.227
	c0-3.204-1.248-6.217-3.513-8.484L135.869,3.382C133.618,1.199,130.66,0,127.518,0z M175.747,204.376H43.63V15h71.767v40.236
	c0,8.885,7.225,16.114,16.106,16.114h44.244V204.376z M131.503,56.35c-0.609,0-1.105-0.5-1.105-1.114v-31.58l34.968,32.693H131.503z
	 M69.499,88.627h81.5v15h-81.5V88.627z M69.499,113.627h81.5v15h-81.5V113.627z M69.499,138.626h81.5v15h-81.5V138.626z
	 M69.499,163.626h46.5v15h-46.5V163.626z"/>
<g>
</g>
<g>
</g>
<g>
</g>
<g>
</g>
<g>
</g>
<g>
</g>
<g>
</g>
<g>
</g>
<g>
</g>
<g>
</g>
<g>
</g>
<g>
</g>
<g>
</g>
<g>
</g>
<g>
</g>
</svg>
