<svg xmlns="http://www.w3.org/2000/svg" width="16.573" height="16.573" viewBox="0 0 16.573 16.573"><defs><style>.a{fill:#8294a5;}</style></defs><path class="a" d="M16.5.381A.691.691,0,0,0,15.882,0H.69A.691.691,0,0,0,.138,1.1L6.215,9.269v5.923A1.391,1.391,0,0,0,7.6,16.573a1.376,1.376,0,0,0,.829-.276l1.381-1.036a1.386,1.386,0,0,0,.552-1.1V9.269L16.435,1.1A.691.691,0,0,0,16.5.381ZM3.741,1.519l2.72,3.625a.345.345,0,0,1,.069.207v.863a.345.345,0,0,1-.621.207L2.5,1.933a.345.345,0,0,1,.276-.552h.691A.345.345,0,0,1,3.741,1.519Z" transform="translate(0)"/></svg>