<svg id="Icons_Fire" data-name="Icons / Fire" xmlns="http://www.w3.org/2000/svg" xmlns:xlink="http://www.w3.org/1999/xlink" width="38.992" height="45.994" viewBox="0 0 38.992 45.994">
  <defs>
    <clipPath id="clip-path">
      <path id="Color" d="M19.495,45.994h-.019A19.5,19.5,0,0,1,5.67,12.74L8.226,10.2a2.635,2.635,0,0,1,1.855-.752,2.708,2.708,0,0,1,.673.085,2.588,2.588,0,0,1,1.84,1.829,9.122,9.122,0,0,0,1.7,3.812c1-1.036,2.594-5.034,2.594-11.353,0-.376,0-.732-.021-1.086a2.529,2.529,0,0,1,.8-2.015A2.677,2.677,0,0,1,19.506,0a2.565,2.565,0,0,1,1.843.757L33.286,12.743A19.477,19.477,0,0,1,19.495,45.994ZM9.076,16.637a14.522,14.522,0,0,0,.335,20.051,14.132,14.132,0,0,0,10.07,4.194h.014a14.192,14.192,0,0,0,10.1-4.194,14.419,14.419,0,0,0-.023-20.368l-7.764-7.8c-.925,7.458-3.738,11.912-7.521,11.912-1.442,0-3.517-.659-5.213-3.8Z"/>
    </clipPath>
  </defs>
  <g id="Group_209" data-name="Group 209" transform="translate(0 0)">
    <path id="Color-2" data-name="Color" d="M19.495,45.994h-.019A19.5,19.5,0,0,1,5.67,12.74L8.226,10.2a2.635,2.635,0,0,1,1.855-.752,2.708,2.708,0,0,1,.673.085,2.588,2.588,0,0,1,1.84,1.829,9.122,9.122,0,0,0,1.7,3.812c1-1.036,2.594-5.034,2.594-11.353,0-.376,0-.732-.021-1.086a2.529,2.529,0,0,1,.8-2.015A2.677,2.677,0,0,1,19.506,0a2.565,2.565,0,0,1,1.843.757L33.286,12.743A19.477,19.477,0,0,1,19.495,45.994ZM9.076,16.637a14.522,14.522,0,0,0,.335,20.051,14.132,14.132,0,0,0,10.07,4.194h.014a14.192,14.192,0,0,0,10.1-4.194,14.419,14.419,0,0,0-.023-20.368l-7.764-7.8c-.925,7.458-3.738,11.912-7.521,11.912-1.442,0-3.517-.659-5.213-3.8Z" transform="translate(0 0)"/>
  </g>
</svg>
