<?xml version="1.0" encoding="iso-8859-1"?>
<!-- Generator: Adobe Illustrator 19.0.0, SVG Export Plug-In . SVG Version: 6.00 Build 0)  -->
<svg version="1.1" id="Capa_1" xmlns="http://www.w3.org/2000/svg" xmlns:xlink="http://www.w3.org/1999/xlink" x="0px" y="0px"
	 viewBox="0 0 511.991 511.991" style="enable-background:new 0 0 511.991 511.991;" xml:space="preserve">
<g>
	<g>
		<path d="M416.754,246.62c-2.344-7.073-8.273-12.36-15.569-13.888l-100.418-21.017l30.294-187.442
			c1.5-9.291-3.383-18.443-11.942-22.363c-8.566-3.927-18.68-1.66-24.735,5.552L99.074,239.742
			c-4.443,5.287-5.992,12.437-4.136,19.092c1.855,6.655,6.885,11.97,13.428,14.188l97.397,33.056l-39.278,180.544
			c-2.023,9.312,2.497,18.813,11,23.116c3.006,1.521,6.243,2.253,9.445,2.253c5.859,0,11.621-2.462,15.695-7.08l209.959-237.847
			C417.514,261.477,419.105,253.693,416.754,246.62z M224.485,416.896l26.151-120.186c2.267-10.407-3.641-20.849-13.721-24.267
			l-86.097-29.22L277.665,92.38l-21.394,132.372c-1.786,11.035,5.427,21.526,16.371,23.821l84.772,17.738L224.485,416.896z"/>
	</g>
</g>
<g>
</g>
<g>
</g>
<g>
</g>
<g>
</g>
<g>
</g>
<g>
</g>
<g>
</g>
<g>
</g>
<g>
</g>
<g>
</g>
<g>
</g>
<g>
</g>
<g>
</g>
<g>
</g>
<g>
</g>
</svg>
