<svg width="19" height="19" viewBox="0 0 19 19" fill="none" xmlns="http://www.w3.org/2000/svg">
<path d="M10.1901 18.3881C10.1912 18.3887 10.1924 18.389 10.1937 18.389C10.195 18.389 10.1962 18.3887 10.1973 18.3881C10.1962 18.3887 10.195 18.389 10.1937 18.389C10.1924 18.389 10.1912 18.3887 10.1901 18.3881L10.175 18.3734L10.1315 18.3312C9.95176 18.1414 9.85289 17.8903 9.85454 17.6299V17.6072L9.87747 14.4148C9.87694 14.1999 9.94678 13.9906 10.0766 13.8185C10.2065 13.6464 10.3887 13.5208 10.5968 13.4605C11.5589 13.171 12.383 12.5455 12.9154 11.7001C13.4478 10.8547 13.6526 9.8469 13.4923 8.86309C13.4616 8.6663 13.4907 8.46484 13.5762 8.28467C13.6618 8.1045 13.8002 7.9536 13.9727 7.85161L16.6914 6.24647L16.7723 6.19862C16.9068 6.11748 17.0592 6.07022 17.2164 6.06104C17.3736 6.05186 17.5307 6.08107 17.6739 6.14598C17.7998 6.20146 17.9127 6.28222 18.0052 6.38345V6.38345C18.1297 6.49986 18.2209 6.64686 18.2701 6.80933C18.5519 7.70663 18.6948 8.64111 18.6931 9.58087C18.7077 11.7462 17.9496 13.8468 16.5526 15.5116C15.1556 17.1763 13.2092 18.2982 11.0585 18.6785C11.0049 18.6865 10.951 18.6908 10.8968 18.6913C10.7643 18.6915 10.6333 18.6645 10.5117 18.6124C10.3901 18.5602 10.2807 18.4839 10.1901 18.3881V18.3881ZM10.5715 18.4733C10.4661 18.4721 10.3617 18.4532 10.2625 18.418C10.3609 18.453 10.4645 18.4718 10.5691 18.4733H10.5715ZM10.1219 17.6138C10.1314 17.6122 10.1406 17.6099 10.1496 17.6066L10.1219 17.6138ZM9.92997 14.4717L9.90946 17.5955L9.93239 14.4717C9.93231 14.2989 9.97734 14.1291 10.0633 13.9788C10.1493 13.8285 10.2734 13.7028 10.423 13.6142C10.2738 13.7033 10.1499 13.8289 10.0639 13.9791C9.978 14.1293 9.93291 14.299 9.93239 14.4717H9.92997ZM10.9456 17.3664L11.0585 17.3254L10.9456 17.3664ZM11.1086 17.3051L11.1707 17.2812L11.1086 17.3051ZM11.2323 17.2585L11.289 17.236L11.2323 17.2585ZM11.3439 17.2139L11.4061 17.1882L11.3439 17.2139ZM11.4586 17.1666L11.5606 17.1227L11.4586 17.1666ZM11.5708 17.1185L11.6825 17.0682L11.5708 17.1185ZM11.7018 17.0572L11.8026 17.0099L11.7018 17.0572ZM11.8147 17.0045C11.9992 16.9167 12.1798 16.8232 12.3566 16.724C12.1782 16.8253 11.997 16.9199 11.8128 17.0081L11.8147 17.0045ZM13.6064 9.58027C13.6068 9.35891 13.5891 9.13782 13.5533 8.91931C13.588 9.13913 13.6046 9.36137 13.6028 9.58386L13.6064 9.58027ZM17.9038 6.53059C18.1831 7.42837 18.325 8.36263 18.3238 9.30213C18.325 8.36263 18.1831 7.42837 17.9038 6.53059C17.8687 6.41598 17.8124 6.30888 17.7372 6.21507C17.8115 6.31027 17.8666 6.41855 17.9002 6.53418L17.9038 6.53059ZM18.3793 9.15708C18.3744 8.8741 18.3541 8.5941 18.3238 8.31847C18.3498 8.59777 18.3708 8.87769 18.3751 9.16067L18.3793 9.15708ZM13.5533 8.91931C13.5226 8.72236 13.5521 8.52088 13.6372 8.3403C13.7222 8.15973 13.8592 8.00804 14.0312 7.90485C13.8576 8.00742 13.7188 8.15945 13.6329 8.3409C13.5471 8.52235 13.5181 8.72497 13.5497 8.9229L13.5533 8.91931ZM17.7246 6.19742L17.6968 6.18456L17.7246 6.19742ZM17.6847 6.17948C17.6798 6.17948 17.6739 6.17959 17.6715 6.17469C17.669 6.16979 17.6762 6.18084 17.6805 6.18635L17.6847 6.17948ZM17.6648 6.1723C17.6543 6.1723 17.6469 6.16488 17.6371 6.16243C17.6426 6.16855 17.6507 6.17344 17.6606 6.17589L17.6648 6.1723ZM17.5308 6.13491C17.5208 6.13199 17.5105 6.13016 17.5001 6.12983C17.5092 6.13168 17.5181 6.13466 17.5266 6.1385L17.5308 6.13491ZM7.88236 18.6498C5.7457 18.2566 3.81665 17.1309 2.4329 15.47C1.04916 13.8091 0.29887 11.7189 0.313472 9.56502C0.31304 8.43975 0.516493 7.32334 0.914541 6.2695C0.967334 6.12979 1.05216 6.00427 1.16197 5.90223C1.07265 5.99609 1.00307 6.10651 0.957389 6.22733C0.558922 7.28107 0.355266 8.39722 0.355716 9.52255C0.355266 8.39722 0.558922 7.28107 0.957389 6.22733C1.007 6.09288 1.08605 5.97082 1.18852 5.86993C1.29099 5.76904 1.41464 5.69181 1.55061 5.64353C1.68659 5.59526 1.83167 5.57713 1.97546 5.59059C2.11926 5.60406 2.25776 5.64864 2.38221 5.72129L2.53912 5.814L5.12142 7.33899C5.30993 7.45194 5.45637 7.62227 5.53963 7.8244C5.6229 8.02652 5.63857 8.24969 5.58369 8.46113C5.30788 9.48955 5.44475 10.5839 5.96569 11.5144C6.48664 12.4449 7.35083 13.139 8.37721 13.4512C8.5868 13.513 8.77055 13.6408 8.90043 13.8152C9.03031 13.9896 9.09927 14.2011 9.09717 14.4178L9.07665 17.4552C9.07665 17.4552 9.07676 17.4552 9.07182 17.4552C9.06688 17.4552 9.07665 17.4552 9.07665 17.4552V17.6278C9.07607 17.7623 9.04884 17.8955 8.99578 18.0193C8.94273 18.1431 8.86492 18.2551 8.76767 18.3489C8.73016 18.3837 8.69111 18.4165 8.64999 18.447C8.69111 18.4165 8.73016 18.3837 8.76767 18.3489C8.71265 18.4066 8.6518 18.4585 8.58602 18.5038C8.37959 18.6405 8.1279 18.6924 7.88356 18.6489L7.88236 18.6498ZM8.46351 18.5095C8.44169 18.5107 8.41955 18.5107 8.39773 18.5095C8.41824 18.512 8.43863 18.5133 8.45929 18.5137L8.46351 18.5095ZM8.34462 18.4518C7.78054 18.353 7.22734 18.2011 6.69229 17.9984C7.22579 18.2023 7.77764 18.3556 8.3404 18.456L8.34462 18.4518ZM0.732893 9.41189C0.720704 11.4787 1.41174 13.4891 2.69421 15.1189C3.97668 16.7486 5.77604 17.9024 7.80149 18.394C5.77604 17.9024 3.97668 16.7486 2.69421 15.1189C1.41174 13.4891 0.720704 11.4787 0.732893 9.41189ZM9.03501 17.4968C7.04008 16.9811 5.27528 15.8213 4.01946 14.2007C2.76364 12.5801 2.08797 10.591 2.09978 8.54756C2.08658 10.5912 2.7609 12.581 4.01584 14.2025C5.27078 15.824 7.03534 16.985 9.03018 17.5019L9.03501 17.4968ZM9.03501 17.4418C7.04966 16.9193 5.29555 15.7583 4.04782 14.1409C2.8001 12.5235 2.12923 10.5414 2.14082 8.50539C2.12799 10.5419 2.79808 12.5249 4.04541 14.1433C5.29274 15.7616 7.04688 16.9234 9.03259 17.4466L9.03501 17.4418ZM6.96567 12.7915C6.47536 12.4058 6.08012 11.915 5.80879 11.3559C5.53745 10.7968 5.39759 10.1839 5.39963 9.56352C5.39662 10.1846 5.53594 10.7983 5.80698 11.3583C6.07802 11.9183 6.47323 12.4102 6.96385 12.7965L6.96567 12.7915ZM2.49205 5.86545L2.51739 5.8801L2.49205 5.86545L2.33514 5.77273L2.49205 5.86545ZM12.5443 6.83685C12.19 6.42398 11.7542 6.0873 11.2637 5.8478C10.7732 5.6083 10.2383 5.47109 9.6922 5.44435C9.14607 5.4176 8.60009 5.50187 8.08814 5.69228C7.5762 5.88269 7.10939 6.17498 6.71582 6.55123C6.56199 6.69808 6.36377 6.79069 6.15157 6.81471C5.93936 6.83874 5.72473 6.79301 5.54145 6.68432L2.81793 5.07648L2.79017 5.05914C2.67112 4.98851 2.56823 4.89426 2.48782 4.78219C2.40741 4.67013 2.3513 4.54269 2.32307 4.40805C2.29032 4.25855 2.29238 4.10384 2.32911 3.95525C2.36583 3.80666 2.43613 3.66816 2.53489 3.5506C3.4131 2.50122 4.52124 1.66418 5.77499 1.10326C7.02875 0.542335 8.39512 0.272351 9.77005 0.313694C11.145 0.355037 12.4924 0.7067 13.7096 1.34192C14.9267 1.97714 15.9816 2.87926 16.794 3.97947C16.88 4.095 16.9403 4.22734 16.9708 4.36767C17.0013 4.50801 17.0012 4.65321 16.9708 4.79356C16.9432 4.92849 16.8872 5.05614 16.8067 5.1683C16.7261 5.28046 16.6227 5.37461 16.5031 5.44465L16.4959 5.44943L13.7923 7.04201C13.643 7.13124 13.4717 7.17892 13.2974 7.17989C13.1545 7.1795 13.0136 7.14831 12.884 7.08867C12.7544 7.02903 12.6392 6.94239 12.5467 6.83445L12.5443 6.83685ZM13.2696 7.13024C13.1405 7.12741 13.0135 7.09915 12.8955 7.0471C12.7775 6.99504 12.6714 6.92017 12.5829 6.82698C12.6716 6.91973 12.7775 6.99397 12.8955 7.0456C13.0135 7.09723 13.1407 7.12534 13.2696 7.12785V7.13024ZM12.5443 6.7872C12.1678 6.34942 11.7 5.99779 11.1731 5.75658C10.6463 5.51537 10.0734 5.39018 9.49305 5.38991C10.0736 5.38952 10.6471 5.514 11.1744 5.75479C11.7016 5.99558 12.1698 6.34716 12.5467 6.78481L12.5443 6.7872ZM6.0013 6.76925C5.85184 6.76242 5.70562 6.72228 5.57403 6.65172C5.70583 6.72143 5.85204 6.76078 6.0013 6.76686V6.76925ZM16.9684 4.76903C16.9683 4.77087 16.9683 4.77258 16.9684 4.77442C16.9585 4.72989 16.9452 4.68617 16.9292 4.64342C16.9439 4.68362 16.9562 4.72486 16.9654 4.76664L16.9684 4.76903ZM16.9231 4.62637C16.9231 4.62147 16.9233 4.61895 16.9183 4.6165C16.9134 4.61405 16.9176 4.6188 16.9201 4.62308L16.9231 4.62637ZM2.32609 4.39848C2.32609 4.39358 2.32597 4.38872 2.33092 4.38382C2.32842 4.38782 2.32593 4.39144 2.32307 4.39519L2.32609 4.39848Z" fill="#8E9AAE"/>
</svg>
