<svg width="132" height="170" viewBox="0 0 132 170" fill="none" xmlns="http://www.w3.org/2000/svg">
<path d="M5.32485 0.63573L0.452148 4.10474L44.4871 63.396L49.3598 59.927L5.32485 0.63573Z" fill="#9564E6"/>
<path d="M38.1646 70.6981C36.3994 68.9709 35.1967 66.7692 34.7086 64.3717C34.2205 61.9743 34.469 59.4888 35.4226 57.2298C36.3762 54.9708 37.9921 53.0398 40.0658 51.6812C42.1394 50.3226 44.5777 49.5974 47.072 49.5974C49.5664 49.5974 52.0046 50.3226 54.0783 51.6812C56.152 53.0398 57.7679 54.9708 58.7215 57.2298C59.6751 59.4888 59.9236 61.9743 59.4355 64.3717C58.9474 66.7692 57.7447 68.9709 55.9795 70.6981C53.6158 73.0111 50.4122 74.3102 47.072 74.3102C43.7319 74.3102 40.5283 73.0111 38.1646 70.6981V70.6981Z" fill="#9564E6"/>
<path d="M48.7188 64.3345L110.261 168.665" stroke="#9564E5" stroke-width="5"/>
</svg>
