<svg width="123" height="176" viewBox="0 0 123 176" fill="none" xmlns="http://www.w3.org/2000/svg">
<path d="M2.53027 172.161L71.8947 67.6129" stroke="#0886DE" stroke-width="4"/>
<path d="M117.112 0.47444L74.9375 61.1047L79.9234 64.4261L122.098 3.79579L117.112 0.47444Z" fill="#278CE9"/>
<path d="M65.1288 56.027C66.8911 54.2969 69.1375 53.1182 71.5836 52.6398C74.0297 52.1614 76.5656 52.4049 78.8704 53.3396C81.1752 54.2742 83.1454 55.8579 84.5316 57.8904C85.9178 59.9228 86.6577 62.3126 86.6577 64.7573C86.6577 67.202 85.9178 69.5918 84.5316 71.6242C83.1454 73.6567 81.1752 75.2404 78.8704 76.175C76.5656 77.1097 74.0297 77.3532 71.5836 76.8748C69.1375 76.3964 66.8911 75.2177 65.1288 73.4876C62.7688 71.1709 61.4434 68.031 61.4434 64.7573C61.4434 61.4836 62.7688 58.3437 65.1288 56.027Z" fill="#278CE9"/>
</svg>
