<svg width="133" height="190" viewBox="0 0 133 190" fill="none" xmlns="http://www.w3.org/2000/svg">
<path d="M92.2742 131.389L2.65282 14.4008" stroke="#3ADF90" stroke-width="5"/>
<path d="M91.9707 125.008L86.9131 128.201L127.59 189.847L132.648 186.654L91.9707 125.008Z" fill="#3ADF90"/>
<path d="M96.1377 115.035C97.9029 116.763 99.1056 118.964 99.5937 121.362C100.082 123.759 99.8333 126.245 98.8797 128.504C97.9261 130.763 96.3101 132.694 94.2365 134.052C92.1628 135.411 89.7246 136.136 87.2302 136.136C84.7359 136.136 82.2976 135.411 80.2239 134.052C78.1502 132.694 76.5344 130.763 75.5808 128.504C74.6271 126.245 74.3787 123.759 74.8668 121.362C75.3549 118.964 76.5576 116.763 78.3228 115.035C80.6865 112.722 83.8901 111.423 87.2302 111.423C90.5703 111.423 93.774 112.722 96.1377 115.035Z" fill="#3ADF90"/>
</svg>
