<svg xmlns="http://www.w3.org/2000/svg" width="14.184" height="16.284" viewBox="0 0 14.184 16.284">
  <g id="grow" transform="translate(0.081 0.2)">
    <path id="Path_24307" data-name="Path 24307" d="M13.465,4.066A7.014,7.014,0,0,0,7.535.023L7.276,0l-.23.006A5.469,5.469,0,0,0,4.77.595,5.532,5.532,0,0,0,1.712,5.561v.985L.162,9.13a.265.265,0,0,0,.227.4H2.046l-.161,2.386a1.314,1.314,0,0,0,1.046,1.516.282.282,0,0,0,.053.005l.028,0,1.611-.175v2.357a.265.265,0,0,0,.265.265h6.352a.265.265,0,0,0,.265-.265v-2.63l2.069-5.11a5.133,5.133,0,0,0-.109-3.811ZM13.079,7.69,11,12.84a.257.257,0,0,0-.016.119c0,.005,0,.01,0,.016v2.38H5.153V12.972c0-.005,0-.01,0-.016s0-.012,0-.018a.272.272,0,0,0-.014-.045.254.254,0,0,0-.01-.033.268.268,0,0,0-.042-.064s0-.009-.008-.013,0,0-.006,0a.26.26,0,0,0-.212-.077L3,12.905a.8.8,0,0,1-.587-.926l.183-2.694A.265.265,0,0,0,2.347,9H.857L2.2,6.755a.166.166,0,0,0,.006-.017.247.247,0,0,0,.018-.05.279.279,0,0,0,.011-.053c0-.006,0-.011,0-.018V5.561a5.008,5.008,0,0,1,2.765-4.5A4.951,4.951,0,0,1,7.067.532h.21a6.5,6.5,0,0,1,5.7,3.748,4.6,4.6,0,0,1,.1,3.41Zm0,0" transform="translate(0)" fill="#34b53a" stroke="#34b53a" stroke-width="0.4"/>
    <path id="Path_24308" data-name="Path 24308" d="M183.352,376.409a.231.231,0,0,0-.318,0l-1.271,1.27a.225.225,0,0,0,.159.383h.6v2.021a.225.225,0,0,0,.225.225h.9a.225.225,0,0,0,.225-.225v-2.021h.6a.225.225,0,0,0,.159-.383Zm.29,1.2a.225.225,0,0,0-.225.225v2.021h-.449v-2.021a.225.225,0,0,0-.225-.225h-.279l.728-.728.728.728Zm0,0" transform="translate(-178.318 -371.514)" fill="#34b53a" stroke="#34b53a" stroke-width="0.15"/>
    <path id="Path_24309" data-name="Path 24309" d="M416.566,298.662a.231.231,0,0,0-.318,0l-1.271,1.271a.225.225,0,0,0,.159.383h.6v2.92a.225.225,0,0,0,.224.225h.9a.225.225,0,0,0,.225-.225v-2.92h.6a.225.225,0,0,0,.159-.383Zm.29,1.2a.225.225,0,0,0-.225.225v2.92h-.449v-2.92a.225.225,0,0,0-.225-.225h-.279l.729-.728.728.728Zm0,0" transform="translate(-408.838 -294.664)" fill="#34b53a" stroke="#34b53a" stroke-width="0.15"/>
    <path id="Path_24310" data-name="Path 24310" d="M649.776,220.928a.231.231,0,0,0-.318,0l-1.271,1.27a.225.225,0,0,0,.159.383h.6V226.4a.225.225,0,0,0,.225.225h.9a.225.225,0,0,0,.224-.225v-3.818h.6a.225.225,0,0,0,.159-.383Zm.291,1.2a.225.225,0,0,0-.225.225v3.818h-.449v-3.818a.225.225,0,0,0-.225-.225h-.279l.728-.728.728.728Zm0,0" transform="translate(-639.352 -217.83)" fill="#34b53a" stroke="#34b53a" stroke-width="0.15"/>
  </g>
</svg>
