<svg id="Icons_Bulb" data-name="Icons / Bulb" xmlns="http://www.w3.org/2000/svg" width="43.833" height="43.833" viewBox="0 0 43.833 43.833">
  <path id="Color" d="M24.108,43.833H19.725a4.388,4.388,0,0,1-4.383-4.383V30.674a10.959,10.959,0,1,1,13.149,0V39.45A4.388,4.388,0,0,1,24.108,43.833ZM21.916,15.342A6.569,6.569,0,0,0,18.626,27.6a2.2,2.2,0,0,1,1.1,1.9V39.45h4.383V29.5a2.2,2.2,0,0,1,1.1-1.9,6.569,6.569,0,0,0-3.29-12.257Zm19.725,8.766H37.259a2.191,2.191,0,0,1,0-4.383h4.383a2.191,2.191,0,0,1,0,4.383Zm-35.067,0H2.191a2.191,2.191,0,0,1,0-4.383H6.574a2.191,2.191,0,1,1,0,4.383ZM32.953,13.452A2.191,2.191,0,0,1,31.43,9.685l3.152-3.044a2.186,2.186,0,0,1,1.527-.616A2.19,2.19,0,0,1,37.627,9.79l-3.152,3.048A2.186,2.186,0,0,1,32.953,13.452Zm-22.07,0a2.187,2.187,0,0,1-1.525-.613L6.205,9.791A2.192,2.192,0,1,1,9.251,6.639l3.154,3.044a2.194,2.194,0,0,1,.053,3.1A2.172,2.172,0,0,1,10.882,13.452ZM21.916,8.766a2.194,2.194,0,0,1-2.191-2.191V2.191a2.191,2.191,0,0,1,4.383,0V6.574A2.194,2.194,0,0,1,21.916,8.766Z"/>
</svg>
