<svg xmlns="http://www.w3.org/2000/svg" width="26.667" height="26.668" viewBox="0 0 26.667 26.668"><defs><style>.svg-pencil{fill:#fc9f6a;}</style></defs><path class="svg-pencil" d="M32.358,22.554a.559.559,0,0,0-.4-.165h0a.559.559,0,0,0-.4.164L19.359,34.763a.559.559,0,0,0,0,.79l5.53,5.53a.559.559,0,0,0,.79,0l12.2-12.2a.559.559,0,0,0,0-.789Z" transform="translate(-15.596 -18.176)"/><path class="svg-pencil" d="M3.047,97.312a.56.56,0,0,0-.939.265L.425,104.593a.559.559,0,0,0,.149.525.567.567,0,0,0,.525.148l7.01-1.677a.559.559,0,0,0,.265-.939Z" transform="translate(-0.41 -78.613)"/><path class="svg-pencil" d="M101.289,3.6,98.916,1.222a2.794,2.794,0,0,0-3.948,0L93.384,2.806a.559.559,0,0,0,0,.79l5.533,5.531a.559.559,0,0,0,.79,0l1.583-1.586a2.794,2.794,0,0,0,0-3.945Z" transform="translate(-75.437 -0.406)"/></svg>
