<?xml version="1.0" encoding="iso-8859-1"?>
<!-- Generator: Adobe Illustrator 18.0.0, SVG Export Plug-In . SVG Version: 6.00 Build 0)  -->
<!DOCTYPE svg PUBLIC "-//W3C//DTD SVG 1.1//EN" "http://www.w3.org/Graphics/SVG/1.1/DTD/svg11.dtd">
<svg version="1.1" id="Capa_1" xmlns="http://www.w3.org/2000/svg" xmlns:xlink="http://www.w3.org/1999/xlink" x="0px" y="0px"
	 viewBox="0 0 469.863 469.863" style="enable-background:new 0 0 469.863 469.863;" xml:space="preserve">
<g>
	<path d="M407.82,260.136c-7.237-8.363-15.384-16.795-24.307-25.204c8.923-8.409,17.07-16.841,24.307-25.204
		c15.082-17.429,25.56-33.779,31.143-48.597c6.455-17.133,6.262-31.824-0.574-43.665s-19.462-19.354-37.527-22.33
		c-15.626-2.574-35.024-1.675-57.658,2.672c-10.861,2.086-22.237,4.925-33.981,8.448c-2.568-10.863-5.478-21.17-8.713-30.815
		c5.027-4.79,8.169-11.54,8.169-19.015c0-14.49-11.789-26.278-26.278-26.278c-0.95,0-1.887,0.053-2.811,0.152
		c-2.129-3.23-4.313-6.23-6.556-8.965C261.423,7.178,248.604,0,234.931,0S208.44,7.178,196.83,21.335
		c-10.041,12.244-18.962,29.494-26.515,51.269c-3.624,10.449-6.853,21.72-9.674,33.652c-11.744-3.523-23.12-6.363-33.981-8.448
		c-22.635-4.347-42.034-5.246-57.658-2.672c-18.065,2.976-30.691,10.489-37.527,22.33s-7.029,26.532-0.574,43.665
		c5.583,14.818,16.061,31.168,31.143,48.597c7.237,8.363,15.384,16.795,24.307,25.204c-5.352,5.043-10.427,10.095-15.189,15.135
		c-2.454-0.76-5.061-1.171-7.762-1.171c-14.49,0-26.278,11.789-26.278,26.278c0,4.938,1.371,9.561,3.749,13.511
		c-4.221,6.944-7.555,13.64-9.97,20.048c-6.456,17.133-6.262,31.823,0.574,43.664s19.462,19.354,37.527,22.33
		c5.798,0.955,12.115,1.432,18.925,1.432c11.541,0,24.498-1.37,38.732-4.104c10.861-2.086,22.237-4.925,33.981-8.448
		c2.821,11.933,6.05,23.204,9.674,33.653c7.553,21.775,16.474,39.024,26.515,51.269c11.61,14.157,24.429,21.335,38.102,21.335
		s26.492-7.178,38.102-21.335c10.041-12.244,18.962-29.494,26.516-51.269c3.624-10.449,6.853-21.72,9.674-33.653
		c10.344,3.103,20.401,5.675,30.072,7.668c2.688,11.654,13.142,20.372,25.601,20.372c10.723,0,19.961-6.459,24.042-15.688
		c4.18-0.218,8.172-0.614,11.923-1.232c18.065-2.976,30.691-10.489,37.527-22.33s7.029-26.531,0.574-43.664
		C433.38,293.916,422.902,277.565,407.82,260.136z M346.975,117.449c38.507-7.395,66.204-3.649,74.093,10.017
		c7.89,13.666-2.716,39.526-28.372,69.175c-7.133,8.243-15.208,16.569-24.098,24.88c-14.387-12.364-30.353-24.571-47.525-36.323
		c-1.592-20.747-4.18-40.677-7.694-59.319C325.022,122.335,336.27,119.505,346.975,117.449z M268.942,293.839
		c-11.333,6.543-22.705,12.656-34.01,18.302c-11.306-5.646-22.677-11.759-34.01-18.302c-11.333-6.543-22.313-13.335-32.855-20.303
		c-0.763-12.614-1.155-25.518-1.155-38.605s0.392-25.991,1.155-38.605c10.542-6.968,21.522-13.759,32.855-20.303
		c11.333-6.543,22.705-12.656,34.01-18.302c11.306,5.646,22.677,11.759,34.01,18.302c11.333,6.543,22.313,13.335,32.855,20.303
		c0.763,12.614,1.155,25.518,1.155,38.605s-0.392,25.991-1.155,38.605C291.255,280.505,280.276,287.296,268.942,293.839z
		 M299.746,298.634c-1.399,13.505-3.246,26.554-5.518,39.003c-11.916-4.257-24.141-9.182-36.536-14.723
		c7.087-3.754,14.178-7.672,21.25-11.754C286.014,307.077,292.952,302.895,299.746,298.634z M212.171,322.914
		c-12.395,5.541-24.62,10.466-36.536,14.723c-2.271-12.448-4.119-25.498-5.518-39.003c6.795,4.261,13.733,8.443,20.804,12.526
		C197.993,315.242,205.084,319.16,212.171,322.914z M147.356,259.211c-10.996-7.964-21.373-16.089-31.018-24.28
		c9.645-8.191,20.023-16.316,31.018-24.28c-0.293,8.015-0.445,16.115-0.445,24.28S147.064,251.197,147.356,259.211z
		 M170.117,171.229c1.399-13.504,3.246-26.554,5.518-39.003c11.916,4.257,24.141,9.182,36.536,14.723
		c-7.087,3.754-14.178,7.672-21.25,11.754C183.85,162.786,176.912,166.969,170.117,171.229z M257.692,146.949
		c12.395-5.541,24.62-10.466,36.536-14.723c2.271,12.448,4.119,25.498,5.518,39.003c-6.795-4.261-13.733-8.443-20.804-12.526
		C271.871,154.621,264.78,150.703,257.692,146.949z M322.507,210.652c10.996,7.964,21.373,16.089,31.018,24.28
		c-9.645,8.191-20.023,16.316-31.018,24.28c0.293-8.015,0.445-16.115,0.445-24.28S322.8,218.667,322.507,210.652z M189.21,79.158
		C202.059,42.115,219.151,20,234.931,20c8.926,0,18.272,7.081,27.032,19.932c-3.65,4.513-5.842,10.251-5.842,16.494
		c0,14.305,11.491,25.969,25.727,26.265c3.088,9.303,5.861,19.264,8.302,29.777c-17.901,6.278-36.455,14.001-55.219,22.996
		c-18.764-8.995-37.318-16.718-55.219-22.996C182.465,100.614,185.638,89.457,189.21,79.158z M77.167,196.641
		c-25.656-29.649-36.262-55.509-28.372-69.175c5.222-9.045,19.12-13.744,39.087-13.744c10.2,0,21.986,1.227,35.006,3.727
		c10.705,2.056,21.953,4.886,33.596,8.429c-3.514,18.642-6.102,38.572-7.694,59.319c-17.172,11.752-33.137,23.959-47.525,36.323
		C92.376,213.21,84.3,204.884,77.167,196.641z M122.889,352.414c-38.504,7.396-66.203,3.65-74.093-10.017
		c-5.323-9.219-2.216-23.992,8.237-41.729c2.04,0.51,4.171,0.784,6.367,0.784c14.49,0,26.278-11.789,26.278-26.279
		c0-4.45-1.116-8.643-3.076-12.321c4.598-4.829,9.489-9.672,14.664-14.511c14.387,12.364,30.353,24.57,47.524,36.323
		c1.592,20.748,4.18,40.677,7.694,59.319C144.842,347.528,133.594,350.358,122.889,352.414z M280.653,390.705
		c-12.849,37.043-29.941,59.158-45.721,59.158s-32.872-22.115-45.721-59.158c-3.572-10.299-6.745-21.455-9.498-33.31
		c17.901-6.278,36.455-14.001,55.219-22.996c18.764,8.995,37.318,16.718,55.219,22.996
		C287.398,369.25,284.225,380.406,280.653,390.705z M421.068,342.397c-4.547,7.876-15.683,12.45-31.666,13.502
		c-3.809-9.823-13.354-16.81-24.507-16.81c-9.414,0-17.684,4.979-22.325,12.439c-9.373-1.957-19.134-4.483-29.191-7.544
		c3.514-18.642,6.102-38.572,7.694-59.319c17.172-11.752,33.137-23.958,47.524-36.323c8.89,8.311,16.965,16.637,24.098,24.88
		C418.352,302.872,428.958,328.731,421.068,342.397z"/>
	<path d="M234.931,193.433c-22.882,0-41.498,18.616-41.498,41.499s18.616,41.499,41.498,41.499s41.499-18.616,41.499-41.499
		S257.814,193.433,234.931,193.433z M234.931,256.43c-11.854,0-21.498-9.644-21.498-21.499s9.644-21.499,21.498-21.499
		c11.854,0,21.499,9.644,21.499,21.499S246.786,256.43,234.931,256.43z"/>
</g>
<g>
</g>
<g>
</g>
<g>
</g>
<g>
</g>
<g>
</g>
<g>
</g>
<g>
</g>
<g>
</g>
<g>
</g>
<g>
</g>
<g>
</g>
<g>
</g>
<g>
</g>
<g>
</g>
<g>
</g>
</svg>
