<svg xmlns="http://www.w3.org/2000/svg" width="14.657" height="16.282" viewBox="0 0 14.657 16.282">
  <g id="science" transform="translate(-26.479 0.2)">
    <g id="Group_18174" data-name="Group 18174" transform="translate(26.695)">
      <g id="Group_18173" data-name="Group 18173" transform="translate(0)">
        <path id="Path_24305" data-name="Path 24305" d="M39.869,8.486c-.138-.182-.287-.364-.447-.545.159-.181.309-.363.447-.545,1.021-1.352,1.311-2.568.816-3.425a1.718,1.718,0,0,0-.276-.358,1.47,1.47,0,1,0-2.777-.68,8.98,8.98,0,0,0-1.015.146C35.977,1.2,34.966,0,33.808,0S31.639,1.194,31,3.077c-1.95-.387-3.49-.109-4.069.893-.495.857-.205,2.074.816,3.425.138.182.287.364.447.545-.159.181-.309.363-.447.545-1.021,1.352-1.311,2.568-.816,3.425a1.7,1.7,0,0,0,.191.266,1.47,1.47,0,1,0,2.831.775A8.922,8.922,0,0,0,31,12.8c.64,1.884,1.651,3.079,2.809,3.079s2.169-1.195,2.809-3.078a8.124,8.124,0,0,0,1.565.169,2.712,2.712,0,0,0,2.5-1.062C41.18,11.054,40.89,9.838,39.869,8.486ZM39.1,2.059a.882.882,0,1,1-.882.882A.883.883,0,0,1,39.1,2.059ZM36.576,5.508q-.485-.323-1-.623t-1.044-.559a13.446,13.446,0,0,1,1.685-.553A13.729,13.729,0,0,1,36.576,5.508ZM33.808.588c.881,0,1.687,1.029,2.231,2.623a14.674,14.674,0,0,0-2.228.779,14.433,14.433,0,0,0-2.234-.781C32.122,1.616,32.927.588,33.808.588ZM31.4,3.774a13.743,13.743,0,0,1,1.683.554c-.349.172-.7.357-1.042.556s-.681.408-1,.623A13.723,13.723,0,0,1,31.4,3.774Zm-3.962.491A2.133,2.133,0,0,1,29.4,3.49a7.514,7.514,0,0,1,1.427.155,14.453,14.453,0,0,0-.439,2.322,14.548,14.548,0,0,0-1.79,1.541q-.2-.233-.378-.466C27.359,5.907,27.076,4.895,27.44,4.265Zm2.876,4.86a13.351,13.351,0,0,1-1.323-1.184,13.343,13.343,0,0,1,1.323-1.184q-.037.578-.038,1.184T30.316,9.125Zm-1.8,4.4a.882.882,0,1,1,.882-.882A.883.883,0,0,1,28.514,13.529Zm1.442-1.168a1.468,1.468,0,0,0-2.505-.728l-.011-.016c-.364-.63-.081-1.642.776-2.777q.176-.233.378-.466a14.545,14.545,0,0,0,1.79,1.541,14.449,14.449,0,0,0,.439,2.323A8.327,8.327,0,0,1,29.956,12.362Zm1.083-1.987q.485.323,1,.623c.349.2.7.386,1.044.558a13.5,13.5,0,0,1-1.685.554A13.716,13.716,0,0,1,31.039,10.374Zm2.769,4.92c-.881,0-1.687-1.029-2.231-2.623a14.738,14.738,0,0,0,2.228-.779,14.449,14.449,0,0,0,2.233.782C35.494,14.266,34.688,15.294,33.808,15.294Zm2.406-3.186a13.715,13.715,0,0,1-1.684-.553c.349-.172.7-.358,1.043-.557s.681-.408,1-.623A13.727,13.727,0,0,1,36.214,12.108ZM36.67,9.6c-.439.312-.9.611-1.392.893s-.979.534-1.469.758c-.488-.222-.981-.475-1.472-.758s-.953-.581-1.392-.893c-.051-.534-.079-1.088-.079-1.654s.027-1.12.079-1.654c.439-.312.9-.611,1.392-.893s.978-.534,1.468-.758c.488.223.982.475,1.473.758s.953.581,1.392.893c.051.534.079,1.088.079,1.654S36.721,9.061,36.67,9.6Zm1.077-6.082a1.47,1.47,0,0,0,2.289.562,1.116,1.116,0,0,1,.139.189c.364.63.081,1.642-.776,2.777q-.176.233-.378.466a14.542,14.542,0,0,0-1.79-1.541,14.453,14.453,0,0,0-.439-2.323A8.223,8.223,0,0,1,37.747,3.513ZM37.3,6.757a13.343,13.343,0,0,1,1.323,1.184A13.351,13.351,0,0,1,37.3,9.125q.037-.578.037-1.184T37.3,6.757Zm2.876,4.86c-.44.763-1.733.945-3.383.621a14.451,14.451,0,0,0,.439-2.323,14.549,14.549,0,0,0,1.79-1.541q.2.233.378.466C40.256,9.975,40.539,10.987,40.175,11.617Z" transform="translate(-26.695)" fill="#34b53a" stroke="#34b53a" stroke-width="0.4"/>
      </g>
    </g>
    <g id="Group_18176" data-name="Group 18176" transform="translate(32.337 6.582)">
      <g id="Group_18175" data-name="Group 18175">
        <path id="Path_24306" data-name="Path 24306" d="M210.064,199.111a1.471,1.471,0,1,0,1.471,1.471A1.472,1.472,0,0,0,210.064,199.111Zm0,2.353a.882.882,0,1,1,.882-.882A.883.883,0,0,1,210.064,201.464Z" transform="translate(-208.593 -199.111)" fill="#34b53a" stroke="#34b53a" stroke-width="0.3"/>
      </g>
    </g>
  </g>
</svg>
