<svg xmlns="http://www.w3.org/2000/svg" xmlns:xlink="http://www.w3.org/1999/xlink" width="25" height="25" viewBox="0 0 25 25">
  <defs>
    <clipPath id="clip-path">
      <path id="Color" d="M22.222,25H16.666a2.781,2.781,0,0,1-2.778-2.778V16.666a2.781,2.781,0,0,1,2.778-2.778h5.556A2.781,2.781,0,0,1,25,16.666v5.556A2.781,2.781,0,0,1,22.222,25Zm-5.556-8.334v5.556h5.557V16.666ZM8.334,25H2.777A2.781,2.781,0,0,1,0,22.222V16.666a2.781,2.781,0,0,1,2.777-2.778H8.334a2.781,2.781,0,0,1,2.778,2.778v5.556A2.781,2.781,0,0,1,8.334,25ZM2.777,16.666v5.556H8.335V16.666Zm19.445-5.555H16.666a2.781,2.781,0,0,1-2.778-2.778V2.777A2.781,2.781,0,0,1,16.666,0h5.556A2.781,2.781,0,0,1,25,2.777V8.334A2.781,2.781,0,0,1,22.222,11.111ZM16.666,2.777V8.334h5.557V2.777ZM8.334,11.111H2.777A2.781,2.781,0,0,1,0,8.334V2.777A2.781,2.781,0,0,1,2.777,0H8.334a2.781,2.781,0,0,1,2.778,2.777V8.334A2.781,2.781,0,0,1,8.334,11.111ZM2.777,2.777V8.334H8.335V2.777Z" />
    </clipPath>
  </defs>
  <g id="Icons_Grid" data-name="Icons / Grid" transform="translate(-3 -3.167)">
    <path id="Color-2" data-name="Color" d="M22.222,25H16.666a2.781,2.781,0,0,1-2.778-2.778V16.666a2.781,2.781,0,0,1,2.778-2.778h5.556A2.781,2.781,0,0,1,25,16.666v5.556A2.781,2.781,0,0,1,22.222,25Zm-5.556-8.334v5.556h5.557V16.666ZM8.334,25H2.777A2.781,2.781,0,0,1,0,22.222V16.666a2.781,2.781,0,0,1,2.777-2.778H8.334a2.781,2.781,0,0,1,2.778,2.778v5.556A2.781,2.781,0,0,1,8.334,25ZM2.777,16.666v5.556H8.335V16.666Zm19.445-5.555H16.666a2.781,2.781,0,0,1-2.778-2.778V2.777A2.781,2.781,0,0,1,16.666,0h5.556A2.781,2.781,0,0,1,25,2.777V8.334A2.781,2.781,0,0,1,22.222,11.111ZM16.666,2.777V8.334h5.557V2.777ZM8.334,11.111H2.777A2.781,2.781,0,0,1,0,8.334V2.777A2.781,2.781,0,0,1,2.777,0H8.334a2.781,2.781,0,0,1,2.778,2.777V8.334A2.781,2.781,0,0,1,8.334,11.111ZM2.777,2.777V8.334H8.335V2.777Z" transform="translate(3 3.167)"/>
  </g>
</svg>
