<svg width="22" height="21" viewBox="0 0 22 21" fill="none" xmlns="http://www.w3.org/2000/svg">
<g clip-path="url(#clip0)">
<path d="M18.2188 7.54688C18.1282 7.54688 18.0386 7.55245 17.95 7.56066C17.1861 5.75531 15.7447 4.31419 13.9393 3.54998C13.9475 3.46106 13.9531 3.37181 13.9531 3.28125C13.9531 1.65309 12.6285 0.328125 11 0.328125C9.37152 0.328125 8.04688 1.65309 8.04688 3.28125C8.04688 3.37181 8.05245 3.46106 8.06066 3.54966C6.25531 4.31386 4.81419 5.75498 4.04998 7.56033C3.96139 7.55245 3.87181 7.54688 3.78125 7.54688C2.15277 7.54688 0.828125 8.87184 0.828125 10.5C0.828125 12.1282 2.15277 13.4531 3.78125 13.4531C3.87181 13.4531 3.96139 13.4475 4.04998 13.4393C4.81386 15.2444 6.25531 16.6858 8.06066 17.45C8.05245 17.5386 8.04688 17.6282 8.04688 17.7188C8.04688 19.3469 9.37152 20.6719 11 20.6719C12.6285 20.6719 13.9531 19.3469 13.9531 17.7188C13.9531 17.6282 13.9475 17.5386 13.9393 17.45C15.7447 16.6858 17.1861 15.2444 17.95 13.4393C18.0386 13.4475 18.1282 13.4531 18.2188 13.4531C19.8472 13.4531 21.1719 12.1282 21.1719 10.5C21.1719 8.87184 19.8472 7.54688 18.2188 7.54688ZM11 0.984375C12.2662 0.984375 13.2969 2.01469 13.2969 3.28125C13.2969 4.54781 12.2662 5.57812 11 5.57812C9.73377 5.57812 8.70312 4.54781 8.70312 3.28125C8.70312 2.01469 9.73377 0.984375 11 0.984375ZM1.48438 10.5C1.48438 9.23344 2.51502 8.20312 3.78125 8.20312C5.04748 8.20312 6.07812 9.23344 6.07812 10.5C6.07812 11.7666 5.04748 12.7969 3.78125 12.7969C2.51502 12.7969 1.48438 11.7666 1.48438 10.5ZM11 20.0156C9.73377 20.0156 8.70312 18.9853 8.70312 17.7188C8.70312 16.4522 9.73377 15.4219 11 15.4219C12.2662 15.4219 13.2969 16.4522 13.2969 17.7188C13.2969 18.9853 12.2662 20.0156 11 20.0156ZM13.8002 16.7875C13.4091 15.6145 12.3027 14.7656 11 14.7656C9.69734 14.7656 8.59091 15.6145 8.19978 16.7875C6.64742 16.0952 5.40514 14.8529 4.7128 13.3002C5.88552 12.9091 6.73438 11.8027 6.73438 10.5C6.73438 9.19734 5.88552 8.09091 4.7128 7.69978C5.40514 6.14742 6.64742 4.90481 8.19978 4.21247C8.59091 5.38552 9.69734 6.23438 11 6.23438C12.3027 6.23438 13.4091 5.38552 13.8002 4.21247C15.3526 4.90481 16.5952 6.14709 17.2872 7.69978C16.1145 8.09091 15.2656 9.19734 15.2656 10.5C15.2656 11.8027 16.1145 12.9091 17.2872 13.3002C16.5952 14.8526 15.3526 16.0952 13.8002 16.7875ZM18.2188 12.7969C16.9525 12.7969 15.9219 11.7666 15.9219 10.5C15.9219 9.23344 16.9525 8.20312 18.2188 8.20312C19.485 8.20312 20.5156 9.23344 20.5156 10.5C20.5156 11.7666 19.485 12.7969 18.2188 12.7969Z" fill="#8E9AAE"/>
<path d="M9.35938 2.29688H12.6406V2.95312H9.35938V2.29688Z" fill="#8E9AAE"/>
<path d="M10.0156 3.60938H11.9844V4.26562H10.0156V3.60938Z" fill="#8E9AAE"/>
<path d="M2.14062 9.51562H5.42188V10.1719H2.14062V9.51562Z" fill="#8E9AAE"/>
<path d="M2.79688 10.8281H4.76562V11.4844H2.79688V10.8281Z" fill="#8E9AAE"/>
<path d="M16.5781 9.51562H19.8594V10.1719H16.5781V9.51562Z" fill="#8E9AAE"/>
<path d="M17.2344 10.8281H19.2031V11.4844H17.2344V10.8281Z" fill="#8E9AAE"/>
<path d="M9.35938 16.7344H12.6406V17.3906H9.35938V16.7344Z" fill="#8E9AAE"/>
<path d="M10.0156 18.0469H11.9844V18.7031H10.0156V18.0469Z" fill="#8E9AAE"/>
</g>
<defs>
<clipPath id="clip0">
<rect width="21" height="21" fill="white" transform="translate(0.5)"/>
</clipPath>
</defs>
</svg>
