<svg xmlns="http://www.w3.org/2000/svg" width="30.746" height="31.02" viewBox="0 0 30.746 31.02">
  <path id="Union_24" data-name="Union 24" d="M16275.986,6200.521a.013.013,0,0,0,.012,0,.013.013,0,0,1-.012,0l-.024-.024-.07-.069a1.658,1.658,0,0,1-.449-1.145v-.037l.037-5.212a1.619,1.619,0,0,1,1.165-1.558,6.724,6.724,0,0,0,4.685-7.506,1.632,1.632,0,0,1,.777-1.651l4.4-2.621.131-.078a1.559,1.559,0,0,1,1.459-.086,1.6,1.6,0,0,1,.536.388v0a1.58,1.58,0,0,1,.429.695,15.138,15.138,0,0,1,.684,4.525,14.986,14.986,0,0,1-12.354,14.853,1.89,1.89,0,0,1-.262.021A1.566,1.566,0,0,1,16275.986,6200.521Zm.642.139h0Zm-.024,0a1.536,1.536,0,0,1-.5-.09A1.536,1.536,0,0,0,16276.6,6200.66Zm-.7-.225,0,0Zm-.028-1.178a.242.242,0,0,0,.045-.012Zm-.311-5.13-.033,5.1.037-5.1a1.63,1.63,0,0,1,.794-1.4A1.64,1.64,0,0,0,16275.569,6194.127Zm1.644,4.726.183-.067Zm.264-.1.1-.039Zm.2-.076.092-.037Zm.181-.073.1-.042Zm.185-.077.165-.072Zm.182-.079.18-.082Zm.212-.1.163-.077Zm.182-.086q.448-.215.877-.458h0Q16279.059,6198.052,16278.612,6198.268Zm2.9-12.121a6.663,6.663,0,0,0-.086-1.079A6.663,6.663,0,0,1,16281.509,6186.147Zm6.954-4.979a15.291,15.291,0,0,1,.679,4.525,15.291,15.291,0,0,0-.679-4.525,1.555,1.555,0,0,0-.27-.515A1.555,1.555,0,0,1,16288.463,6181.168Zm.769,4.288c-.008-.462-.041-.919-.09-1.369C16289.19,6184.537,16289.224,6184.994,16289.231,6185.456Zm-7.809-.388a1.643,1.643,0,0,1,.773-1.656A1.637,1.637,0,0,0,16281.423,6185.068Zm6.75-4.444-.045-.021Zm-.065-.029c-.008,0-.017,0-.021-.008S16288.1,6180.591,16288.107,6180.6Zm-.032-.012c-.017,0-.029-.012-.045-.016C16288.046,6180.571,16288.059,6180.579,16288.075,6180.583Zm-.217-.061a.2.2,0,0,0-.05-.008A.2.2,0,0,1,16287.858,6180.522Zm-.286-.033h0Zm-15.327,20.465a14.983,14.983,0,0,1-12.248-14.832,15.328,15.328,0,0,1,.973-5.38,1.584,1.584,0,0,1,.4-.6,1.584,1.584,0,0,0-.331.531,15.312,15.312,0,0,0-.974,5.38,15.312,15.312,0,0,1,.974-5.38,1.594,1.594,0,0,1,2.306-.826l.253.151,4.179,2.49a1.658,1.658,0,0,1,.748,1.832,6.717,6.717,0,0,0,4.521,8.147,1.63,1.63,0,0,1,1.165,1.578l-.033,4.959s0,0-.008,0,.008,0,.008,0v.282a1.652,1.652,0,0,1-.5,1.177,2.271,2.271,0,0,1-.191.16,2.271,2.271,0,0,0,.191-.16,1.882,1.882,0,0,1-.294.253,1.552,1.552,0,0,1-1.137.237Zm.957-.229h0Zm-.017,0a.97.97,0,0,1-.106,0A.97.97,0,0,0,16273.186,6200.726Zm-.192-.094a14.6,14.6,0,0,1-2.674-.74A14.6,14.6,0,0,0,16272.993,6200.632Zm-12.317-14.759a15.008,15.008,0,0,0,11.438,14.665,15.008,15.008,0,0,1-11.438-14.665Zm13.434,13.2a15.011,15.011,0,0,1-11.222-14.611A15.011,15.011,0,0,0,16274.109,6199.074Zm0-.09a15.008,15.008,0,0,1-11.156-14.59A15.008,15.008,0,0,0,16274.113,6198.984Zm-3.348-7.592a6.7,6.7,0,0,1-2.535-5.27A6.7,6.7,0,0,0,16270.766,6191.392Zm-7.809-7ZM16263.57,6180.1Zm-.041-.024.041.024-.041-.024-.254-.151Zm-1.034-.376h0Zm13.491,20.825Zm3.81-18.863a6.478,6.478,0,0,0-9.432-.466,1.574,1.574,0,0,1-1.9.217l-4.407-2.625-.045-.028a1.624,1.624,0,0,1-.756-1.063,1.643,1.643,0,0,1,.343-1.4,14.635,14.635,0,0,1,23.074.7,1.654,1.654,0,0,1,.286,1.329,1.606,1.606,0,0,1-.757,1.063l-.012.008-4.375,2.6a1.566,1.566,0,0,1-.8.225A1.6,1.6,0,0,1,16279.8,6181.658Zm1.239.479h0Zm-.065,0a1.575,1.575,0,0,1-1.112-.495A1.575,1.575,0,0,0,16280.97,6182.137Zm-1.174-.56a6.492,6.492,0,0,0-4.938-2.281A6.492,6.492,0,0,1,16279.8,6181.577Zm-10.588-.029a1.608,1.608,0,0,1-.691-.192A1.608,1.608,0,0,0,16269.208,6181.548Zm17.747-3.25Zm0-.016a.063.063,0,0,0,0,.009,1.613,1.613,0,0,0-.063-.214A1.57,1.57,0,0,1,16286.95,6178.282Zm-.073-.233c0-.008,0-.012-.008-.016S16286.873,6178.041,16286.877,6178.048Zm-23.621-.372c0-.008,0-.016.008-.024v0A.244.244,0,0,1,16263.256,6177.676Z" transform="translate(-16259.497 -6170.5)" stroke="rgba(0,0,0,0)" stroke-miterlimit="10" stroke-width="1"/>
</svg>
