<svg xmlns="http://www.w3.org/2000/svg" width="16.236" height="16.268" viewBox="0 0 16.236 16.268">
  <g id="surface1" transform="translate(-0.375 0.125)">
    <path id="Path_24311" data-name="Path 24311" d="M411.5,276.131a2.579,2.579,0,0,0-1.853,2.471v2.319a.258.258,0,0,0,.258.258h4.637a.258.258,0,0,0,.258-.258V278.6a2.579,2.579,0,0,0-1.853-2.471,1.8,1.8,0,1,0-1.446,0Zm2.784,2.471v2.061H410.16V278.6a2.061,2.061,0,1,1,4.122,0Zm-2.061-5.41a1.288,1.288,0,1,1-1.288,1.288A1.288,1.288,0,0,1,412.221,273.192Zm0,0" transform="translate(-403.735 -268.926)" fill="#34b53a" stroke="#34b53a" stroke-width="0.2"/>
    <path id="Path_24312" data-name="Path 24312" d="M156.787,158.433l-.009.022.107.045a1,1,0,0,0,.254.107l.113.048.009-.022a.939.939,0,0,0,.668-.131l.913.913.364-.364-.913-.913a1.021,1.021,0,0,0,.146-.521,1.007,1.007,0,0,0-.015-.147l.022-.009-.048-.114a1,1,0,0,0-.107-.254l-.045-.107-.022.009a1,1,0,0,0-1.545-.107,1.031,1.031,0,0,0,0,1.457A1.045,1.045,0,0,0,156.787,158.433Zm.258-1.181a.515.515,0,1,1,.729.729.527.527,0,0,1-.729,0A.515.515,0,0,1,157.045,157.253Zm0,0" transform="translate(-153.817 -154.526)" fill="#34b53a" stroke="#34b53a" stroke-width="0.25"/>
    <path id="Path_24313" data-name="Path 24313" d="M841.088,839.151l.01-.023-.144-.061A1,1,0,0,0,840.8,839l-.173-.073-.013.031a1.067,1.067,0,0,0-.662.125l-.915-.915-.364.364.913.913a1.021,1.021,0,0,0-.146.521,1.042,1.042,0,0,0,.015.147l-.022.009.048.113a1,1,0,0,0,.107.254l.045.107.022-.009a1.03,1.03,0,1,0,1.545-1.351A.949.949,0,0,0,841.088,839.151Zm-.258,1.18a.527.527,0,0,1-.729,0,.515.515,0,1,1,.729,0Zm0,0" transform="translate(-827.085 -827.085)" fill="#34b53a" stroke="#34b53a" stroke-width="0.25"/>
    <path id="Path_24314" data-name="Path 24314" d="M957.487,524.694a1.009,1.009,0,0,0-.148.015l-.014-.033-.225.1-.029.012-.222.094.014.033a1.028,1.028,0,0,0-.371.557h-1.325v.515h1.325a1.028,1.028,0,0,0,.372.558l-.014.033.222.093.029.012.224.094.014-.033a1.028,1.028,0,1,0,.148-2.046Zm0,1.546a.515.515,0,1,1,.515-.515A.515.515,0,0,1,957.487,526.24Zm0,0" transform="translate(-942.044 -517.738)" fill="#34b53a" stroke="#34b53a" stroke-width="0.25"/>
    <path id="Path_24315" data-name="Path 24315" d="M839.428,157.461l.022.009a1.04,1.04,0,0,0-.015.147,1.021,1.021,0,0,0,.146.521l-.913.913.364.364.913-.913a.938.938,0,0,0,.668.131l.009.022.114-.048a1,1,0,0,0,.254-.107l.107-.045-.009-.022a1.07,1.07,0,0,0,.107-.088,1.031,1.031,0,0,0,0-1.457,1.054,1.054,0,0,0-1.457,0,1.015,1.015,0,0,0-.088.107l-.022-.009-.045.107a1,1,0,0,0-.107.254Zm.674-.208a.515.515,0,1,1,.729.729.527.527,0,0,1-.729,0A.515.515,0,0,1,840.1,157.253Zm0,0" transform="translate(-827.085 -154.526)" fill="#34b53a" stroke="#34b53a" stroke-width="0.25"/>
    <path id="Path_24316" data-name="Path 24316" d="M765.715,132.057l.2-.475.43.181-.2.475Zm0,0" transform="translate(-755.096 -129.842)" fill="#34b53a" stroke="#34b53a" stroke-width="0.25"/>
    <path id="Path_24317" data-name="Path 24317" d="M701.129,104.319l.2-.475.43.181-.2.475Zm0,0" transform="translate(-691.365 -102.471)" fill="#34b53a" stroke="#34b53a" stroke-width="0.25"/>
    <path id="Path_24318" data-name="Path 24318" d="M830.664,159.482l.2-.474.429.181-.2.474Zm0,0" transform="translate(-819.187 -156.905)" fill="#34b53a" stroke="#34b53a" stroke-width="0.25"/>
    <path id="Path_24319" data-name="Path 24319" d="M1054.97,701.063l.181-.43.475.2-.181.43Zm0,0" transform="translate(-1040.526 -691.368)" fill="#34b53a" stroke="#34b53a" stroke-width="0.25"/>
    <path id="Path_24320" data-name="Path 24320" d="M1000.18,831.035l.181-.43.475.2-.181.43Zm0,0" transform="translate(-986.461 -819.622)" fill="#34b53a" stroke="#34b53a" stroke-width="0.25"/>
    <path id="Path_24321" data-name="Path 24321" d="M1027.56,766.067l.181-.43.475.2-.181.43Zm0,0" transform="translate(-1013.479 -755.513)" fill="#34b53a" stroke="#34b53a" stroke-width="0.25"/>
    <path id="Path_24322" data-name="Path 24322" d="M394.5,1027.295l.2-.475.43.181-.2.474Zm0,0" transform="translate(-388.79 -1013.242)" fill="#34b53a" stroke="#34b53a" stroke-width="0.25"/>
    <path id="Path_24323" data-name="Path 24323" d="M459.434,1054.725l.2-.475.429.181-.2.474Zm0,0" transform="translate(-452.865 -1040.309)" fill="#34b53a" stroke="#34b53a" stroke-width="0.25"/>
    <path id="Path_24324" data-name="Path 24324" d="M330.156,1000.147l.2-.475.43.181-.2.475Zm0,0" transform="translate(-325.297 -986.453)" fill="#34b53a" stroke="#34b53a" stroke-width="0.25"/>
    <path id="Path_24325" data-name="Path 24325" d="M157.48,840.122l-.022-.009a1.009,1.009,0,0,0,.015-.147,1.021,1.021,0,0,0-.146-.521l.913-.913-.364-.364-.915.915a1.066,1.066,0,0,0-.662-.125l-.013-.031-.173.073a.97.97,0,0,0-.158.067l-.144.061.01.023a.943.943,0,0,0-.107.087,1.031,1.031,0,1,0,1.457,1.457,1.082,1.082,0,0,0,.088-.107l.022.009.045-.107a1,1,0,0,0,.107-.254Zm-.674.208a.527.527,0,0,1-.729,0,.515.515,0,1,1,.729,0Zm0,0" transform="translate(-152.85 -827.085)" fill="#34b53a" stroke="#34b53a" stroke-width="0.25"/>
    <path id="Path_24326" data-name="Path 24326" d="M131.742,395.1l.181-.43.475.2-.181.43Zm0,0" transform="translate(-129.507 -389.449)" fill="#34b53a" stroke="#34b53a" stroke-width="0.25"/>
    <path id="Path_24327" data-name="Path 24327" d="M104.348,460.094l.181-.43.475.2-.181.43Zm0,0" transform="translate(-102.475 -453.586)" fill="#34b53a" stroke="#34b53a" stroke-width="0.25"/>
    <path id="Path_24328" data-name="Path 24328" d="M159.156,330.125l.181-.43.475.2-.181.43Zm0,0" transform="translate(-156.558 -325.335)" fill="#34b53a" stroke="#34b53a" stroke-width="0.25"/>
    <path id="Path_24329" data-name="Path 24329" d="M104.34,700.813l.475-.2.181.43-.475.2Zm0,0" transform="translate(-102.467 -691.349)" fill="#34b53a" stroke="#34b53a" stroke-width="0.25"/>
    <path id="Path_24330" data-name="Path 24330" d="M159.156,830.825l.475-.2.181.43-.475.2Zm0,0" transform="translate(-156.558 -819.642)" fill="#34b53a" stroke="#34b53a" stroke-width="0.25"/>
    <path id="Path_24331" data-name="Path 24331" d="M131.766,765.817l.475-.2.181.43-.475.2Zm0,0" transform="translate(-129.53 -755.493)" fill="#34b53a" stroke="#34b53a" stroke-width="0.25"/>
    <path id="Path_24332" data-name="Path 24332" d="M1.917,526.678l.029-.012.222-.094-.014-.033a1.027,1.027,0,0,0,.371-.557H3.849v-.515H2.524a1.028,1.028,0,0,0-.372-.558l.014-.033-.222-.094-.029-.012-.224-.094-.014.033a1.006,1.006,0,0,0-.148-.015,1.03,1.03,0,1,0,0,2.061,1.023,1.023,0,0,0,.148-.015l.014.033Zm-.9-.953a.515.515,0,1,1,.515.515A.515.515,0,0,1,1.015,525.725Zm0,0" transform="translate(0 -517.738)" fill="#34b53a" stroke="#34b53a" stroke-width="0.25"/>
    <path id="Path_24333" data-name="Path 24333" d="M831.129,999.841l.43-.181.2.474-.43.182Zm0,0" transform="translate(-819.646 -986.441)" fill="#34b53a" stroke="#34b53a" stroke-width="0.25"/>
    <path id="Path_24334" data-name="Path 24334" d="M701.117,1054.661l.43-.181.2.475-.43.182Zm0,0" transform="translate(-691.353 -1040.536)" fill="#34b53a" stroke="#34b53a" stroke-width="0.25"/>
    <path id="Path_24335" data-name="Path 24335" d="M766.117,1027.251l.43-.181.2.475-.43.181Zm0,0" transform="translate(-755.493 -1013.489)" fill="#34b53a" stroke="#34b53a" stroke-width="0.25"/>
    <path id="Path_24336" data-name="Path 24336" d="M527.166,956.588c0-.01-.008-.02-.012-.029l-.093-.222-.033.014a1.027,1.027,0,0,0-.557-.371v-1.325h-.515v1.325a1.028,1.028,0,0,0-.558.371l-.033-.014-.094.222-.012.029-.094.224.033.014a1.03,1.03,0,1,0,2.031,0l.033-.014Zm-.953.9a.515.515,0,1,1,.515-.515A.515.515,0,0,1,526.213,957.49Zm0,0" transform="translate(-517.726 -942.032)" fill="#34b53a" stroke="#34b53a" stroke-width="0.25"/>
    <path id="Path_24337" data-name="Path 24337" d="M1000.16,329.86l.475-.2.181.43-.475.2Zm0,0" transform="translate(-986.441 -325.301)" fill="#34b53a" stroke="#34b53a" stroke-width="0.25"/>
    <path id="Path_24338" data-name="Path 24338" d="M1054.96,459.864l.475-.2.181.43-.475.2Zm0,0" transform="translate(-1040.517 -453.586)" fill="#34b53a" stroke="#34b53a" stroke-width="0.25"/>
    <path id="Path_24339" data-name="Path 24339" d="M1027.57,394.86l.475-.2.181.43-.475.2Zm0,0" transform="translate(-1013.489 -389.441)" fill="#34b53a" stroke="#34b53a" stroke-width="0.25"/>
    <path id="Path_24340" data-name="Path 24340" d="M525.259,1.417l.012.029.094.222.033-.014a1.027,1.027,0,0,0,.557.37V3.349h.515V2.024a1.026,1.026,0,0,0,.558-.371l.033.014.093-.222.012-.029.094-.224-.033-.014a1.033,1.033,0,0,0,.015-.148,1.03,1.03,0,0,0-2.061,0,1.042,1.042,0,0,0,.015.148l-.033.014Zm.953-.9a.515.515,0,1,1-.515.515A.515.515,0,0,1,526.213.515Zm0,0" transform="translate(-517.726)" fill="#34b53a" stroke="#34b53a" stroke-width="0.25"/>
    <path id="Path_24341" data-name="Path 24341" d="M330.172,158.822l.43-.181.2.475-.43.181Zm0,0" transform="translate(-325.313 -156.543)" fill="#34b53a" stroke="#34b53a" stroke-width="0.25"/>
    <path id="Path_24342" data-name="Path 24342" d="M460.168,104.052l.43-.181.2.475-.43.181Zm0,0" transform="translate(-453.59 -102.498)" fill="#34b53a" stroke="#34b53a" stroke-width="0.25"/>
    <path id="Path_24343" data-name="Path 24343" d="M395.184,131.447l.43-.181.2.475-.43.181Zm0,0" transform="translate(-389.465 -129.53)" fill="#34b53a" stroke="#34b53a" stroke-width="0.25"/>
  </g>
</svg>
