<svg id="Icons_Timer" data-name="Icons / Timer" xmlns="http://www.w3.org/2000/svg" xmlns:xlink="http://www.w3.org/1999/xlink" width="24" height="27" viewBox="0 0 24 27">
  <defs>
    <clipPath id="clip-path">
      <path id="Color" d="M12,27A11.8,11.8,0,0,1,0,15.428,11.3,11.3,0,0,1,3.092,7.687a12.143,12.143,0,0,1,7.591-3.755.165.165,0,0,0-.008-.035.133.133,0,0,1-.008-.041V2.571H9.334A1.312,1.312,0,0,1,8,1.286,1.312,1.312,0,0,1,9.334,0h5.333A1.312,1.312,0,0,1,16,1.286a1.312,1.312,0,0,1-1.333,1.286H13.333V3.857a.133.133,0,0,1-.008.041.165.165,0,0,0-.008.035,12.144,12.144,0,0,1,7.591,3.755A11.3,11.3,0,0,1,24,15.428,11.8,11.8,0,0,1,12,27ZM12,6.75a8.854,8.854,0,0,0-9,8.679,8.854,8.854,0,0,0,9,8.679,8.854,8.854,0,0,0,9-8.679A8.854,8.854,0,0,0,12,6.75Zm4,9.964H12a1.312,1.312,0,0,1-1.333-1.286V11.571a1.334,1.334,0,0,1,2.666,0v2.571H16a1.286,1.286,0,1,1,0,2.571Z"/>
    </clipPath>
  </defs>
  <g id="Group_208" data-name="Group 208" transform="translate(0 0)">
    <path id="Color-2" data-name="Color" d="M12,27A11.8,11.8,0,0,1,0,15.428,11.3,11.3,0,0,1,3.092,7.687a12.143,12.143,0,0,1,7.591-3.755.165.165,0,0,0-.008-.035.133.133,0,0,1-.008-.041V2.571H9.334A1.312,1.312,0,0,1,8,1.286,1.312,1.312,0,0,1,9.334,0h5.333A1.312,1.312,0,0,1,16,1.286a1.312,1.312,0,0,1-1.333,1.286H13.333V3.857a.133.133,0,0,1-.008.041.165.165,0,0,0-.008.035,12.144,12.144,0,0,1,7.591,3.755A11.3,11.3,0,0,1,24,15.428,11.8,11.8,0,0,1,12,27ZM12,6.75a8.854,8.854,0,0,0-9,8.679,8.854,8.854,0,0,0,9,8.679,8.854,8.854,0,0,0,9-8.679A8.854,8.854,0,0,0,12,6.75Zm4,9.964H12a1.312,1.312,0,0,1-1.333-1.286V11.571a1.334,1.334,0,0,1,2.666,0v2.571H16a1.286,1.286,0,1,1,0,2.571Z"/>
  </g>
</svg>
