<svg xmlns="http://www.w3.org/2000/svg" xmlns:xlink="http://www.w3.org/1999/xlink" width="84" height="84" viewBox="0 0 84 84">
  <defs>
    <linearGradient id="linear-gradient" x1="0.5" x2="0.5" y2="1" gradientUnits="objectBoundingBox">
      <stop offset="0" stop-color="#806a6a"/>
      <stop offset="1" stop-color="#665654"/>
    </linearGradient>
    <linearGradient id="linear-gradient-2" x1="0.5" x2="0.5" y2="1" gradientUnits="objectBoundingBox">
      <stop offset="0" stop-color="#f7b186"/>
      <stop offset="1" stop-color="#ffc299"/>
    </linearGradient>
    <clipPath id="clip-path">
      <path id="Mask" d="M42,0A42,42,0,1,1,0,42,42,42,0,0,1,42,0Z" transform="translate(0.094)" fill="url(#linear-gradient)"/>
    </clipPath>
    <clipPath id="clip-path-2">
      <path id="Combined_Shape" data-name="Combined Shape" d="M2.713,44.695c5.1,3.708,10.2,6.674,15.294,6.674S28.2,48.4,33.3,44.695q-6.3-1.918-6.394-5.727c0-.453,0-1.1.006-2.3q0-.288,0-.589c.008-3.237.022-7.507.041-11.846,3.985-5.166,2.521-11.222,1.272-11.071C26.7,13.344,13.431.757,10.886.113S1.879,1.549.767,7.354-.811,27.791,3.408,33.632q1.8,2.493,5.672,1.951c0,1.215.011,1.9.029,3.273C9.076,41.511,6.944,43.417,2.713,44.695Z" fill="url(#linear-gradient-2)"/>
    </clipPath>
    <linearGradient id="linear-gradient-6" x1="0.5" x2="0.5" y2="1" gradientUnits="objectBoundingBox">
      <stop offset="0" stop-color="#1d0024"/>
      <stop offset="1" stop-color="#100014"/>
    </linearGradient>
    <clipPath id="clip-path-3">
      <path id="Mask-2" data-name="Mask" d="M5.542,1.392,7,27H0L1.458,1.392S2.819,0,3.5,0,5.542,1.392,5.542,1.392Z" transform="translate(-0.457 0.171)" fill="url(#linear-gradient)"/>
    </clipPath>
    <clipPath id="clip-path-4">
      <path id="Combined_Shape-2" data-name="Combined Shape" d="M4.373,6.588,0,4.062.163,1.39Q1.461,0,2.109,0T4.056,1.39l.317,5.2Z" fill="#645050"/>
    </clipPath>
  </defs>
  <g id="User_07b" data-name="User 07b" transform="translate(-0.094)">
    <path id="Mask-3" data-name="Mask" d="M42,0A42,42,0,1,1,0,42,42,42,0,0,1,42,0Z" transform="translate(0.094)" fill="url(#linear-gradient)"/>
    <g id="User_07b-2" data-name="User 07b" transform="translate(0 0)" clip-path="url(#clip-path)">
      <g id="Group_10" data-name="Group 10" transform="translate(19.344 9.917)">
        <g id="Group_11" data-name="Group 11" transform="translate(0 0)">
          <g id="Group_11-2" data-name="Group 11" transform="translate(0)">
            <g id="Group_2" data-name="Group 2" transform="translate(0)">
              <g id="Group_14" data-name="Group 14">
                <g id="Path_48" data-name="Path 48" transform="translate(4.465 4.356)">
                  <path id="Combined_Shape-3" data-name="Combined Shape" d="M2.713,44.695c5.1,3.708,10.2,6.674,15.294,6.674S28.2,48.4,33.3,44.695q-6.3-1.918-6.394-5.727c0-.453,0-1.1.006-2.3q0-.288,0-.589c.008-3.237.022-7.507.041-11.846,3.985-5.166,2.521-11.222,1.272-11.071C26.7,13.344,13.431.757,10.886.113S1.879,1.549.767,7.354-.811,27.791,3.408,33.632q1.8,2.493,5.672,1.951c0,1.215.011,1.9.029,3.273C9.076,41.511,6.944,43.417,2.713,44.695Z" transform="translate(0 0)" fill="url(#linear-gradient-2)"/>
                  <g id="Path_48-2" data-name="Path 48" transform="translate(0 0)" clip-path="url(#clip-path-2)">
                    <path id="Path_48-3" data-name="Path 48" d="M0,3.5A23.391,23.391,0,0,0,10,0S5.556,5.833,0,7Z" transform="translate(9.285 31.728)" fill="#fc9f6a"/>
                  </g>
                </g>
                <path id="Path_22" data-name="Path 22" d="M33.456,28.673c1.916-4.608,9.594-13.992,2.976-19.831C34.207-2,21.916-.8,13.713,1.7,8.2,3.382,4.036,6.7,3.146,4.2c-5.561,4.639-2.776,9.176.89,10.479,3.328,1.182,8.954,2.364,18.521,1.251,1.709-.2,1.351,5.035,2.264,5.6,1.37.849,2.433-4.489,6.19-2.886s1.527,9.034-2.5,9.034c-1.39,0-2.086,3.823,1.668,5.63C32.9,34.651,32.211,31.667,33.456,28.673Z" transform="translate(0)" fill="url(#linear-gradient-6)"/>
              </g>
            </g>
          </g>
        </g>
      </g>
      <g id="Group_23" data-name="Group 23" transform="translate(8.447 54.428)">
        <path id="Combined_Shape-4" data-name="Combined Shape" d="M62.566,10.374c2.647,5.383,4.171,17.8,4.171,17.8H0s1.525-12.415,4.171-17.8S22.273,0,22.273,0C30.814,3.338,36.04,3.338,44.456,0,44.456,0,59.919,4.992,62.566,10.374Z" transform="translate(0 2.653)" fill="url(#linear-gradient-6)"/>
        <g id="Group_22" data-name="Group 22" transform="translate(30.105 3.209)">
          <path id="Mask-4" data-name="Mask" d="M5.542,1.392,7,27H0L1.458,1.392S2.819,0,3.5,0,5.542,1.392,5.542,1.392Z" transform="translate(-0.457 0.362)" fill="url(#linear-gradient)"/>
          <path id="Combined_Shape-5" data-name="Combined Shape" d="M4.373,6.588,0,4.062.163,1.39Q1.461,0,2.109,0T4.056,1.39l.317,5.2Z" transform="translate(1.155)" fill="#645050"/>
        </g>
        <path id="Combined_Shape-6" data-name="Combined Shape" d="M11.5,3.935,8.7,9,0,3.656,2.524,0,11.5,3.325,20.476,0,23,3.656,14.3,9Z" transform="translate(22.646 -0.429)" fill="#fff"/>
      </g>
    </g>
  </g>
</svg>
