<svg xmlns="http://www.w3.org/2000/svg" width="84.098" height="94.108" viewBox="0 0 84.098 94.108">
  <g id="Group_27638" data-name="Group 27638" transform="translate(0 0)">
    <g id="Group_27637" data-name="Group 27637" transform="translate(0 0)">
      <path id="Path_30943" data-name="Path 30943" d="M1358.925,584.515c-14.843-1.84-29.134-12.949-35.1-18.139a4.442,4.442,0,0,0-5.834,0c-5.966,5.19-20.257,16.3-35.1,18.139a4.535,4.535,0,0,0-4.028,4.665c1.83,45.13,31.5,64.932,39.867,69.638a4.428,4.428,0,0,0,4.359,0c8.364-4.705,38.034-24.508,39.864-69.638A4.535,4.535,0,0,0,1358.925,584.515Zm-38.017,50.207a22.384,22.384,0,1,1,22.384-22.383A22.385,22.385,0,0,1,1320.907,634.722Z" transform="translate(-1278.859 -565.284)" fill="#0d47a1"/>
      <path id="Path_30944" data-name="Path 30944" d="M1314.995,580.47l-13.343,13.344-6.5-6.5-4.617,4.617,6.5,6.5,4.688,4.688,4.617-4.617,13.344-13.343Z" transform="translate(-1263.061 -544.741)" fill="#0d47a1" opacity="0.35"/>
    </g>
  </g>
</svg>
