<svg xmlns="http://www.w3.org/2000/svg" width="89" height="97.987" viewBox="0 0 89 97.987">
  <g id="Group_26813" data-name="Group 26813" transform="translate(592.99 -2229.743)">
    <path id="Path_30446" data-name="Path 30446" d="M-586.883,2288.494a4.078,4.078,0,0,0,5.767,0h0l5.768-5.768,5.768,5.768a4.08,4.08,0,0,0,5.768-.157,4.081,4.081,0,0,0,0-5.611l-5.768-5.773,5.768-5.769a4.081,4.081,0,0,0,.157-5.768,4.08,4.08,0,0,0-5.768-.157q-.081.076-.157.157l-5.768,5.772-5.768-5.772a4.08,4.08,0,0,0-5.768-.157,4.08,4.08,0,0,0-.157,5.768q.076.081.157.157l5.768,5.769-5.768,5.773a4.079,4.079,0,0,0,0,5.768Z" transform="translate(-1.165 -8.29)" fill="#0d47a1" opacity="0.35"/>
    <path id="Path_30447" data-name="Path 30447" d="M-542.8,2289.665a14.87,14.87,0,0,0,4.384-10.58v-18.421h-8.162v18.42a6.856,6.856,0,0,1-1.993,4.809l-22.456,22.456a15.044,15.044,0,0,0-20.277,6.439,15.043,15.043,0,0,0,6.439,20.276,15.043,15.043,0,0,0,20.276-6.439,15.043,15.043,0,0,0-.479-14.694Zm-35.065,36.781a6.8,6.8,0,0,1-6.8-6.8,6.8,6.8,0,0,1,6.8-6.8,6.8,6.8,0,0,1,6.8,6.8h0a6.809,6.809,0,0,1-6.8,6.8Z" transform="translate(0 -7.452)" fill="#0d47a1"/>
    <path id="Path_30448" data-name="Path 30448" d="M-515.793,2337.941l5.768-5.769a4.081,4.081,0,0,0-.193-5.768,4.081,4.081,0,0,0-5.576,0l-5.768,5.768-5.768-5.768a4.081,4.081,0,0,0-5.768.157,4.081,4.081,0,0,0,0,5.611l5.768,5.769-5.768,5.772a4.08,4.08,0,0,0-.157,5.769,4.08,4.08,0,0,0,5.768.157q.081-.076.157-.157l5.768-5.772,5.768,5.772a4.081,4.081,0,0,0,5.768-.193,4.082,4.082,0,0,0,0-5.576Z" transform="translate(-14.127 -23.027)" fill="#0d47a1" opacity="0.35"/>
    <path id="Path_30449" data-name="Path 30449" d="M-527.991,2230.781a3.041,3.041,0,0,0-4.291-.286,3.022,3.022,0,0,0-.286.286l-9.26,10.586a3.041,3.041,0,0,0,.286,4.291,3.039,3.039,0,0,0,2,.752h18.525a3.04,3.04,0,0,0,3.041-3.041,3.042,3.042,0,0,0-.752-2Z" transform="translate(-12.149)" fill="#0d47a1"/>
    <path id="Path_30450" data-name="Path 30450" d="M-490.708,2284.17l5.768-5.769a4.081,4.081,0,0,0-.157-5.768,4.081,4.081,0,0,0-5.611,0l-5.768,5.768-5.768-5.768a4.082,4.082,0,0,0-5.768.193,4.08,4.08,0,0,0,0,5.575l5.768,5.769-5.768,5.768a4.081,4.081,0,0,0-.193,5.768,4.081,4.081,0,0,0,5.768.193c.067-.062.131-.126.193-.193l5.768-5.768,5.768,5.768a4.08,4.08,0,0,0,5.768-.157,4.081,4.081,0,0,0,0-5.611Z" transform="translate(-20.169 -10.068)" fill="#0d47a1"/>
  </g>
</svg>
