<svg width="19" height="19" viewBox="0 0 19 19" fill="none" xmlns="http://www.w3.org/2000/svg">
<g clip-path="url(#clip0)">
<path d="M4.96291 9.62011C5.03065 9.67306 5.0825 9.74364 5.11276 9.82412C5.14303 9.90459 5.15054 9.99185 5.13448 10.0763L4.97062 10.9263C4.95162 11.0266 4.96857 11.1305 5.01848 11.2196C5.06839 11.3087 5.14809 11.3774 5.24359 11.4137L5.77392 11.6125L6.30424 11.8114C6.40049 11.8464 6.50598 11.8464 6.60224 11.8115C6.69851 11.7765 6.77942 11.7088 6.83081 11.6202L7.25203 10.8909C7.29626 10.8164 7.35988 10.7552 7.43612 10.714C7.51235 10.6728 7.59833 10.653 7.68491 10.6568C7.93604 10.6686 8.18769 10.6608 8.43761 10.6335C8.52276 10.6234 8.60906 10.6365 8.68734 10.6716C8.76562 10.7066 8.83294 10.7621 8.88215 10.8324L9.36958 11.5499C9.42811 11.6344 9.5143 11.6958 9.61329 11.7236C9.71227 11.7513 9.81784 11.7437 9.91177 11.7019L10.4257 11.4647L10.9396 11.2275C11.0338 11.1846 11.1097 11.1098 11.1539 11.0162C11.1982 10.9227 11.2079 10.8165 11.1813 10.7165L10.9639 9.90613C10.9419 9.82276 10.9433 9.73491 10.9681 9.6523C10.9928 9.56969 11.04 9.49555 11.1043 9.43807C11.291 9.26833 11.4644 9.08449 11.6229 8.88817C11.6759 8.82147 11.7459 8.77032 11.8255 8.74012C11.9052 8.70992 11.9915 8.70179 12.0754 8.7166L12.9253 8.88046C13.0257 8.89946 13.1295 8.88252 13.2187 8.8326C13.3078 8.78269 13.3765 8.70299 13.4128 8.60749L13.6116 8.07716L13.8104 7.54684C13.8454 7.45059 13.8455 7.3451 13.8105 7.24884C13.7756 7.15258 13.7079 7.07167 13.6193 7.02027L12.8862 6.60696C12.81 6.56336 12.7474 6.4994 12.7055 6.42224C12.6636 6.34509 12.644 6.25778 12.649 6.17012C12.6606 5.919 12.6528 5.66735 12.6257 5.41743C12.6155 5.33228 12.6287 5.24597 12.6637 5.1677C12.6987 5.08942 12.7543 5.02209 12.8245 4.97289L13.542 4.48545C13.6265 4.42692 13.688 4.34073 13.7157 4.24175C13.7435 4.14277 13.7358 4.0372 13.694 3.94327L13.4568 3.42935L13.2196 2.91543C13.1767 2.82128 13.1019 2.74535 13.0084 2.70111C12.9148 2.65686 12.8087 2.64715 12.7087 2.67369L11.8983 2.89111C11.814 2.91339 11.7252 2.91168 11.6418 2.88618C11.5584 2.86069 11.4839 2.81242 11.4264 2.74682C11.2531 2.55212 11.0625 2.37349 10.857 2.21314C10.7877 2.16046 10.7345 2.08944 10.7035 2.00812C10.6725 1.9268 10.6649 1.83842 10.6815 1.75298L10.8414 0.914498C10.8611 0.813581 10.8445 0.708921 10.7944 0.619104C10.7443 0.529287 10.6641 0.460126 10.5678 0.423902L10.0375 0.225054L9.50636 0.0262068C9.41012 -0.00877547 9.30463 -0.00879726 9.20836 0.0261452C9.1121 0.0610877 9.03119 0.128769 8.97979 0.217346L8.55166 0.958182C8.50804 1.03209 8.44498 1.09262 8.36936 1.13318C8.29373 1.17375 8.20843 1.1928 8.12273 1.18826C7.86895 1.17592 7.61458 1.18504 7.36233 1.21554C7.27671 1.2263 7.18979 1.21303 7.11128 1.17722C7.03277 1.1414 6.96578 1.08445 6.91779 1.01274L6.43668 0.306886C6.37895 0.223769 6.29473 0.162694 6.19779 0.133647C6.10084 0.104601 5.99692 0.109301 5.90299 0.146978L5.38907 0.384172L4.88484 0.626703C4.79064 0.669328 4.71489 0.744357 4.67135 0.838134C4.62782 0.93191 4.61941 1.0382 4.64764 1.13766L4.86922 1.96052C4.89193 2.04386 4.89081 2.1319 4.86601 2.21463C4.8412 2.29737 4.79369 2.37149 4.72888 2.42859C4.54111 2.60004 4.36765 2.78652 4.21022 2.98619C4.15727 3.05393 4.08668 3.10578 4.00621 3.13604C3.92573 3.16631 3.83848 3.17382 3.75401 3.15776L2.91158 2.99785C2.81121 2.97885 2.70736 2.9958 2.61823 3.04571C2.5291 3.09562 2.46039 3.17532 2.42415 3.27082L2.2253 3.80115L2.02625 4.33167C1.99127 4.42792 1.99125 4.53341 2.02619 4.62967C2.06113 4.72593 2.12881 4.80685 2.21739 4.85824L2.95842 5.28717C3.03232 5.33081 3.09283 5.39386 3.1334 5.46948C3.17396 5.54511 3.19302 5.6304 3.1885 5.7161C3.17616 5.96988 3.18529 6.22425 3.21578 6.4765C3.22654 6.56212 3.21327 6.64904 3.17746 6.72755C3.14164 6.80606 3.08469 6.87305 3.01298 6.92104L2.31108 7.39286C2.22657 7.45139 2.16514 7.53758 2.13739 7.63656C2.10964 7.73555 2.11731 7.84111 2.15908 7.93505L2.39628 8.44897L2.63347 8.96289C2.67637 9.05704 2.75121 9.13296 2.84473 9.17721C2.93826 9.22145 3.04442 9.23117 3.14442 9.20463L3.96729 8.98226C4.05066 8.9602 4.13851 8.96163 4.22112 8.9864C4.30373 9.01117 4.37787 9.05831 4.43535 9.1226C4.59754 9.30235 4.77396 9.46873 4.96291 9.62011ZM6.84663 3.66476C7.29364 3.45234 7.79359 3.37724 8.28328 3.44895C8.77297 3.52067 9.2304 3.73597 9.59772 4.06765C9.96505 4.39933 10.2258 4.83248 10.3469 5.31233C10.4681 5.79219 10.4442 6.29719 10.2784 6.76349C10.1126 7.22979 9.81217 7.63644 9.41522 7.93202C9.01827 8.2276 8.54258 8.39884 8.04831 8.42408C7.55404 8.44932 7.06339 8.32743 6.63839 8.07383C6.2134 7.82022 5.87314 7.44629 5.66066 6.99932C5.37585 6.39984 5.3408 5.71179 5.5632 5.08647C5.7856 4.46116 6.24725 3.94977 6.84663 3.66476Z" fill="#278CE9"/>
<path d="M15.9882 12.4086L15.6606 12.3032C15.6273 12.2922 15.5976 12.2722 15.5749 12.2453C15.5522 12.2185 15.5373 12.1859 15.532 12.1512C15.5151 12.0494 15.4903 11.949 15.4578 11.851C15.4461 11.8177 15.4439 11.7818 15.4515 11.7473C15.4591 11.7129 15.4761 11.6812 15.5007 11.6559L15.7464 11.3989C15.7751 11.3682 15.7923 11.3286 15.7952 11.2867C15.798 11.2447 15.7863 11.2031 15.762 11.1688L15.6217 10.9816L15.4813 10.7945C15.4565 10.7608 15.4204 10.7372 15.3796 10.7279C15.3388 10.7186 15.296 10.7242 15.259 10.7437L14.9548 10.9036C14.9229 10.9204 14.887 10.9278 14.8511 10.9251C14.8152 10.9223 14.7809 10.9094 14.752 10.888C14.6678 10.8279 14.5792 10.7744 14.4867 10.728C14.4556 10.7119 14.4292 10.688 14.4101 10.6586C14.391 10.6292 14.3798 10.5954 14.3776 10.5604L14.3699 10.2046C14.3685 10.1628 14.3526 10.1227 14.3248 10.0914C14.297 10.06 14.2591 10.0394 14.2177 10.0331L13.9876 9.99789L13.7575 9.9627C13.716 9.95694 13.6738 9.96588 13.6382 9.98797C13.6025 10.0101 13.5758 10.0439 13.5625 10.0837L13.4571 10.4112C13.4459 10.4456 13.4255 10.4762 13.3979 10.4996C13.3704 10.523 13.3369 10.5383 13.3011 10.5438C13.195 10.5602 13.0906 10.5863 12.9892 10.6219C12.9553 10.6336 12.9189 10.6358 12.8838 10.6282C12.8488 10.6206 12.8165 10.6036 12.7904 10.579L12.537 10.3373C12.5063 10.3086 12.4666 10.2913 12.4247 10.2885C12.3828 10.2857 12.3412 10.2974 12.3069 10.3217L12.1197 10.462L11.9325 10.6023C11.8989 10.6272 11.8753 10.6633 11.866 10.7041C11.8566 10.7449 11.8622 10.7877 11.8817 10.8247L12.0416 11.1366C12.0574 11.168 12.0643 11.2032 12.0616 11.2382C12.0588 11.2733 12.0465 11.3069 12.026 11.3355C11.9668 11.4215 11.9133 11.5113 11.8661 11.6045C11.8506 11.6361 11.8268 11.6629 11.7973 11.6821C11.7678 11.7013 11.7337 11.7122 11.6985 11.7136L11.3474 11.7213C11.3059 11.723 11.2661 11.7385 11.2343 11.7654C11.2025 11.7922 11.1806 11.8289 11.1719 11.8695L11.1367 12.0996L11.1016 12.3297C11.0958 12.3712 11.1047 12.4135 11.1268 12.4491C11.1489 12.4847 11.1828 12.5115 11.2225 12.5248L11.5586 12.6301C11.592 12.6412 11.6216 12.6612 11.6444 12.6881C11.6671 12.715 11.6819 12.7476 11.6872 12.7824C11.7036 12.886 11.7297 12.9878 11.7653 13.0866C11.777 13.1198 11.7792 13.1557 11.7716 13.1902C11.764 13.2247 11.747 13.2563 11.7224 13.2816L11.4807 13.5352C11.452 13.5659 11.4347 13.6056 11.4319 13.6475C11.4291 13.6894 11.4408 13.731 11.4651 13.7653L11.6054 13.9525L11.7457 14.1397C11.7706 14.1733 11.8067 14.1969 11.8475 14.2063C11.8883 14.2156 11.9311 14.21 11.9681 14.1905L12.28 14.0306C12.3114 14.0148 12.3466 14.0079 12.3816 14.0107C12.4167 14.0134 12.4503 14.0257 12.4789 14.0462C12.5648 14.1055 12.6547 14.1589 12.7479 14.2061C12.7795 14.2216 12.8063 14.2454 12.8255 14.2749C12.8447 14.3044 12.8556 14.3385 12.857 14.3737L12.8647 14.7248C12.8661 14.7666 12.882 14.8067 12.9098 14.838C12.9376 14.8694 12.9755 14.89 13.0169 14.8963L13.247 14.9315L13.4771 14.9667C13.5186 14.9725 13.5608 14.9635 13.5964 14.9414C13.6321 14.9193 13.6589 14.8855 13.6722 14.8457L13.7775 14.5143C13.789 14.4808 13.8091 14.4509 13.8358 14.4276C13.8625 14.4044 13.8948 14.3885 13.9295 14.3816C14.0275 14.3648 14.1241 14.34 14.2181 14.3075C14.2514 14.2956 14.2873 14.2933 14.3218 14.3009C14.3563 14.3085 14.388 14.3256 14.4132 14.3504L14.6701 14.5961C14.7008 14.6248 14.7405 14.642 14.7824 14.6449C14.8243 14.6477 14.8659 14.636 14.9002 14.6117L15.0874 14.4714L15.2746 14.331C15.3082 14.3061 15.3318 14.27 15.3412 14.2292C15.3505 14.1885 15.3449 14.1457 15.3254 14.1087L15.1655 13.8005C15.1488 13.7687 15.1414 13.7327 15.1441 13.6969C15.1469 13.661 15.1597 13.6266 15.1811 13.5977C15.2412 13.5136 15.2947 13.4249 15.341 13.3324C15.3572 13.3013 15.3811 13.2749 15.4105 13.2558C15.4398 13.2367 15.4736 13.2255 15.5086 13.2233L15.8644 13.2156C15.9063 13.2143 15.9463 13.1983 15.9776 13.1706C16.009 13.1428 16.0296 13.105 16.036 13.0636L16.0712 12.8335L16.1064 12.6035C16.1145 12.5621 16.1069 12.5192 16.085 12.4831C16.0631 12.4471 16.0286 12.4205 15.9882 12.4086ZM14.6271 12.5997C14.6008 12.801 14.5155 12.99 14.3819 13.1429C14.2482 13.2957 14.0723 13.4055 13.8763 13.4583C13.6802 13.5111 13.473 13.5046 13.2806 13.4396C13.0883 13.3746 12.9196 13.2541 12.7957 13.0932C12.6719 12.9323 12.5986 12.7383 12.585 12.5358C12.5715 12.3332 12.6183 12.1312 12.7195 11.9552C12.8208 11.7793 12.9719 11.6373 13.1539 11.5472C13.3358 11.4572 13.5404 11.4231 13.7417 11.4493C14.0115 11.4848 14.2562 11.6258 14.4221 11.8414C14.5881 12.057 14.6618 12.3297 14.6271 12.5995V12.5997Z" fill="#9AC9F4"/>
<path d="M11.5151 14.8148L11.0198 14.7291C10.969 14.7198 10.9219 14.6966 10.8835 14.6622C10.8451 14.6278 10.817 14.5834 10.8023 14.534C10.7587 14.3903 10.7026 14.2507 10.6347 14.1167C10.6116 14.0711 10.6015 14.0201 10.6056 13.9691C10.6097 13.9182 10.6279 13.8694 10.658 13.8281L10.9583 13.4109C10.9941 13.3615 11.011 13.3009 11.006 13.2401C11.001 13.1793 10.9744 13.1223 10.931 13.0794L10.6938 12.8422L10.4566 12.605C10.4137 12.5619 10.3571 12.5352 10.2965 12.5295C10.236 12.5238 10.1753 12.5395 10.1251 12.5738L9.71558 12.8663C9.6726 12.8962 9.6223 12.9138 9.57007 12.9173C9.51784 12.9208 9.46565 12.91 9.41908 12.8861C9.28668 12.8157 9.14839 12.7569 9.00578 12.7105C8.95784 12.6939 8.91503 12.6651 8.88153 12.627C8.84803 12.5889 8.82499 12.5428 8.81463 12.4931L8.72885 11.9822C8.71902 11.9219 8.6882 11.867 8.64184 11.8272C8.59547 11.7874 8.53654 11.7653 8.47545 11.7647H7.79688C7.73564 11.7644 7.67626 11.7858 7.62924 11.825C7.58223 11.8643 7.55059 11.9189 7.53992 11.9792L7.45413 12.4706C7.4447 12.5218 7.42105 12.5694 7.38589 12.6078C7.35073 12.6463 7.30548 12.674 7.25528 12.688C7.1061 12.7336 6.96124 12.7924 6.8224 12.8635C6.77651 12.8873 6.72496 12.8981 6.67337 12.8946C6.62178 12.8911 6.57214 12.8735 6.52987 12.8438L6.11655 12.5473C6.06715 12.5115 6.00657 12.4945 5.94577 12.4996C5.88496 12.5046 5.82796 12.5312 5.78507 12.5746L5.54788 12.8117L5.31069 13.0489C5.26762 13.0919 5.24091 13.1485 5.23521 13.209C5.22951 13.2696 5.24516 13.3302 5.27946 13.3804L5.57199 13.7977C5.60078 13.8396 5.6178 13.8885 5.62127 13.9393C5.62475 13.99 5.61456 14.0408 5.59176 14.0863C5.52133 14.22 5.46261 14.3596 5.41624 14.5035C5.4008 14.5522 5.3724 14.5956 5.33409 14.6293C5.29578 14.663 5.24901 14.6856 5.19881 14.6947L4.69576 14.7765C4.63631 14.7877 4.58224 14.8182 4.542 14.8634C4.50177 14.9086 4.47764 14.9658 4.47339 15.0261V15.7047C4.47311 15.766 4.49447 15.8253 4.53371 15.8723C4.57296 15.9194 4.62755 15.951 4.68786 15.9617L5.1909 16.0475C5.24083 16.0572 5.28726 16.0801 5.32546 16.1136C5.36367 16.1472 5.39226 16.1903 5.40833 16.2386C5.45403 16.3834 5.51141 16.5243 5.5799 16.6598C5.60284 16.7053 5.61311 16.756 5.60964 16.8068C5.60616 16.8576 5.58906 16.9065 5.56014 16.9484L5.26364 17.3617C5.22785 17.4111 5.21092 17.4717 5.21592 17.5325C5.22093 17.5933 5.24753 17.6503 5.29092 17.6932L5.52811 17.9304L5.76531 18.1676C5.80823 18.2107 5.86487 18.2374 5.92541 18.2431C5.98595 18.2488 6.04657 18.2331 6.09679 18.1988L6.51405 17.9063C6.55599 17.8775 6.60489 17.8604 6.65564 17.857C6.7064 17.8535 6.75716 17.8637 6.80264 17.8865C6.9364 17.9569 7.07601 18.0157 7.2199 18.062C7.26852 18.0775 7.31201 18.1059 7.34569 18.1442C7.37937 18.1825 7.40196 18.2293 7.41104 18.2795L7.49287 18.7825C7.5027 18.8428 7.53352 18.8977 7.57989 18.9375C7.62625 18.9773 7.68518 18.9994 7.74627 18.9999H8.42485C8.48609 19.0002 8.54546 18.9789 8.59248 18.9396C8.6395 18.9004 8.67113 18.8458 8.68181 18.7855L8.76759 18.2862C8.77689 18.2355 8.80004 18.1883 8.83447 18.15C8.8689 18.1116 8.91328 18.0835 8.96269 18.0688C9.09976 18.0256 9.23288 17.9708 9.36058 17.9049C9.40602 17.8819 9.4568 17.8717 9.50758 17.8752C9.55837 17.8786 9.60727 17.8957 9.64916 17.9247L10.0664 18.2249C10.1158 18.2607 10.1764 18.2776 10.2372 18.2726C10.298 18.2676 10.355 18.241 10.3979 18.1976L10.6351 17.9604L10.8723 17.7232C10.9154 17.6803 10.9421 17.6237 10.9478 17.5631C10.9535 17.5026 10.9378 17.442 10.9035 17.3918L10.6149 16.9822C10.5849 16.9399 10.5674 16.89 10.5647 16.8382C10.5619 16.7864 10.5739 16.7349 10.5993 16.6897C10.6697 16.5573 10.7285 16.419 10.7748 16.2764C10.7915 16.2284 10.8202 16.1856 10.8583 16.1521C10.8964 16.1186 10.9426 16.0956 10.9923 16.0852L11.5032 15.9994C11.5636 15.9896 11.6185 15.9587 11.6583 15.9123C11.698 15.8659 11.7202 15.807 11.7207 15.7458V15.0673C11.7246 15.007 11.7056 14.9475 11.6674 14.9007C11.6293 14.8539 11.5749 14.8232 11.5151 14.8148ZM8.11827 16.8662C7.82325 16.8689 7.53406 16.784 7.28726 16.6223C7.04046 16.4607 6.84715 16.2294 6.73176 15.9579C6.61637 15.6864 6.5841 15.3867 6.63901 15.0968C6.69392 14.807 6.83356 14.5399 7.04027 14.3293C7.24698 14.1188 7.51146 13.9743 7.80029 13.9141C8.08912 13.8539 8.38931 13.8807 8.66291 13.9911C8.93651 14.1015 9.17123 14.2906 9.33739 14.5344C9.50355 14.7782 9.59368 15.0658 9.59639 15.3608C9.59965 15.7564 9.44581 16.1371 9.16865 16.4193C8.89148 16.7015 8.51364 16.8623 8.11808 16.8662H8.11827Z" fill="#278CE9"/>
</g>
<defs>
<clipPath id="clip0">
<rect width="19" height="19" fill="white"/>
</clipPath>
</defs>
</svg>
