<svg xmlns="http://www.w3.org/2000/svg" width="71.385" height="96.146" viewBox="0 0 71.385 96.146">
  <g id="settings" transform="translate(-62.749 0)">
    <g id="Group_28357" data-name="Group 28357" transform="translate(62.749 0)">
      <path id="Path_31168" data-name="Path 31168" d="M77.744,48.675a2.368,2.368,0,0,1,.868,2.308l-.829,4.3a2.2,2.2,0,0,0,1.381,2.466l2.683,1.006,2.683,1.006a2.208,2.208,0,0,0,2.664-.967l2.131-3.69a2.423,2.423,0,0,1,2.19-1.184,24.571,24.571,0,0,0,3.808-.118,2.4,2.4,0,0,1,2.249,1.006l2.466,3.63a2.233,2.233,0,0,0,2.743.769l2.6-1.2,2.6-1.2a2.216,2.216,0,0,0,1.223-2.585l-1.1-4.1a2.365,2.365,0,0,1,.71-2.368,24.9,24.9,0,0,0,2.624-2.782,2.392,2.392,0,0,1,2.289-.868l4.3.829a2.2,2.2,0,0,0,2.466-1.381l1.006-2.683,1.006-2.683a2.208,2.208,0,0,0-.967-2.664l-3.709-2.091a2.391,2.391,0,0,1-1.2-2.21,24.647,24.647,0,0,0-.118-3.808,2.4,2.4,0,0,1,1.006-2.249l3.63-2.466a2.233,2.233,0,0,0,.769-2.743l-1.2-2.6-1.2-2.6a2.216,2.216,0,0,0-2.585-1.223l-4.1,1.1a2.368,2.368,0,0,1-2.387-.73,21.864,21.864,0,0,0-2.881-2.7,2.359,2.359,0,0,1-.888-2.328l.809-4.242A2.2,2.2,0,0,0,106.1,2.15l-2.683-1.006L100.73.138a2.208,2.208,0,0,0-2.664.967L95.9,4.853a2.374,2.374,0,0,1-2.17,1.164,22.82,22.82,0,0,0-3.847.138,2.353,2.353,0,0,1-2.249-1.026L85.2,1.558A2.262,2.262,0,0,0,82.5.749l-2.6,1.2L77.349,3.176a2.183,2.183,0,0,0-1.2,2.585L77.27,9.924a2.337,2.337,0,0,1-.71,2.368,23.647,23.647,0,0,0-2.624,2.821,2.368,2.368,0,0,1-2.308.868l-4.262-.809A2.2,2.2,0,0,0,64.9,16.553l-1.006,2.683L62.887,21.92a2.208,2.208,0,0,0,.967,2.664l3.749,2.17a2.375,2.375,0,0,1,1.164,2.17,22.82,22.82,0,0,0,.138,3.847,2.353,2.353,0,0,1-1.026,2.249l-3.551,2.387a2.233,2.233,0,0,0-.769,2.743l1.2,2.6,1.2,2.6a2.216,2.216,0,0,0,2.585,1.223l4.163-1.125a2.365,2.365,0,0,1,2.368.71A22.769,22.769,0,0,0,77.744,48.675Zm9.53-30.129a12.66,12.66,0,1,1-6,16.87A12.663,12.663,0,0,1,87.274,18.546Z" transform="translate(-62.749 0)" fill="#0d47a1"/>
      <path id="Path_31169" data-name="Path 31169" d="M320.834,267.834l-1.657-.533a.965.965,0,0,1-.651-.769,10.046,10.046,0,0,0-.375-1.519.96.96,0,0,1,.217-.987l1.243-1.3a.923.923,0,0,0,.079-1.164l-.71-.947-.71-.947a.886.886,0,0,0-1.125-.257l-1.539.809a.965.965,0,0,1-1.026-.079,10.085,10.085,0,0,0-1.342-.809,1.027,1.027,0,0,1-.552-.848l-.039-1.8a.908.908,0,0,0-.77-.868l-1.164-.178-1.164-.178a.909.909,0,0,0-.987.612l-.533,1.657a.987.987,0,0,1-.789.671,8.8,8.8,0,0,0-1.578.395.994.994,0,0,1-1.006-.217l-1.282-1.223a.923.923,0,0,0-1.164-.079l-.947.71-.947.71a.886.886,0,0,0-.257,1.125l.809,1.578a.975.975,0,0,1-.079,1.006,11.783,11.783,0,0,0-.809,1.361.988.988,0,0,1-.848.552l-1.776.039a.948.948,0,0,0-.888.75l-.178,1.164-.178,1.164a.909.909,0,0,0,.612.987l1.7.533a.965.965,0,0,1,.651.77,8.4,8.4,0,0,0,.395,1.539.96.96,0,0,1-.217.987l-1.223,1.283a.923.923,0,0,0-.079,1.164l.71.947.71.947a.886.886,0,0,0,1.125.257l1.578-.809a.975.975,0,0,1,1.006.079,11.78,11.78,0,0,0,1.361.809.988.988,0,0,1,.552.848l.039,1.776a.908.908,0,0,0,.77.868l1.164.178,1.164.178a.909.909,0,0,0,.987-.612l.533-1.677a1.023,1.023,0,0,1,.769-.671,9.319,9.319,0,0,0,1.46-.375.951.951,0,0,1,.987.217l1.3,1.243a.923.923,0,0,0,1.164.079l.947-.71.947-.71a.886.886,0,0,0,.257-1.125l-.809-1.559a.968.968,0,0,1,.079-1.026,10.084,10.084,0,0,0,.809-1.342,1.027,1.027,0,0,1,.848-.552l1.8-.039a.908.908,0,0,0,.868-.769l.178-1.164.178-1.164A.856.856,0,0,0,320.834,267.834Zm-6.886.967a5.193,5.193,0,1,1-4.479-5.82A5.2,5.2,0,0,1,313.948,268.8Z" transform="translate(-250.061 -205.052)" fill="#0d47a1" opacity="0.5"/>
      <path id="Path_31170" data-name="Path 31170" d="M161.7,317.046l-2.506-.434a1.414,1.414,0,0,1-1.1-.987,13.1,13.1,0,0,0-.848-2.111,1.4,1.4,0,0,1,.118-1.46l1.519-2.111a1.292,1.292,0,0,0-.138-1.677l-1.2-1.2-1.2-1.2a1.318,1.318,0,0,0-1.677-.158l-2.072,1.48a1.46,1.46,0,0,1-1.5.1,13.052,13.052,0,0,0-2.091-.888,1.485,1.485,0,0,1-.967-1.1l-.434-2.585a1.311,1.311,0,0,0-1.282-1.1h-3.433a1.314,1.314,0,0,0-1.3,1.085l-.434,2.486a1.406,1.406,0,0,1-1.006,1.1,13.381,13.381,0,0,0-2.19.888,1.428,1.428,0,0,1-1.48-.1l-2.091-1.5a1.292,1.292,0,0,0-1.677.138l-1.2,1.2-1.2,1.2a1.318,1.318,0,0,0-.158,1.677l1.48,2.111a1.44,1.44,0,0,1,.1,1.46,13.263,13.263,0,0,0-.888,2.111,1.419,1.419,0,0,1-1.1.967l-2.545.414a1.384,1.384,0,0,0-1.125,1.263v3.433a1.314,1.314,0,0,0,1.085,1.3l2.545.434a1.453,1.453,0,0,1,1.1.967,14.2,14.2,0,0,0,.868,2.131,1.433,1.433,0,0,1-.1,1.46l-1.5,2.091a1.292,1.292,0,0,0,.138,1.677l1.2,1.2,1.2,1.2a1.318,1.318,0,0,0,1.677.158l2.111-1.48a1.439,1.439,0,0,1,1.46-.1,13.263,13.263,0,0,0,2.111.888,1.419,1.419,0,0,1,.967,1.1l.414,2.545a1.311,1.311,0,0,0,1.282,1.1h3.433a1.314,1.314,0,0,0,1.3-1.085l.434-2.526a1.414,1.414,0,0,1,.987-1.1,12.71,12.71,0,0,0,2.013-.829,1.433,1.433,0,0,1,1.46.1l2.111,1.519a1.292,1.292,0,0,0,1.677-.138l1.2-1.2,1.2-1.2a1.318,1.318,0,0,0,.158-1.677l-1.46-2.072a1.384,1.384,0,0,1-.079-1.48,13.053,13.053,0,0,0,.888-2.091,1.484,1.484,0,0,1,1.1-.967l2.585-.434a1.311,1.311,0,0,0,1.1-1.283v-3.433A1.21,1.21,0,0,0,161.7,317.046Zm-17.185,10.378a7.547,7.547,0,1,1,7.478-7.616A7.554,7.554,0,0,1,144.514,327.424Z" transform="translate(-113.557 -242.09)" fill="#0d47a1"/>
    </g>
  </g>
</svg>
