<svg width="19" height="19" viewBox="0 0 19 19" fill="none" xmlns="http://www.w3.org/2000/svg">
<path d="M18.9696 18.088L12.1709 6.09081C12.0896 5.94756 11.9714 5.82875 11.8286 5.74677C11.6858 5.6648 11.5236 5.62267 11.3589 5.62479C11.1942 5.6269 11.0332 5.67317 10.8925 5.75878C10.7518 5.84439 10.6367 5.9662 10.5591 6.11148L7.77714 11.3289L9.26506 13.9327C9.39978 14.1684 9.45228 14.4422 9.41431 14.7111C9.37633 14.9799 9.25002 15.2285 9.05528 15.4177L8.67093 15.3595L5.74226 10.2331C5.66042 10.0898 5.54152 9.97111 5.39803 9.88955C5.25454 9.808 5.09175 9.76656 4.92673 9.76958C4.76171 9.7726 4.60052 9.81997 4.46011 9.90673C4.31971 9.99348 4.20524 10.1164 4.1287 10.2626L0.0262875 18.0947C0.00790892 18.1298 -0.00109641 18.1689 0.000106478 18.2085C0.00130937 18.248 0.0126962 18.2866 0.0331703 18.3205C0.0536444 18.3543 0.082494 18.3823 0.116959 18.4017C0.151423 18.4212 0.190328 18.4314 0.229893 18.4314H18.7694C18.8096 18.4314 18.8492 18.4209 18.8841 18.4009C18.919 18.3809 18.948 18.352 18.9682 18.3173C18.9885 18.2825 18.9993 18.243 18.9995 18.2028C18.9997 18.1626 18.9894 18.123 18.9696 18.088Z" fill="#278CE9"/>
<path opacity="0.35" d="M15.3082 2.87228C15.2702 2.82792 15.2493 2.77143 15.2493 2.71302C15.2493 2.6546 15.2702 2.5981 15.3082 2.55374L16.2937 1.40395C16.3242 1.36843 16.3439 1.3249 16.3504 1.27853C16.3569 1.23217 16.3499 1.18491 16.3304 1.14237C16.3108 1.09984 16.2794 1.06381 16.24 1.03858C16.2006 1.01334 16.1547 0.999957 16.1079 1.00002H11.5011C11.4362 1.00002 11.3739 1.02581 11.328 1.07171C11.2821 1.11761 11.2563 1.17986 11.2563 1.24477V4.1818C11.2563 4.24671 11.2821 4.30896 11.328 4.35486C11.3739 4.40076 11.4362 4.42655 11.5011 4.42655H16.1079C16.1547 4.42656 16.2006 4.41314 16.24 4.38788C16.2794 4.36263 16.3108 4.32658 16.3303 4.28404C16.3499 4.2415 16.3568 4.19425 16.3503 4.14788C16.3438 4.10151 16.3242 4.05797 16.2937 4.02243L15.3082 2.87228Z" fill="#9AC9F4"/>
</svg>
