<svg xmlns="http://www.w3.org/2000/svg" width="104.8" height="96.147" viewBox="0 0 104.8 96.147">
  <g id="Group_28372" data-name="Group 28372" transform="translate(0 0)">
    <g id="Group_27641" data-name="Group 27641" transform="translate(0 0)">
      <g id="Group_27640" data-name="Group 27640">
        <g id="Group_27639" data-name="Group 27639">
          <path id="Path_30945" data-name="Path 30945" d="M1389.859,723.182l-37.5-66.174a5.074,5.074,0,0,0-8.89.114L1328.124,685.9l8.207,14.362a6.75,6.75,0,0,1-1.157,8.191l-2.12-.321L1316.9,679.856a5.073,5.073,0,0,0-8.9.163l-22.628,43.2a1.268,1.268,0,0,0,1.123,1.857h102.26A1.268,1.268,0,0,0,1389.859,723.182Z" transform="translate(-1285.226 -628.929)" fill="#1e88e5"/>
          <path id="Path_30946" data-name="Path 30946" d="M1390.88,630.539a1.35,1.35,0,0,1,0-1.757l5.436-6.342a1.349,1.349,0,0,0-1.025-2.228h-25.41a1.35,1.35,0,0,0-1.35,1.35v16.2a1.35,1.35,0,0,0,1.35,1.35h25.41a1.35,1.35,0,0,0,1.025-2.229Z" transform="translate(-1306.442 -620.213)" fill="#1e88e5" opacity="0.35"/>
        </g>
      </g>
    </g>
  </g>
</svg>
