<svg width="19" height="19" viewBox="0 0 19 19" fill="none" xmlns="http://www.w3.org/2000/svg">
<g clip-path="url(#clip0)">
<path d="M18.9429 6.77226L15.451 3.06574C15.4129 3.02535 15.3604 3.00173 15.3049 3.00006C15.2494 2.9984 15.1956 3.01883 15.1551 3.05686L13.688 4.43909C13.668 4.45794 13.6519 4.48055 13.6407 4.50562C13.6294 4.53069 13.6232 4.55773 13.6224 4.58521C13.6216 4.61268 13.6262 4.64005 13.636 4.66575C13.6457 4.69144 13.6604 4.71495 13.6793 4.73495L17.1712 8.44147C17.19 8.46148 17.2126 8.47759 17.2377 8.48887C17.2628 8.50015 17.2898 8.50638 17.3173 8.5072C17.3447 8.50803 17.3721 8.50343 17.3978 8.49367C17.4235 8.48392 17.447 8.46919 17.467 8.45034L18.9343 7.06812C18.9543 7.04927 18.9704 7.02666 18.9816 7.00158C18.9929 6.9765 18.9991 6.94945 18.9999 6.92197C19.0007 6.89449 18.9961 6.86713 18.9863 6.84144C18.9765 6.81575 18.9617 6.79224 18.9429 6.77226ZM17.6674 7.19319C17.6017 7.25505 17.5191 7.29604 17.4301 7.31097C17.3411 7.3259 17.2496 7.31411 17.1673 7.27708C17.085 7.24005 17.0155 7.17945 16.9677 7.10294C16.9198 7.02643 16.8957 6.93745 16.8984 6.84723C16.901 6.75701 16.9304 6.66962 16.9828 6.59609C17.0351 6.52257 17.1081 6.46621 17.1925 6.43415C17.2768 6.40209 17.3688 6.39576 17.4568 6.41597C17.5447 6.43617 17.6247 6.482 17.6867 6.54766C17.7278 6.59131 17.76 6.64265 17.7813 6.69874C17.8026 6.75483 17.8127 6.81457 17.8109 6.87455C17.8091 6.93452 17.7955 6.99356 17.7709 7.04828C17.7463 7.103 17.7111 7.15233 17.6674 7.19345V7.19319ZM3.59663 3.57288C3.55279 3.53883 3.49723 3.5236 3.44215 3.53051C3.38708 3.53742 3.337 3.56591 3.30293 3.60973L0.0441023 7.80388C0.0272218 7.82557 0.0147844 7.85038 0.00749352 7.87688C0.000202669 7.90338 -0.00179302 7.93106 0.00161641 7.95834C0.00502584 7.98562 0.0137671 8.01196 0.0273575 8.03585C0.0409479 8.05974 0.0591085 8.08072 0.0808096 8.09759L1.6793 9.33955C1.701 9.35642 1.72581 9.36885 1.75232 9.37614C1.77883 9.38342 1.8065 9.3854 1.83378 9.38198C1.86106 9.37856 1.88739 9.3698 1.91128 9.3562C1.93517 9.34259 1.95615 9.32442 1.97301 9.3027L5.23196 5.10895C5.24885 5.08726 5.2613 5.06245 5.26859 5.03594C5.27588 5.00943 5.27787 4.98174 5.27445 4.95446C5.27103 4.92718 5.26226 4.90084 5.24864 4.87695C5.23503 4.85307 5.21684 4.8321 5.19511 4.81524L3.59663 3.57288ZM2.06284 7.94293C2.00726 8.01443 1.93174 8.06785 1.84581 8.09643C1.75988 8.12501 1.66741 8.12747 1.58008 8.1035C1.49275 8.07952 1.41449 8.03019 1.35519 7.96175C1.29589 7.8933 1.25822 7.80881 1.24694 7.71896C1.23566 7.6291 1.25127 7.53793 1.29181 7.45695C1.33234 7.37597 1.39598 7.30882 1.47467 7.264C1.55336 7.21919 1.64357 7.19871 1.7339 7.20516C1.82423 7.21161 1.91063 7.24469 1.98215 7.30024C2.02966 7.33713 2.06943 7.38302 2.0992 7.43529C2.12897 7.48756 2.14815 7.54518 2.15564 7.60487C2.16314 7.66455 2.15879 7.72513 2.14287 7.78313C2.12695 7.84114 2.09976 7.89544 2.06284 7.94293Z" fill="#9AC9F4"/>
<path d="M14.1874 12.0072L10.6061 9.21137L9.95309 9.80889C9.03039 10.6373 8.19982 10.8599 7.57273 10.8599C7.42517 10.86 7.27786 10.8475 7.13242 10.8226C6.77899 10.7637 6.44277 10.628 6.14741 10.4251C5.85206 10.2223 5.60473 9.95716 5.42285 9.64844C5.26618 9.40039 5.20321 9.10456 5.24528 8.8142C5.28734 8.52384 5.43167 8.25803 5.65229 8.06463L8.22456 5.72582C7.87386 5.4557 7.43028 5.33587 6.99127 5.39266C6.55226 5.44945 6.15376 5.67821 5.88334 6.02868L3.37171 9.27458C3.27016 9.40455 3.19521 9.55326 3.15114 9.7122C3.10706 9.87114 3.09473 10.0372 3.11484 10.2009L3.27623 11.5188C3.29633 11.6826 3.34847 11.8407 3.42969 11.9842C3.51092 12.1278 3.61962 12.2539 3.7496 12.3555L8.15195 15.7878C8.28596 15.8923 8.45441 15.9424 8.62374 15.9282C8.79308 15.914 8.95086 15.8366 9.06563 15.7113L9.26359 15.4951C9.32522 15.4279 9.37257 15.3488 9.40282 15.2627C9.43307 15.1767 9.44559 15.0854 9.43959 14.9943C9.4336 14.9033 9.40923 14.8144 9.36795 14.7331C9.32668 14.6517 9.26935 14.5795 9.19944 14.5209L9.9391 15.1405C10.0669 15.2477 10.2299 15.3039 10.3966 15.2981C10.5634 15.2923 10.7221 15.225 10.8422 15.1092L11.0698 14.8897C11.1382 14.8238 11.1918 14.7443 11.2274 14.6563C11.2629 14.5682 11.2795 14.4737 11.2761 14.3789C11.2726 14.284 11.2493 14.191 11.2075 14.1058C11.1657 14.0205 11.1064 13.9451 11.0335 13.8843L11.5799 14.3399C11.7086 14.4471 11.8724 14.5027 12.0397 14.496C12.207 14.4893 12.3658 14.4207 12.4854 14.3035L12.6862 14.1067C12.7529 14.0414 12.8053 13.9631 12.8401 13.8765C12.875 13.79 12.8915 13.6972 12.8888 13.6039C12.886 13.5106 12.8639 13.419 12.8239 13.3347C12.7839 13.2504 12.7269 13.1753 12.6565 13.1141L13.0172 13.426C13.085 13.4847 13.1639 13.5292 13.2492 13.5571C13.3345 13.585 13.4244 13.5956 13.5139 13.5883C13.6033 13.581 13.6904 13.556 13.77 13.5147C13.8497 13.4734 13.9203 13.4167 13.9778 13.3478L14.2905 12.9733C14.3486 12.9037 14.3921 12.8232 14.4185 12.7364C14.4448 12.6497 14.4534 12.5585 14.4438 12.4684C14.4342 12.3782 14.4066 12.291 14.3625 12.2117C14.3185 12.1325 14.2589 12.0629 14.1874 12.0072ZM15.938 8.66053L12.9138 5.5756C12.7826 5.44196 12.6104 5.35612 12.4248 5.33178L10.877 5.12911C10.7567 5.11334 10.6345 5.12391 10.5187 5.16006C10.4029 5.19622 10.2964 5.2571 10.2065 5.3385L9.84227 5.67001L6.35914 8.83751C6.32057 8.86695 6.29438 8.90971 6.28567 8.95744C6.27697 9.00517 6.28638 9.05443 6.31207 9.09558L6.33372 9.13176C6.43891 9.30624 6.5809 9.45567 6.74978 9.56962C6.91867 9.68357 7.11039 9.7593 7.31156 9.79154C7.91283 9.89401 8.58377 9.63312 9.25135 9.03359L10.5534 7.84192L14.651 11.0412L15.9279 9.84426C16.0862 9.68861 16.1762 9.47646 16.1781 9.25448C16.18 9.0325 16.0936 8.81885 15.938 8.66053Z" fill="#278CE9"/>
</g>
<defs>
<clipPath id="clip0">
<rect width="19.0001" height="19" fill="white"/>
</clipPath>
</defs>
</svg>
