<svg id="Group_27677" data-name="Group 27677" xmlns="http://www.w3.org/2000/svg" width="141.28" height="96.147" viewBox="0 0 141.28 96.147">
  <g id="Group_20334" data-name="Group 20334" transform="translate(0 0)">
    <g id="Group_20333" data-name="Group 20333">
      <g id="Group_20332" data-name="Group 20332">
        <path id="Path_26827" data-name="Path 26827" d="M1617.252,626.968l-25.965-27.561a1.557,1.557,0,0,0-2.2-.066l-10.909,10.278a1.556,1.556,0,0,0-.065,2.2l25.965,27.561a1.556,1.556,0,0,0,2.2.066l10.91-10.278A1.555,1.555,0,0,0,1617.252,626.968Zm-9.484,3.13a3.394,3.394,0,1,1,.143-4.8A3.395,3.395,0,0,1,1607.768,630.1Zm-104.628-26.92a1.557,1.557,0,0,0-2.184.274l-24.232,31.187a1.556,1.556,0,0,0,.273,2.184l11.886,9.235a1.556,1.556,0,0,0,2.184-.274L1515.3,614.6a1.555,1.555,0,0,0-.274-2.184Zm-11.405,32.495a3.405,3.405,0,1,1-.6-4.779A3.405,3.405,0,0,1,1491.735,635.673Z" transform="translate(-1476.396 -598.918)" fill="#1e88e5" opacity="0.35"/>
        <path id="Path_26828" data-name="Path 26828" d="M1589.783,671.285l-26.63-20.789-4.856,4.443c-6.861,6.16-13.037,7.815-17.7,7.815a19.367,19.367,0,0,1-3.274-.277,18.236,18.236,0,0,1-12.712-8.731,9.158,9.158,0,0,1,1.706-11.777l19.127-17.391a12.418,12.418,0,0,0-17.409,2.252l-18.676,24.136a9.338,9.338,0,0,0-1.91,6.888l1.2,9.8a9.338,9.338,0,0,0,3.52,6.221l32.735,25.522a5.024,5.024,0,0,0,6.794-.569l1.472-1.607a5.024,5.024,0,0,0-.477-7.244l5.5,4.607a5.022,5.022,0,0,0,6.715-.233l1.693-1.632a5.025,5.025,0,0,0-.27-7.476l4.063,3.388a5.024,5.024,0,0,0,6.733-.271l1.493-1.463a5.023,5.023,0,0,0-.221-7.381l2.682,2.319a5.024,5.024,0,0,0,7.143-.581l2.325-2.785A5.025,5.025,0,0,0,1589.783,671.285ZM1602.8,646.4l-22.488-22.939a6.229,6.229,0,0,0-3.636-1.813l-11.509-1.507a6.224,6.224,0,0,0-4.986,1.557l-2.708,2.465-25.9,23.553a1.449,1.449,0,0,0-.35,1.919l.161.269a10.414,10.414,0,0,0,7.271,4.906c4.471.762,9.46-1.178,14.424-5.636l9.682-8.861,30.469,23.789,9.495-8.9A6.225,6.225,0,0,0,1602.8,646.4Z" transform="translate(-1484.288 -604.309)" fill="#1e88e5"/>
      </g>
    </g>
  </g>
</svg>
