<svg xmlns="http://www.w3.org/2000/svg" width="79.594" height="94.407" viewBox="0 0 79.594 94.407">
  <g id="Group_27691" data-name="Group 27691" transform="translate(0)">
    <path id="Path_31025" data-name="Path 31025" d="M3091.888,751.641c0-35.266-30.97-38.654-36.215-38.654-20.029,0-33.01,17.4-33.01,30.959v4.927c-1.644,2.112-6.34,8.15-8.575,11.024a8.575,8.575,0,0,0,3.614,13.217l2.58,1.031,4.178,11.7a14.645,14.645,0,0,0,13.764,9.7h4.3l2.439,9.755a2.766,2.766,0,0,0,2.684,2.094H3083.2a2.767,2.767,0,0,0,2.66-3.526l-5.649-19.772,9.173-20.639A28.922,28.922,0,0,0,3091.888,751.641Zm-20.737-9.225a2.766,2.766,0,1,1-5.531,0v-2.211l-7.129,7.129a2.766,2.766,0,0,1-1.955.81h-7.743l-5.114,5.115a2.766,2.766,0,0,1-3.912-3.911l5.926-5.925a2.763,2.763,0,0,1,1.956-.81h7.741l6.319-6.319h-2.21a2.766,2.766,0,1,1,0-5.532h8.887a2.766,2.766,0,0,1,2.766,2.766Z" transform="translate(-3012.294 -712.987)" fill="#64b5f6" fill-rule="evenodd"/>
    <g id="Group_27689" data-name="Group 27689" transform="translate(57.39 66.83)">
      <g id="Ellipse_828" data-name="Ellipse 828" transform="translate(0.47 0.009)" fill="#fff" stroke="#fff" stroke-width="3">
        <ellipse cx="7.5" cy="8" rx="7.5" ry="8" stroke="none"/>
        <ellipse cx="7.5" cy="8" rx="6" ry="6.5" fill="none"/>
      </g>
      <g id="Ellipse_829" data-name="Ellipse 829" transform="translate(0.47 0.009)" fill="rgba(2,160,252,0.35)" stroke="#fff" stroke-width="3">
        <ellipse cx="7.5" cy="8" rx="7.5" ry="8" stroke="none"/>
        <ellipse cx="7.5" cy="8" rx="6" ry="6.5" fill="none"/>
      </g>
    </g>
  </g>
</svg>
