<svg width="19" height="19" viewBox="0 0 19 19" fill="none" xmlns="http://www.w3.org/2000/svg">
<g clip-path="url(#clip0)">
<path fill-rule="evenodd" clip-rule="evenodd" d="M17.0187 7.77936C17.0187 0.681855 10.7859 0 9.73026 0C5.6993 0 3.08679 3.50186 3.08679 6.23069V7.22228C2.75592 7.64733 1.81078 8.86252 1.36098 9.44093C1.1973 9.6524 1.08505 9.89903 1.033 10.1613C0.980957 10.4236 0.990575 10.6944 1.06111 10.9524C1.13164 11.2103 1.26113 11.4483 1.4394 11.6477C1.61767 11.847 1.83982 12.0022 2.08832 12.1009L2.60758 12.3084L3.44842 14.6631C3.6532 15.234 4.02913 15.7278 4.52487 16.0772C5.02061 16.4265 5.61207 16.6145 6.21855 16.6153H7.08391L7.57477 18.5786C7.60492 18.699 7.67451 18.8059 7.77239 18.8822C7.87026 18.9586 7.99082 19 8.11495 19H15.2702C15.3564 19 15.4414 18.98 15.5185 18.9415C15.5956 18.9031 15.6627 18.8473 15.7146 18.7785C15.7665 18.7097 15.8017 18.6298 15.8175 18.5451C15.8333 18.4604 15.8292 18.3732 15.8056 18.2904L14.6687 14.3111L16.5148 10.1574C16.8483 9.40902 17.02 8.59867 17.0187 7.77936ZM12.8453 5.92278C12.8467 5.99676 12.8333 6.07027 12.806 6.13903C12.7787 6.20779 12.7379 6.27041 12.6861 6.32322C12.6342 6.37604 12.5724 6.418 12.5042 6.44664C12.4359 6.47528 12.3627 6.49004 12.2887 6.49004C12.2147 6.49004 12.1415 6.47528 12.0733 6.44664C12.005 6.418 11.9432 6.37604 11.8914 6.32322C11.8395 6.27041 11.7988 6.20779 11.7714 6.13903C11.7441 6.07027 11.7308 5.99676 11.7322 5.92278V5.4778L10.2974 6.91255C10.193 7.01689 10.0515 7.07553 9.9039 7.07556H8.34559L7.31637 8.10499C7.21162 8.20759 7.0706 8.26473 6.92397 8.26398C6.77735 8.26323 6.63695 8.20467 6.53325 8.101C6.42956 7.99733 6.37096 7.85693 6.37018 7.7103C6.36939 7.56367 6.4265 7.42266 6.52908 7.31788L7.72173 6.12543C7.77341 6.07371 7.83475 6.0327 7.9023 6.00473C7.96985 5.97676 8.04224 5.96237 8.11535 5.96241H9.67327L10.945 4.69068H10.5003C10.3526 4.69068 10.211 4.63204 10.1066 4.52764C10.0022 4.42324 9.94356 4.28165 9.94356 4.13401C9.94356 3.98637 10.0022 3.84477 10.1066 3.74038C10.211 3.63598 10.3526 3.57734 10.5003 3.57734H12.2888C12.4365 3.57734 12.578 3.63598 12.6824 3.74038C12.7868 3.84477 12.8455 3.98637 12.8455 4.13401L12.8453 5.92278Z" fill="#278CE9"/>
<path d="M14.154 16.6718C14.9876 16.6718 15.6634 15.951 15.6634 15.0618C15.6634 14.1726 14.9876 13.4517 14.154 13.4517C13.3203 13.4517 12.6445 14.1726 12.6445 15.0618C12.6445 15.951 13.3203 16.6718 14.154 16.6718Z" fill="white"/>
<path d="M14.1541 16.3699C14.821 16.3699 15.3616 15.7842 15.3616 15.0617C15.3616 14.3392 14.821 13.7536 14.1541 13.7536C13.4872 13.7536 12.9465 14.3392 12.9465 15.0617C12.9465 15.7842 13.4872 16.3699 14.1541 16.3699Z" stroke="white" stroke-width="3"/>
<path d="M14.154 16.6718C14.9876 16.6718 15.6634 15.951 15.6634 15.0618C15.6634 14.1726 14.9876 13.4517 14.154 13.4517C13.3203 13.4517 12.6445 14.1726 12.6445 15.0618C12.6445 15.951 13.3203 16.6718 14.154 16.6718Z" fill="#9AC9F4"/>
<path d="M14.1541 16.3699C14.821 16.3699 15.3616 15.7842 15.3616 15.0617C15.3616 14.3392 14.821 13.7536 14.1541 13.7536C13.4872 13.7536 12.9465 14.3392 12.9465 15.0617C12.9465 15.7842 13.4872 16.3699 14.1541 16.3699Z" stroke="white" stroke-width="3"/>
</g>
<defs>
<clipPath id="clip0">
<rect width="19" height="19" fill="white"/>
</clipPath>
</defs>
</svg>
