<svg xmlns="http://www.w3.org/2000/svg" width="100.868" height="115.526" viewBox="0 0 100.868 115.526">
  <g id="Group_27694" data-name="Group 27694" transform="translate(0)">
    <g id="Group_20324" data-name="Group 20324" transform="translate(18.634 18.633)">
      <g id="Group_20323" data-name="Group 20323" transform="translate(0)">
        <path id="Path_26821" data-name="Path 26821" d="M1011.158,1167.286H987.277a4.037,4.037,0,0,0-4.037,4.037v.58a4.038,4.038,0,0,0,4.037,4.037h3.959v.979a7.453,7.453,0,0,0,7.453,7.453h1.072a7.454,7.454,0,0,0,7.453-7.453v-.979h3.944a4.038,4.038,0,0,0,4.037-4.037v-.58A4.038,4.038,0,0,0,1011.158,1167.286Z" transform="translate(-967.338 -1087.481)" fill="#64b5f6" opacity="0.35"/>
        <path id="Path_26822" data-name="Path 26822" d="M990.073,1060.421c-13.432,1.517-26.355,14.375-27.94,27.8a31.764,31.764,0,0,0,8.757,26.021,20.4,20.4,0,0,1,5.729,14.209v0a4.9,4.9,0,0,0,4.9,4.905h24.523a4.9,4.9,0,0,0,4.9-4.905,20.106,20.106,0,0,1,5.617-14.1,31.862,31.862,0,0,0-26.494-53.935Zm.606,60.658a3.106,3.106,0,0,1-6.212,0v-13.438a7.668,7.668,0,0,0-7.659-7.661,3.105,3.105,0,1,1,0-6.211,13.888,13.888,0,0,1,13.87,13.872Zm20.081-21.1a7.669,7.669,0,0,0-7.66,7.661v13.438a3.105,3.105,0,1,1-6.211,0v-13.438a13.888,13.888,0,0,1,13.87-13.872,3.105,3.105,0,1,1,0,6.211Z" transform="translate(-961.904 -1060.211)" fill="#64b5f6"/>
      </g>
    </g>
    <g id="Group_27693" data-name="Group 27693" transform="translate(0 0)" opacity="0.35">
      <path id="Path_31037" data-name="Path 31037" d="M2628.505,1038.609a3.361,3.361,0,0,1-3.362-3.363V1028.3a3.362,3.362,0,0,1,6.725,0v6.948A3.361,3.361,0,0,1,2628.505,1038.609Z" transform="translate(-2578.071 -1024.936)" fill="#64b5f6"/>
      <path id="Path_31038" data-name="Path 31038" d="M2664.87,1060.048a3.36,3.36,0,0,1,1.231-4.593l5.821-3.363a3.363,3.363,0,1,1,3.363,5.825l-5.822,3.363a3.364,3.364,0,0,1-4.593-1.231Z" transform="translate(-2582.405 -1027.882)" fill="#64b5f6"/>
      <path id="Path_31039" data-name="Path 31039" d="M2579.772,1109.179a3.364,3.364,0,0,1,1.231-4.594l5.822-3.362a3.363,3.363,0,1,1,3.362,5.825l-5.821,3.363A3.366,3.366,0,0,1,2579.772,1109.179Z" transform="translate(-2573.015 -1033.304)" fill="#64b5f6"/>
      <path id="Path_31040" data-name="Path 31040" d="M2649.5,1044.373a3.361,3.361,0,0,1-1.231-4.593l3.362-5.822a3.362,3.362,0,1,1,5.824,3.362l-3.362,5.822A3.365,3.365,0,0,1,2649.5,1044.373Z" transform="translate(-2580.573 -1025.745)" fill="#64b5f6"/>
      <path id="Path_31041" data-name="Path 31041" d="M2602.5,1043.142l-3.362-5.822a3.362,3.362,0,1,1,5.824-3.362l3.362,5.822a3.363,3.363,0,0,1-5.825,3.362Z" transform="translate(-2575.152 -1025.745)" fill="#64b5f6"/>
      <path id="Path_31042" data-name="Path 31042" d="M2671.922,1110.41l-5.822-3.363a3.363,3.363,0,1,1,3.363-5.825l5.821,3.362a3.363,3.363,0,0,1-3.362,5.826Z" transform="translate(-2582.405 -1033.304)" fill="#64b5f6"/>
      <path id="Path_31043" data-name="Path 31043" d="M2586.825,1061.279l-5.822-3.363a3.363,3.363,0,1,1,3.363-5.825l5.821,3.363a3.363,3.363,0,1,1-3.362,5.825Z" transform="translate(-2573.015 -1027.882)" fill="#64b5f6"/>
      <path id="Path_31044" data-name="Path 31044" d="M2680.582,1084.822h-6.725a3.362,3.362,0,0,1,0-6.724h6.725a3.362,3.362,0,1,1,0,6.724Z" transform="translate(-2583.076 -1030.802)" fill="#64b5f6"/>
      <path id="Path_31045" data-name="Path 31045" d="M2582.32,1084.822h-6.725a3.362,3.362,0,1,1,0-6.724h6.725a3.362,3.362,0,1,1,0,6.724Z" transform="translate(-2572.233 -1030.802)" fill="#64b5f6"/>
    </g>
  </g>
</svg>
