<svg xmlns="http://www.w3.org/2000/svg" width="80.811" height="96.147" viewBox="0 0 80.811 96.147">
  <g id="Group_27668" data-name="Group 27668" transform="translate(0)">
    <path id="Path_30975" data-name="Path 30975" d="M4225.535,1273.01c1.869-1.871,3.979-2.9,5.764-4.367a6.828,6.828,0,0,0,1.394-1.247c1.051-1.537,2.136-2.738,4.317-2.275.85.181,1.631-.595,2.165-1.354a24.971,24.971,0,0,0,1.642-2.432c.556-1.033,1.212-.993,2-.37a5.971,5.971,0,0,1,1.055,1.031c1.229,1.612,2.791,1.694,4.551,1.1,2.738-.921,4.745-2.927,6.96-4.628,1.023-.786,2.062-1.553,3.094-2.327.514-.385.977-.186,1.477.076a12.38,12.38,0,0,1,4.031,3.456c.752.97,1.4,1.088,2.387.25a12.579,12.579,0,0,0,3.2-3.381c.378-.69.781-.695,1.4-.362a4.794,4.794,0,0,1,1.625,1.381c1.892,2.616,4.615,3.686,7.646,4.09,4.73.63,9.146,2.437,13.742,3.56a1.34,1.34,0,0,1,.576.33,28.859,28.859,0,0,0,11.678,6.414c.034.01.054.07.11.148a45.2,45.2,0,0,1-7.566.461c-16.709.676-33.426.415-50.141.408-7.385,0-14.77.023-22.154.036Z" transform="translate(-4225.535 -1176.883)" fill="#64b5f6"/>
    <path id="Path_30976" data-name="Path 30976" d="M4283.783,1243.076c-.164.7.522,1.756-.039,2.182-.531.4-1.5-.225-2.269-.4a41.955,41.955,0,0,0-20.112.367c-1.075.278-1.259.186-1.165-.983q.577-7.219.9-14.456c.047-1.076.373-1.623,1.362-1.91a37.5,37.5,0,0,1,13.8-.913,26.5,26.5,0,0,1,5.6,1.1,1.261,1.261,0,0,1,1.085,1.277C4283.208,1233.89,4283.5,1238.442,4283.783,1243.076Z" transform="translate(-4234.357 -1169.446)" fill="#64b5f6"/>
    <path id="Path_30977" data-name="Path 30977" d="M4272.473,1196.082a32.394,32.394,0,0,1,8.177,1.116c.42.119.909.145.949.861.229,4.013.509,8.023.8,12.032.067.953,0,1.233-1.176.94a33.779,33.779,0,0,0-16.784.054c-1.154.3-1.244,0-1.173-.969q.442-6.015.8-12.035c.04-.68.458-.75.915-.9A26.846,26.846,0,0,1,4272.473,1196.082Z" transform="translate(-4235.139 -1161.641)" fill="#64b5f6"/>
    <path id="Path_30978" data-name="Path 30978" d="M4257.757,1159.87a33.717,33.717,0,0,0,.059,3.626c.145,1.219-.465,1.541-1.467,1.705-6.418,1.054-12.827,2.152-19.25,3.17-1.053.166-2.108.3-3.152.525-.5.107-.811.129-.791-.719a107.168,107.168,0,0,0-.09-12.474c-.056-.6.11-.685.659-.581,3.754.709,7.509,1.413,11.271,2.075,4.173.735,8.354,1.423,12.532,2.131C4257.394,1159.6,4257.235,1159.876,4257.757,1159.87Z" transform="translate(-4227.451 -1151.2)" fill="#64b5f6" opacity="0.35"/>
    <path id="Path_30979" data-name="Path 30979" d="M4285.359,1159.693c3.419-.629,6.835-1.27,10.257-1.884,2.8-.5,5.608-1,8.418-1.452,1.271-.207,2.545-.38,3.813-.632,1.3-.258,1.835.24,1.846,1.588.028,3.5-.01,7,.024,10.493.009.867-.314,1.1-1.123.973-4.388-.71-8.8-1.3-13.16-2.13-3.151-.6-6.342-.915-9.492-1.508-.9-.169-1.095-.538-1.07-1.325.042-1.344.028-2.689.037-4.034Z" transform="translate(-4240.646 -1151.347)" fill="#64b5f6" opacity="0.35"/>
    <path id="Path_30980" data-name="Path 30980" d="M4281.219,1186.884a30.586,30.586,0,0,0-8.007-1.1,27.684,27.684,0,0,0-6.727.938c-.943.247-.851-.134-.81-.747.216-3.21.455-6.42.6-9.633a.924.924,0,0,1,.811-.989,23.934,23.934,0,0,1,12.655.06c.414.113.824.226.856.844C4280.777,1179.764,4281,1183.273,4281.219,1186.884Z" transform="translate(-4235.752 -1156.151)" fill="#64b5f6"/>
    <path id="Path_30981" data-name="Path 30981" d="M4280.48,1158.219l-.45.087a17.144,17.144,0,0,0-13.957.237c-.521.006-.363-.273-.228-.543,2.062-1.916,3.71-4.2,5.606-6.266.452-.493.915-.976,1.331-1.5.365-.458.652-.5,1.045-.026Q4277.141,1154.225,4280.48,1158.219Z" transform="translate(-4235.768 -1149.873)" fill="#64b5f6"/>
    <path id="Path_30982" data-name="Path 30982" d="M4262.176,1173.332c-.436-1.2.2-2.045,1.3-2.717a15.85,15.85,0,0,1,7.288-1.921,23.446,23.446,0,0,1,9.5,1.011,7.388,7.388,0,0,1,2.673,1.434c.667.609,1.054,1.326.6,2.136A22.975,22.975,0,0,0,4262.176,1173.332Z" transform="translate(-4234.832 -1154.642)" fill="#64b5f6"/>
    <path id="Path_30983" data-name="Path 30983" d="M4277.25,1219.574v.8c0,2.03,0,1.942-1.993,2.061-1.267.076-1.8-.24-1.57-1.559a8.608,8.608,0,0,0,.014-1.468c0-2.514.514-2.9,3.06-2.447.547.1.486.392.489.74C4277.253,1218.326,4277.25,1218.95,4277.25,1219.574Z" transform="translate(-4237.785 -1166.917)" fill="#64b5f6"/>
  </g>
</svg>
