<svg xmlns="http://www.w3.org/2000/svg" width="87.655" height="74.001" viewBox="0 0 87.655 74.001">
  <g id="Group_28376" data-name="Group 28376" transform="translate(-3788.366 -1034.786)">
    <path id="Path_31174" data-name="Path 31174" d="M3869.249,1070.8a14.6,14.6,0,0,1-10.189,5.287c-.055.179-.114.355-.176.531a18.064,18.064,0,0,1,8.884,11.541h5.675a2.579,2.579,0,0,0,2.578-2.578h0v-3.437A12.9,12.9,0,0,0,3869.249,1070.8Z" fill="#1f854b" opacity="0.5" style="isolation: isolate"/>
    <path id="Path_31175" data-name="Path 31175" d="M3859.655,1070.821a9.452,9.452,0,1,0-10.386-12.984A14.639,14.639,0,0,1,3859.655,1070.821Z" fill="#1f854b" opacity="0.5" style="isolation: isolate"/>
    <path id="Path_31176" data-name="Path 31176" d="M3805.5,1076.62c-.061-.176-.121-.352-.176-.531a14.594,14.594,0,0,1-10.189-5.288,12.9,12.9,0,0,0-6.773,11.345v3.438a2.578,2.578,0,0,0,2.578,2.578h5.676a18.057,18.057,0,0,1,8.884-11.541Z" fill="#1f854b" opacity="0.5" style="isolation: isolate"/>
    <path id="Path_31177" data-name="Path 31177" d="M3804.733,1070.821a14.637,14.637,0,0,1,10.386-12.984,9.453,9.453,0,1,0-10.386,12.984Z" fill="#1f854b" opacity="0.5" style="isolation: isolate"/>
    <path id="Path_31179" data-name="Path 31179" d="M3843.468,1091.426a14.589,14.589,0,0,1-22.548,0,12.9,12.9,0,0,0-6.773,11.345v3.438a2.578,2.578,0,0,0,2.578,2.578h30.938a2.579,2.579,0,0,0,2.578-2.578h0v-3.437A12.9,12.9,0,0,0,3843.468,1091.426Z" fill="#1f854b"/>
    <path id="Path_31180" data-name="Path 31180" d="M3856.359,1081.113a14.6,14.6,0,0,1-10.192,5.287c-.055.178-.112.356-.173.531a18.063,18.063,0,0,1,8.884,11.541h5.676a2.579,2.579,0,0,0,2.578-2.578h0v-3.437A12.9,12.9,0,0,0,3856.359,1081.113Z" fill="#1f854b"/>
    <path id="Path_31181" data-name="Path 31181" d="M3846.765,1081.134a9.452,9.452,0,1,0-10.386-12.984A14.639,14.639,0,0,1,3846.765,1081.134Z" fill="#1f854b" opacity="0.5" style="isolation: isolate"/>
    <path id="Path_31182" data-name="Path 31182" d="M3818.4,1086.932c-.062-.176-.119-.353-.173-.531a14.593,14.593,0,0,1-10.192-5.288,12.9,12.9,0,0,0-6.773,11.345v3.438a2.578,2.578,0,0,0,2.578,2.578h5.676A18.059,18.059,0,0,1,3818.4,1086.932Z" fill="#1f854b"/>
    <path id="Path_31183" data-name="Path 31183" d="M3819.3,1062.38a9.452,9.452,0,0,0-1.68,18.754,14.637,14.637,0,0,1,10.386-12.984A9.468,9.468,0,0,0,3819.3,1062.38Z" fill="#1f854b" opacity="0.5" style="isolation: isolate"/>
    <ellipse id="Ellipse_838" data-name="Ellipse 838" cx="9" cy="9.5" rx="9" ry="9.5" transform="translate(3823.365 1072.786)" fill="#1f854b"/>
    <path id="Path_31214" data-name="Path 31214" d="M3846.225,1050.777l-12.018-15.024a2.58,2.58,0,0,0-3.624-.4,2.611,2.611,0,0,0-.4.4l-12.017,15.021a1.847,1.847,0,0,0,1.443,3v0h4.424v4.234a8.269,8.269,0,0,0,16.328,0v-4.234h4.424a1.847,1.847,0,0,0,1.443-3Z" fill="#1f854b"/>
  </g>
</svg>
