<svg width="19" height="19" viewBox="0 0 19 19" fill="none" xmlns="http://www.w3.org/2000/svg">
<g clip-path="url(#clip0)">
<path d="M18.9672 17.3251L18.0996 14.7211C18.0756 14.6478 18.0665 14.5705 18.0731 14.4937C18.0796 14.4169 18.1016 14.3422 18.1376 14.2741C18.5845 13.4055 18.8388 12.4508 18.883 11.475C18.9273 10.4992 18.7605 9.52539 18.3941 8.61995C18.0277 7.71451 17.4702 6.89878 16.7597 6.22844C16.0493 5.55809 15.2026 5.04891 14.2774 4.73564C14.8804 6.19021 15.0464 7.789 14.755 9.3364C14.4519 10.913 13.6793 12.3611 12.5385 13.4908C11.3977 14.6204 9.94208 15.3787 8.36259 15.6663C7.94738 15.7386 7.52731 15.7794 7.10596 15.7884C8.109 16.8746 9.43934 17.6035 10.8947 17.8642C12.35 18.1248 13.8506 17.903 15.1683 17.2325C15.2362 17.197 15.3106 17.1754 15.3869 17.1691C15.4633 17.1627 15.5402 17.1717 15.613 17.1954L18.2271 18.0669C18.3304 18.1014 18.4412 18.1063 18.5472 18.0813C18.6531 18.0562 18.7499 18.0021 18.8268 17.9251C18.9037 17.848 18.9575 17.7511 18.9824 17.6451C19.0072 17.5391 19.0019 17.4283 18.9672 17.3251Z" fill="#9AC9F4"/>
<path d="M5.59743 1.12703C4.56348 1.32848 3.59057 1.76778 2.75572 2.41018C1.92088 3.05258 1.24698 3.88045 0.787367 4.82828C0.32775 5.77611 0.0950527 6.8179 0.107618 7.87122C0.120184 8.92454 0.377701 9.96048 0.859799 10.8971C0.895727 10.9653 0.917614 11.0399 0.92416 11.1167C0.930706 11.1935 0.92176 11.2708 0.897891 11.3441L0.0301484 13.9481C-0.00429943 14.0513 -0.00933625 14.1619 0.0156004 14.2678C0.040537 14.3736 0.0944938 14.4704 0.171362 14.5473C0.248231 14.6243 0.344981 14.6782 0.450808 14.7032C0.556636 14.7282 0.667348 14.7233 0.770506 14.6889L3.38463 13.8174C3.45749 13.7936 3.53436 13.7847 3.61072 13.791C3.68708 13.7974 3.76142 13.819 3.82935 13.8544C4.79449 14.3442 5.86265 14.5964 6.94495 14.59C8.02724 14.5835 9.09231 14.3187 10.0516 13.8174C11.0108 13.3161 11.8364 12.593 12.4597 11.7081C13.083 10.8233 13.4859 9.80238 13.6348 8.73037C13.7838 7.65835 13.6746 6.56626 13.3162 5.54501C12.9578 4.52375 12.3606 3.60288 11.5744 2.85905C10.7882 2.11523 9.83568 1.56997 8.79615 1.26866C7.75662 0.967359 6.66017 0.91873 5.59805 1.12682L5.59743 1.12703ZM7.32592 9.91123H3.94974C3.78986 9.91123 3.63654 9.84772 3.52348 9.73467C3.41043 9.62161 3.34695 9.46828 3.34695 9.30839C3.34695 9.14851 3.41043 8.99518 3.52348 8.88212C3.63654 8.76907 3.78986 8.70556 3.94974 8.70556H7.32592C7.48581 8.70556 7.63913 8.76907 7.75219 8.88212C7.86524 8.99518 7.92877 9.14851 7.92877 9.30839C7.92877 9.46828 7.86524 9.62161 7.75219 9.73467C7.63913 9.84772 7.48581 9.91123 7.32592 9.91123ZM9.73746 7.49967H3.95C3.79012 7.49967 3.63674 7.43616 3.52369 7.32311C3.41063 7.21005 3.34716 7.05672 3.34716 6.89684C3.34716 6.73695 3.41063 6.58362 3.52369 6.47057C3.63674 6.35751 3.79012 6.294 3.95 6.294H9.73746C9.89734 6.294 10.0507 6.35751 10.1637 6.47057C10.2768 6.58362 10.3403 6.73695 10.3403 6.89684C10.3403 7.05672 10.2768 7.21005 10.1637 7.32311C10.0507 7.43616 9.89734 7.49967 9.73746 7.49967Z" fill="#278CE9"/>
</g>
<defs>
<clipPath id="clip0">
<rect width="19" height="19" fill="white"/>
</clipPath>
</defs>
</svg>
