<svg id="Group_27788" data-name="Group 27788" xmlns="http://www.w3.org/2000/svg" width="90.235" height="81.167" viewBox="0 0 90.235 81.167">
  <g id="Group_27729" data-name="Group 27729" transform="translate(0 0)">
    <path id="Path_31096" data-name="Path 31096" d="M3222.338,182.651l-4.121-12.367a2.725,2.725,0,0,1,.181-2.123,32.249,32.249,0,0,0-18.333-45.3,38.468,38.468,0,0,1,2.268,21.85,37.811,37.811,0,0,1-30.359,30.062,39.781,39.781,0,0,1-5.968.58,32.225,32.225,0,0,0,38.29,6.858,2.734,2.734,0,0,1,2.112-.176l12.415,4.139A2.78,2.78,0,0,0,3222.338,182.651Z" transform="translate(-3132.251 -105.15)" fill="#1f854b" opacity="0.35"/>
    <path id="Path_31097" data-name="Path 31097" d="M3177.861,115.7a32.24,32.24,0,0,0-22.5,46.4,2.736,2.736,0,0,1,.181,2.123l-4.121,12.367a2.78,2.78,0,0,0,3.516,3.518l12.415-4.139a2.734,2.734,0,0,1,2.112.176,32.271,32.271,0,1,0,8.4-60.446Zm8.209,41.718h-16.034a2.863,2.863,0,1,1,0-5.726h16.034a2.863,2.863,0,0,1,0,5.726Zm11.453-11.453h-27.486a2.863,2.863,0,1,1,0-5.726h27.486a2.863,2.863,0,1,1,0,5.726Z" transform="translate(-3151.27 -115.127)" fill="#1f854b"/>
  </g>
</svg>
