<svg id="Group_27786" data-name="Group 27786" xmlns="http://www.w3.org/2000/svg" width="72.527" height="85.859" viewBox="0 0 72.527 85.859">
  <g id="Group_27712" data-name="Group 27712" transform="translate(0 0)">
    <path id="Path_31082" data-name="Path 31082" d="M3134.7,421.3a12.259,12.259,0,1,1-12.252-12.667,11.9,11.9,0,0,1,1.642.128l7.014-7.014a20.575,20.575,0,0,0-8.656-1.92,21.478,21.478,0,1,0,21.057,21.473,21.738,21.738,0,0,0-1.706-8.456l-7.164,7.164C3134.681,420.435,3134.7,420.866,3134.7,421.3Zm9.756,28.371a35.748,35.748,0,0,0,12.126-39.609l-1.958,1.955a7.543,7.543,0,0,1-5.365,2.221c-.216,0-.427-.042-.64-.059a27.122,27.122,0,1,1-17.989-18.763,7.576,7.576,0,0,1,2.2-5.193l2.464-2.464a35.923,35.923,0,0,0-33.139,63.2l-5.917,15.78a3.3,3.3,0,1,0,6.184,2.318L3108,454.2a35.657,35.657,0,0,0,12.251,2.946V467.9a3.3,3.3,0,0,0,6.6,0V456.962a35.713,35.713,0,0,0,11.912-3.659l5.909,15.756a3.3,3.3,0,1,0,6.184-2.318Z" transform="translate(-3086.495 -385.345)" fill="#1f854b"/>
    <path id="Path_31083" data-name="Path 31083" d="M3141.914,396.769l-6.261-2.408a2.089,2.089,0,0,1-1.2-1.2l-2.406-6.261a2.079,2.079,0,0,0-1.951-1.336,2.057,2.057,0,0,0-1.468.612l-7.672,7.672a2.082,2.082,0,0,0-.472,2.221l2.019,5.248L3109.33,414.5a7.088,7.088,0,1,0,3.89,3.895l12.688-12.69,6.839,2.631a2.086,2.086,0,0,0,2.222-.471l7.672-7.672A2.084,2.084,0,0,0,3141.914,396.769Z" transform="translate(-3070.724 -385.079)" fill="#1f854b" opacity="0.35"/>
  </g>
</svg>
