<svg width="19" height="19" viewBox="0 0 19 19" fill="none" xmlns="http://www.w3.org/2000/svg">
<path d="M10.19 18.388C10.1912 18.3886 10.1924 18.3889 10.1937 18.3889C10.195 18.3889 10.1961 18.3886 10.1973 18.388C10.1961 18.3886 10.195 18.3889 10.1937 18.3889C10.1924 18.3889 10.1912 18.3886 10.19 18.388L10.175 18.3734L10.1315 18.3312C9.95173 18.1413 9.85286 17.8903 9.85451 17.6299V17.6071L9.87744 14.4148C9.87691 14.1999 9.94675 13.9906 10.0766 13.8185C10.2064 13.6463 10.3887 13.5207 10.5968 13.4605C11.5589 13.171 12.383 12.5455 12.9154 11.7001C13.4477 10.8547 13.6526 9.84687 13.4923 8.86306C13.4616 8.66627 13.4906 8.46481 13.5762 8.28464C13.6617 8.10447 13.8001 7.95357 13.9727 7.85158L16.6914 6.24644L16.7722 6.19859C16.9067 6.11745 17.0592 6.07019 17.2164 6.06101C17.3736 6.05183 17.5307 6.08103 17.6738 6.14595C17.7997 6.20143 17.9127 6.28219 18.0051 6.38342C18.1296 6.49983 18.2209 6.64682 18.2701 6.8093C18.5519 7.7066 18.6947 8.64108 18.6931 9.58084C18.7077 11.7462 17.9496 13.8467 16.5526 15.5115C15.1555 17.1763 13.2092 18.2982 11.0585 18.6784C11.0049 18.6864 10.9509 18.6907 10.8967 18.6913C10.7642 18.6914 10.6333 18.6645 10.5117 18.6123C10.3901 18.5602 10.2807 18.4839 10.19 18.388ZM10.5714 18.4733C10.4661 18.472 10.3617 18.4532 10.2625 18.4179C10.3609 18.4529 10.4645 18.4718 10.569 18.4733H10.5714ZM10.1219 17.6137C10.1313 17.6122 10.1406 17.6099 10.1496 17.6066L10.1219 17.6137ZM9.92994 14.4716L9.90942 17.5955L9.93236 14.4716C9.93228 14.2988 9.97731 14.1291 10.0633 13.9788C10.1493 13.8284 10.2733 13.7028 10.423 13.6142C10.2737 13.7033 10.1499 13.8288 10.0639 13.9791C9.97797 14.1293 9.93288 14.299 9.93236 14.4716H9.92994ZM10.9456 17.3664L11.0585 17.3254L10.9456 17.3664ZM11.1085 17.3051L11.1707 17.2812L11.1085 17.3051ZM11.2323 17.2584L11.289 17.236L11.2323 17.2584ZM11.3439 17.2139L11.4061 17.1881L11.3439 17.2139ZM11.4586 17.1666L11.5606 17.1226L11.4586 17.1666ZM11.5708 17.1185L11.6825 17.0682L11.5708 17.1185ZM11.7018 17.0571L11.8026 17.0099L11.7018 17.0571ZM11.8146 17.0045C11.9992 16.9167 12.1798 16.8232 12.3565 16.724C12.1782 16.8252 11.997 16.9199 11.8128 17.0081L11.8146 17.0045ZM13.6064 9.58024C13.6068 9.35888 13.589 9.13779 13.5533 8.91928C13.588 9.1391 13.6046 9.36134 13.6027 9.58383L13.6064 9.58024ZM17.9038 6.53056C18.1831 7.42834 18.325 8.3626 18.3238 9.3021C18.325 8.3626 18.1831 7.42834 17.9038 6.53056C17.8687 6.41595 17.8123 6.30885 17.7372 6.21504C17.8114 6.31024 17.8666 6.41852 17.9001 6.53415L17.9038 6.53056ZM18.3793 9.15705C18.3744 8.87407 18.3541 8.59407 18.3238 8.31844C18.3497 8.59774 18.3708 8.87766 18.3751 9.16064L18.3793 9.15705ZM13.5533 8.91928C13.5226 8.72233 13.5521 8.52085 13.6371 8.34027C13.7222 8.1597 13.8592 8.00801 14.0312 7.90482C13.8575 8.00739 13.7187 8.15942 13.6329 8.34087C13.5471 8.52232 13.5181 8.72494 13.5496 8.92287L13.5533 8.91928ZM17.7245 6.19739L17.6968 6.18453L17.7245 6.19739ZM17.6847 6.17945C17.6798 6.17945 17.6739 6.17956 17.6714 6.17466C17.669 6.16976 17.6761 6.18081 17.6805 6.18632L17.6847 6.17945ZM17.6648 6.17227C17.6543 6.17227 17.6469 6.16485 17.637 6.1624C17.6426 6.16852 17.6507 6.17341 17.6606 6.17586L17.6648 6.17227ZM17.5308 6.13488C17.5208 6.13196 17.5105 6.13013 17.5 6.1298C17.5092 6.13165 17.5181 6.13463 17.5266 6.13847L17.5308 6.13488ZM7.88233 18.6497C5.74567 18.2566 3.81662 17.1308 2.43287 15.4699C1.04913 13.8091 0.298839 11.7189 0.313442 9.56499C0.313009 8.43972 0.516463 7.32331 0.914511 6.26947C0.967304 6.12976 1.05213 6.00424 1.16194 5.9022C1.07262 5.99606 1.00304 6.10648 0.957358 6.2273C0.558891 7.28104 0.355235 8.39719 0.355685 9.52252C0.355235 8.39719 0.558891 7.28104 0.957358 6.2273C1.00696 6.09285 1.08602 5.97079 1.18849 5.8699C1.29096 5.76901 1.41461 5.69178 1.55058 5.6435C1.68656 5.59523 1.83164 5.5771 1.97543 5.59056C2.11923 5.60402 2.25773 5.64861 2.38218 5.72126L2.53909 5.81397L5.12139 7.33896C5.3099 7.45191 5.45634 7.62224 5.5396 7.82436C5.62287 8.02649 5.63854 8.24966 5.58366 8.4611C5.30785 9.48952 5.44472 10.5839 5.96566 11.5144C6.48661 12.4448 7.3508 13.139 8.37718 13.4512C8.58677 13.513 8.77052 13.6408 8.9004 13.8152C9.03028 13.9895 9.09924 14.2011 9.09714 14.4178L9.07662 17.4552C9.07662 17.4552 9.07673 17.4552 9.07179 17.4552C9.06685 17.4552 9.07662 17.4552 9.07662 17.4552V17.6278C9.07604 17.7623 9.0488 17.8955 8.99575 18.0193C8.9427 18.1431 8.86489 18.2551 8.76764 18.3489C8.73013 18.3836 8.69108 18.4165 8.64996 18.447C8.69108 18.4165 8.73013 18.3836 8.76764 18.3489C8.71262 18.4066 8.65177 18.4585 8.58599 18.5038C8.37956 18.6405 8.12787 18.6924 7.88353 18.6488L7.88233 18.6497ZM8.46348 18.5095C8.44166 18.5106 8.41952 18.5106 8.3977 18.5095C8.41821 18.5119 8.4386 18.5133 8.45926 18.5136L8.46348 18.5095ZM8.34459 18.4517C7.78051 18.353 7.22731 18.2011 6.69226 17.9983C7.22576 18.2023 7.77761 18.3555 8.34037 18.4559L8.34459 18.4517ZM0.732862 9.41186C0.720674 11.4787 1.41171 13.4891 2.69418 15.1188C3.97665 16.7486 5.77601 17.9024 7.80146 18.394C5.77601 17.9024 3.97665 16.7486 2.69418 15.1188C1.41171 13.4891 0.720674 11.4787 0.732862 9.41186ZM9.03498 17.4968C7.04005 16.981 5.27525 15.8213 4.01943 14.2007C2.76361 12.58 2.08794 10.591 2.09975 8.54753C2.08655 10.5912 2.76087 12.5809 4.01581 14.2025C5.27075 15.824 7.03531 16.985 9.03015 17.5019L9.03498 17.4968ZM9.03498 17.4418C7.04963 16.9192 5.29552 15.7582 4.04779 14.1409C2.80007 12.5235 2.1292 10.5413 2.14079 8.50536C2.12795 10.5419 2.79805 12.5249 4.04538 14.1432C5.29271 15.7616 7.04685 16.9233 9.03256 17.4465L9.03498 17.4418ZM6.96563 12.7914C6.47533 12.4057 6.08009 11.915 5.80876 11.3559C5.53742 10.7968 5.39755 10.1839 5.3996 9.56349C5.39658 10.1846 5.53591 10.7983 5.80695 11.3582C6.07798 11.9182 6.4732 12.4101 6.96382 12.7965L6.96563 12.7914ZM2.49202 5.86542L2.51736 5.88007L2.49202 5.86542L2.33511 5.7727L2.49202 5.86542ZM12.5442 6.83681C12.19 6.42395 11.7542 6.08727 11.2636 5.84777C10.7731 5.60827 10.2383 5.47106 9.69217 5.44432C9.14604 5.41757 8.60006 5.50184 8.08811 5.69225C7.57617 5.88266 7.10936 6.17495 6.71579 6.5512C6.56195 6.69805 6.36374 6.79066 6.15154 6.81468C5.93933 6.83871 5.7247 6.79298 5.54141 6.68429L2.8179 5.07645L2.79014 5.05911C2.67109 4.98848 2.5682 4.89423 2.48779 4.78216C2.40738 4.67009 2.35127 4.54266 2.32304 4.40802C2.29029 4.25852 2.29235 4.10381 2.32907 3.95522C2.3658 3.80663 2.4361 3.66813 2.53486 3.55057C3.41307 2.50119 4.52121 1.66414 5.77496 1.10322C7.02872 0.542305 8.39509 0.27232 9.77002 0.313663C11.1449 0.355006 12.4924 0.70667 13.7096 1.34189C14.9267 1.97711 15.9815 2.87923 16.794 3.97944C16.8799 4.09497 16.9403 4.2273 16.9708 4.36764C17.0012 4.50798 17.0012 4.65318 16.9708 4.79353C16.9431 4.92846 16.8872 5.05611 16.8066 5.16827C16.726 5.28043 16.6227 5.37458 16.5031 5.44461L16.4958 5.4494L13.7922 7.04198C13.643 7.13121 13.4717 7.17889 13.2974 7.17986C13.1545 7.17947 13.0136 7.14827 12.884 7.08864C12.7544 7.029 12.6392 6.94236 12.5466 6.83442L12.5442 6.83681ZM13.2696 7.13021C13.1405 7.12738 13.0134 7.09912 12.8955 7.04707C12.7775 6.99501 12.6714 6.92014 12.5829 6.82695C12.6716 6.9197 12.7775 6.99394 12.8955 7.04557C13.0134 7.0972 13.1407 7.12531 13.2696 7.12782V7.13021ZM12.5442 6.78717C12.1678 6.34939 11.6999 5.99776 11.1731 5.75655C10.6463 5.51534 10.0733 5.39015 9.49302 5.38988C10.0736 5.38949 10.6471 5.51397 11.1743 5.75476C11.7016 5.99555 12.1697 6.34713 12.5466 6.78478L12.5442 6.78717ZM6.00127 6.76922C5.85181 6.76239 5.70559 6.72225 5.574 6.65169C5.7058 6.7214 5.85201 6.76075 6.00127 6.76683V6.76922ZM16.9684 4.769C16.9682 4.77084 16.9682 4.77255 16.9684 4.77439C16.9585 4.72986 16.9452 4.68614 16.9291 4.64339C16.9438 4.68359 16.9562 4.72483 16.9653 4.76661L16.9684 4.769ZM16.9231 4.62634C16.9231 4.62144 16.9232 4.61892 16.9183 4.61647C16.9133 4.61402 16.9176 4.61877 16.9201 4.62305L16.9231 4.62634ZM2.32606 4.39845C2.32606 4.39355 2.32594 4.38869 2.33089 4.38379C2.32839 4.38779 2.3259 4.39141 2.32304 4.39516L2.32606 4.39845Z" fill="#278CE9"/>
</svg>
