<svg id="Group_27787" data-name="Group 27787" xmlns="http://www.w3.org/2000/svg" width="69.859" height="71.734" viewBox="0 0 69.859 71.734">
  <g id="Group_27714" data-name="Group 27714" transform="translate(0 0)">
    <path id="Path_31084" data-name="Path 31084" d="M2473.573,300.659a.911.911,0,0,0-1.154-.142,20.61,20.61,0,0,1-11.778,3.021,20.756,20.756,0,0,1-4.437-40.773.933.933,0,0,0,.7-.9v-11.6a.958.958,0,0,0-1.108-.944c-19.3,3.334-33.024,22.929-26.523,44.173,2.876,9.4,12.722,19.047,22.153,21.8a34.281,34.281,0,0,0,30.037-4.907.934.934,0,0,0,.121-1.4C2479.779,307.1,2475.115,302.311,2473.573,300.659Zm17.514-38.2a.952.952,0,0,0-1.45-.117l-6.257,6.257-3.329,3.238a.93.93,0,0,0-.161,1.118,20.647,20.647,0,0,1-2.7,23.565.932.932,0,0,0,.024,1.286l9.357,9.357a.956.956,0,0,0,1.369-.017,35.639,35.639,0,0,0,3.146-44.687Z" transform="translate(-2427.641 -245.044)" fill="#1f854b"/>
    <path id="Path_31085" data-name="Path 31085" d="M2472.091,257.885a37.6,37.6,0,0,0-25.474-10.836.963.963,0,0,0-.976.961V266.9a.938.938,0,0,0,.908.929,16.914,16.914,0,0,1,10.8,4.679.938.938,0,0,0,1.311.011l5.439-5.294,7.989-7.988A.955.955,0,0,0,2472.091,257.885Z" transform="translate(-2411.656 -247.049)" fill="#1f854b" opacity="0.35"/>
  </g>
</svg>
