<svg id="Group_27791" data-name="Group 27791" xmlns="http://www.w3.org/2000/svg" width="83.799" height="83.799" viewBox="0 0 83.799 83.799">
  <path id="Path_31166" data-name="Path 31166" d="M517.89,752.577a36.521,36.521,0,0,1-11.9,11.9l17.03,17.03a8.415,8.415,0,0,0,11.9,0h0a8.414,8.414,0,0,0,0-11.9h0Z" transform="translate(-453.586 -700.175)" fill="#1f854b" fill-rule="evenodd" opacity="0.5"/>
  <path id="Path_31167" data-name="Path 31167" d="M461.821,675.037a33.372,33.372,0,1,0,33.372,33.373h0A33.386,33.386,0,0,0,461.821,675.037Zm0,55.27a21.9,21.9,0,1,1,21.9-21.9A21.9,21.9,0,0,1,461.821,730.307Z" transform="translate(-428.448 -675.037)" fill="#1f854b" fill-rule="evenodd"/>
</svg>
