<svg width="19" height="19" viewBox="0 0 19 19" fill="none" xmlns="http://www.w3.org/2000/svg">
<path fill-rule="evenodd" clip-rule="evenodd" d="M2.5 16.9953L8.79458 15.1439C9.25511 15.0085 9.74489 15.0085 10.2054 15.1439L16.5 16.9953V1.5H2.5V16.9953ZM1 1V17.6635C1 18.3311 1.64169 18.8113 2.28217 18.6229L9.21783 16.583C9.40204 16.5288 9.59796 16.5288 9.78217 16.583L16.7178 18.6229C17.3583 18.8113 18 18.3311 18 17.6635V1C18 0.447715 17.5523 0 17 0H2C1.44772 0 1 0.447715 1 1Z" fill="#278CE9"/>
<path d="M13 11.4281C13 11.7438 12.7385 12 12.4164 12H6.5836C6.2615 12 6 11.7453 6 11.4281C6 10.286 7.12737 9.21879 8.28021 8.79687C7.61529 8.39375 7.16721 7.67816 7.16721 6.85625V6.28438C7.16721 5.02343 8.21163 4 9.5 4C10.7884 4 11.8328 5.02343 11.8328 6.2859V6.85777C11.8328 7.6796 11.3847 8.39528 10.7198 8.79839C11.8726 9.2187 13 10.286 13 11.4281Z" fill="#278CE9"/>
</svg>
