<svg width="80" height="81" viewBox="0 0 80 81" fill="none" xmlns="http://www.w3.org/2000/svg">
<path d="M14.5785 9.19019H20.8191V3.30579C20.8191 0.730752 24.7316 0.730752 24.7316 3.30579V9.19019H55.266V3.30579C55.266 0.730752 59.1785 0.730752 59.1785 3.30579V9.19019H65.4192C70.1598 9.19019 74.0287 13.0589 74.0287 17.7998V71.0182C74.0287 75.7557 70.16 79.6278 65.4192 79.6278H14.5783C9.83771 79.6278 5.96875 75.7591 5.96875 71.0182V17.7998C5.96875 13.0592 9.83747 9.19019 14.5783 9.19019H14.5785ZM27.9409 40.4278C29.5471 40.4278 30.8503 41.7309 30.8503 43.3372C30.8503 44.9434 29.5471 46.2465 27.9409 46.2465C26.3347 46.2465 25.0316 44.9434 25.0316 43.3372C25.0316 41.7309 26.3347 40.4278 27.9409 40.4278ZM27.9409 54.9182C29.5471 54.9182 30.8503 56.2213 30.8503 57.8275C30.8503 59.4338 29.5471 60.7369 27.9409 60.7369C26.3347 60.7369 25.0316 59.4338 25.0316 57.8275C25.0316 56.2213 26.3347 54.9182 27.9409 54.9182ZM52.0537 54.9182C53.66 54.9182 54.9631 56.2213 54.9631 57.8275C54.9631 59.4338 53.66 60.7369 52.0537 60.7369C50.4475 60.7369 49.1444 59.4338 49.1444 57.8275C49.1444 56.2213 50.4475 54.9182 52.0537 54.9182ZM44.0161 54.9182C45.6224 54.9182 46.9255 56.2213 46.9255 57.8275C46.9255 59.4338 45.6224 60.7369 44.0161 60.7369C42.4067 60.7369 41.1068 59.4338 41.1068 57.8275C41.1068 56.2213 42.4099 54.9182 44.0161 54.9182ZM35.9785 54.9182C37.5847 54.9182 38.8879 56.2213 38.8879 57.8275C38.8879 59.4338 37.5847 60.7369 35.9785 60.7369C34.3723 60.7369 33.0692 59.4338 33.0692 57.8275C33.0692 56.2213 34.3723 54.9182 35.9785 54.9182ZM27.9409 47.6713C29.5471 47.6713 30.8503 48.9744 30.8503 50.5807C30.8503 52.1869 29.5471 53.49 27.9409 53.49C26.3347 53.49 25.0316 52.1869 25.0316 50.5807C25.0316 48.9744 26.3347 47.6713 27.9409 47.6713ZM52.0537 47.6713C53.66 47.6713 54.9631 48.9744 54.9631 50.5807C54.9631 52.1869 53.66 53.49 52.0537 53.49C50.4475 53.49 49.1444 52.1869 49.1444 50.5807C49.1444 48.9744 50.4475 47.6713 52.0537 47.6713ZM44.0161 47.6713C45.6224 47.6713 46.9255 48.9744 46.9255 50.5807C46.9255 52.1869 45.6224 53.49 44.0161 53.49C42.4067 53.49 41.1068 52.1869 41.1068 50.5807C41.1068 48.9744 42.4099 47.6713 44.0161 47.6713ZM35.9785 47.6713C37.5847 47.6713 38.8879 48.9744 38.8879 50.5807C38.8879 52.1869 37.5847 53.49 35.9785 53.49C34.3723 53.49 33.0692 52.1869 33.0692 50.5807C33.0692 48.9744 34.3723 47.6713 35.9785 47.6713ZM52.0537 40.4244C53.66 40.4244 54.9631 41.7276 54.9631 43.3338C54.9631 44.94 53.66 46.2431 52.0537 46.2431C50.4475 46.2431 49.1444 44.94 49.1444 43.3338C49.1444 41.7276 50.4475 40.4244 52.0537 40.4244ZM44.0161 40.4244C45.6224 40.4244 46.9255 41.7276 46.9255 43.3338C46.9255 44.94 45.6224 46.2431 44.0161 46.2431C42.4067 46.2431 41.1068 44.94 41.1068 43.3338C41.1068 41.7276 42.4099 40.4244 44.0161 40.4244ZM35.9785 40.4244C37.5847 40.4244 38.8879 41.7276 38.8879 43.3338C38.8879 44.94 37.5847 46.2431 35.9785 46.2431C34.3723 46.2431 33.0692 44.94 33.0692 43.3338C33.0692 41.7276 34.3723 40.4244 35.9785 40.4244ZM16.5969 31.518H63.4001C64.4814 31.518 65.3563 32.3962 65.3563 33.4743V67.6871C65.3563 68.7683 64.4813 69.6433 63.4001 69.6433H16.5969C15.5156 69.6433 14.6407 68.7652 14.6407 67.6871V33.4743C14.6407 32.393 15.5157 31.518 16.5969 31.518ZM61.4441 35.4305H18.5569V65.7273H61.4441V35.4305ZM24.7313 13.0993V16.368C24.7313 18.9399 20.8188 18.9399 20.8188 16.368V13.0993H14.5782C12 13.0993 9.88443 15.2149 9.88443 17.7931V71.0115C9.88443 73.5896 12 75.7052 14.5782 75.7052H65.419C67.9972 75.7052 70.1128 73.5896 70.1128 71.0115V17.7931C70.1128 15.2149 67.9972 13.0993 65.419 13.0993H59.1784V16.368C59.1784 18.9399 55.2659 18.9399 55.2659 16.368V13.0993H24.7313Z" fill="#278CE9"/>
</svg>
