<svg width="80" height="75" viewBox="0 0 80 75" fill="none" xmlns="http://www.w3.org/2000/svg">
<path d="M65.8064 25.8065H51.6129V14.1936C51.6129 6.35587 45.257 0 37.4194 0H14.1935C6.35587 0 0 6.35587 0 14.1936V60.6452C0 68.4828 6.35587 74.8387 14.1935 74.8387H65.8064C73.6441 74.8387 80 68.4828 80 60.6452V40C80 32.1623 73.6441 25.8065 65.8064 25.8065ZM7.74194 60.6452V14.1936C7.74194 10.6301 10.6301 7.74194 14.1935 7.74194H37.4194C39.128 7.74194 40.7712 8.42238 41.9809 9.632C43.1906 10.8416 43.871 12.4848 43.871 14.1936V25.8065H34.8387C27.001 25.8065 20.6452 32.1623 20.6452 40V60.6452C20.6452 62.8881 21.1794 65.1008 22.2076 67.0968H14.1935C10.6301 67.0968 7.74194 64.2087 7.74194 60.6452ZM34.8387 67.0968C31.2752 67.0968 28.3871 64.2087 28.3871 60.6452V40C28.3871 36.4365 31.2752 33.5484 34.8387 33.5484H43.871V60.6452C43.871 62.3538 43.1905 63.997 41.9809 65.2067C40.7713 66.4164 39.1281 67.0968 37.4194 67.0968H34.8387ZM72.2581 60.6452C72.2581 62.3538 71.5776 63.997 70.368 65.2067C69.1584 66.4164 67.5152 67.0968 65.8064 67.0968H50.0503C51.0786 65.1008 51.6128 62.8881 51.6128 60.6452V33.5484H65.8063C67.515 33.5484 69.1582 34.2288 70.3679 35.4385C71.5776 36.6481 72.2579 38.2912 72.2579 40L72.2581 60.6452Z" fill="#278CE9"/>
</svg>
