<svg width="81" height="81" viewBox="0 0 81 81" fill="none" xmlns="http://www.w3.org/2000/svg">
<path d="M72.5008 0.5C76.9009 0.5 80.5 4.09912 80.5 8.49924V72.5008C80.5 76.9009 76.9009 80.5 72.5008 80.5H8.49924C4.09912 80.5 0.5 76.9009 0.5 72.5008V8.49924C0.5 4.09912 4.09912 0.5 8.49924 0.5H72.5008ZM74.5014 72.5001V8.49854C74.5014 7.41567 73.587 6.49789 72.5008 6.49789H8.49924C7.41637 6.49789 6.4986 7.41232 6.4986 8.49854V72.5001C6.4986 73.5829 7.41303 74.5007 8.49924 74.5007H72.5008C73.5836 74.5007 74.5014 73.5863 74.5014 72.5001ZM58.1902 23.583L35.3509 51.1419L22.5386 39.2923V39.2958C21.3217 38.1683 19.4207 38.2439 18.2966 39.4608C17.1726 40.6777 17.2447 42.5787 18.4651 43.7028L33.6041 57.7039C34.2092 58.2608 35.017 58.5462 35.8386 58.4946C36.6636 58.4362 37.4268 58.0477 37.9527 57.4117L62.8134 27.4117C63.8687 26.1364 63.6934 24.2456 62.4146 23.1869C61.1393 22.1316 59.2486 22.3069 58.1898 23.5856" fill="#278CE9"/>
</svg>
