<svg xmlns="http://www.w3.org/2000/svg" xmlns:xlink="http://www.w3.org/1999/xlink" width="101.001" height="101.001" viewBox="0 0 101.001 101.001"><defs><linearGradient id="a" x1="0.5" y1="1" x2="0.5" gradientUnits="objectBoundingBox"><stop offset="0" stop-color="#ffc9b3"/><stop offset="1" stop-color="#ffd2c2"/></linearGradient><linearGradient id="b" x1="0.887" y1="0.852" x2="0.088" y2="0.108" gradientUnits="objectBoundingBox"><stop offset="0" stop-color="#e2834c"/><stop offset="1" stop-color="#df6638"/></linearGradient><linearGradient id="c" x1="0.5" x2="0.5" y2="1" gradientUnits="objectBoundingBox"><stop offset="0" stop-color="#1d0024"/><stop offset="1" stop-color="#100014"/></linearGradient><clipPath id="e"><path d="M50.5,0A50.5,50.5,0,1,1,0,50.5,50.5,50.5,0,0,1,50.5,0Z" transform="translate(0.126 0.091)" fill="url(#a)"/></clipPath><clipPath id="g"><path d="M65.316,16.142C67.772,20.85,69,38,69,38H0S1.228,20.85,3.684,16.142C7.369,9.08,34.5,0,34.5,0S61.631,9.08,65.316,16.142Z" transform="translate(0.032 -0.44)" fill="url(#b)"/></clipPath><clipPath id="i"><path d="M.181,8.317C-1.165,2.426,5.22-2.1,11.8,1.008c15.486,7.309,6.274,17.508.551,16.834S1.528,14.208.181,8.317Z" fill="url(#c)"/></clipPath><linearGradient id="k" x1="0.5" x2="0.5" y2="1" gradientUnits="objectBoundingBox"><stop offset="0" stop-color="#e6864e"/><stop offset="1" stop-color="#eb965e"/></linearGradient></defs><g transform="translate(-0.126 -0.089)"><path d="M50.5,0A50.5,50.5,0,1,1,0,50.5,50.5,50.5,0,0,1,50.5,0Z" transform="translate(0.127 0.089)" fill="url(#a)"/><g transform="translate(0 -0.001)" clip-path="url(#e)"><g transform="translate(16.094 65.53)"><path d="M65.316,16.142C67.772,20.85,69,38,69,38H0S1.228,20.85,3.684,16.142C7.369,9.08,34.5,0,34.5,0S61.631,9.08,65.316,16.142Z" transform="translate(0.032 -0.44)" fill="url(#b)"/><g transform="translate(0 0)" clip-path="url(#g)"><path d="M67.924,28.978A2.038,2.038,0,1,1,69.962,31,2.03,2.03,0,0,1,67.924,28.978Zm-13.585,0A2.038,2.038,0,1,1,56.377,31,2.03,2.03,0,0,1,54.34,28.978Zm-13.585,0A2.038,2.038,0,1,1,42.792,31,2.03,2.03,0,0,1,40.755,28.978Zm-13.585,0A2.038,2.038,0,1,1,29.208,31,2.03,2.03,0,0,1,27.17,28.978Zm-13.585,0A2.038,2.038,0,1,1,15.623,31,2.03,2.03,0,0,1,13.585,28.978ZM0,28.978A2.038,2.038,0,1,1,2.038,31,2.03,2.03,0,0,1,0,28.978Zm61.132-6.739a2.038,2.038,0,1,1,2.038,2.022A2.03,2.03,0,0,1,61.132,22.239Zm-13.585,0a2.038,2.038,0,1,1,2.038,2.022A2.029,2.029,0,0,1,47.547,22.239Zm-13.585,0A2.038,2.038,0,1,1,36,24.261,2.03,2.03,0,0,1,33.962,22.239Zm-13.585,0a2.038,2.038,0,1,1,2.038,2.022A2.029,2.029,0,0,1,20.377,22.239Zm-13.585,0A2.038,2.038,0,1,1,8.83,24.261,2.03,2.03,0,0,1,6.792,22.239ZM67.924,15.5a2.038,2.038,0,1,1,2.038,2.022A2.03,2.03,0,0,1,67.924,15.5Zm-13.585,0a2.038,2.038,0,1,1,2.038,2.022A2.03,2.03,0,0,1,54.34,15.5Zm-13.585,0a2.038,2.038,0,1,1,2.038,2.022A2.03,2.03,0,0,1,40.755,15.5Zm-13.585,0a2.038,2.038,0,1,1,2.038,2.022A2.03,2.03,0,0,1,27.17,15.5Zm-13.585,0a2.038,2.038,0,1,1,2.038,2.022A2.03,2.03,0,0,1,13.585,15.5ZM0,15.5a2.038,2.038,0,1,1,2.038,2.022A2.03,2.03,0,0,1,0,15.5ZM61.132,8.761a2.038,2.038,0,1,1,2.038,2.022A2.03,2.03,0,0,1,61.132,8.761Zm-13.585,0a2.038,2.038,0,1,1,2.038,2.022A2.03,2.03,0,0,1,47.547,8.761Zm-13.585,0A2.038,2.038,0,1,1,36,10.783,2.03,2.03,0,0,1,33.962,8.761Zm-13.585,0a2.038,2.038,0,1,1,2.038,2.022A2.03,2.03,0,0,1,20.377,8.761Zm-13.585,0A2.038,2.038,0,1,1,8.83,10.783,2.03,2.03,0,0,1,6.792,8.761ZM67.924,2.022a2.038,2.038,0,1,1,2.038,2.022A2.03,2.03,0,0,1,67.924,2.022Zm-13.585,0a2.038,2.038,0,1,1,2.038,2.022A2.03,2.03,0,0,1,54.34,2.022Zm-40.755,0a2.038,2.038,0,1,1,2.038,2.022A2.03,2.03,0,0,1,13.585,2.022ZM0,2.022A2.038,2.038,0,1,1,2.038,4.043,2.03,2.03,0,0,1,0,2.022Z" transform="translate(-0.968 6.56)" fill="#ffa573"/></g></g><g transform="translate(53.793 9.198)"><path d="M.181,8.317C-1.165,2.426,5.22-2.1,11.8,1.008c15.486,7.309,6.274,17.508.551,16.834S1.528,14.208.181,8.317Z" transform="translate(0)" fill="url(#c)"/><g transform="translate(0)" clip-path="url(#i)"><path d="M0,0S11.446,7.406,14.308,3.367c.3,1.687-1.063,6.452-3.2,6.4C4.721,9.6,0,0,0,0Z" transform="translate(5.782 9.258)" opacity="0.6"/></g></g><path d="M34.486,40.53C27.254,44,26.2,43.819,10.247,30.768-13.824,11.073,8.9-6.937,33.308,2.657,59.736,14.272,50.882,32.654,34.486,40.53Z" transform="translate(23.237 14.116)" fill="url(#c)"/><path d="M27.572,37.873c-2.469,4.04-13.691,4.04-16.159,0V31.14s-1.1.032-1.852,0C1.686,30.8-.945,18.137.291,5.466,1.2-3.812,9.056,8.921,21.848,0c-.5,9.763,3.7,8.753,5.555,7.575,8.416-3.871,8.487,12,.168,10.773Z" transform="translate(30.825 30.576)" fill="url(#k)"/><path d="M.106,4.685C4.66,4.508,11.6,0,11.6,0A15.566,15.566,0,0,1,0,7.713Z" transform="matrix(0.999, -0.035, 0.035, 0.999, 41.968, 57.037)" fill="#db6f3d"/><path d="M20.873,2.175V0c.617,0,2.385,1.458,3.294,2.693,3.594,4.881-.393,9.258-3.644,9.258-4.1,0-6.821-3.428-7.73-5.077-.91,1.649-3.628,5.077-7.73,5.077-3.251,0-7.238-4.376-3.644-9.258C2.328,1.458,4.1,0,4.713,0V2.175c0,2.575,5.635,3.766,8.069,3.876C15.085,5.941,20.873,4.749,20.873,2.175Z" transform="translate(37.524 65.419)" fill="#fff"/></g></g></svg>