<svg xmlns="http://www.w3.org/2000/svg" xmlns:xlink="http://www.w3.org/1999/xlink" width="101" height="101" viewBox="0 0 101 101"><defs><linearGradient id="a" x1="0.5" x2="0.5" y2="1" gradientUnits="objectBoundingBox"><stop offset="0" stop-color="#1d0024"/><stop offset="1" stop-color="#100014"/></linearGradient><linearGradient id="b" x1="0.5" x2="0.5" y2="1" gradientUnits="objectBoundingBox"><stop offset="0" stop-color="#ffd4b3"/><stop offset="1" stop-color="#ffdcc2"/></linearGradient><linearGradient id="c" x1="0.5" y1="1" x2="0.5" gradientUnits="objectBoundingBox"><stop offset="0" stop-color="#e6864e"/><stop offset="1" stop-color="#e67240"/></linearGradient><clipPath id="e"><path d="M50.5,0A50.5,50.5,0,1,1,0,50.5,50.5,50.5,0,0,1,50.5,0Z" transform="translate(0.084 0.09)" fill="url(#a)"/></clipPath><clipPath id="g"><path d="M11.028,47.041v.145q-.06,4.6-7.743,6.925C9.457,58.6,15.629,62.19,21.8,62.19S34.145,58.6,40.317,54.11q-7.631-2.322-7.741-6.934c0-.548,0-1.326.008-2.788q0-.348,0-.713c.368.052.338.019,0-.075.01-3.844.026-9.014.05-14.267,4.825-6.254,3.053-13.586,1.54-13.4C32.32,16.155,16.26.916,13.18.136S2.275,1.876.928,8.9s-1.909,24.741,3.2,31.814q2.18,3.019,6.867,2.361c0,1.471.013,2.3.035,3.962Z" fill="url(#b)"/></clipPath><clipPath id="j"><path d="M75.747,12.56c3.205,6.517,5.05,21.546,5.05,21.546H0S1.846,19.075,5.05,12.56,26.966,0,26.966,0c3.607,7.406,23.4,7.4,26.856,0C53.821,0,72.542,6.043,75.747,12.56Z" fill="url(#c)"/></clipPath><linearGradient id="k" x1="0.5" x2="0.5" y2="1" gradientUnits="objectBoundingBox"><stop offset="0" stop-color="#f7b186"/><stop offset="1" stop-color="#ffc299"/></linearGradient></defs><g transform="translate(-0.084 -0.09)"><path d="M50.5,0A50.5,50.5,0,1,1,0,50.5,50.5,50.5,0,0,1,50.5,0Z" transform="translate(0.084 0.09)" fill="url(#a)"/><g transform="translate(0 0)" clip-path="url(#e)"><g transform="translate(22.873 12.006)"><g transform="translate(0 0)"><g transform="translate(0)"><g transform="translate(5.406 5.274)"><path d="M11.028,47.041v.145q-.06,4.6-7.743,6.925C9.457,58.6,15.629,62.19,21.8,62.19S34.145,58.6,40.317,54.11q-7.631-2.322-7.741-6.934c0-.548,0-1.326.008-2.788q0-.348,0-.713c.368.052.338.019,0-.075.01-3.844.026-9.014.05-14.267,4.825-6.254,3.053-13.586,1.54-13.4C32.32,16.155,16.26.916,13.18.136S2.275,1.876.928,8.9s-1.909,24.741,3.2,31.814q2.18,3.019,6.867,2.361c0,1.471.013,2.3.035,3.962Z" transform="translate(0 0)" fill="url(#b)"/><g transform="translate(0 0)" clip-path="url(#g)"><path d="M0,4A32.986,32.986,0,0,0,13,0S7.533,6.706,0,8Z" transform="translate(10.805 38.812)" fill="#ffbe94"/></g></g><path d="M40.5,34.713c2.319-5.578,11.615-16.939,3.6-24.009C41.414-2.425,26.533-.972,16.6,2.058,9.927,4.094,4.887,8.117,3.809,5.087-2.924,10.7.448,16.2,4.887,17.774,8.915,19.2,15.727,20.635,27.31,19.289c2.069-.241,1.636,6.1,2.741,6.781C31.71,27.1,33,20.635,37.545,22.576s1.849,10.938-3.032,10.938c-1.683,0-2.525,4.628,2.02,6.816C39.831,41.951,39,38.338,40.5,34.713Z" fill="url(#c)"/></g></g></g><g transform="translate(9.681 69.106)"><path d="M75.747,12.56c3.205,6.517,5.05,21.546,5.05,21.546H0S1.846,19.075,5.05,12.56,26.966,0,26.966,0c3.607,7.406,23.4,7.4,26.856,0C53.821,0,72.542,6.043,75.747,12.56Z" fill="url(#c)"/><g clip-path="url(#j)"><path d="M0,15V12.5H87V15ZM0,8.75V6.25H87v2.5ZM0,2.5V0H87V2.5Z" transform="translate(-4.597 9.984)" fill="url(#k)"/></g></g></g></g></svg>