<svg xmlns="http://www.w3.org/2000/svg" xmlns:xlink="http://www.w3.org/1999/xlink" width="101" height="101" viewBox="0 0 101 101"><defs><linearGradient id="a" x1="0.5" x2="0.5" y2="1" gradientUnits="objectBoundingBox"><stop offset="0" stop-color="#1d0024"/><stop offset="1" stop-color="#100014"/></linearGradient><clipPath id="c"><path d="M50.5,0A50.5,50.5,0,1,1,0,50.5,50.5,50.5,0,0,1,50.5,0Z" transform="translate(0.042)" fill="url(#a)"/></clipPath><linearGradient id="d" x1="0.5" x2="0.5" y2="1" gradientUnits="objectBoundingBox"><stop offset="0" stop-color="#ffd4b3"/><stop offset="1" stop-color="#ffdcc2"/></linearGradient><linearGradient id="e" x1="0.5" x2="0.5" y2="1" gradientUnits="objectBoundingBox"><stop offset="0" stop-color="#806a6a"/><stop offset="1" stop-color="#665654"/></linearGradient><linearGradient id="f" x1="0.5" y1="1" x2="0.5" gradientUnits="objectBoundingBox"><stop offset="0" stop-color="#e6864e"/><stop offset="1" stop-color="#e67240"/></linearGradient></defs><g transform="translate(-0.042)"><path d="M50.5,0A50.5,50.5,0,1,1,0,50.5,50.5,50.5,0,0,1,50.5,0Z" transform="translate(0.042)" fill="url(#a)"/><g transform="translate(0 0)" clip-path="url(#c)"><path d="M25.3,34v7.575c0,1.459-21.546.968-21.546-1.135,0-1.979.041-10.95,0-20.179C-1.069,14.008-1.069,10.1,2.746,6.06S33.718,0,33.718,0s2.038,19.6,2.357,24.912C36.2,27.05,37.59,34,32.2,34Z" transform="translate(35.516 25.376)" fill="url(#d)"/><path d="M12.448,4.066A31.852,31.852,0,0,1,0,0S2.693,6.4,12.448,8.132Z" transform="translate(48.361 54.665)" fill="#ffd7b8" style="mix-blend-mode:multiply;isolation:isolate"/><path d="M75.747,17.425q3.205,6.517,5.05,21.546H0Q1.846,23.94,5.05,17.425C7.179,13.1,26.932,4.764,26.932,4.764S27.326.955,28.279.409s23.1-.546,24.239,0,1.347,4.352,1.347,4.352S73.623,13.1,75.747,17.425Z" transform="translate(9.646 64.612)" fill="url(#e)"/><path d="M13.855,24.646a3.417,3.417,0,0,0-4.21-.583c-4.359,2.265-1.466,11,3.412,10.825,1.682-.059.912,3.3-3.585,5.511,0-3.535-5.386-12.288-5.856-20.257C-1.806,18.124-.46,10.049,3.263,10.049c-.6-7.4,11.259-11.226,15.849-6.979C23.78-2.524,35.562.338,36.274,5.191,44.376.865,49.7,13.3,42.115,18.124c-3.122,1.985-10.425,2.742-20.966,2.742-5.059,0-2.15,11.84-.568,15.662,2.02,4.881,13.3,5.555,16.833,5.05,2.76-.394,4.208-1.515,4.377-2.188,2.525,6.733-.673,10.773-5.723,10.773-8.585,0-17.169-2.525-18.516-8.753C16.48,36.453,16.538,28.454,13.855,24.646Z" transform="translate(29.8 10.899)" fill="url(#f)"/></g></g></svg>