<?xml version="1.0" encoding="UTF-8" standalone="no"?>
<svg
   xmlns:dc="http://purl.org/dc/elements/1.1/"
   xmlns:cc="http://creativecommons.org/ns#"
   xmlns:rdf="http://www.w3.org/1999/02/22-rdf-syntax-ns#"
   xmlns:svg="http://www.w3.org/2000/svg"
   xmlns="http://www.w3.org/2000/svg"
   id="svg69"
   version="1.1"
   viewBox="0 0 100 100"
   >
  <metadata
     id="metadata73">
    <rdf:RDF>
      <cc:Work
         rdf:about="">
        <dc:format>image/svg+xml</dc:format>
        <dc:type
           rdf:resource="http://purl.org/dc/dcmitype/StillImage" />
      </cc:Work>
    </rdf:RDF>
  </metadata>
  <defs
     id="defs41">
    <linearGradient
       gradientUnits="objectBoundingBox"
       y2="1"
       x2="0.5"
       x1="0.5"
       id="a">
      <stop
         id="stop2"
         stop-color="#806a6a"
         offset="0" />
      <stop
         id="stop4"
         stop-color="#665654"
         offset="1" />
    </linearGradient>
    <linearGradient
       gradientUnits="objectBoundingBox"
       y2="1"
       x2="0.5"
       x1="0.5"
       id="b">
      <stop
         id="stop7"
         stop-color="#e6864e"
         offset="0" />
      <stop
         id="stop9"
         stop-color="#eb965e"
         offset="1" />
    </linearGradient>
    <linearGradient
       gradientUnits="objectBoundingBox"
       x2="0.5"
       y1="1"
       x1="0.5"
       id="c">
      <stop
         id="stop12"
         stop-color="#ffc9b3"
         offset="0" />
      <stop
         id="stop14"
         stop-color="#ffd2c2"
         offset="1" />
    </linearGradient>
    <clipPath
       id="e">
      <path
         id="path17"
         fill="url(#a)"
         transform="translate(0 -0.001)"
         d="M50.5,0A50.5,50.5,0,1,1,0,50.5,50.5,50.5,0,0,1,50.5,0Z" />
    </clipPath>
    <linearGradient
       gradientUnits="objectBoundingBox"
       y2="1"
       x2="0.5"
       x1="0.5"
       id="f">
      <stop
         id="stop20"
         stop-color="#1d0024"
         offset="0" />
      <stop
         id="stop22"
         stop-color="#100014"
         offset="1" />
    </linearGradient>
    <clipPath
       id="h">
      <path
         id="path25"
         fill="url(#b)"
         d="M6.241,38.715c0-3.03-.1-17.974-.1-18.227-8.318,1.226-8.15-14.6.266-10.725,1.852,1.178,7.07,0,6.565-9.763,9.09,9.763,19.643-1.624,20.548,7.655,1.236,12.67-.007,25.929-7.881,25.93a14.756,14.756,0,0,1-2.567-.256v5.386c0,3.367,6.06,5.05,6.06,5.05s-10.467,9.862-14.813,9.809S.182,43.765.182,43.765,6.241,42.082,6.241,38.715Z" />
    </clipPath>
    <linearGradient
       gradientUnits="objectBoundingBox"
       y2="1.089"
       x2="0.536"
       y1="0.188"
       x1="0.189"
       id="i">
      <stop
         id="stop28"
         stop-color="#e68349"
         offset="0" />
      <stop
         id="stop30"
         stop-color="#f09960"
         offset="1" />
    </linearGradient>
    <clipPath
       id="k">
      <path
         id="path33"
         fill="url(#c)"
         transform="translate(-0.096 0.021)"
         d="M65.316,11.9C67.746,17.382,69,34,69,34H0S1.254,17.382,3.684,11.9C5.813,7.1,19.842,1.585,23.953,0A13.347,13.347,0,0,0,34.5,4.42,13.347,13.347,0,0,0,45.047,0C49.158,1.585,63.187,7.1,65.316,11.9Z" />
    </clipPath>
    <linearGradient
       gradientUnits="objectBoundingBox"
       x2="0.5"
       y1="1"
       x1="0.5"
       id="l">
      <stop
         id="stop36"
         stop-color="#fcf2eb"
         offset="0" />
      <stop
         id="stop38"
         stop-color="#fff9f5"
         offset="1" />
    </linearGradient>
  </defs>
  <g
     id="g67"
     transform="translate(0 0.002)">
    <path
       id="path43"
       fill="url(#a)"
       transform="translate(0 -0.001)"
       d="M50.5,0A50.5,50.5,0,1,1,0,50.5,50.5,50.5,0,0,1,50.5,0Z" />
    <g
       id="g65"
       clip-path="url(#e)"
       transform="translate(0 -0.001)">
      <g
         id="g63"
         transform="translate(11.235 11.029)">
        <path
           id="path45"
           fill="url(#f)"
           transform="matrix(0.999, 0.035, -0.035, 0.999, 2.068, 0)"
           d="M30.386,58.546C33.131,53.6,39.5,44.073,54.975,30.461,78.33,9.921,55-7.3,30.961,3.148,28.389,4.266,21.018.41,14.475,4.974c-4.221,2.944-2.463,5.074-4.068,7.322s-8.092,2.346-9.313,8.08c-.723,3.4,1.728,6.843,1.506,9.388S0,34.68,0,38.03A10.775,10.775,0,0,0,10.767,48.812a10.835,10.835,0,0,0,10.8,10.411,10.706,10.706,0,0,0,5.132-1.3C28.339,59.332,29.721,59.745,30.386,58.546Z" />
        <g
           id="g53"
           transform="translate(24.733 15.823)">
          <path
             id="path47"
             fill="url(#b)"
             transform="translate(0)"
             d="M6.241,38.715c0-3.03-.1-17.974-.1-18.227-8.318,1.226-8.15-14.6.266-10.725,1.852,1.178,7.07,0,6.565-9.763,9.09,9.763,19.643-1.624,20.548,7.655,1.236,12.67-.007,25.929-7.881,25.93a14.756,14.756,0,0,1-2.567-.256v5.386c0,3.367,6.06,5.05,6.06,5.05s-10.467,9.862-14.813,9.809S.182,43.765.182,43.765,6.241,42.082,6.241,38.715Z" />
          <g
             id="g51"
             clip-path="url(#h)"
             transform="translate(0)">
            <path
               id="path49"
               style="mix-blend-mode:multiply;isolation:isolate"
               fill="url(#i)"
               opacity="0.7"
               transform="matrix(0.999, 0.035, -0.035, 0.999, 11.415, 28.245)"
               d="M11.83,4.674A33.153,33.153,0,0,1,0,0,15.25,15.25,0,0,0,11.937,8.038Z" />
          </g>
        </g>
        <g
           id="g61"
           transform="translate(4.398 57.95)">
          <g
             id="g57"
             transform="translate(0.462 0)">
            <path
               id="path55"
               fill="url(#c)"
               transform="translate(-0.096 0.021)"
               d="M65.316,11.9C67.746,17.382,69,34,69,34H0S1.254,17.382,3.684,11.9C5.813,7.1,19.842,1.585,23.953,0A13.347,13.347,0,0,0,34.5,4.42,13.347,13.347,0,0,0,45.047,0C49.158,1.585,63.187,7.1,65.316,11.9Z" />
          </g>
          <path
             id="path59"
             fill="url(#l)"
             transform="translate(0 2.212)"
             d="M3.372,9.635C5.2,6.151,11.234,2.5,16.809.031,19.59-1.2,27.922,34.1,27.922,34.1H.008S-.328,16.671,3.372,9.635Z" />
        </g>
      </g>
    </g>
  </g>
</svg>
