<svg xmlns="http://www.w3.org/2000/svg" xmlns:xlink="http://www.w3.org/1999/xlink" width="101" height="101.001" viewBox="0 0 101 101.001"><defs><linearGradient id="a" x1="0.5" x2="0.5" y2="1" gradientUnits="objectBoundingBox"><stop offset="0" stop-color="#1d0024"/><stop offset="1" stop-color="#100014"/></linearGradient><linearGradient id="b" x1="0.5" x2="0.5" y2="1" gradientUnits="objectBoundingBox"><stop offset="0" stop-color="#fecbb5"/><stop offset="1" stop-color="#fed4c4"/></linearGradient><clipPath id="d"><path d="M50.5,0A50.5,50.5,0,1,1,0,50.5,50.5,50.5,0,0,1,50.5,0Z" transform="translate(0 0.091)" fill="url(#a)"/></clipPath><linearGradient id="e" x1="0.5" x2="0.5" y2="1" gradientUnits="objectBoundingBox"><stop offset="0" stop-color="#e6864e"/><stop offset="1" stop-color="#eb965e"/></linearGradient><clipPath id="g"><path d="M65.316,11.9C67.746,17.382,69,34,69,34H0S1.254,17.382,3.684,11.9C5.813,7.1,19.842,1.585,23.953,0A13.347,13.347,0,0,0,34.5,4.42,13.347,13.347,0,0,0,45.047,0C49.158,1.585,63.187,7.1,65.316,11.9Z" transform="translate(0.055 0.111)" fill="url(#b)"/></clipPath></defs><g transform="translate(0 -0.089)"><path d="M50.5,0A50.5,50.5,0,1,1,0,50.5,50.5,50.5,0,0,1,50.5,0Z" transform="translate(0 0.089)" fill="url(#a)"/><g transform="translate(0 -0.001)" clip-path="url(#d)"><path d="M54.975,30.461C78.33,9.921,55-7.3,30.961,3.148,28.389,4.266,21.018.41,14.475,4.974c-4.221,2.944-2.463,5.074-4.068,7.322s-8.092,2.346-9.313,8.08c-.723,3.4,1.728,6.843,1.506,9.388S0,34.68,0,38.03A10.775,10.775,0,0,0,10.767,48.812a10.835,10.835,0,0,0,10.8,10.411,19.719,19.719,0,0,0,10.509-2.741C41.979,50.025,39.5,44.073,54.975,30.461Z" transform="matrix(0.999, 0.035, -0.035, 0.999, 13.176, 11.534)" fill="#fff"/><path d="M6.241,38.715c0-3.03-.1-17.974-.1-18.227-8.318,1.226-8.15-14.6.266-10.725,1.852,1.178,7.07,0,6.565-9.763,9.09,9.763,19.643-1.624,20.548,7.655,1.236,12.67-.007,25.929-7.881,25.93a14.756,14.756,0,0,1-2.567-.256v5.386c0,3.367,6.06,5.05,6.06,5.05s-10.467,9.862-14.813,9.809S.182,43.765.182,43.765,6.241,42.082,6.241,38.715Z" transform="translate(35.841 27.357)" fill="url(#e)"/><path d="M11.83,4.674A33.153,33.153,0,0,1,0,0,15.25,15.25,0,0,0,11.937,8.038Z" transform="matrix(0.999, 0.035, -0.035, 0.999, 47.255, 55.602)" fill="#db6f3d"/><g transform="translate(14.946 68.979)"><path d="M65.316,11.9C67.746,17.382,69,34,69,34H0S1.254,17.382,3.684,11.9C5.813,7.1,19.842,1.585,23.953,0A13.347,13.347,0,0,0,34.5,4.42,13.347,13.347,0,0,0,45.047,0C49.158,1.585,63.187,7.1,65.316,11.9Z" transform="translate(0.055 0.111)" fill="url(#b)"/><g transform="translate(0 0)" clip-path="url(#g)"><path d="M67.924,28.978A2.038,2.038,0,1,1,69.962,31,2.03,2.03,0,0,1,67.924,28.978Zm-13.585,0A2.038,2.038,0,1,1,56.377,31,2.03,2.03,0,0,1,54.34,28.978Zm-13.585,0A2.038,2.038,0,1,1,42.792,31,2.03,2.03,0,0,1,40.755,28.978Zm-13.585,0A2.038,2.038,0,1,1,29.208,31,2.03,2.03,0,0,1,27.17,28.978Zm-13.585,0A2.038,2.038,0,1,1,15.623,31,2.03,2.03,0,0,1,13.585,28.978ZM0,28.978A2.038,2.038,0,1,1,2.038,31,2.03,2.03,0,0,1,0,28.978Zm61.132-6.739a2.038,2.038,0,1,1,2.038,2.022A2.03,2.03,0,0,1,61.132,22.239Zm-13.585,0a2.038,2.038,0,1,1,2.038,2.022A2.029,2.029,0,0,1,47.547,22.239Zm-13.585,0A2.038,2.038,0,1,1,36,24.261,2.03,2.03,0,0,1,33.962,22.239Zm-13.585,0a2.038,2.038,0,1,1,2.038,2.022A2.029,2.029,0,0,1,20.377,22.239Zm-13.585,0A2.038,2.038,0,1,1,8.83,24.261,2.03,2.03,0,0,1,6.792,22.239ZM67.924,15.5a2.038,2.038,0,1,1,2.038,2.022A2.03,2.03,0,0,1,67.924,15.5Zm-13.585,0a2.038,2.038,0,1,1,2.038,2.022A2.03,2.03,0,0,1,54.34,15.5Zm-13.585,0a2.038,2.038,0,1,1,2.038,2.022A2.03,2.03,0,0,1,40.755,15.5Zm-13.585,0a2.038,2.038,0,1,1,2.038,2.022A2.03,2.03,0,0,1,27.17,15.5Zm-13.585,0a2.038,2.038,0,1,1,2.038,2.022A2.03,2.03,0,0,1,13.585,15.5ZM0,15.5a2.038,2.038,0,1,1,2.038,2.022A2.03,2.03,0,0,1,0,15.5ZM61.132,8.761a2.038,2.038,0,1,1,2.038,2.022A2.03,2.03,0,0,1,61.132,8.761Zm-13.585,0a2.038,2.038,0,1,1,2.038,2.022A2.03,2.03,0,0,1,47.547,8.761Zm-13.585,0A2.038,2.038,0,1,1,36,10.783,2.03,2.03,0,0,1,33.962,8.761Zm-13.585,0a2.038,2.038,0,1,1,2.038,2.022A2.03,2.03,0,0,1,20.377,8.761Zm-13.585,0A2.038,2.038,0,1,1,8.83,10.783,2.03,2.03,0,0,1,6.792,8.761ZM67.924,2.022a2.038,2.038,0,1,1,2.038,2.022A2.03,2.03,0,0,1,67.924,2.022Zm-13.585,0a2.038,2.038,0,1,1,2.038,2.022A2.03,2.03,0,0,1,54.34,2.022Zm-40.755,0a2.038,2.038,0,1,1,2.038,2.022A2.03,2.03,0,0,1,13.585,2.022ZM0,2.022A2.038,2.038,0,1,1,2.038,4.043,2.03,2.03,0,0,1,0,2.022Z" transform="translate(0.055 3.111)" fill="#ffa789"/></g></g></g></g></svg>