<svg xmlns="http://www.w3.org/2000/svg" xmlns:xlink="http://www.w3.org/1999/xlink" width="101.001" height="101" viewBox="0 0 101.001 101"><defs><linearGradient id="a" x1="0.5" x2="0.5" y2="1" gradientUnits="objectBoundingBox"><stop offset="0" stop-color="#1d0024"/><stop offset="1" stop-color="#100014"/></linearGradient><clipPath id="c"><path d="M50.5,0A50.5,50.5,0,1,0,101,50.5,50.5,50.5,0,0,0,50.5,0Z" transform="translate(0.127)" fill="url(#a)"/></clipPath><linearGradient id="d" x1="0.5" x2="0.5" y2="1" gradientUnits="objectBoundingBox"><stop offset="0" stop-color="#ffd4b3"/><stop offset="1" stop-color="#ffdcc2"/></linearGradient><linearGradient id="e" x1="0.5" x2="0.5" y2="1" gradientUnits="objectBoundingBox"><stop offset="0" stop-color="#806a6a"/><stop offset="1" stop-color="#665654"/></linearGradient><linearGradient id="f" x1="0.5" y1="1" x2="0.5" gradientUnits="objectBoundingBox"><stop offset="0" stop-color="#e6864e"/><stop offset="1" stop-color="#e67240"/></linearGradient></defs><g transform="translate(-0.126)"><path d="M50.5,0A50.5,50.5,0,1,0,101,50.5,50.5,50.5,0,0,0,50.5,0Z" transform="translate(0.126)" fill="url(#a)"/><g transform="translate(0 0)" clip-path="url(#c)"><path d="M28.616,34.218v4.04c0,5.386,7.743,7.743,7.743,7.743s-8.921,6.733-18.179,6.733S0,46,0,46s7.8-2.357,7.743-7.743-.02-8.55-.061-17.779c-4.825-6.254-4.515-10.451-1.877-13.4C14.645-2.814,38.715.552,38.715.552s2.246,24.236-2.862,31.309C33.666,34.891,28.616,34.218,28.616,34.218Z" transform="translate(31.883 24.739)" fill="url(#d)"/><path d="M13,4A31.258,31.258,0,0,1,0,0,21.384,21.384,0,0,0,13,8Z" transform="translate(49.127 55)" fill="#ffdbc9" style="mix-blend-mode:multiply;isolation:isolate"/><path d="M75.747,12.56c3.205,6.517,5.05,21.546,5.05,21.546H0S1.846,19.075,5.05,12.56,26.966,0,26.966,0c3.607,7.406,23.4,7.4,26.856,0C53.821,0,72.542,6.043,75.747,12.56Z" transform="translate(9.664 68.383)" fill="url(#e)"/><path d="M0,13.75A1.146,1.146,0,0,1,1,12.5a1.146,1.146,0,0,1,1,1.25A1.146,1.146,0,0,1,1,15,1.146,1.146,0,0,1,0,13.75ZM0,7.5A1.146,1.146,0,0,1,1,6.25,1.146,1.146,0,0,1,2,7.5,1.146,1.146,0,0,1,1,8.75,1.146,1.146,0,0,1,0,7.5ZM0,1.25A1.146,1.146,0,0,1,1,0,1.146,1.146,0,0,1,2,1.25,1.146,1.146,0,0,1,1,2.5,1.146,1.146,0,0,1,0,1.25Z" transform="translate(49.127 78)" fill="#fff"/><path d="M13.855,24.646a3.417,3.417,0,0,0-4.21-.583c-4.359,2.265-1.06,10.949,2.811,10.949,1.01,0,1.512,3.172-2.985,5.388,0-3.535-5.386-12.288-5.856-20.257C-1.806,18.124-.46,10.049,3.263,10.049c-.6-7.4,11.259-11.226,15.849-6.979C23.78-2.524,35.562.338,36.274,5.191,44.376.865,49.7,13.3,42.115,18.124c-3.122,1.985-10.425,2.742-20.966,2.742-1.591,0-2.483.4-2.038,2.363C19.973,27.042,17.973,29.444,13.855,24.646Z" transform="translate(29.863 10.479)" fill="url(#f)"/></g></g></svg>