<svg xmlns="http://www.w3.org/2000/svg" xmlns:xlink="http://www.w3.org/1999/xlink" width="101" height="101.001" viewBox="0 0 101 101.001"><defs><linearGradient id="a" x1="0.5" y1="1" x2="0.5" gradientUnits="objectBoundingBox"><stop offset="0" stop-color="#ffc9b3"/><stop offset="1" stop-color="#ffd2c2"/></linearGradient><linearGradient id="b" x1="0.5" x2="0.5" y2="1" gradientUnits="objectBoundingBox"><stop offset="0" stop-color="#ffe0cc"/><stop offset="1" stop-color="#ffeadb"/></linearGradient><linearGradient id="c" x1="0.5" x2="0.5" y2="1" gradientUnits="objectBoundingBox"><stop offset="0" stop-color="#130027"/><stop offset="1" stop-color="#130017"/></linearGradient><clipPath id="e"><path d="M50.5,0A50.5,50.5,0,1,1,0,50.5,50.5,50.5,0,0,1,50.5,0Z" transform="translate(0.085 -0.001)" fill="url(#a)"/></clipPath><linearGradient id="f" x1="0.5" y1="1" x2="0.5" gradientUnits="objectBoundingBox"><stop offset="0" stop-color="#e6864e"/><stop offset="1" stop-color="#e67240"/></linearGradient><linearGradient id="g" x1="0.5" x2="0.5" y2="1" gradientUnits="objectBoundingBox"><stop offset="0" stop-color="#1d0024"/><stop offset="1" stop-color="#100014"/></linearGradient><clipPath id="i"><path d="M6.241,38.715c0-3.03-.1-17.974-.1-18.227-8.318,1.226-8.15-14.6.266-10.725,1.852,1.178,7.07,0,6.565-9.763,9.09,9.763,19.643-1.624,20.548,7.655,1.236,12.67-.007,25.929-7.881,25.93a14.756,14.756,0,0,1-2.567-.256v5.386c0,3.367,6.06,5.05,6.06,5.05s-10.467,9.862-14.813,9.809S.182,43.765.182,43.765,6.241,42.082,6.241,38.715Z" fill="url(#b)"/></clipPath><clipPath id="k"><path d="M65.316,11.9C67.746,17.382,69,34,69,34H0S1.254,17.382,3.684,11.9C5.813,7.1,19.842,1.585,23.953,0A13.347,13.347,0,0,0,34.5,4.42,13.347,13.347,0,0,0,45.047,0C49.158,1.585,63.187,7.1,65.316,11.9Z" transform="translate(-0.011 0.021)" fill="url(#c)"/></clipPath></defs><g transform="translate(-0.085 0.002)"><path d="M50.5,0A50.5,50.5,0,1,1,0,50.5,50.5,50.5,0,0,1,50.5,0Z" transform="translate(0.085 -0.001)" fill="url(#a)"/><g transform="translate(0 -0.001)" clip-path="url(#e)"><g transform="translate(11.381 11.029)"><path d="M30.386,58.546C33.131,53.6,39.5,44.073,54.975,30.461,78.33,9.921,55-7.3,30.961,3.148,28.389,4.266,21.018.41,14.475,4.974c-4.221,2.944-2.463,5.074-4.068,7.322s-8.092,2.346-9.313,8.08c-.723,3.4,1.728,6.843,1.506,9.388S0,34.68,0,38.03A10.775,10.775,0,0,0,10.767,48.812a10.835,10.835,0,0,0,10.8,10.411,10.706,10.706,0,0,0,5.132-1.3C28.339,59.332,29.721,59.745,30.386,58.546Z" transform="matrix(0.999, 0.035, -0.035, 0.999, 2.068, 0)" fill="url(#f)"/><path d="M12.261.083C8.115,2.743,2.985,11.465,5.237,23.174c.491,2.555-1.043,3.32-2.357.168C-1.081,13.835-1.54,5.261,5.236,1.16,6.415.45,7.089,1.025,7.93.955,9.531.822,11.686-.312,12.261.083Z" transform="translate(24.099 2.947)" fill="url(#g)"/><g transform="translate(24.733 15.823)"><path d="M6.241,38.715c0-3.03-.1-17.974-.1-18.227-8.318,1.226-8.15-14.6.266-10.725,1.852,1.178,7.07,0,6.565-9.763,9.09,9.763,19.643-1.624,20.548,7.655,1.236,12.67-.007,25.929-7.881,25.93a14.756,14.756,0,0,1-2.567-.256v5.386c0,3.367,6.06,5.05,6.06,5.05s-10.467,9.862-14.813,9.809S.182,43.765.182,43.765,6.241,42.082,6.241,38.715Z" transform="translate(0)" fill="url(#b)"/><g transform="translate(0)" clip-path="url(#i)"><path d="M11.83,4.674A33.153,33.153,0,0,1,0,0,15.25,15.25,0,0,0,11.937,8.038Z" transform="matrix(0.999, 0.035, -0.035, 0.999, 11.415, 28.245)" fill="#ffdbc9" style="mix-blend-mode:multiply;isolation:isolate"/></g></g><g transform="translate(4.715 57.95)"><g transform="translate(0 0)"><path d="M65.316,11.9C67.746,17.382,69,34,69,34H0S1.254,17.382,3.684,11.9C5.813,7.1,19.842,1.585,23.953,0A13.347,13.347,0,0,0,34.5,4.42,13.347,13.347,0,0,0,45.047,0C49.158,1.585,63.187,7.1,65.316,11.9Z" transform="translate(-0.011 0.021)" fill="url(#c)"/></g></g></g></g></g></svg>