<svg xmlns="http://www.w3.org/2000/svg" xmlns:xlink="http://www.w3.org/1999/xlink" width="101" height="101.001" viewBox="0 0 101 101.001"><defs><linearGradient id="a" x1="0.5" x2="0.5" y2="1" gradientUnits="objectBoundingBox"><stop offset="0" stop-color="#806a6a"/><stop offset="1" stop-color="#665654"/></linearGradient><clipPath id="c"><path d="M50.5,0A50.5,50.5,0,1,1,0,50.5,50.5,50.5,0,0,1,50.5,0Z" transform="translate(0.17 -0.001)" fill="url(#a)"/></clipPath><linearGradient id="d" x1="0.5" y1="1" x2="0.5" gradientUnits="objectBoundingBox"><stop offset="0" stop-color="#ffc9b3"/><stop offset="1" stop-color="#ffd2c2"/></linearGradient><linearGradient id="e" x1="0.5" x2="0.5" y2="1" gradientUnits="objectBoundingBox"><stop offset="0" stop-color="#1d0024"/><stop offset="1" stop-color="#100014"/></linearGradient><linearGradient id="f" x1="0.5" x2="0.5" y2="1" gradientUnits="objectBoundingBox"><stop offset="0" stop-color="#e6864e"/><stop offset="1" stop-color="#eb965e"/></linearGradient></defs><g transform="translate(-0.17 0.002)"><path d="M50.5,0A50.5,50.5,0,1,1,0,50.5,50.5,50.5,0,0,1,50.5,0Z" transform="translate(0.17 -0.001)" fill="url(#a)"/><g transform="translate(0 -0.001)" clip-path="url(#c)"><path d="M65.316,16.142C67.772,20.85,69,38,69,38H0S1.228,20.85,3.684,16.142C7.369,9.08,34.5,0,34.5,0S61.631,9.08,65.316,16.142Z" transform="translate(16.17 63.999)" fill="url(#d)"/><path d="M55.617,45.811.925,39.2Q-3.12,17.73,10.52,12.146C14.723-1.627,31.084-.507,35.721.616Q59.393,6.348,55.617,45.811Z" transform="translate(23.819 13.625)" fill="url(#e)"/><path d="M5.552,36.465v-20.2C-2.871,16.14-1.228,1.544,7.235,6c1.515.673,5.386-1.178,4.04-5.723,9.09,6.733,21.756-5.084,22.556,2.188,1.574,14.311-1.471,26.074-9.547,26.075a13.25,13.25,0,0,1-2.573-.153v8.08A15.332,15.332,0,0,1,13.8,38.822,17.174,17.174,0,0,1,5.552,36.465Z" transform="translate(37.03 30.912)" fill="url(#f)"/><path d="M11.783,4.545V7.238Q4.208,7.238,0,0A30.425,30.425,0,0,0,11.783,4.545Z" transform="translate(46.958 54.753)" fill="#db6f3d"/><path d="M12.782,6.051c2.3-.11,8.091-1.3,8.091-3.876V0c.617,0,2.385,1.458,3.294,2.693,3.594,4.881-.393,9.258-3.644,9.258-4.1,0-6.821-3.428-7.73-5.077-.91,1.649-3.628,5.077-7.73,5.077-3.251,0-7.238-4.376-3.644-9.258C2.328,1.458,4.1,0,4.713,0V2.175c0,2.575,5.635,3.766,8.069,3.876Z" transform="translate(37.869 63.338)" fill="#fff"/></g></g></svg>