<svg xmlns="http://www.w3.org/2000/svg" xmlns:xlink="http://www.w3.org/1999/xlink" width="101" height="101.001" viewBox="0 0 101 101.001"><defs><linearGradient id="a" x1="0.5" x2="0.5" y2="1" gradientUnits="objectBoundingBox"><stop offset="0" stop-color="#806a6a"/><stop offset="1" stop-color="#665654"/></linearGradient><clipPath id="c"><path d="M50.5,0A50.5,50.5,0,1,1,0,50.5,50.5,50.5,0,0,1,50.5,0Z" transform="translate(0.042 0.091)" fill="url(#a)"/></clipPath><linearGradient id="d" x1="0.5" x2="0.5" y2="1" gradientUnits="objectBoundingBox"><stop offset="0" stop-color="#1d0024"/><stop offset="1" stop-color="#100014"/></linearGradient><linearGradient id="f" x1="0.5" x2="0.5" y2="1" gradientUnits="objectBoundingBox"><stop offset="0" stop-color="#f7b186"/><stop offset="1" stop-color="#ffc299"/></linearGradient><linearGradient id="g" x1="0.5" y1="1" x2="0.5" gradientUnits="objectBoundingBox"><stop offset="0" stop-color="#fcf2eb"/><stop offset="1" stop-color="#fff9f5"/></linearGradient></defs><g transform="translate(-0.042 -0.089)"><path d="M50.5,0A50.5,50.5,0,1,1,0,50.5,50.5,50.5,0,0,1,50.5,0Z" transform="translate(0.042 0.089)" fill="url(#a)"/><g transform="translate(0 -0.001)" clip-path="url(#c)"><path d="M.181,8.317C-1.165,2.426,5.22-2.1,11.8,1.008c15.486,7.309,6.5,18.25.945,17.072S1.528,14.208.181,8.317Z" transform="translate(54.12 8.188)" fill="url(#d)"/><path d="M34.486,40.53C27.254,44,26.2,43.819,10.247,30.768-13.824,11.073,8.9-6.937,33.308,2.657,59.736,14.272,50.882,32.654,34.486,40.53Z" transform="translate(23.564 13.106)" fill="url(#d)"/><path d="M27.572,37.873c-2.469,5.386-5.611,8.08-8.08,8.08s-5.611-2.693-8.08-8.08V31.14s-1.1.032-1.852,0C1.686,30.8-.945,18.137.291,5.466,1.2-3.812,9.056,8.921,21.848,0c-.5,9.763,3.7,8.753,5.555,7.575C35.82,3.7,35.988,19.526,27.67,18.3Q27.675,18.552,27.572,37.873Z" transform="translate(31.152 29.566)" fill="url(#f)"/><path d="M0,5.084Q4.545,4.747,11.323,0,9.246,7.153,0,8.45Z" transform="translate(42.564 55.622)" fill="#ff9768"/><path d="M23.812,3.978S24.32.471,25.511.171s8.152-.337,8.159,1.01c0,.247.24,2.9,1.033,2.9s1-2.649,1-2.9C35.709-.166,42.63-.114,43.861.171s1.694,3.812,1.694,3.812S63.734,12.543,65.648,16.2q2.469,4.713,3.7,21.882H0Q1.234,20.91,3.7,16.2C5.616,12.544,23.812,3.978,23.812,3.978Z" transform="translate(15.968 65.419)" fill="url(#g)"/><path d="M0,13.75A1.146,1.146,0,0,1,1,12.5a1.146,1.146,0,0,1,1,1.25A1.146,1.146,0,0,1,1,15,1.146,1.146,0,0,1,0,13.75ZM0,7.5A1.146,1.146,0,0,1,1,6.25,1.146,1.146,0,0,1,2,7.5,1.146,1.146,0,0,1,1,8.75,1.146,1.146,0,0,1,0,7.5ZM0,1.25A1.146,1.146,0,0,1,1,0,1.146,1.146,0,0,1,2,1.25,1.146,1.146,0,0,1,1,2.5,1.146,1.146,0,0,1,0,1.25Z" transform="translate(49.042 77.091)" fill="#664f4d"/><path d="M2.892,5.194C-2.495,18.66.535,25.225,4.744,33.136s-1.01,15.318-1.01,15.318A15.041,15.041,0,0,0,9.793,36c0-8.585-6.06-13.971-1.01-21.041S8.278-8.272,2.892,5.194Z" transform="translate(51.317 21.318)" fill="url(#d)"/></g></g></svg>