<svg xmlns="http://www.w3.org/2000/svg" xmlns:xlink="http://www.w3.org/1999/xlink" width="101" height="101" viewBox="0 0 101 101"><defs><clipPath id="a"><circle cx="50.5" cy="50.5" r="50.5" transform="translate(723.038 1224.973)" fill="none"/></clipPath></defs><g transform="translate(-723.038 -1224.973)"><circle cx="50.5" cy="50.5" r="50.5" transform="translate(723.038 1224.973)" fill="#f2f2f2"/><g clip-path="url(#a)"><path d="M797.826,1301.42h.074c-.449,7.044-.889,12.99-1.315,18.116.025.069.054.137.079.206.74,2.043,1.386,4.125,1.96,6.231h12.212c-.518-2.178-1.095-4.335-1.752-6.459-.452-1.462-.933-2.891-1.44-4.3a71.724,71.724,0,0,0-12.141-21.666A13.973,13.973,0,0,1,797.826,1301.42Z" fill="#344975"/><path d="M765.629,1267.622c-.056-.31-.1-.624-.166-.939a3.1,3.1,0,0,1-.18-6.1.971.971,0,0,1,.323-.048,10.678,10.678,0,0,0,6.267-2.944c1.706-1.528,3.064-3.337,4.656-4.961a7.766,7.766,0,0,1,2.636-1.909,10.857,10.857,0,0,1,2.488,6.691l.148,4.982a9.789,9.789,0,0,0,.452-2.257,22.275,22.275,0,0,1,.554-4.514c.408-1.321,1.206-2.509,1.494-3.861a9.28,9.28,0,0,0,.1-2.525,11.526,11.526,0,0,0-1.633-5.824,5.055,5.055,0,0,0-5.262-2.277,11.224,11.224,0,0,0-3.323,2.116c-3.32,2.425-7.879,3.208-10.39,6.464a4.565,4.565,0,0,0-1.063,2.672,1.559,1.559,0,0,0-2.343.1,3.981,3.981,0,0,0-.73,2.548,21.915,21.915,0,0,0,1.258,7.943c.794,2.245,2.415,5.79,4.657,6.959l-.039-1.746A1.621,1.621,0,0,1,765.629,1267.622Z" fill="#ff6144"/><path d="M747.117,1292.617c4.861-5.2,16.229-.267,11.97,5.79a62.219,62.219,0,0,0-8.251,16.707q-.944,2.913-1.638,5.9c-.383,1.639-.708,3.293-.986,4.957H765.69l-5.719-41.653C754.122,1286.042,749.76,1289.03,747.117,1292.617Z" fill="#28375c"/><path d="M779.172,1283.492l.04.034-2.351,7.539-1.04-.6.243.26a1.393,1.393,0,0,1,.3,1.406l-.684,2a1.383,1.383,0,0,1-.466.65l3.9,31H773.84l-.1-30.864a1.372,1.372,0,0,1-.489-.4l-1.144-1.525a1.394,1.394,0,0,1-.017-1.651l.844-1.176-2.717,1.386-9.518-7.414c-.237.065-.491.115-.724.183l5.719,41.653h19.284l-4.641-42.233C779.952,1283.647,779.56,1283.573,779.172,1283.492Z" fill="#fff"/><path d="M797.9,1301.42h-.074a13.973,13.973,0,0,0-2.323-7.869c-2.94-4.591-8.438-8.158-15.17-9.811l4.641,42.233h11.045c.185-1.984.374-4.136.566-6.437C797.011,1314.41,797.451,1308.464,797.9,1301.42Z" fill="#28375c"/><path d="M750.836,1315.114a62.219,62.219,0,0,1,8.251-16.707c4.259-6.057-7.109-10.993-11.97-5.79a6.581,6.581,0,0,0-.583.707c-5.2,7.388-6.939,14.04-8.4,21.767-.43,2.282-.837,4.652-1.3,7.169-.226,1.231-.42,2.47-.6,3.713h11.973c.278-1.664.6-3.318.986-4.957Q749.894,1318.03,750.836,1315.114Z" fill="#344975"/><path d="M774.072,1289.4c.046,0,.092,0,.138,0l1.547-8.434c-.032-1.744-.061-3.383-.079-4.456h-.2a3.938,3.938,0,0,1-3.927-3.927v-4.313a3.938,3.938,0,0,1,3.927-3.927h4.3a2.677,2.677,0,0,1,2.113,1.049c0-.007-.088-2.993-.088-2.993l-.148-4.982a10.857,10.857,0,0,0-2.488-6.691,7.766,7.766,0,0,0-2.636,1.909c-1.592,1.624-2.95,3.433-4.656,4.961a10.678,10.678,0,0,1-6.267,2.944c-.108.006-.216,0-.325.007a2.9,2.9,0,0,0-2.444,3.166,2.83,2.83,0,0,0,2.626,2.976c.066.315.11.629.166.939a1.621,1.621,0,0,0-.1.571l.039,1.746.244,10.855.394-.253Z" fill="#ffa58c"/><path d="M772.93,1290.165l.141-.2a1.389,1.389,0,0,1,1-.571l-7.864-8.856-.394.253-5.156,3.314,9.555,7.443Z" fill="#b4e7fa"/><path d="M774.21,1289.394a1.381,1.381,0,0,1,1.012.433l.6.639,1.04.6,2.351-7.539-.04-.034-3.365-2.8-.05.272Z" fill="#b4e7fa"/><path d="M774.21,1289.394c-.046,0-.092,0-.138,0a1.389,1.389,0,0,0-1,.571l-.141.2-.844,1.176a1.394,1.394,0,0,0,.017,1.651l1.144,1.525a1.372,1.372,0,0,0,.489.4l.1,30.864h5.277l-3.9-31a1.383,1.383,0,0,0,.466-.65l.684-2a1.393,1.393,0,0,0-.3-1.406l-.243-.26-.6-.639A1.381,1.381,0,0,0,774.21,1289.394Z" fill="#ff4d57"/><path d="M779.776,1264.337h-4.3a3.938,3.938,0,0,0-3.927,3.927v4.313a3.938,3.938,0,0,0,3.927,3.927h3.063a3.938,3.938,0,0,0,3.927-3.927v-5.552a2.723,2.723,0,0,0-2.688-2.688Zm-3.312,3.938a.688.688,0,1,1,0-1.375h1.875a.688.688,0,0,1,0,1.375Z" fill="#ff6144"/><path d="M779.026,1267.587a.689.689,0,0,0-.687-.687h-1.875a.688.688,0,1,0,0,1.375h1.875A.69.69,0,0,0,779.026,1267.587Z" fill="#ffa58c"/></g></g></svg>