<svg xmlns="http://www.w3.org/2000/svg" xmlns:xlink="http://www.w3.org/1999/xlink" width="101" height="101" viewBox="0 0 101 101"><defs><clipPath id="a"><circle cx="50.5" cy="50.5" r="50.5" transform="translate(548.251 1224.973)" fill="none"/></clipPath></defs><g transform="translate(-548.251 -1224.973)"><circle cx="50.5" cy="50.5" r="50.5" transform="translate(548.251 1224.973)" fill="#f2f2f2"/><g clip-path="url(#a)"><path d="M570.23,1302.053h.074a14.971,14.971,0,0,1,4.795-10.95,6.536,6.536,0,0,0-2.613,2.427c-4.513,7.43-5.883,13.962-6.816,21.4-.322,2.572-.593,5.252-.922,8.117-.112.972-.206,1.946-.288,2.923h7.582C571.47,1319.736,570.862,1311.986,570.23,1302.053Z" fill="#b4e7fa"/><path d="M624.027,1302.053c-.629,9.873-1.241,17.625-1.822,23.92H633c-.083-.639-.166-1.278-.262-1.914a90.256,90.256,0,0,0-1.815-9.01,70.38,70.38,0,0,0-9.543-21.61,6.384,6.384,0,0,0-1.665-1.741,14.747,14.747,0,0,1,4.234,10.355Z" fill="#b4e7fa"/><path d="M591.757,1268.254c-.057-.309-.1-.623-.167-.938a2.831,2.831,0,0,1-2.626-2.976,2.936,2.936,0,0,1,2.027-3.062,3.241,3.241,0,0,0,.374.072,5.463,5.463,0,0,0,2.459-.495,2.924,2.924,0,0,0,1.717-1.355,17.285,17.285,0,0,0,.328-1.762,3.444,3.444,0,0,1,2.453-1.934,8.037,8.037,0,0,0,2.984-1.236,8.759,8.759,0,0,0,1.2-1.484,3.02,3.02,0,0,1,1.466-1.181,1.333,1.333,0,0,1,1.616.655c.229.607-.174,1.269-.141,1.917a2.531,2.531,0,0,0,.843,1.545,3.413,3.413,0,0,0,1.247.892,1.6,1.6,0,0,0,.157.038c.045.359.076.723.087,1.094l.215,7.308c.232-.212.474-.411.7-.634a2.364,2.364,0,0,0,.894-1.7c-.03-.415-.266-.792-.312-1.206-.208-1.874,3.29-2.8,2.723-4.6-.209-.665-.935-1.04-1.236-1.669-.755-1.575,1.46-2.971,1.842-4.675.442-1.978-1.709-3.571-3.677-4.056a2.861,2.861,0,0,1-1.792-.876c-.89-1.3,1.011-2.777,1.205-4.339a2.671,2.671,0,0,0-1.481-2.532,5.655,5.655,0,0,0-3.035-.509,13.451,13.451,0,0,0-8.913,4.152c-.511.541-1.071,1.173-1.815,1.19-.682.016-1.25-.5-1.894-.719a3.04,3.04,0,0,0-3.342,1.382,6.884,6.884,0,0,0-.895,3.735c-.019,1.386-.022,3.042-1.182,3.8a7.408,7.408,0,0,1-1.114.495,4.212,4.212,0,0,0-1.688,5.992c.554.795,1.375,1.365,1.984,2.118a2.434,2.434,0,0,1,.48,2.681c-.385.629-1.2.956-1.442,1.652a2.131,2.131,0,0,0,.6,1.939c1.751,2.166,4.459,3.243,7.112,4.156l-.051-2.3A1.607,1.607,0,0,1,591.757,1268.254Z" fill="#383872"/><path d="M570.3,1302.053h-.074c.632,9.933,1.24,17.683,1.812,23.92h50.163c.581-6.3,1.193-14.047,1.822-23.92h-.074a14.747,14.747,0,0,0-4.234-10.355c-3.972-4.292-10.4-7.322-17.8-8.127q.01.489.019.964a7.62,7.62,0,0,1-3.979,14.125h-2.035a7.62,7.62,0,0,1-3.916-14.163l-.017-.764c-7.456.962-13.2,3.714-16.894,7.37A14.971,14.971,0,0,0,570.3,1302.053Z" fill="#383872"/><path d="M599.523,1289.087h-5.005a2.46,2.46,0,0,1-2.459-2.4l-.049-2.186a7.62,7.62,0,0,0,3.916,14.163h2.035a7.62,7.62,0,0,0,3.979-14.125c.015.723.029,1.418.042,2.042A2.457,2.457,0,0,1,599.523,1289.087Z" fill="#b4e7fa"/><path d="M592.059,1286.683a2.46,2.46,0,0,0,2.459,2.4h5.005a2.457,2.457,0,0,0,2.459-2.51c-.013-.624-.027-1.319-.042-2.042q-.009-.476-.019-.964c-.07-3.665-.137-7.69-.137-7.69,3.683-1.061,6.372-5.13,6.232-9.869l-.02-.66-.215-7.308c-.011-.371-.042-.735-.087-1.094a1.6,1.6,0,0,1-.157-.038,3.413,3.413,0,0,1-1.247-.892,2.531,2.531,0,0,1-.843-1.545c-.033-.648.37-1.31.141-1.917a1.333,1.333,0,0,0-1.616-.655,3.02,3.02,0,0,0-1.466,1.181,8.759,8.759,0,0,1-1.2,1.484,8.037,8.037,0,0,1-2.984,1.236,3.444,3.444,0,0,0-2.453,1.934,17.285,17.285,0,0,1-.328,1.762,2.924,2.924,0,0,1-1.717,1.355,5.463,5.463,0,0,1-2.459.495,3.241,3.241,0,0,1-.374-.072,2.936,2.936,0,0,0-2.027,3.062,2.831,2.831,0,0,0,2.626,2.976c.066.315.11.629.167.938a1.607,1.607,0,0,0-.1.572l.051,2.3.284,12.6.017.764Z" fill="#ffa58c"/></g></g></svg>