<svg xmlns="http://www.w3.org/2000/svg" xmlns:xlink="http://www.w3.org/1999/xlink" width="101" height="101" viewBox="0 0 101 101"><defs><clipPath id="a"><circle cx="50.5" cy="50.5" r="50.5" transform="translate(1043.919 1415.658)" fill="none"/></clipPath></defs><g transform="translate(-1043.919 -1415.658)"><circle cx="50.5" cy="50.5" r="50.5" transform="translate(1043.919 1415.658)" fill="#f2f2f2"/><g clip-path="url(#a)"><path d="M1086.515,1450.418c.018,0,.035.007.053.008a3.349,3.349,0,0,1,1.506-2.409l8.309-5.277a3.579,3.579,0,0,1,5.249,1.619,12.6,12.6,0,0,1,.863,4.569l.006,1.529a1.932,1.932,0,0,1,.324-.039,2.512,2.512,0,0,1,2.173,1.719,11.295,11.295,0,0,0-5.029-14.782,6.352,6.352,0,1,0-10.374-.057,11.3,11.3,0,0,0-5.208,14.713A2.39,2.39,0,0,1,1086.515,1450.418Z" fill="#875fa1"/><path d="M1075.017,1507.041c.272,3.106.56,6.377.815,9.555h12.656l.213-24.293.14-15.942a19.384,19.384,0,0,0-3.286,1.183,19.114,19.114,0,0,0-4.351,2.8,5.2,5.2,0,0,0-1.348,1.094,84.815,84.815,0,0,0-13.132,19.555,155.534,155.534,0,0,0-6.018,15.606h10.7C1072.512,1513.417,1073.824,1509.893,1075.017,1507.041Z" fill="#374d78"/><path d="M1089.11,1476.285c-.088.022-.182.04-.269.064A2.438,2.438,0,0,0,1089.11,1476.285Z" fill="#60e1e1"/><path d="M1100.146,1476.363v-.053c-.324-.085-.659-.159-.994-.232.336.089.672.178.994.285Z" fill="#60e1e1"/><path d="M1100.25,1492.312a18.44,18.44,0,0,1-11.549-.009l-.213,24.293h11.919l-.157-24.284Z" fill="#60e1e1"/><path d="M1088.841,1476.361l-.14,15.942a18.44,18.44,0,0,0,11.549.009l-.1-15.949c-.322-.107-.658-.2-.994-.285-.047-.013-.093-.028-.14-.04l-.03-10.26a11.178,11.178,0,0,0,3.545-8.543l0-.5a1.852,1.852,0,0,0,.325.046c1.361.016,2.459-1.4,2.453-3.152a3.94,3.94,0,0,0-.3-1.491,2.512,2.512,0,0,0-2.173-1.719,1.932,1.932,0,0,0-.324.039l-.006-1.529a12.6,12.6,0,0,0-.863-4.569,3.579,3.579,0,0,0-5.249-1.619l-8.309,5.277a3.349,3.349,0,0,0-1.506,2.409c-.018,0-.035-.008-.053-.008a2.39,2.39,0,0,0-2.128,1.593,3.812,3.812,0,0,0-.324,1.559c.006,1.755,1.113,3.19,2.472,3.21v.267a11.64,11.64,0,0,0,3.357,8.388l.03,10.617c-.276.071-.546.149-.813.233-.088.027-.182.048-.269.076Z" fill="#ffa58c"/><path d="M1100.146,1476.363l.1,15.949.157,24.284h12.985c.232-2.9.492-5.876.742-8.733,1.106,2.7,2.288,5.893,3.3,8.795h10.7a155.656,155.656,0,0,0-6.018-15.606,84.55,84.55,0,0,0-9.93-15.744,19.539,19.539,0,0,0-9.023-7.989,21.027,21.027,0,0,0-3.015-1.009v.053Z" fill="#374d78"/></g></g></svg>