<svg xmlns="http://www.w3.org/2000/svg" xmlns:xlink="http://www.w3.org/1999/xlink" width="101" height="101" viewBox="0 0 101 101"><defs><clipPath id="a"><circle cx="50.5" cy="50.5" r="50.5" transform="translate(768.377 1415.658)" fill="none"/></clipPath></defs><g transform="translate(-768.377 -1415.658)"><circle cx="50.5" cy="50.5" r="50.5" transform="translate(768.377 1415.658)" fill="#f2f2f2"/><g clip-path="url(#a)"><path d="M809.31,1455.106a2.746,2.746,0,0,1,2.372-3.032,4.169,4.169,0,0,1,.734-2.481c1.766-.217,3.618.3,5.321-.229a4.5,4.5,0,0,0,2.468-1.913,11.8,11.8,0,0,1,1.08-1.827c1.023-1.133,2.856-1.109,4.255-.5.068.03.138.058.207.088a9.829,9.829,0,0,1,1.817,5.511l.229,6a11.6,11.6,0,0,1-.6,3.963,5.956,5.956,0,0,0,2.7-3.381c.532-1.9-.049-4.071.868-5.82,1.107-2.112,4.175-3.172,4.225-5.556.049-2.3-2.85-3.671-3.231-5.937-.407-2.417,2.209-4.472,2.1-6.922a3.744,3.744,0,0,0-2.159-3.093,5.052,5.052,0,0,0-3.859-.1,13.556,13.556,0,0,1-2.221.822,1.877,1.877,0,0,1-2.047-.826c-.317-.677.006-1.487-.153-2.216a2.282,2.282,0,0,0-2.151-1.595,5.729,5.729,0,0,0-2.747.741,7.758,7.758,0,0,0-3.828,3.261c-.512,1.056-.682,2.4-1.676,3.025-.871.548-1.995.29-3.023.336a5.091,5.091,0,0,0-4.543,5.9c.361,1.672,1.6,3.2,1.371,4.891a8.493,8.493,0,0,1-1.068,2.527,9.717,9.717,0,0,0-.654,6.562,10.1,10.1,0,0,0,6.838,7.2c-.039-1.471-.069-2.447-.084-2.515A2.746,2.746,0,0,1,809.31,1455.106Z" fill="#664479"/><path d="M826.293,1477.453l-1.348,2.587,1.393.892-4.044,9.479-12.178-6.079,1.616-2.787-4.627-.613,5.189-5.029a20.074,20.074,0,0,0-11.681,8.709,71.864,71.864,0,0,0-9.489,20.258c-.754,2.433-2.141,7.889-3.068,11.788l10.318-.054c.427-1.766.886-3.625,1.343-5.4.2,1.847.385,3.677.523,5.426h37.447c.136-1.723.283-3.478.433-5.226.448,1.705.9,3.5,1.319,5.233H849.7c-.924-3.865-2.243-9.037-2.972-11.39-2.539-8.189-6.023-16.058-11.174-22.515a5.1,5.1,0,0,0-1.208-1.118,19.9,19.9,0,0,0-13.185-6.6c0,.087.006.178.009.264Z" fill="#28375c"/><path d="M812.294,1475.9s10,14.508,10,14.508l-1.259-15.2.133.057c0-.086-.006-.177-.009-.264-.142-3.829-.45-8.737-.45-8.737,3.133.06,5.452-2.465,6.487-5.58a11.6,11.6,0,0,0,.6-3.963l-.229-6a9.829,9.829,0,0,0-1.817-5.511c-.069-.03-.139-.058-.207-.088-1.4-.612-3.232-.636-4.255.5a11.8,11.8,0,0,0-1.08,1.827,4.5,4.5,0,0,1-2.468,1.913c-1.7.528-3.555.012-5.321.229a4.169,4.169,0,0,0-.734,2.481,3.012,3.012,0,0,0,.175,5.92c.015.068.045,1.044.084,2.515.112,4.234.292,12.579.352,15.349Z" fill="#ffa58c"/><path d="M807.1,1480.932l4.627.613-1.616,2.787,12.178,6.079-10-14.512Z" fill="#fff"/><path d="M824.945,1480.04l1.348-2.587-5.125-2.181-.134-.057,1.259,15.2,4.045-9.479Z" fill="#fff"/></g></g></svg>