<svg xmlns="http://www.w3.org/2000/svg" xmlns:xlink="http://www.w3.org/1999/xlink" width="101" height="101" viewBox="0 0 101 101"><defs><clipPath id="a"><circle cx="50.5" cy="50.5" r="50.5" transform="translate(897.825 1224.973)" fill="none"/></clipPath></defs><g transform="translate(-897.825 -1224.973)"><circle cx="50.5" cy="50.5" r="50.5" transform="translate(897.825 1224.973)" fill="#f2f2f2"/><g clip-path="url(#a)"><path d="M984.864,1315.373l-8.66-.016c-.31,3.965-.613,7.481-.908,10.616h11.838c-.312-1.969-.673-3.925-1.1-5.86C985.68,1318.5,985.288,1316.925,984.864,1315.373Z" fill="#ffa58c"/><path d="M944.936,1267.305c-.056-.309-.1-.624-.166-.938a2.831,2.831,0,0,1-2.626-2.976,3.046,3.046,0,0,1,1.643-2.929c.035.031.062.069.1.1a2.917,2.917,0,0,0,3.137.257c1.943-1.072,2.208-4.082,4.228-5a15.361,15.361,0,0,1,1.771-.493,4.16,4.16,0,0,0,2.563-2.366c.3-.743.38-1.559.653-2.312a1.852,1.852,0,0,1,.35-.56l.982-.631a10.669,10.669,0,0,1,3.391,7.639l.128,4.364c.255-.108.509-.219.753-.347,2.938-1.546,3.838-5.438,3.292-8.712a13.005,13.005,0,0,1-.309-2.356c.023-1.229.547-2.42.469-3.646a4.984,4.984,0,0,0-2.3-3.635c-1.524-1.039-3.363-1.278-4.974-2.1-1.822-.933-3.6-1.515-5.644-.81a2.877,2.877,0,0,1-1.41.289c-.638-.114-1.051-.711-1.5-1.179a4.828,4.828,0,0,0-4.909-1.206c-2.108.71-3.908,2.912-6.066,2.371-1.106-.276-1.918-1.236-2.985-1.635a3.557,3.557,0,0,0-4.1,1.493,4.335,4.335,0,0,0,.087,4.479c.735,1.189,2.031,2.178,2.042,3.576.013,1.671-1.768,2.682-2.826,3.976a5.38,5.38,0,0,0,.549,7.14c1.475,1.325,3.8,1.942,4.394,3.834a11.937,11.937,0,0,1,.237,2.136,6.149,6.149,0,0,0,3.975,4.694,10.4,10.4,0,0,0,5.03.5l-.056-2.445A1.631,1.631,0,0,1,944.936,1267.305Z" fill="#383872"/><path d="M976.2,1315.357l8.66.016a71.86,71.86,0,0,0-9.411-21.066,16.91,16.91,0,0,0-2.217-3.18c-.2-.269-.377-.539-.58-.807a6.192,6.192,0,0,0-2.35-1.931,30.376,30.376,0,0,0-15.205-5.767c.009.431.017.857.025,1.271a11.869,11.869,0,0,1,5.283,6.187c1.419,4.2-.854,7.631-5.051,7.631h-2.035c-4.2,0-8.793-3.434-10.212-7.631-1.029-3.044-.11-5.679,2.07-6.9l-.008-.394c-7.706.994-13.576,3.9-17.255,7.743a6.507,6.507,0,0,0-1.221.951c-7.491,7.438-10.194,14.711-13.524,23.766l13.206.023q-.89,1.769-1.691,3.582.316,3.866.622,7.124H975.3C975.591,1322.838,975.894,1319.322,976.2,1315.357Zm-20.752-14.3a1.326,1.326,0,1,1-1.326,1.326A1.33,1.33,0,0,1,955.452,1301.053Zm.265,19.272a1.326,1.326,0,1,1,1.326-1.326A1.33,1.33,0,0,1,955.717,1320.325Z" fill="#664479"/><path d="M913.173,1315.244c-.381,1.036-.768,2.089-1.174,3.175q-1.386,3.71-2.483,7.554h12.455c.738-2.241,1.558-4.45,2.484-6.609.074-.173.157-.343.233-.515q.8-1.815,1.691-3.582Z" fill="#ffa58c"/><path d="M952.7,1288.138H947.7a2.46,2.46,0,0,1-2.459-2.4l-.058-2.555c-2.18,1.223-3.1,3.858-2.07,6.9,1.419,4.2,6.015,7.631,10.212,7.631h2.035c4.2,0,6.47-3.434,5.051-7.631a11.869,11.869,0,0,0-5.283-6.187c.013.612.025,1.2.036,1.735A2.457,2.457,0,0,1,952.7,1288.138Z" fill="#fff1c2"/><path d="M945.239,1285.733a2.46,2.46,0,0,0,2.459,2.4H952.7a2.457,2.457,0,0,0,2.459-2.51c-.011-.536-.023-1.123-.036-1.735-.008-.414-.016-.84-.025-1.271-.07-3.665-.138-7.69-.138-7.69,3.684-1.062,6.373-5.13,6.233-9.87l-.107-3.6-.128-4.364a10.669,10.669,0,0,0-3.391-7.639l-.982.631a1.852,1.852,0,0,0-.35.56c-.273.753-.351,1.569-.653,2.312a4.16,4.16,0,0,1-2.563,2.366,15.361,15.361,0,0,0-1.771.493c-2.02.917-2.285,3.927-4.228,5a2.917,2.917,0,0,1-3.137-.257c-.037-.029-.064-.067-.1-.1a3.046,3.046,0,0,0-1.643,2.929,2.831,2.831,0,0,0,2.626,2.976c.066.314.11.629.166.938a1.631,1.631,0,0,0-.1.572l.056,2.445.28,12.462.008.394Z" fill="#ffa58c"/><path d="M955.452,1303.7a1.326,1.326,0,1,0-1.326-1.326A1.33,1.33,0,0,0,955.452,1303.7Z" fill="#fff1c2"/><path d="M955.717,1317.673a1.326,1.326,0,1,0,1.326,1.326A1.33,1.33,0,0,0,955.717,1317.673Z" fill="#fff1c2"/></g></g></svg>