<svg xmlns="http://www.w3.org/2000/svg" xmlns:xlink="http://www.w3.org/1999/xlink" width="101" height="101" viewBox="0 0 101 101"><defs><clipPath id="a"><circle cx="50.5" cy="50.5" r="50.5" transform="translate(1247.398 1224.973)" fill="none"/></clipPath></defs><g transform="translate(-1247.398 -1224.973)"><circle cx="50.5" cy="50.5" r="50.5" transform="translate(1247.398 1224.973)" fill="#f2f2f2"/><g clip-path="url(#a)"><path d="M1265.534,1314.375a70.275,70.275,0,0,1,6.249-17.48c2.235-6.739,9.664-11.99,19.029-13.636l-7.72,5.679,5.279,5.886-2.8,5.4,5.683,21.5.028,4.251h-27.48c.073-.835.154-1.67.248-2.5A90.211,90.211,0,0,1,1265.534,1314.375Z" fill="#664479"/><path d="M1330.263,1314.375a70.358,70.358,0,0,0-6.249-17.48c-2.235-6.739-9.664-11.99-19.03-13.636l7.721,5.679-5.279,5.886,2.8,5.4-5.683,21.5-.028,4.251h27.48q-.108-1.253-.247-2.5A90.211,90.211,0,0,0,1330.263,1314.375Z" fill="#664479"/><path d="M1291.285,1325.973l-.028-4.251.042.158-.117-11.567L1291,1283.22c.432-.073.868-.136,1.307-.195l-.017,4.081a1.867,1.867,0,0,0,1.887,1.879l3.718-.041,3.719.041a1.868,1.868,0,0,0,1.887-1.879l-.018-4.081c.439.059.876.122,1.307.195l-.178,27.093-.117,11.567.041-.158-.028,4.251Z" fill="#b4e7fa"/><path d="M1290.908,1283.239c.032-.005.063-.013.1-.019l.179,27.093Z" fill="#664479"/><path d="M1304.889,1283.239c-.033-.005-.063-.013-.1-.019l-.178,27.093Z" fill="#664479"/><path d="M1289.684,1260.219l-.005-1.442,13.085-8.311a11.889,11.889,0,0,1,3.153,8.223l.006,1.568a2.016,2.016,0,0,1,.33-.039,2.27,2.27,0,0,1,1.707.9,19.6,19.6,0,0,0,.443-6.589l-.558-5.544a19.7,19.7,0,0,0-1.213-5.09c-7.49.9-14.789,2.664-20.718,7.171,0,.041,0,.082.007.123l.558,5.544a19.969,19.969,0,0,0,1.133,4.905A2.369,2.369,0,0,1,1289.684,1260.219Z" fill="#28375c"/><path d="M1294.153,1288.9l7.584.085a1.868,1.868,0,0,0,1.887-1.879l-.018-4.081-.037-8.5a11.959,11.959,0,0,0,2.381-7.4l0-.493a1.912,1.912,0,0,0,.33.047c1.382.016,2.5-1.417,2.491-3.2a3.753,3.753,0,0,0-.809-2.365,2.27,2.27,0,0,0-1.707-.9,2.016,2.016,0,0,0-.33.039l-.006-1.568a11.889,11.889,0,0,0-3.153-8.223l-13.085,8.311.005,1.442a2.369,2.369,0,0,0-2.072,1.414,3.877,3.877,0,0,0-.414,1.786c.007,1.782,1.131,3.24,2.511,3.259v.257a12.257,12.257,0,0,0,2.485,7.513l.037,8.731.017,3.8A1.94,1.94,0,0,0,1294.153,1288.9Z" fill="#ffa58c"/><path d="M1291.182,1310.313l.117,11.567-.042-.158-5.683-21.5,2.8-5.4-5.279-5.886,7.721-5.679.1-.07v.051Z" fill="#7f5699"/><path d="M1304.615,1310.313l-.117,11.567.042-.158,5.683-21.5-2.8-5.4,5.279-5.886-7.721-5.679-.1-.07v.051Z" fill="#7f5699"/></g></g></svg>