<svg xmlns="http://www.w3.org/2000/svg" xmlns:xlink="http://www.w3.org/1999/xlink" width="101" height="101" viewBox="0 0 101 101"><defs><clipPath id="a"><circle cx="50.5" cy="50.5" r="50.5" transform="translate(911.91 1415.658)" fill="none"/></clipPath></defs><g transform="translate(-911.91 -1415.658)"><circle cx="50.5" cy="50.5" r="50.5" transform="translate(911.91 1415.658)" fill="#f2f2f2"/><g clip-path="url(#a)"><path d="M967.366,1466.74s.188,4.843.295,8.655c.176.032.349.066.519.1a17.315,17.315,0,0,1,9.2,3.511q-.181-.5-.371-1c-1.4-3.711-3.908-8.8-4.857-13.662A5.983,5.983,0,0,1,967.366,1466.74Z" fill="#28375c"/><path d="M942.039,1467.558c-4.222,4.208-8.489,8.947-9.424,14.835a17.828,17.828,0,0,0,4.307,14.031,22.7,22.7,0,0,0,4.271,3.86,85,85,0,0,1,7.561-16.744,4.895,4.895,0,0,1,1.819-1.836,19.3,19.3,0,0,1,8.378-5.3c-.077-3.626-.381-17.672-.437-17.938a3.015,3.015,0,0,1-.254-5.907,5.027,5.027,0,0,0,1.992.037,8.893,8.893,0,0,0,4.334-2.5c1.226-1.166,2.294-2.494,3.564-3.613a8.941,8.941,0,0,1,3.3-1.939,9.77,9.77,0,0,1,2.774,6.658l.09,2.389a12.216,12.216,0,0,0,2.358-4.814,10.9,10.9,0,0,0-2.941-9.856c-4.045-3.854-10.748-4.115-15.565-1.284a25.645,25.645,0,0,0-5.341,4.488c-1.917,1.988-3.791,4.18-4.487,6.853-.889,3.418.282,7.117-.6,10.536C946.905,1462.732,944.4,1465.207,942.039,1467.558Z" fill="#28375c"/><path d="M984.379,1516.658h8.008c-.572-3.755-1.236-7.683-1.822-10.283l-2.484-.333-3.469-.466A104.955,104.955,0,0,1,984.379,1516.658Z" fill="#ffa58c"/><path d="M972.621,1479.165c0,2.19-3.212,3.965-7.174,3.965s-7.175-1.775-7.175-3.965a2.614,2.614,0,0,1,.721-1.722c-.007-.065-.022-.126-.024-.192,0,0-.006-.313-.018-.85a19.3,19.3,0,0,0-8.378,5.3,4.895,4.895,0,0,0-1.819,1.836,85,85,0,0,0-7.561,16.744c-.541,1.655-1.039,3.323-1.476,5.008l6.188.152,4.088.1a100.572,100.572,0,0,0-2.184,11.114h36.57a104.955,104.955,0,0,0,.233-11.082l3.469.466,2.484.333c-1.887-8.363-4.741-16.483-9.366-23.325a5.053,5.053,0,0,0-1.233-1.289,14.015,14.015,0,0,0-2.591-2.75,17.315,17.315,0,0,0-9.2-3.511C970.786,1476.094,972.621,1477.511,972.621,1479.165Z" fill="#60e1e1"/><path d="M971.448,1444.537a8.941,8.941,0,0,0-3.3,1.939c-1.27,1.119-2.338,2.447-3.564,3.613a8.893,8.893,0,0,1-4.334,2.5,5.027,5.027,0,0,1-1.992-.037,3.015,3.015,0,0,0,.254,5.907c.056.266.36,14.312.437,17.938.012.537.018.85.018.85,0,.066.017.127.024.192a2.614,2.614,0,0,0-.721,1.722c0,2.19,3.213,3.965,7.175,3.965s7.174-1.775,7.174-3.965c0-1.654-1.835-3.071-4.441-3.665-.17-.039-.343-.073-.519-.1-.107-3.812-.295-8.655-.295-8.655a5.983,5.983,0,0,0,4.781-2.394,11.1,11.1,0,0,0,2.3-7.149l-.138-3.613-.09-2.389A9.77,9.77,0,0,0,971.448,1444.537Z" fill="#ffa58c"/><path d="M945.905,1505.444l-6.189-.152c-.7,2.686-1.5,7.136-2.137,11.366h10.23a100.572,100.572,0,0,1,2.184-11.114Z" fill="#ffa58c"/></g></g></svg>