<svg xmlns="http://www.w3.org/2000/svg" xmlns:xlink="http://www.w3.org/1999/xlink" width="101" height="101" viewBox="0 0 101 101"><defs><clipPath id="a"><circle cx="50.5" cy="50.5" r="50.5" transform="translate(1072.611 1224.973)" fill="none"/></clipPath></defs><g transform="translate(-1072.611 -1224.973)"><circle cx="50.5" cy="50.5" r="50.5" transform="translate(1072.611 1224.973)" fill="#f2f2f2"/><g clip-path="url(#a)"><path d="M1148.391,1325.931h10.084c-.276-1.484-.576-2.96-.918-4.424-.5-2.138-.953-4.172-1.412-6.134l-6.877.012C1148.969,1319.306,1148.676,1322.8,1148.391,1325.931Z" fill="#ffa58c"/><path d="M1102.864,1315.438q-1,2.693-1.793,5.461-.714,2.511-1.261,5.074h48.577c.289-3.174.582-6.667.881-10.588l6.877-.012c-1.747-7.465-3.594-13.852-8.434-20.649-3.166-4.88-9.245-8.58-16.6-10.044l-2.665,6.638-2.449-1.577c.03.035-3.942,2.061-3.942,2.061l-9.273-6.372a26.244,26.244,0,0,0-11.49,6.239,6.5,6.5,0,0,0-1.556,1.441c-5.775,7.43-7.772,14.237-9.66,22.305Zm17.433.22a1.229,1.229,0,0,1-1.225,1.225h-8.512a1.226,1.226,0,0,1,0-2.451h8.512A1.229,1.229,0,0,1,1120.3,1315.658Z" fill="#38c3e8"/><path d="M1099.81,1325.973q.549-2.561,1.261-5.074.787-2.769,1.793-5.461l-12.786-.023c-.46,1.961-.913,3.995-1.412,6.134-.342,1.463-.643,2.94-.918,4.424h12.062Z" fill="#ffa58c"/><path d="M1117.881,1268.887c-.057-.309-.1-.624-.167-.938a3.1,3.1,0,0,1-.18-6.1,4.292,4.292,0,0,1,1.968-3.734l7.093-4.557a4.615,4.615,0,0,1,6.98,2.7,11.519,11.519,0,0,1,.33,2.425l.146,4.954a17.592,17.592,0,0,0,.909-7.668l-.558-5.544a51.876,51.876,0,0,0-.8-5.264,2.1,2.1,0,0,0-2.414-1.62,50.576,50.576,0,0,0-16.1,5.983,9.177,9.177,0,0,0-4.629,8.908c.552,5.492,3.48,10.059,7.358,12.314l-.029-1.281A1.609,1.609,0,0,1,1117.881,1268.887Z" fill="#383872"/><path d="M1125.865,1289.591l2.043-8.69.078.091c-.045-2.469-.078-4.478-.078-4.478,3.683-1.062,6.372-5.13,6.232-9.869l-.089-3.014-.146-4.954a11.519,11.519,0,0,0-.33-2.425,4.615,4.615,0,0,0-6.98-2.7l-7.093,4.557a4.292,4.292,0,0,0-1.968,3.734,3.1,3.1,0,0,0,.18,6.1c.066.314.11.629.167.938a1.609,1.609,0,0,0-.1.572l.029,1.281.226,10.064C1118.051,1280.791,1125.865,1289.591,1125.865,1289.591Z" fill="#ffa58c"/><path d="M1126.029,1289.776c-.03-.035,2.419,1.542,2.419,1.542l2.665-6.638c.012-.03-3.127-3.688-3.127-3.688l-.078-.091-2.043,8.69-7.814-8.8-5.3,4.613,9.31,6.4Z" fill="#b4e7fa"/><path d="M1109.335,1315.658a1.229,1.229,0,0,0,1.225,1.225h8.512a1.226,1.226,0,0,0,0-2.451h-8.512A1.229,1.229,0,0,0,1109.335,1315.658Z" fill="#b4e7fa"/></g></g></svg>