<svg xmlns="http://www.w3.org/2000/svg" xmlns:xlink="http://www.w3.org/1999/xlink" width="101" height="101" viewBox="0 0 101 101"><defs><clipPath id="a"><circle cx="50.5" cy="50.5" r="50.5" transform="translate(1159.856 1415.658)" fill="none"/></clipPath></defs><g transform="translate(-1159.856 -1415.658)"><circle cx="50.5" cy="50.5" r="50.5" transform="translate(1159.856 1415.658)" fill="#f2f2f2"/><g clip-path="url(#a)"><path d="M1201.2,1450.995v-.061a1.635,1.635,0,0,0,1.359-.782c.211-.362.276-.8.505-1.145.667-1.016,2.24-.791,3.269-1.437.942-.593,1.347-1.874,2.375-2.3a6.061,6.061,0,0,1,2.361-.077c.795,0,1.75-.416,1.776-1.21.014-.42-.246-.855-.078-1.24.225-.515,1-.462,1.464-.146a2.357,2.357,0,0,1,1.006,1.7c.072.762-.194,1.657.336,2.209.255.267.642.373.9.634a1.715,1.715,0,0,1,.37,1.345,5.715,5.715,0,0,0-.042,1.435,1.225,1.225,0,0,0,.633.874v.24a1.812,1.812,0,0,1,.33-.039,2.451,2.451,0,0,1,2.064,1.422c.634-.727,1.79-1.213,1.855-2.211.037-.579-.341-1.137-.245-1.708s.6-.921.937-1.367c1.438-1.9-.411-4.711.027-7.1a20.158,20.158,0,0,1,.928-2.543,2.6,2.6,0,0,0-.3-2.567c-.687-.715-1.856-.581-2.64-1.175a7.334,7.334,0,0,1-1.3-1.9,3.563,3.563,0,0,0-3.7-1.478c-.731.176-1.473.6-2.189.359-1.017-.336-1.58-1.89-2.634-1.722-.717.115-1.087,1-1.746,1.317-.835.407-1.768-.194-2.659-.432a3.5,3.5,0,0,0-3.5,1.12c-.766.9-1.411,2.329-2.542,2.152-.4-.063-.752-.342-1.154-.406-.85-.132-1.559.74-1.792,1.612s-.182,1.815-.479,2.665a11.294,11.294,0,0,1-1.723,2.583,3.049,3.049,0,0,0-.572,2.948c.352.728,1.157,1.15,1.418,1.919.685,2.013-.75,3.912.37,6.153a5.109,5.109,0,0,0,2.276,2.442c.081.286.171.565.261.843C1198.836,1452.269,1199.89,1450.982,1201.2,1450.995Z" fill="#383872"/><path d="M1237.044,1505.275l5.409-.01a50.781,50.781,0,0,0-5.246-16.08c-1.843-6.11-8.008-11.428-17.61-13.547l1.037.667-6.211,9.91-4.624-2.378-.661-.133-4.625,2.379-6.1-9.737c-8.057,2.455-13.243,7.323-14.907,12.839a50.8,50.8,0,0,0-5.245,16.08l5.409.01c.32,4.277.632,8.051.934,11.383h51.507C1236.412,1513.326,1236.724,1509.552,1237.044,1505.275Zm-27.444-16.417a1.124,1.124,0,1,1,1.124-1.123A1.123,1.123,0,0,1,1209.6,1488.858Z" fill="#ffdc85"/><path d="M1209.138,1483.7l.661.133,5.285-11.1c.03.019,0-7.434,0-7.434a11.968,11.968,0,0,0,2.38-7.4l0-.493a2.035,2.035,0,0,0,.331.047c1.382.016,2.5-1.417,2.49-3.2a3.921,3.921,0,0,0-.451-1.838,2.451,2.451,0,0,0-2.064-1.422,1.812,1.812,0,0,0-.33.039v-.24a1.225,1.225,0,0,1-.633-.874,5.715,5.715,0,0,1,.042-1.435,1.715,1.715,0,0,0-.37-1.345c-.262-.261-.649-.367-.9-.634-.53-.552-.264-1.447-.336-2.209a2.357,2.357,0,0,0-1.006-1.7c-.464-.316-1.239-.369-1.464.146-.168.385.092.82.078,1.24-.026.794-.981,1.214-1.776,1.21a6.061,6.061,0,0,0-2.361.077c-1.028.428-1.433,1.709-2.375,2.3-1.029.646-2.6.421-3.269,1.437-.229.349-.294.783-.505,1.145a1.635,1.635,0,0,1-1.359.782v.061c-1.307-.013-2.361,1.274-2.466,2.922-.006.093-.021.183-.02.279.006,1.782,1.13,3.24,2.51,3.259v.257a12.262,12.262,0,0,0,2.485,7.512l.032,7.454.114-.073Zm-5.151-18.288V1461.1a3.938,3.938,0,0,1,3.927-3.927h3.062a3.938,3.938,0,0,1,3.927,3.927v4.312a3.939,3.939,0,0,1-3.927,3.928h-3.062A3.939,3.939,0,0,1,1203.987,1465.416Z" fill="#ffa58c"/><path d="M1209.138,1483.7l-5.285-11.1-.113.073-5.437,3.495.109.174,6.1,9.737Z" fill="#7f5699"/><path d="M1209.8,1483.837l4.624,2.378,6.211-9.91-1.037-.667-4.483-2.882C1215.084,1472.737,1209.8,1483.837,1209.8,1483.837Z" fill="#7f5699"/><path d="M1209.6,1486.611a1.124,1.124,0,1,0,1.124,1.124A1.123,1.123,0,0,0,1209.6,1486.611Z" fill="#7f5699"/><path d="M1207.914,1469.344h3.062a3.939,3.939,0,0,0,3.927-3.928V1461.1a3.938,3.938,0,0,0-3.927-3.927h-3.062a3.938,3.938,0,0,0-3.927,3.927v4.312A3.939,3.939,0,0,0,1207.914,1469.344Zm.594-9.6h1.875a.688.688,0,0,1,0,1.375h-1.875a.688.688,0,1,1,0-1.375Z" fill="#383872"/><path d="M1208.508,1461.114h1.875a.688.688,0,0,0,0-1.375h-1.875a.688.688,0,1,0,0,1.375Z" fill="#ffa58c"/></g></g></svg>