<svg xmlns="http://www.w3.org/2000/svg" xmlns:xlink="http://www.w3.org/1999/xlink" width="101" height="101" viewBox="0 0 101 101"><defs><clipPath id="a"><circle cx="50.5" cy="50.5" r="50.5" transform="translate(639.919 1415.658)" fill="none"/></clipPath></defs><g transform="translate(-639.919 -1415.658)"><circle cx="50.5" cy="50.5" r="50.5" transform="translate(639.919 1415.658)" fill="#f2f2f2"/><g clip-path="url(#a)"><path d="M672.19,1509.763c.554.16,1.1.306,1.617.429-.107-1.236-.215-2.462-.32-3.663C673.065,1507.538,672.628,1508.629,672.19,1509.763Z" fill="#ff6144"/><path d="M667.458,1500.989l-2.264-.511a84.783,84.783,0,0,1,13.131-19.555,5.213,5.213,0,0,1,1.347-1.093,19.2,19.2,0,0,1,5.021-3.09,1.876,1.876,0,0,1,1.7-1.675c-.089-4.117-.3-13.77-.386-16.293a1.253,1.253,0,0,1-1.715-1.191,1.093,1.093,0,0,1,.028-.139,3.22,3.22,0,0,1-.889-2.172,2.745,2.745,0,0,1,2.372-3.032,4.161,4.161,0,0,1,1.91-3.623l10.683-4.892a9.787,9.787,0,0,1,3.289,7.167l.228,6c.136,4.6-2.674,9.627-7.083,9.543,0,0,.19,4.9.3,8.72a20.421,20.421,0,0,1,10.836,4.237c-.522-3.119-.887-6.221.231-9.245,1.215-3.288,4.094-6.183,5.723-9.389,2.657-5.225,1.745-11.225-2.426-15.958-1.479-1.679-3.249-2.436-5.362-3.624-3.12-1.754-2.914-1.987-4.38-4.507-1.922-3.3-5.382-3.2-10.764-2.514-10.208,1.3-22.356,6.706-23.619,14.108-.926,5.427,3.874,11.713-1.216,15.955-2.409,2.007-6.488,2.871-8.722,4.97-4.877,4.582,1.475,10.9,3.538,14.216,2.529,4.063-1.449,4.911-4.273,7.665-2.8,2.727-2.194,6.563.285,9.418a27.883,27.883,0,0,0,7.858,5.507c.851-2.155,1.678-4.108,2.361-5.516Z" fill="#ff6144"/><path d="M712.952,1503.354q-.075.873-.154,1.774c1.4,3.1,3.173,7.631,4.635,11.53H728c-1.614-4.517-3.875-10.547-5.441-13.992Z" fill="#ffa58c"/><path d="M722.558,1502.666c-3.549-7.805-7.994-15.174-13.915-20.933a5.51,5.51,0,0,0-.85-.68,19.412,19.412,0,0,0-1.834-1.661,20.421,20.421,0,0,0-10.836-4.237q.012.418.022.816a7.5,7.5,0,0,1,2.717,2.772l2.465,4.683c1.081,2.054.285,3.735-1.769,3.735h-5.24a7.294,7.294,0,0,1-5.7-3.735l-2.464-4.683a3.493,3.493,0,0,1-.459-2,19.2,19.2,0,0,0-5.021,3.09,5.213,5.213,0,0,0-1.347,1.093,84.783,84.783,0,0,0-13.131,19.555l2.264.511,5.661,1.279c.115,1.364.24,2.794.368,4.261.1,1.2.213,2.427.32,3.663.186,2.152.372,4.334.54,6.466h37.469c.3-3.836.66-7.834.982-11.53q.08-.9.154-1.774Z" fill="#875fa1"/><path d="M673.119,1502.268l-5.661-1.279-2.265-.511c-.683,1.408-1.51,3.361-2.361,5.516-1.383,3.5-2.831,7.54-3.842,10.664h10.682c.766-2.214,1.643-4.632,2.518-6.9.438-1.134.875-2.225,1.3-3.234C673.359,1505.062,673.234,1503.632,673.119,1502.268Z" fill="#ffa58c"/><path d="M692.9,1479.279h-4.081a2.387,2.387,0,0,1-2.386-2.333s-.015-.726-.04-1.881a1.876,1.876,0,0,0-1.7,1.675,3.493,3.493,0,0,0,.459,2l2.464,4.683a7.294,7.294,0,0,0,5.7,3.735h5.24c2.054,0,2.85-1.681,1.769-3.735l-2.465-4.683a7.5,7.5,0,0,0-2.717-2.772c.008.342.017.675.023.985A2.269,2.269,0,0,1,692.9,1479.279Z" fill="#b4e7fa"/><path d="M701.91,1456.892l-.228-6a9.787,9.787,0,0,0-3.289-7.167l-10.683,4.892a4.161,4.161,0,0,0-1.91,3.623,2.745,2.745,0,0,0-2.372,3.032,3.22,3.22,0,0,0,.889,2.172,1.265,1.265,0,0,1,1.251-1.14,1.272,1.272,0,0,1,.436,2.47c.086,2.523.3,12.176.386,16.293.025,1.155.04,1.881.04,1.881a2.387,2.387,0,0,0,2.386,2.333H692.9a2.269,2.269,0,0,0,2.271-2.323c-.006-.31-.015-.643-.023-.985q-.011-.4-.022-.816c-.106-3.821-.3-8.72-.3-8.72C699.236,1466.519,702.046,1461.49,701.91,1456.892Z" fill="#ffa58c"/><path d="M686.847,1457.581a1.279,1.279,0,0,0-1.279-1.279,1.265,1.265,0,0,0-1.251,1.14,1.093,1.093,0,0,0-.028.139,1.279,1.279,0,0,0,2.558,0Z" fill="#b4e7fa"/></g></g></svg>