<?xml version="1.0" encoding="utf-8"?>
<!DOCTYPE svg PUBLIC "-//W3C//DTD SVG 1.1//EN" "http://www.w3.org/Graphics/SVG/1.1/DTD/svg11.dtd">
<svg version="1.1" id="Layer_1" xmlns="http://www.w3.org/2000/svg" xmlns:xlink="http://www.w3.org/1999/xlink" x="0px" y="0px"
width="696px" height="696px" viewBox="0 0 696 696" enable-background="new 0 0 696 696" xml:space="preserve">
<rect x="0" y="0" width="696" height="696" fill="rgb(255,255,255)" /><g transform="translate(48,48)"><g transform="translate(192,0) scale(0.24,0.24)"><g transform="" style="fill: rgb(31, 186, 230);">
<rect width="100" height="100"/>
</g></g><g transform="translate(288,0) scale(0.24,0.24)"><g transform="" style="fill: rgb(31, 186, 230);">
<rect width="100" height="100"/>
</g></g><g transform="translate(336,0) scale(0.24,0.24)"><g transform="" style="fill: rgb(31, 186, 230);">
<rect width="100" height="100"/>
</g></g><g transform="translate(192,24) scale(0.24,0.24)"><g transform="" style="fill: rgb(31, 186, 230);">
<rect width="100" height="100"/>
</g></g><g transform="translate(216,24) scale(0.24,0.24)"><g transform="" style="fill: rgb(31, 186, 230);">
<rect width="100" height="100"/>
</g></g><g transform="translate(312,24) scale(0.24,0.24)"><g transform="" style="fill: rgb(31, 186, 230);">
<rect width="100" height="100"/>
</g></g><g transform="translate(336,24) scale(0.24,0.24)"><g transform="" style="fill: rgb(31, 186, 230);">
<rect width="100" height="100"/>
</g></g><g transform="translate(384,24) scale(0.24,0.24)"><g transform="" style="fill: rgb(31, 186, 230);">
<rect width="100" height="100"/>
</g></g><g transform="translate(192,48) scale(0.24,0.24)"><g transform="" style="fill: rgb(31, 186, 230);">
<rect width="100" height="100"/>
</g></g><g transform="translate(216,48) scale(0.24,0.24)"><g transform="" style="fill: rgb(31, 186, 230);">
<rect width="100" height="100"/>
</g></g><g transform="translate(312,48) scale(0.24,0.24)"><g transform="" style="fill: rgb(31, 186, 230);">
<rect width="100" height="100"/>
</g></g><g transform="translate(336,48) scale(0.24,0.24)"><g transform="" style="fill: rgb(31, 186, 230);">
<rect width="100" height="100"/>
</g></g><g transform="translate(240,72) scale(0.24,0.24)"><g transform="" style="fill: rgb(31, 186, 230);">
<rect width="100" height="100"/>
</g></g><g transform="translate(264,72) scale(0.24,0.24)"><g transform="" style="fill: rgb(31, 186, 230);">
<rect width="100" height="100"/>
</g></g><g transform="translate(312,72) scale(0.24,0.24)"><g transform="" style="fill: rgb(31, 186, 230);">
<rect width="100" height="100"/>
</g></g><g transform="translate(384,72) scale(0.24,0.24)"><g transform="" style="fill: rgb(31, 186, 230);">
<rect width="100" height="100"/>
</g></g><g transform="translate(192,96) scale(0.24,0.24)"><g transform="" style="fill: rgb(31, 186, 230);">
<rect width="100" height="100"/>
</g></g><g transform="translate(264,96) scale(0.24,0.24)"><g transform="" style="fill: rgb(31, 186, 230);">
<rect width="100" height="100"/>
</g></g><g transform="translate(288,96) scale(0.24,0.24)"><g transform="" style="fill: rgb(31, 186, 230);">
<rect width="100" height="100"/>
</g></g><g transform="translate(336,96) scale(0.24,0.24)"><g transform="" style="fill: rgb(31, 186, 230);">
<rect width="100" height="100"/>
</g></g><g transform="translate(384,96) scale(0.24,0.24)"><g transform="" style="fill: rgb(31, 186, 230);">
<rect width="100" height="100"/>
</g></g><g transform="translate(336,120) scale(0.24,0.24)"><g transform="" style="fill: rgb(31, 186, 230);">
<rect width="100" height="100"/>
</g></g><g transform="translate(192,144) scale(0.24,0.24)"><g transform="" style="fill: rgb(31, 186, 230);">
<rect width="100" height="100"/>
</g></g><g transform="translate(240,144) scale(0.24,0.24)"><g transform="" style="fill: rgb(31, 186, 230);">
<rect width="100" height="100"/>
</g></g><g transform="translate(288,144) scale(0.24,0.24)"><g transform="" style="fill: rgb(31, 186, 230);">
<rect width="100" height="100"/>
</g></g><g transform="translate(336,144) scale(0.24,0.24)"><g transform="" style="fill: rgb(31, 186, 230);">
<rect width="100" height="100"/>
</g></g><g transform="translate(384,144) scale(0.24,0.24)"><g transform="" style="fill: rgb(31, 186, 230);">
<rect width="100" height="100"/>
</g></g><g transform="translate(216,168) scale(0.24,0.24)"><g transform="" style="fill: rgb(31, 186, 230);">
<rect width="100" height="100"/>
</g></g><g transform="translate(240,168) scale(0.24,0.24)"><g transform="" style="fill: rgb(31, 186, 230);">
<rect width="100" height="100"/>
</g></g><g transform="translate(288,168) scale(0.24,0.24)"><g transform="" style="fill: rgb(31, 186, 230);">
<rect width="100" height="100"/>
</g></g><g transform="translate(312,168) scale(0.24,0.24)"><g transform="" style="fill: rgb(31, 186, 230);">
<rect width="100" height="100"/>
</g></g><g transform="translate(384,168) scale(0.24,0.24)"><g transform="" style="fill: rgb(31, 186, 230);">
<rect width="100" height="100"/>
</g></g><g transform="translate(0,192) scale(0.24,0.24)"><g transform="" style="fill: rgb(31, 186, 230);">
<rect width="100" height="100"/>
</g></g><g transform="translate(72,192) scale(0.24,0.24)"><g transform="" style="fill: rgb(31, 186, 230);">
<rect width="100" height="100"/>
</g></g><g transform="translate(96,192) scale(0.24,0.24)"><g transform="" style="fill: rgb(31, 186, 230);">
<rect width="100" height="100"/>
</g></g><g transform="translate(120,192) scale(0.24,0.24)"><g transform="" style="fill: rgb(31, 186, 230);">
<rect width="100" height="100"/>
</g></g><g transform="translate(144,192) scale(0.24,0.24)"><g transform="" style="fill: rgb(31, 186, 230);">
<rect width="100" height="100"/>
</g></g><g transform="translate(168,192) scale(0.24,0.24)"><g transform="" style="fill: rgb(31, 186, 230);">
<rect width="100" height="100"/>
</g></g><g transform="translate(192,192) scale(0.24,0.24)"><g transform="" style="fill: rgb(31, 186, 230);">
<rect width="100" height="100"/>
</g></g><g transform="translate(216,192) scale(0.24,0.24)"><g transform="" style="fill: rgb(31, 186, 230);">
<rect width="100" height="100"/>
</g></g><g transform="translate(240,192) scale(0.24,0.24)"><g transform="" style="fill: rgb(31, 186, 230);">
<rect width="100" height="100"/>
</g></g><g transform="translate(360,192) scale(0.24,0.24)"><g transform="" style="fill: rgb(31, 186, 230);">
<rect width="100" height="100"/>
</g></g><g transform="translate(408,192) scale(0.24,0.24)"><g transform="" style="fill: rgb(31, 186, 230);">
<rect width="100" height="100"/>
</g></g><g transform="translate(480,192) scale(0.24,0.24)"><g transform="" style="fill: rgb(31, 186, 230);">
<rect width="100" height="100"/>
</g></g><g transform="translate(528,192) scale(0.24,0.24)"><g transform="" style="fill: rgb(31, 186, 230);">
<rect width="100" height="100"/>
</g></g><g transform="translate(552,192) scale(0.24,0.24)"><g transform="" style="fill: rgb(31, 186, 230);">
<rect width="100" height="100"/>
</g></g><g transform="translate(576,192) scale(0.24,0.24)"><g transform="" style="fill: rgb(31, 186, 230);">
<rect width="100" height="100"/>
</g></g><g transform="translate(48,216) scale(0.24,0.24)"><g transform="" style="fill: rgb(31, 186, 230);">
<rect width="100" height="100"/>
</g></g><g transform="translate(120,216) scale(0.24,0.24)"><g transform="" style="fill: rgb(31, 186, 230);">
<rect width="100" height="100"/>
</g></g><g transform="translate(192,216) scale(0.24,0.24)"><g transform="" style="fill: rgb(31, 186, 230);">
<rect width="100" height="100"/>
</g></g><g transform="translate(240,216) scale(0.24,0.24)"><g transform="" style="fill: rgb(31, 186, 230);">
<rect width="100" height="100"/>
</g></g><g transform="translate(288,216) scale(0.24,0.24)"><g transform="" style="fill: rgb(31, 186, 230);">
<rect width="100" height="100"/>
</g></g><g transform="translate(312,216) scale(0.24,0.24)"><g transform="" style="fill: rgb(31, 186, 230);">
<rect width="100" height="100"/>
</g></g><g transform="translate(336,216) scale(0.24,0.24)"><g transform="" style="fill: rgb(31, 186, 230);">
<rect width="100" height="100"/>
</g></g><g transform="translate(360,216) scale(0.24,0.24)"><g transform="" style="fill: rgb(31, 186, 230);">
<rect width="100" height="100"/>
</g></g><g transform="translate(408,216) scale(0.24,0.24)"><g transform="" style="fill: rgb(31, 186, 230);">
<rect width="100" height="100"/>
</g></g><g transform="translate(456,216) scale(0.24,0.24)"><g transform="" style="fill: rgb(31, 186, 230);">
<rect width="100" height="100"/>
</g></g><g transform="translate(480,216) scale(0.24,0.24)"><g transform="" style="fill: rgb(31, 186, 230);">
<rect width="100" height="100"/>
</g></g><g transform="translate(504,216) scale(0.24,0.24)"><g transform="" style="fill: rgb(31, 186, 230);">
<rect width="100" height="100"/>
</g></g><g transform="translate(528,216) scale(0.24,0.24)"><g transform="" style="fill: rgb(31, 186, 230);">
<rect width="100" height="100"/>
</g></g><g transform="translate(552,216) scale(0.24,0.24)"><g transform="" style="fill: rgb(31, 186, 230);">
<rect width="100" height="100"/>
</g></g><g transform="translate(0,240) scale(0.24,0.24)"><g transform="" style="fill: rgb(31, 186, 230);">
<rect width="100" height="100"/>
</g></g><g transform="translate(48,240) scale(0.24,0.24)"><g transform="" style="fill: rgb(31, 186, 230);">
<rect width="100" height="100"/>
</g></g><g transform="translate(72,240) scale(0.24,0.24)"><g transform="" style="fill: rgb(31, 186, 230);">
<rect width="100" height="100"/>
</g></g><g transform="translate(96,240) scale(0.24,0.24)"><g transform="" style="fill: rgb(31, 186, 230);">
<rect width="100" height="100"/>
</g></g><g transform="translate(120,240) scale(0.24,0.24)"><g transform="" style="fill: rgb(31, 186, 230);">
<rect width="100" height="100"/>
</g></g><g transform="translate(144,240) scale(0.24,0.24)"><g transform="" style="fill: rgb(31, 186, 230);">
<rect width="100" height="100"/>
</g></g><g transform="translate(216,240) scale(0.24,0.24)"><g transform="" style="fill: rgb(31, 186, 230);">
<rect width="100" height="100"/>
</g></g><g transform="translate(240,240) scale(0.24,0.24)"><g transform="" style="fill: rgb(31, 186, 230);">
<rect width="100" height="100"/>
</g></g><g transform="translate(288,240) scale(0.24,0.24)"><g transform="" style="fill: rgb(31, 186, 230);">
<rect width="100" height="100"/>
</g></g><g transform="translate(312,240) scale(0.24,0.24)"><g transform="" style="fill: rgb(31, 186, 230);">
<rect width="100" height="100"/>
</g></g><g transform="translate(360,240) scale(0.24,0.24)"><g transform="" style="fill: rgb(31, 186, 230);">
<rect width="100" height="100"/>
</g></g><g transform="translate(408,240) scale(0.24,0.24)"><g transform="" style="fill: rgb(31, 186, 230);">
<rect width="100" height="100"/>
</g></g><g transform="translate(456,240) scale(0.24,0.24)"><g transform="" style="fill: rgb(31, 186, 230);">
<rect width="100" height="100"/>
</g></g><g transform="translate(480,240) scale(0.24,0.24)"><g transform="" style="fill: rgb(31, 186, 230);">
<rect width="100" height="100"/>
</g></g><g transform="translate(504,240) scale(0.24,0.24)"><g transform="" style="fill: rgb(31, 186, 230);">
<rect width="100" height="100"/>
</g></g><g transform="translate(576,240) scale(0.24,0.24)"><g transform="" style="fill: rgb(31, 186, 230);">
<rect width="100" height="100"/>
</g></g><g transform="translate(24,264) scale(0.24,0.24)"><g transform="" style="fill: rgb(31, 186, 230);">
<rect width="100" height="100"/>
</g></g><g transform="translate(48,264) scale(0.24,0.24)"><g transform="" style="fill: rgb(31, 186, 230);">
<rect width="100" height="100"/>
</g></g><g transform="translate(120,264) scale(0.24,0.24)"><g transform="" style="fill: rgb(31, 186, 230);">
<rect width="100" height="100"/>
</g></g><g transform="translate(192,264) scale(0.24,0.24)"><g transform="" style="fill: rgb(31, 186, 230);">
<rect width="100" height="100"/>
</g></g><g transform="translate(216,264) scale(0.24,0.24)"><g transform="" style="fill: rgb(31, 186, 230);">
<rect width="100" height="100"/>
</g></g><g transform="translate(240,264) scale(0.24,0.24)"><g transform="" style="fill: rgb(31, 186, 230);">
<rect width="100" height="100"/>
</g></g><g transform="translate(264,264) scale(0.24,0.24)"><g transform="" style="fill: rgb(31, 186, 230);">
<rect width="100" height="100"/>
</g></g><g transform="translate(288,264) scale(0.24,0.24)"><g transform="" style="fill: rgb(31, 186, 230);">
<rect width="100" height="100"/>
</g></g><g transform="translate(432,264) scale(0.24,0.24)"><g transform="" style="fill: rgb(31, 186, 230);">
<rect width="100" height="100"/>
</g></g><g transform="translate(456,264) scale(0.24,0.24)"><g transform="" style="fill: rgb(31, 186, 230);">
<rect width="100" height="100"/>
</g></g><g transform="translate(480,264) scale(0.24,0.24)"><g transform="" style="fill: rgb(31, 186, 230);">
<rect width="100" height="100"/>
</g></g><g transform="translate(504,264) scale(0.24,0.24)"><g transform="" style="fill: rgb(31, 186, 230);">
<rect width="100" height="100"/>
</g></g><g transform="translate(528,264) scale(0.24,0.24)"><g transform="" style="fill: rgb(31, 186, 230);">
<rect width="100" height="100"/>
</g></g><g transform="translate(552,264) scale(0.24,0.24)"><g transform="" style="fill: rgb(31, 186, 230);">
<rect width="100" height="100"/>
</g></g><g transform="translate(576,264) scale(0.24,0.24)"><g transform="" style="fill: rgb(31, 186, 230);">
<rect width="100" height="100"/>
</g></g><g transform="translate(0,288) scale(0.24,0.24)"><g transform="" style="fill: rgb(31, 186, 230);">
<rect width="100" height="100"/>
</g></g><g transform="translate(96,288) scale(0.24,0.24)"><g transform="" style="fill: rgb(31, 186, 230);">
<rect width="100" height="100"/>
</g></g><g transform="translate(144,288) scale(0.24,0.24)"><g transform="" style="fill: rgb(31, 186, 230);">
<rect width="100" height="100"/>
</g></g><g transform="translate(168,288) scale(0.24,0.24)"><g transform="" style="fill: rgb(31, 186, 230);">
<rect width="100" height="100"/>
</g></g><g transform="translate(216,288) scale(0.24,0.24)"><g transform="" style="fill: rgb(31, 186, 230);">
<rect width="100" height="100"/>
</g></g><g transform="translate(288,288) scale(0.24,0.24)"><g transform="" style="fill: rgb(31, 186, 230);">
<rect width="100" height="100"/>
</g></g><g transform="translate(360,288) scale(0.24,0.24)"><g transform="" style="fill: rgb(31, 186, 230);">
<rect width="100" height="100"/>
</g></g><g transform="translate(384,288) scale(0.24,0.24)"><g transform="" style="fill: rgb(31, 186, 230);">
<rect width="100" height="100"/>
</g></g><g transform="translate(408,288) scale(0.24,0.24)"><g transform="" style="fill: rgb(31, 186, 230);">
<rect width="100" height="100"/>
</g></g><g transform="translate(432,288) scale(0.24,0.24)"><g transform="" style="fill: rgb(31, 186, 230);">
<rect width="100" height="100"/>
</g></g><g transform="translate(456,288) scale(0.24,0.24)"><g transform="" style="fill: rgb(31, 186, 230);">
<rect width="100" height="100"/>
</g></g><g transform="translate(576,288) scale(0.24,0.24)"><g transform="" style="fill: rgb(31, 186, 230);">
<rect width="100" height="100"/>
</g></g><g transform="translate(0,312) scale(0.24,0.24)"><g transform="" style="fill: rgb(31, 186, 230);">
<rect width="100" height="100"/>
</g></g><g transform="translate(24,312) scale(0.24,0.24)"><g transform="" style="fill: rgb(31, 186, 230);">
<rect width="100" height="100"/>
</g></g><g transform="translate(72,312) scale(0.24,0.24)"><g transform="" style="fill: rgb(31, 186, 230);">
<rect width="100" height="100"/>
</g></g><g transform="translate(96,312) scale(0.24,0.24)"><g transform="" style="fill: rgb(31, 186, 230);">
<rect width="100" height="100"/>
</g></g><g transform="translate(120,312) scale(0.24,0.24)"><g transform="" style="fill: rgb(31, 186, 230);">
<rect width="100" height="100"/>
</g></g><g transform="translate(312,312) scale(0.24,0.24)"><g transform="" style="fill: rgb(31, 186, 230);">
<rect width="100" height="100"/>
</g></g><g transform="translate(336,312) scale(0.24,0.24)"><g transform="" style="fill: rgb(31, 186, 230);">
<rect width="100" height="100"/>
</g></g><g transform="translate(360,312) scale(0.24,0.24)"><g transform="" style="fill: rgb(31, 186, 230);">
<rect width="100" height="100"/>
</g></g><g transform="translate(384,312) scale(0.24,0.24)"><g transform="" style="fill: rgb(31, 186, 230);">
<rect width="100" height="100"/>
</g></g><g transform="translate(480,312) scale(0.24,0.24)"><g transform="" style="fill: rgb(31, 186, 230);">
<rect width="100" height="100"/>
</g></g><g transform="translate(552,312) scale(0.24,0.24)"><g transform="" style="fill: rgb(31, 186, 230);">
<rect width="100" height="100"/>
</g></g><g transform="translate(0,336) scale(0.24,0.24)"><g transform="" style="fill: rgb(31, 186, 230);">
<rect width="100" height="100"/>
</g></g><g transform="translate(24,336) scale(0.24,0.24)"><g transform="" style="fill: rgb(31, 186, 230);">
<rect width="100" height="100"/>
</g></g><g transform="translate(72,336) scale(0.24,0.24)"><g transform="" style="fill: rgb(31, 186, 230);">
<rect width="100" height="100"/>
</g></g><g transform="translate(96,336) scale(0.24,0.24)"><g transform="" style="fill: rgb(31, 186, 230);">
<rect width="100" height="100"/>
</g></g><g transform="translate(120,336) scale(0.24,0.24)"><g transform="" style="fill: rgb(31, 186, 230);">
<rect width="100" height="100"/>
</g></g><g transform="translate(144,336) scale(0.24,0.24)"><g transform="" style="fill: rgb(31, 186, 230);">
<rect width="100" height="100"/>
</g></g><g transform="translate(192,336) scale(0.24,0.24)"><g transform="" style="fill: rgb(31, 186, 230);">
<rect width="100" height="100"/>
</g></g><g transform="translate(216,336) scale(0.24,0.24)"><g transform="" style="fill: rgb(31, 186, 230);">
<rect width="100" height="100"/>
</g></g><g transform="translate(240,336) scale(0.24,0.24)"><g transform="" style="fill: rgb(31, 186, 230);">
<rect width="100" height="100"/>
</g></g><g transform="translate(264,336) scale(0.24,0.24)"><g transform="" style="fill: rgb(31, 186, 230);">
<rect width="100" height="100"/>
</g></g><g transform="translate(288,336) scale(0.24,0.24)"><g transform="" style="fill: rgb(31, 186, 230);">
<rect width="100" height="100"/>
</g></g><g transform="translate(360,336) scale(0.24,0.24)"><g transform="" style="fill: rgb(31, 186, 230);">
<rect width="100" height="100"/>
</g></g><g transform="translate(408,336) scale(0.24,0.24)"><g transform="" style="fill: rgb(31, 186, 230);">
<rect width="100" height="100"/>
</g></g><g transform="translate(480,336) scale(0.24,0.24)"><g transform="" style="fill: rgb(31, 186, 230);">
<rect width="100" height="100"/>
</g></g><g transform="translate(504,336) scale(0.24,0.24)"><g transform="" style="fill: rgb(31, 186, 230);">
<rect width="100" height="100"/>
</g></g><g transform="translate(528,336) scale(0.24,0.24)"><g transform="" style="fill: rgb(31, 186, 230);">
<rect width="100" height="100"/>
</g></g><g transform="translate(552,336) scale(0.24,0.24)"><g transform="" style="fill: rgb(31, 186, 230);">
<rect width="100" height="100"/>
</g></g><g transform="translate(576,336) scale(0.24,0.24)"><g transform="" style="fill: rgb(31, 186, 230);">
<rect width="100" height="100"/>
</g></g><g transform="translate(0,360) scale(0.24,0.24)"><g transform="" style="fill: rgb(31, 186, 230);">
<rect width="100" height="100"/>
</g></g><g transform="translate(120,360) scale(0.24,0.24)"><g transform="" style="fill: rgb(31, 186, 230);">
<rect width="100" height="100"/>
</g></g><g transform="translate(192,360) scale(0.24,0.24)"><g transform="" style="fill: rgb(31, 186, 230);">
<rect width="100" height="100"/>
</g></g><g transform="translate(240,360) scale(0.24,0.24)"><g transform="" style="fill: rgb(31, 186, 230);">
<rect width="100" height="100"/>
</g></g><g transform="translate(264,360) scale(0.24,0.24)"><g transform="" style="fill: rgb(31, 186, 230);">
<rect width="100" height="100"/>
</g></g><g transform="translate(360,360) scale(0.24,0.24)"><g transform="" style="fill: rgb(31, 186, 230);">
<rect width="100" height="100"/>
</g></g><g transform="translate(456,360) scale(0.24,0.24)"><g transform="" style="fill: rgb(31, 186, 230);">
<rect width="100" height="100"/>
</g></g><g transform="translate(504,360) scale(0.24,0.24)"><g transform="" style="fill: rgb(31, 186, 230);">
<rect width="100" height="100"/>
</g></g><g transform="translate(528,360) scale(0.24,0.24)"><g transform="" style="fill: rgb(31, 186, 230);">
<rect width="100" height="100"/>
</g></g><g transform="translate(576,360) scale(0.24,0.24)"><g transform="" style="fill: rgb(31, 186, 230);">
<rect width="100" height="100"/>
</g></g><g transform="translate(0,384) scale(0.24,0.24)"><g transform="" style="fill: rgb(31, 186, 230);">
<rect width="100" height="100"/>
</g></g><g transform="translate(48,384) scale(0.24,0.24)"><g transform="" style="fill: rgb(31, 186, 230);">
<rect width="100" height="100"/>
</g></g><g transform="translate(72,384) scale(0.24,0.24)"><g transform="" style="fill: rgb(31, 186, 230);">
<rect width="100" height="100"/>
</g></g><g transform="translate(96,384) scale(0.24,0.24)"><g transform="" style="fill: rgb(31, 186, 230);">
<rect width="100" height="100"/>
</g></g><g transform="translate(144,384) scale(0.24,0.24)"><g transform="" style="fill: rgb(31, 186, 230);">
<rect width="100" height="100"/>
</g></g><g transform="translate(168,384) scale(0.24,0.24)"><g transform="" style="fill: rgb(31, 186, 230);">
<rect width="100" height="100"/>
</g></g><g transform="translate(312,384) scale(0.24,0.24)"><g transform="" style="fill: rgb(31, 186, 230);">
<rect width="100" height="100"/>
</g></g><g transform="translate(384,384) scale(0.24,0.24)"><g transform="" style="fill: rgb(31, 186, 230);">
<rect width="100" height="100"/>
</g></g><g transform="translate(408,384) scale(0.24,0.24)"><g transform="" style="fill: rgb(31, 186, 230);">
<rect width="100" height="100"/>
</g></g><g transform="translate(432,384) scale(0.24,0.24)"><g transform="" style="fill: rgb(31, 186, 230);">
<rect width="100" height="100"/>
</g></g><g transform="translate(456,384) scale(0.24,0.24)"><g transform="" style="fill: rgb(31, 186, 230);">
<rect width="100" height="100"/>
</g></g><g transform="translate(480,384) scale(0.24,0.24)"><g transform="" style="fill: rgb(31, 186, 230);">
<rect width="100" height="100"/>
</g></g><g transform="translate(528,384) scale(0.24,0.24)"><g transform="" style="fill: rgb(31, 186, 230);">
<rect width="100" height="100"/>
</g></g><g transform="translate(552,384) scale(0.24,0.24)"><g transform="" style="fill: rgb(31, 186, 230);">
<rect width="100" height="100"/>
</g></g><g transform="translate(192,408) scale(0.24,0.24)"><g transform="" style="fill: rgb(31, 186, 230);">
<rect width="100" height="100"/>
</g></g><g transform="translate(216,408) scale(0.24,0.24)"><g transform="" style="fill: rgb(31, 186, 230);">
<rect width="100" height="100"/>
</g></g><g transform="translate(240,408) scale(0.24,0.24)"><g transform="" style="fill: rgb(31, 186, 230);">
<rect width="100" height="100"/>
</g></g><g transform="translate(264,408) scale(0.24,0.24)"><g transform="" style="fill: rgb(31, 186, 230);">
<rect width="100" height="100"/>
</g></g><g transform="translate(288,408) scale(0.24,0.24)"><g transform="" style="fill: rgb(31, 186, 230);">
<rect width="100" height="100"/>
</g></g><g transform="translate(312,408) scale(0.24,0.24)"><g transform="" style="fill: rgb(31, 186, 230);">
<rect width="100" height="100"/>
</g></g><g transform="translate(384,408) scale(0.24,0.24)"><g transform="" style="fill: rgb(31, 186, 230);">
<rect width="100" height="100"/>
</g></g><g transform="translate(480,408) scale(0.24,0.24)"><g transform="" style="fill: rgb(31, 186, 230);">
<rect width="100" height="100"/>
</g></g><g transform="translate(528,408) scale(0.24,0.24)"><g transform="" style="fill: rgb(31, 186, 230);">
<rect width="100" height="100"/>
</g></g><g transform="translate(552,408) scale(0.24,0.24)"><g transform="" style="fill: rgb(31, 186, 230);">
<rect width="100" height="100"/>
</g></g><g transform="translate(192,432) scale(0.24,0.24)"><g transform="" style="fill: rgb(31, 186, 230);">
<rect width="100" height="100"/>
</g></g><g transform="translate(216,432) scale(0.24,0.24)"><g transform="" style="fill: rgb(31, 186, 230);">
<rect width="100" height="100"/>
</g></g><g transform="translate(264,432) scale(0.24,0.24)"><g transform="" style="fill: rgb(31, 186, 230);">
<rect width="100" height="100"/>
</g></g><g transform="translate(384,432) scale(0.24,0.24)"><g transform="" style="fill: rgb(31, 186, 230);">
<rect width="100" height="100"/>
</g></g><g transform="translate(432,432) scale(0.24,0.24)"><g transform="" style="fill: rgb(31, 186, 230);">
<rect width="100" height="100"/>
</g></g><g transform="translate(480,432) scale(0.24,0.24)"><g transform="" style="fill: rgb(31, 186, 230);">
<rect width="100" height="100"/>
</g></g><g transform="translate(576,432) scale(0.24,0.24)"><g transform="" style="fill: rgb(31, 186, 230);">
<rect width="100" height="100"/>
</g></g><g transform="translate(192,456) scale(0.24,0.24)"><g transform="" style="fill: rgb(31, 186, 230);">
<rect width="100" height="100"/>
</g></g><g transform="translate(216,456) scale(0.24,0.24)"><g transform="" style="fill: rgb(31, 186, 230);">
<rect width="100" height="100"/>
</g></g><g transform="translate(288,456) scale(0.24,0.24)"><g transform="" style="fill: rgb(31, 186, 230);">
<rect width="100" height="100"/>
</g></g><g transform="translate(312,456) scale(0.24,0.24)"><g transform="" style="fill: rgb(31, 186, 230);">
<rect width="100" height="100"/>
</g></g><g transform="translate(360,456) scale(0.24,0.24)"><g transform="" style="fill: rgb(31, 186, 230);">
<rect width="100" height="100"/>
</g></g><g transform="translate(384,456) scale(0.24,0.24)"><g transform="" style="fill: rgb(31, 186, 230);">
<rect width="100" height="100"/>
</g></g><g transform="translate(480,456) scale(0.24,0.24)"><g transform="" style="fill: rgb(31, 186, 230);">
<rect width="100" height="100"/>
</g></g><g transform="translate(552,456) scale(0.24,0.24)"><g transform="" style="fill: rgb(31, 186, 230);">
<rect width="100" height="100"/>
</g></g><g transform="translate(192,480) scale(0.24,0.24)"><g transform="" style="fill: rgb(31, 186, 230);">
<rect width="100" height="100"/>
</g></g><g transform="translate(216,480) scale(0.24,0.24)"><g transform="" style="fill: rgb(31, 186, 230);">
<rect width="100" height="100"/>
</g></g><g transform="translate(288,480) scale(0.24,0.24)"><g transform="" style="fill: rgb(31, 186, 230);">
<rect width="100" height="100"/>
</g></g><g transform="translate(336,480) scale(0.24,0.24)"><g transform="" style="fill: rgb(31, 186, 230);">
<rect width="100" height="100"/>
</g></g><g transform="translate(360,480) scale(0.24,0.24)"><g transform="" style="fill: rgb(31, 186, 230);">
<rect width="100" height="100"/>
</g></g><g transform="translate(384,480) scale(0.24,0.24)"><g transform="" style="fill: rgb(31, 186, 230);">
<rect width="100" height="100"/>
</g></g><g transform="translate(408,480) scale(0.24,0.24)"><g transform="" style="fill: rgb(31, 186, 230);">
<rect width="100" height="100"/>
</g></g><g transform="translate(432,480) scale(0.24,0.24)"><g transform="" style="fill: rgb(31, 186, 230);">
<rect width="100" height="100"/>
</g></g><g transform="translate(456,480) scale(0.24,0.24)"><g transform="" style="fill: rgb(31, 186, 230);">
<rect width="100" height="100"/>
</g></g><g transform="translate(480,480) scale(0.24,0.24)"><g transform="" style="fill: rgb(31, 186, 230);">
<rect width="100" height="100"/>
</g></g><g transform="translate(552,480) scale(0.24,0.24)"><g transform="" style="fill: rgb(31, 186, 230);">
<rect width="100" height="100"/>
</g></g><g transform="translate(576,480) scale(0.24,0.24)"><g transform="" style="fill: rgb(31, 186, 230);">
<rect width="100" height="100"/>
</g></g><g transform="translate(192,504) scale(0.24,0.24)"><g transform="" style="fill: rgb(31, 186, 230);">
<rect width="100" height="100"/>
</g></g><g transform="translate(312,504) scale(0.24,0.24)"><g transform="" style="fill: rgb(31, 186, 230);">
<rect width="100" height="100"/>
</g></g><g transform="translate(336,504) scale(0.24,0.24)"><g transform="" style="fill: rgb(31, 186, 230);">
<rect width="100" height="100"/>
</g></g><g transform="translate(408,504) scale(0.24,0.24)"><g transform="" style="fill: rgb(31, 186, 230);">
<rect width="100" height="100"/>
</g></g><g transform="translate(432,504) scale(0.24,0.24)"><g transform="" style="fill: rgb(31, 186, 230);">
<rect width="100" height="100"/>
</g></g><g transform="translate(552,504) scale(0.24,0.24)"><g transform="" style="fill: rgb(31, 186, 230);">
<rect width="100" height="100"/>
</g></g><g transform="translate(576,504) scale(0.24,0.24)"><g transform="" style="fill: rgb(31, 186, 230);">
<rect width="100" height="100"/>
</g></g><g transform="translate(216,528) scale(0.24,0.24)"><g transform="" style="fill: rgb(31, 186, 230);">
<rect width="100" height="100"/>
</g></g><g transform="translate(288,528) scale(0.24,0.24)"><g transform="" style="fill: rgb(31, 186, 230);">
<rect width="100" height="100"/>
</g></g><g transform="translate(360,528) scale(0.24,0.24)"><g transform="" style="fill: rgb(31, 186, 230);">
<rect width="100" height="100"/>
</g></g><g transform="translate(480,528) scale(0.24,0.24)"><g transform="" style="fill: rgb(31, 186, 230);">
<rect width="100" height="100"/>
</g></g><g transform="translate(504,528) scale(0.24,0.24)"><g transform="" style="fill: rgb(31, 186, 230);">
<rect width="100" height="100"/>
</g></g><g transform="translate(528,528) scale(0.24,0.24)"><g transform="" style="fill: rgb(31, 186, 230);">
<rect width="100" height="100"/>
</g></g><g transform="translate(552,528) scale(0.24,0.24)"><g transform="" style="fill: rgb(31, 186, 230);">
<rect width="100" height="100"/>
</g></g><g transform="translate(576,528) scale(0.24,0.24)"><g transform="" style="fill: rgb(31, 186, 230);">
<rect width="100" height="100"/>
</g></g><g transform="translate(216,552) scale(0.24,0.24)"><g transform="" style="fill: rgb(31, 186, 230);">
<rect width="100" height="100"/>
</g></g><g transform="translate(336,552) scale(0.24,0.24)"><g transform="" style="fill: rgb(31, 186, 230);">
<rect width="100" height="100"/>
</g></g><g transform="translate(360,552) scale(0.24,0.24)"><g transform="" style="fill: rgb(31, 186, 230);">
<rect width="100" height="100"/>
</g></g><g transform="translate(408,552) scale(0.24,0.24)"><g transform="" style="fill: rgb(31, 186, 230);">
<rect width="100" height="100"/>
</g></g><g transform="translate(432,552) scale(0.24,0.24)"><g transform="" style="fill: rgb(31, 186, 230);">
<rect width="100" height="100"/>
</g></g><g transform="translate(456,552) scale(0.24,0.24)"><g transform="" style="fill: rgb(31, 186, 230);">
<rect width="100" height="100"/>
</g></g><g transform="translate(480,552) scale(0.24,0.24)"><g transform="" style="fill: rgb(31, 186, 230);">
<rect width="100" height="100"/>
</g></g><g transform="translate(528,552) scale(0.24,0.24)"><g transform="" style="fill: rgb(31, 186, 230);">
<rect width="100" height="100"/>
</g></g><g transform="translate(552,552) scale(0.24,0.24)"><g transform="" style="fill: rgb(31, 186, 230);">
<rect width="100" height="100"/>
</g></g><g transform="translate(576,552) scale(0.24,0.24)"><g transform="" style="fill: rgb(31, 186, 230);">
<rect width="100" height="100"/>
</g></g><g transform="translate(192,576) scale(0.24,0.24)"><g transform="" style="fill: rgb(31, 186, 230);">
<rect width="100" height="100"/>
</g></g><g transform="translate(216,576) scale(0.24,0.24)"><g transform="" style="fill: rgb(31, 186, 230);">
<rect width="100" height="100"/>
</g></g><g transform="translate(288,576) scale(0.24,0.24)"><g transform="" style="fill: rgb(31, 186, 230);">
<rect width="100" height="100"/>
</g></g><g transform="translate(312,576) scale(0.24,0.24)"><g transform="" style="fill: rgb(31, 186, 230);">
<rect width="100" height="100"/>
</g></g><g transform="translate(336,576) scale(0.24,0.24)"><g transform="" style="fill: rgb(31, 186, 230);">
<rect width="100" height="100"/>
</g></g><g transform="translate(384,576) scale(0.24,0.24)"><g transform="" style="fill: rgb(31, 186, 230);">
<rect width="100" height="100"/>
</g></g><g transform="translate(408,576) scale(0.24,0.24)"><g transform="" style="fill: rgb(31, 186, 230);">
<rect width="100" height="100"/>
</g></g><g transform="translate(432,576) scale(0.24,0.24)"><g transform="" style="fill: rgb(31, 186, 230);">
<rect width="100" height="100"/>
</g></g><g transform="translate(504,576) scale(0.24,0.24)"><g transform="" style="fill: rgb(31, 186, 230);">
<rect width="100" height="100"/>
</g></g><g transform="translate(576,576) scale(0.24,0.24)"><g transform="" style="fill: rgb(31, 186, 230);">
<rect width="100" height="100"/>
</g></g><g transform="translate(0,0) scale(1.68, 1.68)"><g transform="" style="fill: rgb(31, 186, 230);">
<g>
	<rect x="15" y="15" style="fill:none;" width="70" height="70"/>
	<path d="M85,0H15H0v15v70v15h15h70h15V85V15V0H85z M85,85H15V15h70V85z"/>
</g>
</g></g><g transform="translate(432,0) scale(1.68, 1.68)"><g transform="" style="fill: rgb(31, 186, 230);">
<g>
	<rect x="15" y="15" style="fill:none;" width="70" height="70"/>
	<path d="M85,0H15H0v15v70v15h15h70h15V85V15V0H85z M85,85H15V15h70V85z"/>
</g>
</g></g><g transform="translate(0,432) scale(1.68, 1.68)"><g transform="" style="fill: rgb(31, 186, 230);">
<g>
	<rect x="15" y="15" style="fill:none;" width="70" height="70"/>
	<path d="M85,0H15H0v15v70v15h15h70h15V85V15V0H85z M85,85H15V15h70V85z"/>
</g>
</g></g><g transform="translate(48,48) scale(0.72, 0.72)"><g transform="" style="fill: rgb(31, 186, 230);">
<rect width="100" height="100"/>
</g></g><g transform="translate(480,48) scale(0.72, 0.72)"><g transform="" style="fill: rgb(31, 186, 230);">
<rect width="100" height="100"/>
</g></g><g transform="translate(48,480) scale(0.72, 0.72)"><g transform="" style="fill: rgb(31, 186, 230);">
<rect width="100" height="100"/>
</g></g></g></svg>