<svg width="19" height="19" viewBox="0 0 19 19" fill="none" xmlns="http://www.w3.org/2000/svg">
<g clip-path="url(#clip0)">
<path d="M18.5546 11.6212C18.3478 11.358 18.0453 11.1874 17.7132 11.1466C17.381 11.1058 17.0462 11.1982 16.782 11.4035L13.1951 14.1934C13.017 14.3319 12.7977 14.4068 12.5721 14.4062L10.009 14.3995C9.84145 14.3986 9.68115 14.3313 9.56331 14.2122C9.44546 14.0931 9.37974 13.9321 9.38058 13.7646C9.38147 13.5976 9.44842 13.4378 9.56681 13.3201C9.6852 13.2024 9.84539 13.1363 10.0123 13.1364L12.1599 13.1419C12.3258 13.1441 12.4905 13.1136 12.6446 13.0522C12.7987 12.9907 12.9392 12.8995 13.0581 12.7837C13.1769 12.668 13.2718 12.53 13.3373 12.3775C13.4028 12.2251 13.4377 12.0613 13.4399 11.8954C13.4443 11.5603 13.3155 11.2373 13.0817 10.9972C12.848 10.7571 12.5284 10.6197 12.1934 10.6152H12.1665L7.24902 10.6024L6.91701 10.6012C6.23839 10.5996 5.5788 10.8254 5.04347 11.2424L3.28369 12.6137C3.25752 12.6341 3.23564 12.6595 3.21929 12.6884C3.20295 12.7173 3.19245 12.7491 3.1884 12.7821C3.18436 12.8151 3.18685 12.8485 3.19573 12.8805C3.20461 12.9125 3.21971 12.9424 3.24016 12.9686L6.63269 17.2911C6.65597 17.3208 6.68563 17.345 6.7195 17.3617C6.75338 17.3785 6.79059 17.3874 6.82837 17.3878L10.951 17.4373L12.0907 17.451C12.7819 17.4592 13.4551 17.2311 13.9989 16.8043L18.3397 13.3976C18.6035 13.1903 18.7743 12.8869 18.8146 12.5538C18.8549 12.2208 18.7614 11.8853 18.5546 11.6212Z" fill="#278CE9"/>
<path d="M2.24614 13.7482C2.22567 13.7221 2.20025 13.7003 2.17135 13.684C2.14245 13.6677 2.11064 13.6573 2.07771 13.6534C2.04478 13.6494 2.01139 13.6519 1.97946 13.6609C1.94752 13.6698 1.91765 13.685 1.89156 13.7054L1.09657 14.3293C1.04391 14.3707 1.00983 14.4312 1.00182 14.4977C0.993803 14.5642 1.01251 14.6312 1.05383 14.6839L4.36543 18.9035C4.40684 18.9561 4.46745 18.9902 4.53397 18.9982C4.60048 19.0062 4.66746 18.9875 4.72019 18.9462L5.51519 18.3221C5.5413 18.3017 5.56313 18.2763 5.57942 18.2474C5.59571 18.2185 5.60614 18.1867 5.61013 18.1537C5.61412 18.1208 5.61157 18.0874 5.60265 18.0555C5.59373 18.0235 5.5786 17.9937 5.55813 17.9676L2.24614 13.7482Z" fill="#9AC9F4"/>
<path d="M11.2736 4.76512C11.5865 4.76624 11.8965 4.70569 12.186 4.58696C12.4755 4.46824 12.7388 4.29367 12.9608 4.07318C13.1828 3.8527 13.3592 3.59065 13.4799 3.30198C13.6006 3.01331 13.6633 2.70368 13.6643 2.39079C13.6654 2.07789 13.6049 1.76783 13.4862 1.47834C13.3675 1.18884 13.1929 0.925567 12.9724 0.703557C12.7519 0.481547 12.4898 0.305178 12.2012 0.184462C11.9125 0.0637459 11.6029 0.00106731 11.29 2.97982e-05C10.9771 -0.00106335 10.6671 0.0594954 10.3776 0.17823C10.0881 0.296965 9.8249 0.471529 9.60291 0.692012C9.38092 0.912494 9.20454 1.17456 9.08384 1.46322C8.96313 1.75187 8.90047 2.06149 8.89943 2.37436C8.89717 3.00607 9.14591 3.61282 9.59094 4.06116C10.036 4.50949 10.6409 4.76271 11.2726 4.76512H11.2736Z" fill="#278CE9"/>
<path d="M13.4693 6.26454L9.06653 6.24874C8.07109 6.24518 7.26125 7.11239 7.25729 8.1846L7.25531 8.74495C7.24947 8.89574 7.30361 9.04271 7.40589 9.15367C7.50817 9.26462 7.65024 9.33051 7.80101 9.33694L14.7129 9.36167C14.8637 9.35635 15.0063 9.29147 15.1093 9.18125C15.2124 9.07103 15.2676 8.92447 15.2627 8.77364L15.2647 8.2133C15.2685 7.1399 14.4654 6.2681 13.4693 6.26454Z" fill="#9AC9F4"/>
</g>
<defs>
<clipPath id="clip0">
<rect width="19" height="19" fill="white"/>
</clipPath>
</defs>
</svg>
