<svg width="19" height="19" viewBox="0 0 19 19" fill="none" xmlns="http://www.w3.org/2000/svg">
<path fill-rule="evenodd" clip-rule="evenodd" d="M16.644 9.538C16.644 5.57149 13.4285 2.356 9.46201 2.356C5.4955 2.356 2.28001 5.57149 2.28001 9.538C2.28001 13.5045 5.4955 16.72 9.46201 16.72C13.4285 16.72 16.644 13.5045 16.644 9.538ZM9.46201 0.835999C14.268 0.835999 18.164 4.73202 18.164 9.538C18.164 14.344 14.268 18.24 9.46201 18.24C4.65603 18.24 0.76001 14.344 0.76001 9.538C0.76001 4.73202 4.65603 0.835999 9.46201 0.835999Z" fill="#8E9AAE"/>
<path fill-rule="evenodd" clip-rule="evenodd" d="M8.70801 10.4337V5.54195H10.113V9.61802L13.9263 11.9284L13.1908 13.1508L8.70801 10.4337Z" fill="#8E9AAE"/>
</svg>
