<svg width="84" height="117" viewBox="0 0 84 117" fill="none" xmlns="http://www.w3.org/2000/svg">
<g clip-path="url(#clip0_5535_11211)">
<path d="M13.5854 86.5969C11.4939 85.3071 10.3984 82.6353 11.2947 80.1478L12.7887 76.1862C10.5975 74.0672 10.3984 70.7505 12.1911 68.263L13.5854 66.4203V66.144C13.0875 65.8676 12.6891 65.4069 12.2907 65.0384C10.9959 63.38 11.3943 61.0768 13.0875 59.8791L22.0511 53.5221C23.2463 52.6929 24.6406 52.2322 26.1346 52.1401H26.2342C26.9313 52.1401 27.7281 52.2322 28.4253 52.4165C29.9192 52.8772 31.4132 53.5221 32.4091 54.0749C32.5087 54.0749 32.5087 54.167 32.6083 54.167C32.7079 54.167 32.8075 54.2591 32.8075 54.2591C32.9071 54.3512 33.1063 54.3512 33.2059 54.4434C33.3055 54.5355 33.4051 54.5355 33.5047 54.6276C33.5047 54.6276 33.5047 54.6276 33.6043 54.6276C33.7039 54.6276 33.7039 54.7198 33.7039 54.7198C32.7079 51.8637 31.5128 49.2841 30.8156 46.3359C26.3338 28.9232 31.4132 23.6718 35.4966 22.1977C37.4885 21.4606 39.5801 22.6583 39.8788 24.5931C40.9744 31.8714 41.9704 43.2035 49.7389 52.8772C58.6029 63.9328 61.8896 72.501 65.0767 76.5547C68.2638 80.6084 79.3189 84.1094 79.3189 84.1094C90.5733 96.8234 77.6258 116.171 77.6258 116.171C77.6258 116.171 65.4751 108.432 60.8936 108.432C56.3122 108.432 44.9583 108.432 36.9906 105.668C29.0229 102.904 20.2584 97.929 20.2584 97.929L19.362 97.3762C15.9757 97.3762 13.2866 94.8887 13.2866 91.7562L13.7846 87.334L13.5854 86.5969ZM13.0875 76.9232L13.187 76.5547C13.0875 76.4626 12.9879 76.3704 12.8883 76.2783L13.0875 76.9232Z" fill="#F2F2F2"/>
<path d="M79.4186 84.0173C79.4186 84.0173 68.463 80.5163 65.1763 76.4626C61.8896 72.4088 58.7026 63.8407 49.8385 52.785C42.07 43.2035 41.074 31.7793 39.9785 24.501C39.6797 22.5662 37.4886 21.3685 35.5962 22.1056C31.6124 23.5797 26.4334 28.8311 30.9152 46.2438C32.9071 53.7985 37.2894 58.7735 35.3971 71.3033C33.9031 81.1612 44.1615 94.5202 44.1615 94.5202" stroke="#2F80ED" stroke-width="3" stroke-miterlimit="10" stroke-linecap="round" stroke-linejoin="round"/>
<path d="M20.4575 97.8369C20.4575 97.8369 29.222 102.72 37.1897 105.576C45.1574 108.432 56.5114 108.34 61.0928 108.34C65.6742 108.34 77.825 116.079 77.825 116.079" stroke="#2F80ED" stroke-width="3" stroke-miterlimit="10" stroke-linecap="round" stroke-linejoin="round"/>
<path d="M17.7685 68.4472C15.179 67.3416 13.1871 66.144 12.2907 65.0384C10.9959 63.38 11.3943 61.0768 13.0875 59.8791L22.0511 53.5221C23.8438 52.2322 26.3338 51.7716 28.5249 52.4165C31.214 53.2457 33.8035 54.7198 33.8035 54.7198" stroke="#2F80ED" stroke-width="3" stroke-miterlimit="10" stroke-linecap="round" stroke-linejoin="round"/>
<path d="M19.5612 97.3762C16.1749 97.3762 13.4858 94.8887 13.4858 91.7563L13.9838 86.9655" stroke="#2F80ED" stroke-width="3" stroke-miterlimit="10" stroke-linecap="round" stroke-linejoin="round"/>
<path d="M18.3661 78.2131C16.175 78.2131 14.681 77.6603 13.4859 76.8311C10.6972 74.8042 10.1992 71.0269 12.2907 68.263L13.7847 66.2361" stroke="#2F80ED" stroke-width="3" stroke-miterlimit="10" stroke-linecap="round" stroke-linejoin="round"/>
<path d="M16.7725 87.5182C16.5733 87.5182 16.4737 87.5182 16.2745 87.5182C12.4898 87.2419 10.0995 83.5566 11.2947 80.2399L12.7886 76.1862" stroke="#2F80ED" stroke-width="3" stroke-miterlimit="10" stroke-linecap="round" stroke-linejoin="round"/>
<path d="M26.533 67.9866C26.533 67.9866 21.4536 70.8426 16.2746 67.618" stroke="#2F80ED" stroke-width="3" stroke-miterlimit="10" stroke-linecap="round" stroke-linejoin="round"/>
<path d="M26.3337 76.0941C26.3337 76.0941 22.1507 78.7658 16.2745 78.1209" stroke="#2F80ED" stroke-width="3" stroke-miterlimit="10" stroke-linecap="round" stroke-linejoin="round"/>
<path d="M29.3217 82.9117C29.3217 82.9117 26.8317 87.8868 20.4576 87.7946" stroke="#2F80ED" stroke-width="3" stroke-miterlimit="10" stroke-linecap="round" stroke-linejoin="round"/>
<path d="M28.6245 94.0595C28.6245 94.0595 25.1386 98.4818 18.9637 97.2841" stroke="#2F80ED" stroke-width="3" stroke-miterlimit="10" stroke-linecap="round" stroke-linejoin="round"/>
</g>
<path d="M16 15L9 7" stroke="#2F80ED" stroke-width="3" stroke-linecap="round" stroke-linejoin="round"/>
<path d="M8.25311 24.6129L2 21.9398" stroke="#2F80ED" stroke-width="3" stroke-linecap="round" stroke-linejoin="round"/>
<path d="M28.529 10.3712L27.6519 2" stroke="#2F80ED" stroke-width="3" stroke-linecap="round" stroke-linejoin="round"/>
<defs>
<clipPath id="clip0_5535_11211">
<rect width="74" height="96" fill="white" transform="matrix(-1 0 0 1 84 21)"/>
</clipPath>
</defs>
</svg>
