<svg width="17" height="13" viewBox="0 0 17 13" fill="none" xmlns="http://www.w3.org/2000/svg">
<path d="M6.84375 6.86388C7.63834 6.86388 8.40053 6.5512 8.96261 5.99441C9.52471 5.43758 9.84063 4.68222 9.84063 3.89444C9.84063 3.10667 9.52471 2.3513 8.96261 1.79448C8.40053 1.23768 7.63834 0.925 6.84375 0.925C6.04916 0.925 5.28697 1.23768 4.72489 1.79448C4.16279 2.3513 3.84688 3.10667 3.84688 3.89444C3.84688 4.68222 4.16279 5.43758 4.72489 5.99441C5.28697 6.5512 6.04916 6.86388 6.84375 6.86388ZM8.71667 3.89444C8.71667 4.38609 8.51952 4.85775 8.16835 5.20561C7.81717 5.5535 7.34071 5.74907 6.84375 5.74907C6.3468 5.74907 5.87033 5.5535 5.51915 5.20561C5.16798 4.85775 4.97083 4.38609 4.97083 3.89444C4.97083 3.40279 5.16798 2.93114 5.51915 2.58327C5.87033 2.23538 6.3468 2.03981 6.84375 2.03981C7.34071 2.03981 7.81717 2.23538 8.16835 2.58327C8.51952 2.93114 8.71667 3.40279 8.71667 3.89444ZM11.7135 12.5778L11.7136 12.6528H11.7137L11.714 12.6528L11.7148 12.6528L11.7175 12.6527L11.727 12.6525C11.735 12.6522 11.7464 12.6517 11.7607 12.6507C11.7893 12.6487 11.8297 12.6447 11.8779 12.6367C11.9741 12.6208 12.1035 12.5889 12.2338 12.5244C12.3644 12.4597 12.4974 12.3615 12.5975 12.2126C12.6981 12.0633 12.7625 11.8674 12.7625 11.613C12.7625 11.1111 12.5114 10.1269 11.6446 9.26824C10.7756 8.40744 9.29426 7.6787 6.84375 7.6787C4.39324 7.6787 2.91188 8.40744 2.04292 9.26824C1.17612 10.1269 0.925 11.1111 0.925 11.613C0.925 11.8674 0.989446 12.0633 1.08996 12.2126C1.19013 12.3615 1.3231 12.4597 1.45369 12.5244C1.584 12.5889 1.71339 12.6208 1.80956 12.6367C1.85783 12.6447 1.89821 12.6487 1.92682 12.6507C1.94113 12.6517 1.95254 12.6522 1.96055 12.6525L1.96997 12.6527L1.97266 12.6528L1.97349 12.6528L1.97377 12.6528H1.97387L1.97396 12.5778V12.6528H11.7135V12.5778ZM10.8504 10.0569C11.4344 10.6354 11.6059 11.2588 11.6341 11.5341H2.05364C2.08241 11.2584 2.25337 10.6352 2.83707 10.0569C3.45538 9.44443 4.62905 8.79351 6.84375 8.79351C9.05749 8.79351 10.2321 9.44443 10.8504 10.0569Z" fill="#2F80ED" stroke="#2F80ED" stroke-width="0.15"/>
<path d="M12.1111 5.42925L12.1111 5.42927L13.1745 6.48357L15.6987 3.98209C15.6987 3.98208 15.6987 3.98207 15.6988 3.98206C15.751 3.9302 15.813 3.88909 15.8812 3.86105C15.9494 3.83301 16.0225 3.81859 16.0964 3.81859C16.1702 3.81859 16.2433 3.83301 16.3115 3.86105C16.3797 3.8891 16.4418 3.93022 16.494 3.98209C16.5463 4.03381 16.5878 4.09527 16.6162 4.16299C16.6446 4.23076 16.6592 4.30344 16.6592 4.37685C16.6592 4.45027 16.6446 4.52295 16.6162 4.59072C16.5878 4.65846 16.5463 4.71995 16.4939 4.77168L12.1111 5.42925ZM12.1111 5.42925C12.0055 5.32468 11.8625 5.26606 11.7135 5.26606C11.5646 5.26606 11.4215 5.32468 11.316 5.42925C11.2104 5.53384 11.151 5.67585 11.151 5.82408C11.151 5.9723 11.2104 6.11431 11.316 6.2189L12.7769 7.66606C12.7769 7.66608 12.7769 7.6661 12.7769 7.66612C12.8291 7.71797 12.8911 7.75906 12.9593 7.7871C13.0275 7.81514 13.1007 7.82957 13.1745 7.82957C13.2483 7.82957 13.3214 7.81514 13.3896 7.7871C13.4578 7.75906 13.5198 7.71797 13.572 7.66612C13.5721 7.6661 13.5721 7.66608 13.5721 7.66606L16.4939 4.77175L12.1111 5.42925Z" fill="#2F80ED" stroke="#2F80ED" stroke-width="0.15"/>
</svg>
